<svg width="234" height="333" xmlns="http://www.w3.org/2000/svg">
    <defs>
        <clipPath id="clipPath2639">
            <path id="rect2641" fill="#000000" stroke="none" d="M 25.474392 -1.5972888 L 711.8756 -1.5972888 C 719.4134 -1.5972918 726.6426 1.396176 731.9726 6.724586 C 737.3027 12.052996 740.29706 19.279871 740.29706 26.815384 L 740.29706 1025.234 C 740.29706 1032.7695 737.3027 1039.9965 731.9726 1045.3248 C 726.6426 1050.6532 719.4134 1053.6467 711.8756 1053.6467 L 25.474392 1053.6467 C 17.93655 1053.6467 10.707438 1050.6532 5.3773837 1045.3248 C 0.04732919 1039.9965 -2.9470575 1032.7695 -2.9470444 1025.234 L -2.9470444 26.815384 C -2.947045 11.123497 9.777666 -1.597289 25.474392 -1.5972888 Z"/>
        </clipPath>
    </defs>
    <g id="layer1" transform="matrix(1 0 0 1 -0.00000158 -719.3622)">
        <g id="g2664" transform="matrix(0.314836 0 0 0.3155668 0.9278374 719.8662)">
            <g id="g2631" clip-path="url(#clipPath2639)">
                <path id="rect3129" fill="#b4d9ed" stroke="none" d="M -11.015009 -37.755955 L 745.0963 -37.755955 L 745.0963 506.92535 L -11.015009 506.92535 Z"/>
                <path id="path3091" fill="#437a9f" stroke="none" d="M 761.7804 944.1576 L -29.55229 493.95163 C 239.22845 503.9088 491.4356 481.57013 759.96124 497.65698 Z"/>
                <path id="path3093" fill="#a493a4" stroke="none" d="M -27.693937 473.57748 L 763.6285 1060.8699 L 391.13245 1057.1646 Z"/>
                <path id="path3095" fill="#267834" stroke="none" d="M -25.840721 462.46155 L 411.5178 1057.1646 L -20.281078 1059.0173 Z"/>
                <path id="path3097" fill="#6ea221" stroke="none" d="M -20.281078 473.57748 L 426.3435 1062.7225 L 342.94888 1057.1646 L -16.574652 484.69345 L 265.1139 1053.4594 L 198.39818 1055.3119 Z"/>
                <path id="path3099" fill="#f7d042" stroke="none" d="M 758.06885 1068.2805 L 758.06885 944.15247 L -27.693937 477.2828 Z"/>
                <path id="path3103" fill="#f3eee7" stroke="none" d="M 752.5093 820.0244 L -25.840721 479.13547 L 750.656 842.2563 Z"/>
                <path id="path3101" fill="#f8f3d1" stroke="none" d="M 752.5093 951.5632 L -31.400364 477.2828 L 752.5093 910.8047 Z"/>
                <path id="path3105" fill="#f3eee7" stroke="none" d="M 746.9495 881.16205 L -23.987507 482.8408 L 748.8028 870.0461 Z"/>
                <path id="path3125" fill="#bfb08e" stroke="none" d="M 244.72853 410.58713 L 367.04068 349.44943 L 650.5824 432.81903 L 567.1878 493.9567 L 278.0864 493.9567 Z"/>
                <path id="path3127" fill="#b9a375" stroke="none" d="M 265.1139 449.49295 L 333.68283 414.29245 L 337.38922 429.1137 L 376.30673 410.58713 L 392.98563 449.49295 L 413.37097 408.73447 L 441.16922 449.49295 L 502.3253 423.55573 L 507.88495 445.78763 L 574.60065 469.87216 L 574.60065 499.5147 L 291.0589 495.8094 Z"/>
                <path id="path3115" fill="#a58240" stroke="none" d="M -23.987507 199.38419 L 239.16888 332.77554 L 307.73782 503.22003 L -18.427864 495.8094 Z"/>
                <path id="path3121" fill="#b79f6f" stroke="none" d="M 756.21564 497.66205 L 502.3253 497.66205 L 746.9495 371.68134 L 748.8028 493.9567 Z"/>
                <path id="path3113" fill="#f70000" stroke="none" d="M 70.67949 571.7867 L 546.8349 1018.3383 C 572.31854 1015.8876 574.99054 995.78766 569.34717 969.25415 Z"/>
                <path id="path3111" fill="#f8eef2" stroke="none" d="M 70.62523 571.72797 L 478.77408 1005.5398 C 500.73773 1003.0314 503.1308 983.39545 498.38986 957.5161 Z"/>
                <path id="path3107" fill="#0000ff" stroke="none" d="M 70.560356 571.6578 L 410.46036 981.8462 C 428.86603 979.36646 430.95737 960.7073 427.10168 936.1503 Z"/>
                <path id="path3117" fill="#5c772e" stroke="none" d="M -12.868223 208.64748 L 235.46248 329.07022 L 248.43498 358.71274 L 176.1596 351.3021 L 152.06783 319.80692 L 42.728203 292.01706 L -16.574652 253.11125 Z"/>
                <path id="path3119" fill="#58762c" stroke="none" d="M -11.102332 495.8094 L -9.237568 412.4398 L 41.111084 401.32388 L 61.623505 438.37698 L 69.08256 353.15475 L 93.32449 419.85043 L 102.64833 417.99774 L 104.51308 375.38666 L 125.02551 438.37698 L 166.05032 432.81903 L 169.77986 410.58713 L 195.88657 442.0823 L 214.53423 434.6717 L 214.53423 369.82867 L 240.64091 445.78763 L 304.1187 501.54193 Z"/>
                <path id="path3123" fill="#a3833d" stroke="none" d="M 499.55032 499.44678 L 620.93097 436.52432 L 611.6649 458.75623 L 685.7935 429.1137 L 665.40814 473.57748 L 676.5274 473.57748 L 689.49994 455.0509 L 691.3531 475.43015 L 722.85785 436.52432 L 732.1239 447.6403 L 746.9495 423.55573 L 748.8028 497.66205 Z"/>
                <path id="path3901" fill="none" stroke="#d45500" stroke-width="16.867506" d="M -9.578868 498.8114 L 314.20715 503.78696 L 314.20715 496.74585 L 525.7263 496.74585 L 518.10406 501.43994 L 758.20685 501.43994"/>
            </g>
        </g>
    </g>
</svg>
