<svg width="234" height="333" xmlns="http://www.w3.org/2000/svg">
    <defs>
        <linearGradient id="linearGradient3277" x1="350.52" y1="4.2886" x2="331.03" y2="91.162" gradientUnits="userSpaceOnUse" gradientTransform="matrix(1 0 0 1 4.0406 -5.0508)">
            <stop offset="0" stop-color="#000000"/>
            <stop offset="1" stop-color="#000000" stop-opacity="0"/>
        </linearGradient>
        <radialGradient id="radialGradient3267" cx="149.65" cy="280.97" r="56.071" fx="149.65" fy="280.97" gradientUnits="userSpaceOnUse" gradientTransform="matrix(0.74729 -1.5779574 -0.791 -0.3746045 -19.608364 635.6093)">
            <stop offset="0" stop-color="#000000"/>
            <stop offset="1" stop-color="#000000" stop-opacity="0"/>
        </radialGradient>
        <radialGradient id="radialGradient3269" cx="213.7" cy="320.9" r="79.727" fx="213.7" fy="320.9" gradientUnits="userSpaceOnUse" gradientTransform="matrix(-1.0591 -0.62553 -0.36045 0.61028 155.55334 255.33)">
            <stop offset="0" stop-color="#000000" stop-opacity="0.41298"/>
            <stop offset="1" stop-color="#000000" stop-opacity="0"/>
        </radialGradient>
        <radialGradient id="radialGradient3271" cx="205.71" cy="305.79" r="35.677" fx="205.71" fy="305.79" gradientUnits="userSpaceOnUse" gradientTransform="matrix(0.96791 0.17792 -0.1111 0.60438 40.572 84.896)">
            <stop offset="0" stop-color="#ffffff"/>
            <stop offset="1" stop-color="#ffffff" stop-opacity="0"/>
        </radialGradient>
        <radialGradient id="radialGradient3273" cx="136.53" cy="258.91" r="17.93" fx="136.53" fy="258.91" gradientUnits="userSpaceOnUse" gradientTransform="matrix(2.0736 1.8562 -0.78579 0.87781 60.101 -217.82002)">
            <stop offset="0" stop-color="#ffffff"/>
            <stop offset="1" stop-color="#ffffff" stop-opacity="0"/>
        </radialGradient>
        <radialGradient id="radialGradient3275" cx="130.31" cy="243.15" r="11.495" fx="130.31" fy="243.15" gradientUnits="userSpaceOnUse" gradientTransform="matrix(-0.65031 -0.82653 -0.69371 0.54581 147.37334 220.04)">
            <stop offset="0" stop-color="#ffffff"/>
            <stop offset="1" stop-color="#ffffff" stop-opacity="0"/>
        </radialGradient>
        <filter id="filter3450" x="182.5743" y="216.70326" width="546.2484" height="517.1593" filterUnits="userSpaceOnUse">
            <feGaussianBlur color-interpolation-filters="sRGB" in="SourceGraphic" stdDeviation="1.1077024 1.1077024" result="result1"/>
        </filter>
        <filter id="filter3320" x="423.83002" y="623.94244" width="202.17603" height="88.26935" filterUnits="userSpaceOnUse">
            <feGaussianBlur color-interpolation-filters="sRGB" in="SourceGraphic" stdDeviation="0.605091 0.605091" result="result1"/>
        </filter>
        <filter id="filter3293" x="425.4365" y="623.6242" width="177.28201" height="74.578674" filterUnits="userSpaceOnUse">
            <feGaussianBlur color-interpolation-filters="sRGB" in="SourceGraphic" stdDeviation="0.78138095 0.78138095" result="result1"/>
        </filter>
        <filter id="filter3374" x="565.3013" y="323.22424" width="29.811768" height="47.361237" filterUnits="userSpaceOnUse">
            <feGaussianBlur color-interpolation-filters="sRGB" in="SourceGraphic" stdDeviation="1.5568902 1.5568902" result="result1"/>
        </filter>
        <filter id="filter3241" x="120.838974" y="263.686" width="8.826813" height="63.746155" filterUnits="userSpaceOnUse">
            <feGaussianBlur color-interpolation-filters="sRGB" in="SourceGraphic" stdDeviation="0.34422165 0.34422165" result="result1"/>
        </filter>
        <filter id="filter3237" x="133.911" y="105.2156" width="21.582077" height="148.80307" filterUnits="userSpaceOnUse">
            <feGaussianBlur color-interpolation-filters="sRGB" in="SourceGraphic" stdDeviation="0.812919 0.812919" result="result1"/>
        </filter>
        <filter id="filter3247" x="120.60428" y="128.95224" width="18.428635" height="133.28592" filterUnits="userSpaceOnUse">
            <feGaussianBlur color-interpolation-filters="sRGB" in="SourceGraphic" stdDeviation="0.63214284 0.63214284" result="result1"/>
        </filter>
        <filter id="filter3253" x="135.2496" y="260.626" width="7.1309814" height="66.5708" filterUnits="userSpaceOnUse">
            <feGaussianBlur color-interpolation-filters="sRGB" in="SourceGraphic" stdDeviation="0.34710875 0.34710875" result="result1"/>
        </filter>
        <filter id="filter3385" x="186.89238" y="214.54" width="17.490067" height="46.901016" filterUnits="userSpaceOnUse">
            <feGaussianBlur color-interpolation-filters="sRGB" in="SourceGraphic" stdDeviation="0.95862967 0.95862967" result="result1"/>
        </filter>
        <filter id="filter3413" x="189.97838" y="180.8172" width="5.156479" height="34.7312" filterUnits="userSpaceOnUse">
            <feGaussianBlur color-interpolation-filters="sRGB" in="SourceGraphic" stdDeviation="0.483004 0.483004" result="result1"/>
        </filter>
        <filter id="filter3477" x="190.7358" y="179.18279" width="4.885666" height="5.618927" filterUnits="userSpaceOnUse">
            <feGaussianBlur color-interpolation-filters="sRGB" in="SourceGraphic" stdDeviation="0.3048028 0.3048028" result="result1"/>
        </filter>
        <filter id="filter3483" x="200.83705" y="310.13605" width="26.927505" height="61.36728" filterUnits="userSpaceOnUse">
            <feGaussianBlur color-interpolation-filters="sRGB" in="SourceGraphic" stdDeviation="0.3586042 0.3586042" result="result1"/>
        </filter>
        <filter id="filter3489" x="169.28532" y="123.50365" width="18.885162" height="189.55031" filterUnits="userSpaceOnUse">
            <feGaussianBlur color-interpolation-filters="sRGB" in="SourceGraphic" stdDeviation="0.9637091 0.9637091" result="result1"/>
        </filter>
        <filter id="filter3495" x="184.5" y="312.4489" width="34.548004" height="66.973206" filterUnits="userSpaceOnUse">
            <feGaussianBlur color-interpolation-filters="sRGB" in="SourceGraphic" stdDeviation="0.42300135 0.42300135" result="result1"/>
        </filter>
        <filter id="filter3501" x="277.24725" y="152.57024" width="26.352936" height="198.07219" filterUnits="userSpaceOnUse">
            <feGaussianBlur color-interpolation-filters="sRGB" in="SourceGraphic" stdDeviation="1.0707617 1.0707617" result="result1"/>
        </filter>
        <filter id="filter3507" x="-7.8842" y="164.53821" width="149.1" height="135.7656" filterUnits="userSpaceOnUse">
            <feGaussianBlur color-interpolation-filters="sRGB" in="SourceGraphic" stdDeviation="0.734886 0.734886" result="result1"/>
        </filter>
        <filter id="filter3577" x="397.02917" y="205.75494" width="13.922913" height="40.605957" filterUnits="userSpaceOnUse">
            <feGaussianBlur color-interpolation-filters="sRGB" in="SourceGraphic" stdDeviation="1.0800138 1.0800138" result="result1"/>
        </filter>
        <filter id="filter3252" x="-34.110615" y="-38.808918" width="499.2914" height="513.31104" filterUnits="userSpaceOnUse">
            <feGaussianBlur color-interpolation-filters="sRGB" in="SourceGraphic" stdDeviation="1.3015147 1.3015147" result="result1"/>
        </filter>
        <filter id="filter3276" x="192.18344" y="270.72134" width="76.681915" height="69.22458" filterUnits="userSpaceOnUse">
            <feGaussianBlur color-interpolation-filters="sRGB" in="SourceGraphic" stdDeviation="0.911912 0.911912" result="result1"/>
        </filter>
        <filter id="filter3291" x="110.81371" y="234.81958" width="43.032524" height="43.94165" filterUnits="userSpaceOnUse">
            <feGaussianBlur color-interpolation-filters="sRGB" in="SourceGraphic" stdDeviation="0.5322241 0.5322241" result="result1"/>
        </filter>
        <filter id="filter3279" x="122.66017" y="262.3601" width="16.641022" height="7.8038635" filterUnits="userSpaceOnUse">
            <feGaussianBlur color-interpolation-filters="sRGB" in="SourceGraphic" stdDeviation="0.3791093 0.3791093" result="result1"/>
        </filter>
        <filter id="filter3476" x="128.2019" y="259.28308" width="12.708862" height="7.5755005" filterUnits="userSpaceOnUse">
            <feGaussianBlur color-interpolation-filters="sRGB" in="SourceGraphic" stdDeviation="0.38457078 0.38457078" result="result1"/>
        </filter>
        <filter id="filter3283" x="139.08313" y="250.3213" width="8.362488" height="13.940414" filterUnits="userSpaceOnUse">
            <feGaussianBlur color-interpolation-filters="sRGB" in="SourceGraphic" stdDeviation="0.085171334 0.085171334" result="result1"/>
        </filter>
        <filter id="filter3294" x="114.15044" y="244.34676" width="9.290016" height="26.15767" filterUnits="userSpaceOnUse">
            <feGaussianBlur color-interpolation-filters="sRGB" in="SourceGraphic" stdDeviation="0.71469474 0.71469474" result="result1"/>
        </filter>
        <filter id="filter3984" x="172.6662" y="-4.607929" width="243.28564" height="126.89447" filterUnits="userSpaceOnUse">
            <feGaussianBlur color-interpolation-filters="sRGB" in="SourceGraphic" stdDeviation="4.3652883 4.3652883" result="result1"/>
        </filter>
    </defs>
    <g transform="matrix(0.99999994 0 0 0.99999994 0 0.00001526)">
        <g id="layer3" transform="matrix(1 0 0 1 2.658501 -113.5097)">
            <g id="g3610" transform="matrix(0.31382063 0 0 0.31484932 -82.53121 223.08638)">
                <path id="rect4266" fill="#0066ff" stroke="#0066ff" stroke-width="2.40478" d="M 284.1409 -346.8266 L 970.5421 -346.8266 C 986.23883 -346.8266 998.9635 -334.10583 998.9635 -318.41394 L 998.9635 680.00476 C 998.9635 695.69666 986.23883 708.4175 970.5421 708.4175 L 284.1409 708.4175 C 268.44418 708.4175 255.71947 695.69666 255.71947 680.00476 L 255.71947 -318.41394 C 255.71947 -334.1058 268.44418 -346.8266 284.1409 -346.8266 Z"/>
                <g id="g3572" transform="matrix(1.2545842 -0.06188151 0.06173567 1.257548 870.6355 -117.36533)">
                    <g filter="url(#filter3450)" transform="matrix(-1 0 0 1 252.36334 -259.8)">
                        <path id="path2383" fill="#ececec" fill-rule="evenodd" stroke="none" d="M 228.10002 548.74 C 271.096 542.3785 297.96 529.721 315.746 513.07 C 326.122 486.882 337.289 481.045 348.066 456.273 C 371.01004 382.18497 368.062 288.183 602.066 260.063 C 641.279 255.3514 615.802 313.463 626.887 470.693 C 645.367 458.753 651.561 424.697 661.192 396.829 C 641.451 486.85297 633.383 486.83902 683.302 574.399 C 666.431 554.189 663.874 532.388 631.553 513.894 C 638.8721 608.2 663.889 685.364 645.369 688.264 C 554.259 702.53394 572.839 651.374 499.569 645.304 C 434.419 639.914 417.039 633.964 385.319 605.594 C 305.169 588.484 367.43903 552.304 229.819 561.304 C 236.18112 554.1427 250.741 557.8995 249.868 552.2877 C 248.9953 546.6733 234.281 555.4618 228.095 548.7433 Z"/>
                    </g>
                    <g filter="url(#filter3320)" transform="matrix(-1 0 0 1 252.36334 -259.8)">
                        <path id="path2385" fill="#ffffff" fill-rule="evenodd" stroke="none" d="M 440.68 636.51 C 449.4878 634.6975 449.92236 636.25696 451.59204 631.2982 C 469.089 635.5214 483.204 639.2844 510.677 639.48 C 549.489 642.8097 558.952 675.575 609.158 704.85596 C 545.534 675.305 472.21796 722.736 440.67798 636.51 Z"/>
                    </g>
                    <g filter="url(#filter3293)" transform="matrix(-1 0 0 1 252.36334 -259.8)">
                        <path id="path3283" fill="#fdb000" fill-rule="evenodd" stroke="none" d="M 440.21 635.9 C 446.3013 635.51086 450.653 634.2388 450.059 629.8391 C 464.49 654.3701 510.87 670.1051 552.089 691.7111 C 517.667 690.6774 464.116 702.96704 440.219 635.9001 Z M 495.263 639.9406 C 542.318 633.5898 555.36 665.4826 587.945 690.9536 C 537.309 672.4006 526.027 645.4306 495.263 639.9406 Z"/>
                    </g>
                    <g filter="url(#filter3374)" transform="matrix(-1 0 0 1 252.36334 -259.8)">
                        <path id="path3324" fill="#000000" fill-rule="evenodd" stroke="none" d="M 579.66 366.53 C 574.1496 362.20712 574.9395 360.9171 573.8246 358.4548 C 572.559 355.6595 570.5152 353.8443 569.3028 347.9588 C 567.6822 340.0914 575.6473 324.0788 583.5668 327.3618 C 600.5428 334.3993 585.1703 370.8528 579.6599 366.5298 Z"/>
                    </g>
                    <g filter="url(#filter3241)" transform="matrix(-1 0 0 1 24.263336 0)">
                        <path id="path3510" fill="#000000" stroke="none" d="M 123.87 264.51 C 123.7987 265.36035 122.96868 266.3096 122.87941 267.5322 C 122.82559 268.26932 123.09277 269.1862 123.05999 269.6085 C 122.52731 276.4698 122.57086 278.0028 124.475395 285.9465 C 124.93938 298.1295 124.72063 306.5075 128.78049 326.6105 C 125.33069 314.9625 123.74399 302.4815 122.76619 290.6155 C 122.280174 282.5503 120.72989 277.4665 122.68959 269.5505 C 122.81398 269.04807 122.5704 268.153 122.65738 267.4188 C 122.79562 266.2514 123.74509 265.3283 123.86998 264.51 Z"/>
                    </g>
                    <g filter="url(#filter3237)" transform="matrix(-1 0 0 1 24.263336 0)">
                        <path id="path3227" fill="#000000" fill-rule="evenodd" stroke="none" d="M 143.52 252.07 L 135.862 246.241 L 141.4205 243.7896 C 141.4205 243.7896 138.6449 234.4823 138.5866 229.9306 C 138.5267 225.25769 142.2609 220.50119 142.5073 215.83461 C 142.73914 211.44261 138.751 204.7626 138.9258 200.3686 C 139.1289 195.26282 141.6416 188.7626 142.2215 183.6856 C 143.2283 174.8707 141.48045 163.2326 141.6731 154.1386 C 143.8731 139.8586 153.54208 107.16661 153.54208 107.16661 C 153.54208 107.16661 145.09949 140.4586 143.1881 154.6436 C 143.26529 164.0061 145.75319 175.8866 144.74669 184.9486 C 144.23074 189.5934 141.52078 195.4436 141.45099 200.1166 C 141.3736 205.29892 144.2963 210.72061 143.94308 215.8916 C 143.64005 220.328 141.86398 226.2496 141.6169 230.6896 C 141.35316 235.4281 144.19829 245.3066 144.19829 245.3066 L 140.91528 246.06422 L 143.5199 252.07172 Z"/>
                    </g>
                    <g filter="url(#filter3247)" transform="matrix(-1 0 0 1 24.263336 0)">
                        <path id="path3245" fill="#000000" fill-rule="evenodd" stroke="none" d="M 124.64 251.13 L 122.14 247.91571 L 125.7114 237.5587 L 130.009 204.9157 L 129.9127 198.371 L 131.2321 191.06238 L 137.4972 140.0594 L 132.1442 191.1014 L 130.9189 198.75871 L 131.13486 205.2896 L 127.49716 237.20262 L 123.56856 247.5596 L 124.63996 251.131 Z"/>
                    </g>
                    <g filter="url(#filter3253)" transform="matrix(-1 0 0 1 24.263336 0)">
                        <path id="path3251" fill="#000000" fill-rule="evenodd" stroke="none" d="M 141.42 261.46 L 137.1269 266.2582 C 141.0589 268.8678 139.1377 271.4773 137.8845 274.0869 C 134.0424 289.2179 137.9948 308.9949 138.13705 326.3619 C 138.51059 308.6709 137.8265 292.5669 139.39975 273.0759 C 141.66045 270.5523 141.60056 268.3601 139.14722 266.5099 L 141.42001 261.4591 Z"/>
                    </g>
                    <g filter="url(#filter3385)" transform="matrix(-0.63417 0 0 0.66498 -47.396664 89.005)">
                        <path id="path3257" fill="#000000" fill-rule="evenodd" stroke="none" d="M 197.89001 258.84 C 207.36992 253.5539 196.96414 253.8346 194.72911 244.765 C 192.5249 235.8206 196.74762 221.027 193.92557 216.845 C 185.05496 228.32498 191.02278 262.669 197.89008 258.84 Z"/>
                    </g>
                    <g filter="url(#filter3413)" transform="matrix(-1.0305 -0.037137 -0.046205 0.60666 39.208336 107.68)">
                        <path id="path3259" fill="#000000" fill-rule="evenodd" stroke="none" d="M 193.93 214.42998 C 190.2301 215.5022 189.5326 194.64398 193.80394 181.895 C 194.13303 188.3441 191.02583 196.326 192.09013 203.775 C 192.95116 209.8015 195.02904 214.111 193.93004 214.42998 Z"/>
                    </g>
                    <g filter="url(#filter3477)" transform="matrix(-0.52038 0 0 0.69616 -68.77167 80.327)">
                        <path id="path3261" fill="#000000" fill-rule="evenodd" stroke="none" d="M 193.51 184.07 C 190.8089 182.5803 190.613 182.7506 193.97176 179.9143 C 194.94672 182.0572 195.59615 182.4323 193.51 184.07 Z"/>
                    </g>
                    <g filter="url(#filter3483)" transform="matrix(-1 0 0 1 24.263336 0)">
                        <path id="path3481" fill="#000000" fill-rule="evenodd" stroke="none" d="M 207.59 315.25 C 205.6978 317.2099 203.3751 318.3742 203.1056 321.7574 C 202.40678 330.5309 216.7646 354.7744 225.5206 366.3894 C 217.38292 351.96143 206.1986 337.2724 205.7486 322.0994 L 207.5903 315.2502 Z"/>
                    </g>
                    <g filter="url(#filter3489)" transform="matrix(-1 0 0 1 24.263336 0)">
                        <path id="path3487" fill="#000000" fill-rule="evenodd" stroke="none" d="M 185.36 310.71 C 180.802 299.633 175.9162 285.348 175.9615 272.775 C 166.4043 237.682 177.2646 171.705 179.8041 125.855 C 178.3875 174.54402 169.6921 236.995 177.9849 272.045 C 178.10059 283.965 181.84589 298.789 185.3599 310.709 Z"/>
                    </g>
                    <g filter="url(#filter3495)" transform="matrix(-1 0 0 1 24.263336 0)">
                        <path id="path3493" fill="#000000" fill-rule="evenodd" stroke="none" d="M 187.38 318.03 C 189.2669 340.834 193.4757 340.472 198.101 349.537 C 203.4395 360.001 199.98799 361.23502 216.169 373.84103 C 201.157 360.349 203.423 357.062 199.12602 348.65 C 193.9042 338.428 190.41971 339.9781 187.379 318.03 Z"/>
                    </g>
                    <g filter="url(#filter3501)" transform="matrix(-1 0 0 1 24.263336 0)">
                        <path id="path3499" fill="#000000" fill-rule="evenodd" stroke="none" d="M 301.03 348.08002 C 276.071 283.613 297.625 229.51 279.817 155.14 C 299.457 229.175 279.7248 280.03 301.03 348.08002 Z"/>
                    </g>
                    <g filter="url(#filter3507)" transform="matrix(-1 0 0 1 24.263336 0)">
                        <path id="path3505" fill="#000000" fill-rule="evenodd" stroke="none" d="M 4.5457 288.99 C 35.3457 283.4 66.6257 278.98 89.5877 254.45 C 97.6047 236.73 109.1997 217.81 121.7197 198.58 L 128.7908 175.852 L 122.2248 198.89601 C 110.3748 217.416 98.69881 235.946 90.1508 254.63602 C 64.7538 279.996 34.5108 283.886 4.5408 288.986 Z"/>
                    </g>
                    <g filter="url(#filter3577)" transform="matrix(-1 0 0 1 24.263336 0)">
                        <path id="path3511" fill="#000000" fill-rule="evenodd" stroke="none" d="M 401.78998 209.19002 C 407.906 207.21562 406.6244 234.18602 404.06284 243.03 C 404.52087 228.037 405.2477 213.61198 401.78998 209.19002 Z"/>
                    </g>
                    <g filter="url(#filter3252)" transform="matrix(-1 0 0 1 24.263336 0)">
                        <path id="path3161" fill="#fd9400" fill-rule="evenodd" stroke="none" d="M 356.19 3.9688 C 356.19 3.9688098 328.424 6.0439 316.909 8.9688 C 308.8866 11.0065 296.308 17.424 288.347 19.6878 C 282.6872 21.2969 277.541 20.8577 271.909 22.562801 C 249.12398 26.701498 219.67 41.4738 210.12802 47.5628 C 199.343 54.4456 189.86198 58.047802 182.628 69.6878 C 171.24 88.0128 182.83241 102.2318 180.6592 129.9998 C 178.9534 151.7958 173.1638 181.69278 174.0654 208.2498 C 174.62082 242.4558 167.3012 276.3988 186.9094 314.6898 C 186.9787 325.4558 196.054 352.7928 208.3474 368.25177 C 217.7685 377.7397 226.7644 378.9978 230.4724 373.2518 C 217.0514 355.25778 206.0544 338.8068 205.9414 317.1578 C 210.6233 312.85 209.8398 306.6178 201.1914 299.6888 C 201.1914 299.68878 193.13902 243.68782 193.34761 208.2508 C 193.5067 181.2298 191.782 153.9328 194.9414 133.2818 C 199.1498 105.77481 195.07446 77.7788 193.34761 67.9378 C 198.7455 62.5014 205.23659 56.3098 208.34758 54.6878 C 214.29909 51.585205 223.68059 51.1074 229.75362 48.2503 C 236.74481 44.9613 244.1566 37.1643 251.1916 33.9693 C 260.2703 29.845 272.7346 27.7243 283.6606 25.1568 C 280.2654 27.151 276.9413 29.5731 271.9416 31.844297 C 263.0297 35.8928 263.8711 44.4503 258.4726 54.7193 C 243.85762 82.5193 261.4355 142.3193 263.3476 201.1293 C 265.4321 265.2363 269.5881 322.9493 287.9726 378.2493 C 293.5849 390.3463 297.9916 393.3683 301.8786 392.49927 C 341.5176 410.27332 339.8016 441.7083 417.1586 428.62427 C 421.1216 426.7202 424.88986 419.8262 423.1274 420.1868 C 350.50342 435.04584 346.7814 407.4428 309.7874 384.4988 C 299.9283 337.3538 289.0924 319.0168 290.4754 296.1238 C 292.1615 268.1988 286.9129 199.6868 286.9129 199.68582 C 269.8819 90.4258 252.7319 34.6358 316.9129 14.6858 L 302.1629 19.1233 C 305.5294 17.7241 308.9254 16.3111 311.9129 15.4045 C 318.4296 13.427 327.4749 12.1046 334.0689 10.4045 C 340.767 8.6776 356.1939 3.967 356.1939 3.967 Z M 369.409 6.5938005 C 351.35104 6.75213 327.936 14.044299 315.471 15.406301 C 313.5834 18.9525 334.863 19.7605 333.533 23.562502 C 327.216 41.6295 326.8827 62.4675 329.6892 84.7185 C 346.9612 118.1895 338.5053 153.5655 361.90817 230.4085 C 371.6701 289.2185 341.4512 336.5985 379.0642 404.68854 C 377.18637 419.0825 370.12424 409.2737 364.7522 409.6885 C 370.5862 415.7223 404.75217 426.2115 418.3462 409.71982 C 424.3533 394.42578 406.66217 305.6398 400.4712 249.6898 C 391.9315 294.3788 409.6017 392.9698 395.47116 391.1298 C 381.3407 389.28976 382.62122 229.68979 382.62122 229.68979 C 378.3712 196.8498 352.4212 152.2098 361.3412 111.8398 C 373.40125 90.6228 381.97122 85.3758 388.2512 68.3748 C 397.2928 91.6848 387.30087 188.6848 396.4074 205.4348 C 393.4174 150.9248 392.67743 99.82479 393.4974 51.0248 L 392.6224 16.8368 C 389.14963 8.9743 380.2384 6.4918 369.4034 6.5868 Z M 353.565 63.0938 C 353.79834 63.08301 354.01807 63.082428 354.2525 63.0938 C 363.2193 63.52865 369.1255 78.8388 367.78354 88.8438 C 364.8009 100.4558 355.6645 114.80979 347.15854 112.6248 C 342.7872 111.502 341.7877 104.5613 340.0023 99.843796 C 338.3134 95.3813 335.6775 89.7068 337.1273 84.0628 C 339.6555 74.2202 346.3312 63.4288 353.56534 63.0938 Z M 161.905 93.2498 C 155.7058 97.0244 140.466 125.6258 139.061 136.1248 C 136.3313 156.5318 132.3545 179.3258 129.3954 203.27982 C 126.38321 227.6638 124.7008 246.9958 122.6235 267.5618 C 120.87871 284.8368 128.5096 327.4258 128.5096 327.4258 C 129.41054 336.6712 136.7527 337.5108 138.8006 331.707 C 140.3158 327.4138 136.283 291.657 139.0606 275.405 C 144.16739 245.525 141.36339 191.932 143.4356 152.435 C 144.7956 126.485 161.9056 93.255 161.9056 93.255 Z M 129.025 168.9998 C 124.525 180.2198 125.115005 191.09981 119.995 199.08981 C 101.765 229.2798 90.93099 244.4498 88.80701 250.9098 C 86.11 266.4998 21.852999 290.8298 7.497 288.2998 C 14.946001 292.6498 79.923 272.0598 90.089005 251.9998 C 95.2676 242.27 106.03 225.8298 120.714 200.2498 C 126.7085 191.86499 125.9326 179.72078 129.0265 168.9998 Z"/>
                    </g>
                    <g opacity="0.3">
                        <path id="path2398" fill="url(#radialGradient3267)" stroke="none" d="M -176.45236 280.06082 C -175.02234 305.24896 -157.98236 327.9147 -124.66236 327.9147 C -91.34537 327.9147 -52.162365 295.96072 -52.162365 263.6297 C -52.162365 231.29868 -79.20236 205.0588 -112.51936 205.0588 C -145.83636 205.0588 -176.44836 247.72713 -176.44836 280.05814 Z"/>
                    </g>
                    <g opacity="0.70845">
                        <path id="path3218" fill="url(#radialGradient3269)" fill-rule="evenodd" stroke="none" d="M -134.30666 344.34 C -294.08667 472.92 -376.31665 222.37 -169.30666 243.63 C -174.13255 310.179 -187.36266 291.152 -134.30666 344.34 Z"/>
                    </g>
                    <g filter="url(#filter3276)" transform="matrix(-1 0 0 1 24.263336 0)">
                        <path id="path3228" fill="url(#radialGradient3271)" fill-rule="evenodd" stroke="none" d="M 204.02 319.79 C 278.572 375.973 287.149 246.993 198.5736 282.915 C 200.3247 312.673 218.2936 304.98 204.02 319.79 Z"/>
                    </g>
                    <g filter="url(#filter3291)" opacity="0.41300002" transform="matrix(-1 0 0 1 24.263336 0)">
                        <path id="path3285" fill="url(#radialGradient3273)" stroke="none" d="M 150.2602 256.7904 C 150.2602 266.9022 142.23257 275.09943 132.32999 275.09943 C 122.4274 275.09943 114.39977 266.9022 114.39979 256.7904 C 114.39977 246.6786 122.4274 238.48138 132.32999 238.48138 C 142.23257 238.48138 150.2602 246.6786 150.2602 256.7904 Z"/>
                    </g>
                    <path id="path3454" fill="#d58400" stroke="none" d="M -118.06195 257.46912 C -118.06195 263.137 -113.54193 267.73706 -107.97274 267.73706 C -102.40348 267.73706 -97.08017 263.07993 -97.883545 257.46912 C -98.5361 252.90996 -103.22887 248.83728 -107.97274 247.20117 C -113.23773 245.38542 -118.06195 251.80115 -118.06195 257.46912 Z"/>
                    <path id="path3317" fill="#000000" stroke="none" d="M -116.52666 257.36 C -116.52666 261.9254 -112.70826 265.6306 -108.00346 265.6306 C -103.29866 265.6306 -98.52116 261.8235 -99.480255 257.36 C -100.23228 253.8603 -103.40106 250.62892 -108.00346 249.08939 C -112.46526 247.5969 -116.52666 252.79459 -116.52666 257.36 Z"/>
                    <g filter="url(#filter3279)" transform="matrix(-1 0 0 1 24.263336 0)">
                        <path id="path3456" fill="#ff3e00" fill-rule="evenodd" stroke="none" d="M 123.57 263.27 C 127.069 270.0692 133.1784 271.3126 138.391 265.77 C 132.6896 269.2483 127.844 267.8795 123.57 263.27 Z"/>
                    </g>
                    <g filter="url(#filter3476)" transform="matrix(-1 0 0 1 24.263336 0)">
                        <path id="path3466" fill="#ffdd00" fill-rule="evenodd" stroke="none" d="M 129.11 265.24 C 132.2361 266.2569 138.587 266.10065 140.003 260.4186 C 137.0547 262.9148 133.0032 264.6334 129.11 265.24 Z"/>
                    </g>
                    <g filter="url(#filter3283)" transform="matrix(-1 0 0 1 24.263336 0)">
                        <path id="path2471" fill="#ffffff" fill-rule="evenodd" stroke="none" d="M 139.78 263.1 C 147.6293 260.6886 150.213 255.2397 140.28508 251.48299 C 144.30309 254.979 141.97328 260.2491 139.78 263.1 Z"/>
                    </g>
                    <path id="path3247" fill="url(#radialGradient3275)" fill-rule="evenodd" stroke="none" d="M -94.17667 248.33 C -97.13686 226.098 -118.820656 226.469 -115.89466 243.0267 C -108.85086 238.2273 -102.635666 240.4641 -94.17667 248.33 Z"/>
                    <g filter="url(#filter3294)" transform="matrix(-1 0 0 1 24.263336 0)">
                        <path id="path3287" fill="#000000" fill-rule="evenodd" stroke="none" d="M 121.22 268.79 C 111.7877 256.85 116.682304 251.422 121.725075 246.062 C 116.80987 251.5284 114.12728 257.987 121.22 268.79 Z"/>
                    </g>
                    <g filter="url(#filter3984)" opacity="0.49046004" transform="matrix(-1 0 0 1 24.263336 0)">
                        <path id="path3206" fill="url(#linearGradient3277)" stroke="none" d="M 192.94002 63.219997 C 256.6 26.489 329.95 -1.307 382.85 7.662 C 405.19998 14.369001 390.88 76.086 393.96 111.712 C 337.98 78.209 256.79 70.485 192.94002 63.222 Z"/>
                    </g>
                </g>
            </g>
        </g>
    </g>
</svg>
