<svg width="234.33174" height="333.00067" xmlns="http://www.w3.org/2000/svg">
    <defs>
        <linearGradient id="linearGradient4624" x1="299.39" y1="415.48" x2="297.94" y2="419.27" gradientUnits="userSpaceOnUse">
            <stop offset="0" stop-color="#cced78"/>
            <stop offset="1" stop-color="#bf921d"/>
        </linearGradient>
        <linearGradient id="linearGradient4626" x1="317.85" y1="449.45" x2="309.64" y2="449.8" gradientUnits="userSpaceOnUse">
            <stop offset="0" stop-color="#dceca6"/>
            <stop offset="1" stop-color="#c6ef25"/>
        </linearGradient>
        <linearGradient id="linearGradient4634" x1="241.2" y1="523.48" x2="237.73" y2="525.17" gradientUnits="userSpaceOnUse">
            <stop offset="0" stop-color="#fbc356"/>
            <stop offset="1" stop-color="#d45609"/>
        </linearGradient>
        <linearGradient id="linearGradient4638" x1="219.95" y1="528.75" x2="222.29" y2="525.26" gradientUnits="userSpaceOnUse">
            <stop offset="0" stop-color="#fbc356"/>
            <stop offset="1" stop-color="#d45609"/>
        </linearGradient>
        <linearGradient id="linearGradient4640" x1="260.12" y1="570.89" x2="265.86" y2="566.96" gradientUnits="userSpaceOnUse">
            <stop offset="0" stop-color="#88a435"/>
            <stop offset="1" stop-color="#d3f082"/>
        </linearGradient>
        <linearGradient id="linearGradient4642" x1="269.23" y1="570.69" x2="271.3" y2="569.27" gradientUnits="userSpaceOnUse">
            <stop offset="0" stop-color="#88aa85"/>
            <stop offset="1" stop-color="#506f8b"/>
        </linearGradient>
        <linearGradient id="linearGradient4644" x1="293.88" y1="563.12" x2="272.46" y2="570.98" gradientUnits="userSpaceOnUse">
            <stop offset="0" stop-color="#91b43e"/>
            <stop offset="1" stop-color="#d1fc54"/>
        </linearGradient>
        <linearGradient id="linearGradient4646" x1="281.98" y1="517.09" x2="308.78" y2="550.43" gradientUnits="userSpaceOnUse">
            <stop offset="0" stop-color="#88a435"/>
            <stop offset="1" stop-color="#d3f082"/>
        </linearGradient>
        <linearGradient id="linearGradient4648" x1="408.96" y1="652.81" x2="366.04" y2="600.84" gradientUnits="userSpaceOnUse">
            <stop offset="0" stop-color="#77992b"/>
            <stop offset="1" stop-color="#afdd61"/>
        </linearGradient>
        <linearGradient id="linearGradient4650" x1="380.21" y1="606.95" x2="378.42" y2="608.34" gradientUnits="userSpaceOnUse">
            <stop offset="0" stop-color="#364969"/>
            <stop offset="1" stop-color="#23799a"/>
        </linearGradient>
        <linearGradient id="linearGradient4652" x1="332.83" y1="594.48" x2="340.3" y2="588.77" gradientUnits="userSpaceOnUse">
            <stop offset="0" stop-color="#7c9150"/>
            <stop offset="1" stop-color="#97bb9f"/>
        </linearGradient>
        <linearGradient id="linearGradient4654" x1="312.77" y1="573.04" x2="317.46" y2="568.18" gradientUnits="userSpaceOnUse">
            <stop offset="0" stop-color="#364969"/>
            <stop offset="1" stop-color="#23799a"/>
        </linearGradient>
        <linearGradient id="linearGradient4656" x1="472.55" y1="471.13" x2="548.48" y2="497.9" gradientUnits="userSpaceOnUse" gradientTransform="matrix(1 0 0 1 -140 0)">
            <stop offset="0" stop-color="#e3ef41"/>
            <stop offset="0.47832" stop-color="#bfed35"/>
            <stop offset="1" stop-color="#4f7a07"/>
        </linearGradient>
        <linearGradient id="linearGradient4666" x1="357.64" y1="616.03" x2="365.86" y2="609.34" gradientUnits="userSpaceOnUse">
            <stop offset="0" stop-color="#364969"/>
            <stop offset="1" stop-color="#23799a"/>
        </linearGradient>
        <linearGradient id="linearGradient4668" x1="388.96" y1="684.87" x2="383.66" y2="677.55" gradientUnits="userSpaceOnUse">
            <stop offset="0" stop-color="#77992b"/>
            <stop offset="1" stop-color="#afdd61"/>
        </linearGradient>
        <linearGradient id="linearGradient4670" x1="352.42" y1="752.65" x2="354.58" y2="751.36" gradientUnits="userSpaceOnUse">
            <stop offset="0" stop-color="#88a435"/>
            <stop offset="1" stop-color="#d3f082"/>
        </linearGradient>
        <linearGradient id="linearGradient4672" x1="379.19" y1="788.18" x2="369.33" y2="765.32" gradientUnits="userSpaceOnUse">
            <stop offset="0" stop-color="#a89e92"/>
            <stop offset="1" stop-color="#6e6892"/>
        </linearGradient>
        <linearGradient id="linearGradient4674" x1="379.93" y1="757.11" x2="378.45" y2="766.84" gradientUnits="userSpaceOnUse">
            <stop offset="0" stop-color="#fbc356"/>
            <stop offset="1" stop-color="#d45609"/>
        </linearGradient>
        <linearGradient id="linearGradient4676" x1="390.22" y1="760.93" x2="384.72" y2="769.86" gradientUnits="userSpaceOnUse">
            <stop offset="0" stop-color="#fbc356"/>
            <stop offset="1" stop-color="#d45609"/>
        </linearGradient>
        <linearGradient id="linearGradient4678" x1="397.25" y1="786.82" x2="390.67" y2="789.34" gradientUnits="userSpaceOnUse">
            <stop offset="0" stop-color="#fbc356"/>
            <stop offset="1" stop-color="#d45609"/>
        </linearGradient>
        <linearGradient id="linearGradient4680" x1="402.8" y1="808.79" x2="396.04" y2="803.7" gradientUnits="userSpaceOnUse">
            <stop offset="0" stop-color="#fbc356"/>
            <stop offset="1" stop-color="#d45609"/>
        </linearGradient>
        <linearGradient id="linearGradient4682" x1="402.8" y1="822.41" x2="393.54" y2="809.82" gradientUnits="userSpaceOnUse">
            <stop offset="0" stop-color="#fbc356"/>
            <stop offset="1" stop-color="#d45609"/>
        </linearGradient>
        <linearGradient id="linearGradient4684" x1="390.37" y1="812.61" x2="385.87" y2="805.47" gradientUnits="userSpaceOnUse">
            <stop offset="0" stop-color="#fbc356"/>
            <stop offset="1" stop-color="#d45609"/>
        </linearGradient>
        <linearGradient id="linearGradient4686" x1="375.57" y1="816.78" x2="380.29" y2="816.69" gradientUnits="userSpaceOnUse">
            <stop offset="0" stop-color="#fbc356"/>
            <stop offset="1" stop-color="#d45609"/>
        </linearGradient>
        <linearGradient id="linearGradient4688" x1="353.39" y1="752.3" x2="355.86" y2="746.92" gradientUnits="userSpaceOnUse">
            <stop offset="0" stop-color="#88a435"/>
            <stop offset="1" stop-color="#d3f082"/>
        </linearGradient>
        <linearGradient id="linearGradient4714" x1="487.78" y1="511.39" x2="486.07" y2="513.98" gradientUnits="userSpaceOnUse">
            <stop offset="0" stop-color="#d45609"/>
            <stop offset="1" stop-color="#cabaa0"/>
        </linearGradient>
        <linearGradient id="linearGradient4726" x1="456.2" y1="519.28" x2="455.14" y2="507.85" gradientUnits="userSpaceOnUse">
            <stop offset="0" stop-color="#aede2a"/>
            <stop offset="1" stop-color="#d3e88b"/>
        </linearGradient>
        <radialGradient id="radialGradient4609" cx="291.3" cy="412.01" r="9.2757" fx="291.3" fy="412.01" gradientUnits="userSpaceOnUse" gradientTransform="matrix(1.0214 0.08506 -0.017585 0.21116 1.0178 299.55)">
            <stop offset="0" stop-color="#fbc356"/>
            <stop offset="1" stop-color="#d45609"/>
        </radialGradient>
        <radialGradient id="radialGradient4612" cx="330.76" cy="426.11" r="7.8438" fx="330.76" fy="426.11" gradientUnits="userSpaceOnUse" gradientTransform="matrix(0.7842 0.24324 -0.06863 0.22126 100.47001 251.50998)">
            <stop offset="0" stop-color="#fbc356"/>
            <stop offset="1" stop-color="#d45609"/>
        </radialGradient>
        <radialGradient id="radialGradient4614" cx="324.31" cy="409.91" r="6.6714" fx="324.31" fy="409.91" gradientUnits="userSpaceOnUse" gradientTransform="matrix(0.37443 0.24659 -0.72589 1.1022 500.08 -121.34)">
            <stop offset="0" stop-color="#fbc356"/>
            <stop offset="1" stop-color="#d45609"/>
        </radialGradient>
        <radialGradient id="radialGradient4616" cx="329.08" cy="418.41" r="4.9866" fx="329.08" fy="418.41" gradientUnits="userSpaceOnUse" gradientTransform="matrix(0.45986 -0.10498 0.1987 0.87038 93.99 89.336006)">
            <stop offset="0" stop-color="#fbc356"/>
            <stop offset="1" stop-color="#d45609"/>
        </radialGradient>
        <radialGradient id="radialGradient4618" cx="318.72" cy="403.49" r="7.3304" fx="318.72" fy="403.49" gradientUnits="userSpaceOnUse" gradientTransform="matrix(0.43131 0.049453 -0.093954 0.81943 219.41 57.171997)">
            <stop offset="0" stop-color="#fbc356"/>
            <stop offset="1" stop-color="#d45609"/>
        </radialGradient>
        <radialGradient id="radialGradient4620" cx="305.57" cy="396.35" r="7.5079" fx="305.57" fy="396.35" gradientUnits="userSpaceOnUse" gradientTransform="matrix(0.31949 -0.15763 0.94313 1.9116 -166.06 -316.27)">
            <stop offset="0" stop-color="#fbc356"/>
            <stop offset="1" stop-color="#d45609"/>
        </radialGradient>
        <radialGradient id="radialGradient4622" cx="297.88" cy="403.93" r="11.99" fx="297.88" fy="403.93" gradientUnits="userSpaceOnUse" gradientTransform="matrix(0.42439 -0.40048 0.36748 0.38942 22.573 365.18)">
            <stop offset="0" stop-color="#fbc356"/>
            <stop offset="1" stop-color="#d45609"/>
        </radialGradient>
        <radialGradient id="radialGradient4628" cx="258.39" cy="533.86" r="4.6071" fx="258.39" fy="533.86" gradientUnits="userSpaceOnUse" gradientTransform="matrix(0.72868 0 0 1.2907 70.107 -155.79)">
            <stop offset="0" stop-color="#fbc356"/>
            <stop offset="1" stop-color="#d45609"/>
        </radialGradient>
        <radialGradient id="radialGradient4630" cx="250.49" cy="527.57" r="4.8304" fx="250.49" fy="527.57" gradientUnits="userSpaceOnUse" gradientTransform="matrix(0.88869 0.060654 -0.091374 1.3388 76.088 -195.21002)">
            <stop offset="0" stop-color="#fbc356"/>
            <stop offset="1" stop-color="#d45609"/>
        </radialGradient>
        <radialGradient id="radialGradient4632" cx="244.29" cy="522.71" r="7.8214" fx="244.29" fy="522.71" gradientUnits="userSpaceOnUse" gradientTransform="matrix(0.62301 -0.08049 0.18742 1.4507 -5.874 -217.45999)">
            <stop offset="0" stop-color="#fbc356"/>
            <stop offset="1" stop-color="#d45609"/>
        </radialGradient>
        <radialGradient id="radialGradient4636" cx="227.1" cy="519.29" r="8.8482" fx="227.1" fy="519.29" gradientUnits="userSpaceOnUse" gradientTransform="matrix(0.29643 -0.21761 0.50819 0.69225 -104.12 208.91)">
            <stop offset="0" stop-color="#fbc356"/>
            <stop offset="1" stop-color="#d45609"/>
        </radialGradient>
        <radialGradient id="radialGradient1509" cx="359.22" cy="421.54" r="9.482" fx="359.22" fy="421.54" gradientUnits="userSpaceOnUse" gradientTransform="matrix(0.70623 0.013475 -0.012667 0.66392 110.87 136.83)">
            <stop offset="0" stop-color="#e7894c"/>
            <stop offset="1" stop-color="#d43300"/>
        </radialGradient>
        <radialGradient id="radialGradient4660" cx="421.67" cy="428.23" r="10.094" fx="421.67" fy="428.23" gradientUnits="userSpaceOnUse" gradientTransform="matrix(1.901 0.016156 -0.0085549 1.0066 -376.25998 -9.0091)">
            <stop offset="0" stop-color="#609500"/>
            <stop offset="1" stop-color="#2d4c00"/>
        </radialGradient>
        <radialGradient id="radialGradient1511" cx="359.22" cy="421.54" r="9.482" fx="359.22" fy="421.54" gradientUnits="userSpaceOnUse" gradientTransform="matrix(0.70623 0.013475 -0.012667 0.66392 110.87 136.83)">
            <stop offset="0" stop-color="#e7894c"/>
            <stop offset="1" stop-color="#d43300"/>
        </radialGradient>
        <radialGradient id="radialGradient4664" cx="367.09" cy="424.35" r="12.172" fx="367.09" fy="424.35" gradientUnits="userSpaceOnUse" gradientTransform="matrix(2.1603 0.88289 -0.36231 0.88651 -272.19 -273.01)">
            <stop offset="0" stop-color="#609500"/>
            <stop offset="1" stop-color="#2d4c00"/>
        </radialGradient>
        <radialGradient id="radialGradient1513" cx="377.5" cy="829.42" r="6.0714" fx="377.5" fy="829.42" gradientUnits="userSpaceOnUse" gradientTransform="matrix(1 0 0 1.2206 0 -182.96)">
            <stop offset="0" stop-color="#fbc356"/>
            <stop offset="1" stop-color="#d45609"/>
        </radialGradient>
        <radialGradient id="radialGradient4692" cx="406.43" cy="830.67" r="5.1786" fx="406.43" fy="830.67" gradientUnits="userSpaceOnUse" gradientTransform="matrix(1 0 0 1.0862 0 -71.609)">
            <stop offset="0" stop-color="#fbc356"/>
            <stop offset="1" stop-color="#d45609"/>
        </radialGradient>
        <radialGradient id="radialGradient4694" cx="408.04" cy="802.18" r="4.6429" fx="408.04" fy="802.18" gradientUnits="userSpaceOnUse" gradientTransform="matrix(1 0 0 1.0769 0 -61.705997)">
            <stop offset="0" stop-color="#fbc356"/>
            <stop offset="1" stop-color="#d45609"/>
        </radialGradient>
        <radialGradient id="radialGradient4696" cx="409.29" cy="768.08" r="4.8214" fx="409.29" fy="768.08" gradientUnits="userSpaceOnUse" gradientTransform="matrix(1 0 0 0.96296 0 28.447002)">
            <stop offset="0" stop-color="#fbc356"/>
            <stop offset="1" stop-color="#d45609"/>
        </radialGradient>
        <radialGradient id="radialGradient4698" cx="382.32" cy="748.97" r="6.0714" fx="382.32" fy="748.97" gradientUnits="userSpaceOnUse" gradientTransform="matrix(1 0 0 0.91176 0 66.086)">
            <stop offset="0" stop-color="#fbc356"/>
            <stop offset="1" stop-color="#d45609"/>
        </radialGradient>
        <radialGradient id="radialGradient1515" cx="377.5" cy="829.42" r="6.0714" fx="377.5" fy="829.42" gradientUnits="userSpaceOnUse" gradientTransform="matrix(1 0 0 1.2206 0 -182.96)">
            <stop offset="0" stop-color="#fbc356"/>
            <stop offset="1" stop-color="#d45609"/>
        </radialGradient>
        <radialGradient id="radialGradient1517" cx="377.5" cy="829.42" r="6.0714" fx="377.5" fy="829.42" gradientUnits="userSpaceOnUse" gradientTransform="matrix(1 0 0 1.2206 0 -182.96)">
            <stop offset="0" stop-color="#fbc356"/>
            <stop offset="1" stop-color="#d45609"/>
        </radialGradient>
        <radialGradient id="radialGradient1519" cx="377.5" cy="829.42" r="6.0714" fx="377.5" fy="829.42" gradientUnits="userSpaceOnUse" gradientTransform="matrix(1 0 0 1.2206 0 -182.96)">
            <stop offset="0" stop-color="#fbc356"/>
            <stop offset="1" stop-color="#d45609"/>
        </radialGradient>
        <radialGradient id="radialGradient1521" cx="377.5" cy="829.42" r="6.0714" fx="377.5" fy="829.42" gradientUnits="userSpaceOnUse" gradientTransform="matrix(1 0 0 1.2206 0 -182.96)">
            <stop offset="0" stop-color="#fbc356"/>
            <stop offset="1" stop-color="#d45609"/>
        </radialGradient>
        <radialGradient id="radialGradient1523" cx="377.5" cy="829.42" r="6.0714" fx="377.5" fy="829.42" gradientUnits="userSpaceOnUse" gradientTransform="matrix(1 0 0 1.2206 0 -182.96)">
            <stop offset="0" stop-color="#fbc356"/>
            <stop offset="1" stop-color="#d45609"/>
        </radialGradient>
        <radialGradient id="radialGradient1525" cx="377.5" cy="829.42" r="6.0714" fx="377.5" fy="829.42" gradientUnits="userSpaceOnUse" gradientTransform="matrix(1 0 0 1.2206 0 -182.96)">
            <stop offset="0" stop-color="#fbc356"/>
            <stop offset="1" stop-color="#d45609"/>
        </radialGradient>
        <radialGradient id="radialGradient1527" cx="377.5" cy="829.42" r="6.0714" fx="377.5" fy="829.42" gradientUnits="userSpaceOnUse" gradientTransform="matrix(1 0 0 1.2206 0 -182.96)">
            <stop offset="0" stop-color="#fbc356"/>
            <stop offset="1" stop-color="#d45609"/>
        </radialGradient>
        <radialGradient id="radialGradient4716" cx="495.83" cy="494.19" r="9.8755" fx="495.83" fy="494.19" gradientUnits="userSpaceOnUse" gradientTransform="matrix(0.33512 0.26851 -0.68724 0.85773 669.29 -63.203)">
            <stop offset="0" stop-color="#fbc356"/>
            <stop offset="1" stop-color="#d45609"/>
        </radialGradient>
        <radialGradient id="radialGradient4718" cx="477.8" cy="497.6" r="10.854" fx="477.8" fy="497.6" gradientUnits="userSpaceOnUse" gradientTransform="matrix(0.81404 0.26074 -0.12723 0.3972 152.16 175.37)">
            <stop offset="0" stop-color="#fbc356"/>
            <stop offset="1" stop-color="#d45609"/>
        </radialGradient>
        <radialGradient id="radialGradient4720" cx="502.77" cy="534.61" r="6.2137" fx="502.77" fy="534.61" gradientUnits="userSpaceOnUse" gradientTransform="matrix(0.29472 -0.11665 0.63505 1.6045 15.090001 -259.57)">
            <stop offset="0" stop-color="#fbc356"/>
            <stop offset="1" stop-color="#d45609"/>
        </radialGradient>
        <radialGradient id="radialGradient4722" cx="503.57" cy="505.33" r="19.932" fx="503.57" fy="505.33" gradientUnits="userSpaceOnUse" gradientTransform="matrix(0.46939 0.54439 -0.47232 0.40724 505.88 24.64)">
            <stop offset="0" stop-color="#fbc356"/>
            <stop offset="1" stop-color="#d45609"/>
        </radialGradient>
        <radialGradient id="radialGradient4724" cx="505.17" cy="524.33" r="9.7492" fx="505.17" fy="524.33" gradientUnits="userSpaceOnUse" gradientTransform="matrix(0.47719 -0.53801 0.46008 0.40807 22.876 582.25)">
            <stop offset="0" stop-color="#fbc356"/>
            <stop offset="1" stop-color="#d45609"/>
        </radialGradient>
        <radialGradient id="radialGradient1529" cx="377.5" cy="829.42" r="6.0714" fx="377.5" fy="829.42" gradientUnits="userSpaceOnUse" gradientTransform="matrix(1 0 0 1.2206 0 -182.96)">
            <stop offset="0" stop-color="#fbc356"/>
            <stop offset="1" stop-color="#d45609"/>
        </radialGradient>
        <radialGradient id="radialGradient1531" cx="377.5" cy="829.42" r="6.0714" fx="377.5" fy="829.42" gradientUnits="userSpaceOnUse" gradientTransform="matrix(1 0 0 1.2206 0 -182.96)">
            <stop offset="0" stop-color="#fbc356"/>
            <stop offset="1" stop-color="#d45609"/>
        </radialGradient>
        <radialGradient id="radialGradient1533" cx="377.5" cy="829.42" r="6.0714" fx="377.5" fy="829.42" gradientUnits="userSpaceOnUse" gradientTransform="matrix(1 0 0 1.2206 0 -182.96)">
            <stop offset="0" stop-color="#fbc356"/>
            <stop offset="1" stop-color="#d45609"/>
        </radialGradient>
        <radialGradient id="radialGradient4690" cx="377.5" cy="829.42" r="6.0714" fx="377.5" fy="829.42" gradientUnits="userSpaceOnUse" gradientTransform="matrix(1 0 0 1.2206 0 -182.96)">
            <stop offset="0" stop-color="#fbc356"/>
            <stop offset="1" stop-color="#d45609"/>
        </radialGradient>
        <filter id="filter4912" x="277.63583" y="524.1434" width="139.71948" height="154.28687" filterUnits="userSpaceOnUse">
            <feGaussianBlur color-interpolation-filters="linearRGB" in="SourceGraphic" stdDeviation="4.047357 4.047357" result="result1"/>
        </filter>
        <filter id="filter4930" x="336.20493" y="503.02896" width="91.45511" height="108.67728" filterUnits="userSpaceOnUse">
            <feGaussianBlur color-interpolation-filters="linearRGB" in="SourceGraphic" stdDeviation="5.0468063 5.0468063" result="result1"/>
        </filter>
        <filter id="filter4944" x="329.24686" y="658.7068" width="98.799835" height="91.91339" filterUnits="userSpaceOnUse">
            <feGaussianBlur color-interpolation-filters="linearRGB" in="SourceGraphic" stdDeviation="3.8859541 3.8859541" result="result1"/>
        </filter>
        <filter id="filter4954" x="322.65942" y="717.87933" width="63.24353" height="98.9621" filterUnits="userSpaceOnUse">
            <feGaussianBlur color-interpolation-filters="linearRGB" in="SourceGraphic" stdDeviation="2.3127751 2.3127751" result="result1"/>
        </filter>
        <filter id="filter5176" x="193.74525" y="511.63416" width="130.71477" height="118.072205" filterUnits="userSpaceOnUse">
            <feGaussianBlur color-interpolation-filters="linearRGB" in="SourceGraphic" stdDeviation="2.2832756 2.2832756" result="result1"/>
        </filter>
        <filter id="filter4201" x="402.62894" y="497.01953" width="104.21622" height="57.849243" filterUnits="userSpaceOnUse">
            <feGaussianBlur color-interpolation-filters="linearRGB" in="SourceGraphic" stdDeviation="2.5295532 2.5295532" result="result1"/>
        </filter>
        <filter id="filter4380" x="266.91006" y="408.46155" width="47.160736" height="29.398987" filterUnits="userSpaceOnUse">
            <feGaussianBlur color-interpolation-filters="linearRGB" in="SourceGraphic" stdDeviation="1.028249 1.028249" result="result1"/>
        </filter>
        <filter id="filter4407" x="318.20303" y="424.49866" width="29.301086" height="45.90796" filterUnits="userSpaceOnUse">
            <feGaussianBlur color-interpolation-filters="linearRGB" in="SourceGraphic" stdDeviation="1.1935571 1.1935571" result="result1"/>
        </filter>
        <filter id="filter4421" x="308.33508" y="465.16357" width="60.287964" height="29.572021" filterUnits="userSpaceOnUse">
            <feGaussianBlur color-interpolation-filters="linearRGB" in="SourceGraphic" stdDeviation="1.9568125 1.9568125" result="result1"/>
        </filter>
        <filter id="filter5072" x="218.29654" y="519.20374" width="78.12146" height="99.87958" filterUnits="userSpaceOnUse">
            <feGaussianBlur color-interpolation-filters="linearRGB" in="SourceGraphic" stdDeviation="0.49008632 0.49008632" result="result1"/>
        </filter>
        <filter id="filter5058" x="244.1557" y="538.386" width="47.571594" height="70.859985" filterUnits="userSpaceOnUse">
            <feGaussianBlur color-interpolation-filters="linearRGB" in="SourceGraphic" stdDeviation="0.434771 0.434771" result="result1"/>
        </filter>
        <filter id="filter4515" x="330.7461" y="724.20734" width="21.876953" height="22.781494" filterUnits="userSpaceOnUse">
            <feGaussianBlur color-interpolation-filters="linearRGB" in="SourceGraphic" stdDeviation="0.28690407 0.28690407" result="result1"/>
        </filter>
        <filter id="filter4507" x="334.41956" y="721.09863" width="6.9642944" height="7.7142944" filterUnits="userSpaceOnUse">
            <feGaussianBlur color-interpolation-filters="linearRGB" in="SourceGraphic" stdDeviation="0.08082912 0.08082912" result="result1"/>
        </filter>
        <filter id="filter4527" x="337.24362" y="721.73535" width="35.234406" height="57.373596" filterUnits="userSpaceOnUse">
            <feGaussianBlur color-interpolation-filters="linearRGB" in="SourceGraphic" stdDeviation="0.4249646 0.4249646" result="result1"/>
        </filter>
        <filter id="filter4535" x="339.03076" y="722.7882" width="31.0625" height="41.33893" filterUnits="userSpaceOnUse">
            <feGaussianBlur color-interpolation-filters="linearRGB" in="SourceGraphic" stdDeviation="0.33223665 0.33223665" result="result1"/>
        </filter>
        <filter id="filter4543" x="342.14557" y="734.3775" width="44.512604" height="88.336975" filterUnits="userSpaceOnUse">
            <feGaussianBlur color-interpolation-filters="linearRGB" in="SourceGraphic" stdDeviation="0.35980186 0.35980186" result="result1"/>
        </filter>
        <filter id="filter3786" x="349.6408" y="411.0818" width="9.590363" height="11.431213" filterUnits="userSpaceOnUse">
            <feGaussianBlur color-interpolation-filters="linearRGB" in="SourceGraphic" stdDeviation="0.09646498 0.09646498" result="result1"/>
        </filter>
        <filter id="filter3796" x="351.28085" y="409.71436" width="18.428894" height="24.267944" filterUnits="userSpaceOnUse">
            <feGaussianBlur color-interpolation-filters="linearRGB" in="SourceGraphic" stdDeviation="0.07837084 0.07837084" result="result1"/>
        </filter>
        <filter id="filter3909" x="410.3732" y="421.68683" width="24.225586" height="18.024353" filterUnits="userSpaceOnUse">
            <feGaussianBlur color-interpolation-filters="linearRGB" in="SourceGraphic" stdDeviation="0.6161398 0.6161398" result="result1"/>
        </filter>
        <filter id="filter3937" x="361.9971" y="387.74255" width="24.394806" height="26.525452" filterUnits="userSpaceOnUse">
            <feGaussianBlur color-interpolation-filters="linearRGB" in="SourceGraphic" stdDeviation="0.28039798 0.28039798" result="result1"/>
        </filter>
        <filter id="filter3971" x="407.80292" y="408.39493" width="9.671631" height="10.888062" filterUnits="userSpaceOnUse">
            <feGaussianBlur color-interpolation-filters="linearRGB" in="SourceGraphic" stdDeviation="0.2998285 0.2998285" result="result1"/>
        </filter>
        <filter id="filter1" x="349.6408" y="411.0818" width="9.590363" height="11.431213" filterUnits="userSpaceOnUse">
            <feGaussianBlur color-interpolation-filters="linearRGB" in="SourceGraphic" stdDeviation="0.09646498 0.09646498" result="result1"/>
        </filter>
        <filter id="filter2" x="351.28085" y="409.71436" width="18.428894" height="24.267944" filterUnits="userSpaceOnUse">
            <feGaussianBlur color-interpolation-filters="linearRGB" in="SourceGraphic" stdDeviation="0.07837084 0.07837084" result="result1"/>
        </filter>
        <filter id="filter3905" x="351.24826" y="422.7687" width="27.655334" height="18.110687" filterUnits="userSpaceOnUse">
            <feGaussianBlur color-interpolation-filters="linearRGB" in="SourceGraphic" stdDeviation="0.68976974 0.68976974" result="result1"/>
        </filter>
        <filter id="filter4011" x="418.46106" y="436.8034" width="11.82312" height="18.041016" filterUnits="userSpaceOnUse">
            <feGaussianBlur color-interpolation-filters="linearRGB" in="SourceGraphic" stdDeviation="0.49737102 0.49737102" result="result1"/>
        </filter>
        <filter id="filter4017" x="359.89383" y="408.1597" width="20.590576" height="24.687897" filterUnits="userSpaceOnUse">
            <feGaussianBlur color-interpolation-filters="linearRGB" in="SourceGraphic" stdDeviation="0.6603092 0.6603092" result="result1"/>
        </filter>
        <filter id="filter4091" x="331.68442" y="579.2059" width="64.42667" height="66.84088" filterUnits="userSpaceOnUse">
            <feGaussianBlur color-interpolation-filters="linearRGB" in="SourceGraphic" stdDeviation="0.24612458 0.24612458" result="result1"/>
        </filter>
        <filter id="filter4569" x="344.5433" y="739.12396" width="16.395264" height="26.037292" filterUnits="userSpaceOnUse">
            <feGaussianBlur color-interpolation-filters="linearRGB" in="SourceGraphic" stdDeviation="0.27260205 0.27260205" result="result1"/>
        </filter>
        <filter id="filter4767" x="369.60675" y="748.8422" width="14.165924" height="31.533203" filterUnits="userSpaceOnUse">
            <feGaussianBlur color-interpolation-filters="linearRGB" in="SourceGraphic" stdDeviation="0.08568546 0.08568546" result="result1"/>
        </filter>
        <filter id="filter4709" x="374.1716" y="750.7771" width="13.165619" height="20.238892" filterUnits="userSpaceOnUse">
            <feGaussianBlur color-interpolation-filters="linearRGB" in="SourceGraphic" stdDeviation="0.36803383 0.36803383" result="result1"/>
        </filter>
        <filter id="filter4717" x="377.95938" y="767.22003" width="30.963928" height="15.642822" filterUnits="userSpaceOnUse">
            <feGaussianBlur color-interpolation-filters="linearRGB" in="SourceGraphic" stdDeviation="0.3421963 0.3421963" result="result1"/>
        </filter>
        <filter id="filter4725" x="371.43112" y="772.6429" width="40.714447" height="56.677856" filterUnits="userSpaceOnUse">
            <feGaussianBlur color-interpolation-filters="linearRGB" in="SourceGraphic" stdDeviation="0.53630424 0.53630424" result="result1"/>
        </filter>
        <filter id="filter4749" x="378.511" y="796.07227" width="27.438782" height="36.857178" filterUnits="userSpaceOnUse">
            <feGaussianBlur color-interpolation-filters="linearRGB" in="SourceGraphic" stdDeviation="0.35405138 0.35405138" result="result1"/>
        </filter>
        <filter id="filter3" x="344.2372" y="746.19946" width="18.62262" height="13.028015" filterUnits="userSpaceOnUse">
            <feGaussianBlur color-interpolation-filters="linearRGB" in="SourceGraphic" stdDeviation="0.27260205 0.27260205" result="result1"/>
        </filter>
        <filter id="filter4972" x="424.85684" y="497.9562" width="8.854645" height="19.243439" filterUnits="userSpaceOnUse">
            <feGaussianBlur color-interpolation-filters="linearRGB" in="SourceGraphic" stdDeviation="0.1805125 0.1805125" result="result1"/>
        </filter>
        <filter id="filter4226" x="311.75812" y="436.65802" width="8.190735" height="23.241302" filterUnits="userSpaceOnUse">
            <feGaussianBlur color-interpolation-filters="linearRGB" in="SourceGraphic" stdDeviation="0.2844805 0.2844805" result="result1"/>
        </filter>
    </defs>
    <g transform="matrix(1 0 0 1 0.00000763 0)">
        <g id="g1903" transform="matrix(0.31426626 0 0 0.31485045 0.25882414 1.3927354)">
            <path id="rect4266" fill="#d45500" stroke="#808080" stroke-width="2.4030702" d="M 28.799389 -3.221947 L 715.2006 -3.221947 C 722.7384 -3.22195 729.96747 -0.22848214 735.29755 5.0999274 C 740.6277 10.428337 743.622 17.655212 743.622 25.190723 L 743.622 1023.6094 C 743.622 1039.3013 730.8973 1052.0221 715.2006 1052.0221 L 28.799389 1052.0221 C 13.102668 1052.0221 0.37795907 1039.3013 0.37795275 1023.6094 L 0.37795275 25.190723 C 0.37795264 9.498839 13.102664 -3.221947 28.799389 -3.221947 Z"/>
            <g id="g4746" transform="matrix(1.9945 0 0 1.9945 -354.04465 -679.0765)">
                <g id="g4425">
                    <g filter="url(#filter4912)">
                        <path id="path4902" fill="#706768" stroke="none" d="M 292.14 560.93 L 324.64 597.716 L 368.926 644.859 L 393.926 665.573 L 405.712 662.0016 L 403.5691 648.4306 L 289.2791 537.0006 Z"/>
                    </g>
                    <g filter="url(#filter4930)" opacity="0.73991">
                        <path id="path4916" fill="#634e49" stroke="none" d="M 350.71 568.08 L 363.567 597.009 C 381.067 587.7233 418.56702 544.866 412.496 517.723 Z"/>
                    </g>
                    <g filter="url(#filter4944)" opacity="0.90135">
                        <path id="path4934" fill="#8d8b8c" stroke="none" d="M 411.43002 668.08 C 415.8348 667.72284 420.23947 669.1514 418.2157 680.937 C 409.4062 695.342 394.5257 704.0319 378.9297 716.651 C 366.4297 723.0796 359.6437 735.58 347.8587 741.294 C 344.7635 734.1511 341.6682 727.008 338.573 719.8649 C 353.811 713.5555 367.263 708.317 384.28702 700.936 C 393.33456 689.984 402.382 679.031 411.43002 668.079 Z"/>
                    </g>
                    <g filter="url(#filter4954)" opacity="0.84753">
                        <path id="path4948" fill="#a1958f" stroke="none" d="M 328.21 723.43005 L 376.781 811.28705 L 380.3524 799.14404 Z"/>
                    </g>
                    <g filter="url(#filter5176)">
                        <path id="path5158" fill="#959595" stroke="none" d="M 306.96 597.01 L 313.5671 612.367 L 306.2457 619.867 L 298.9243 616.4741 L 292.6743 618.2598 L 289.1029 615.4027 L 248.92392 559.8667 L 215.1739 526.8307 L 205.531 524.6878 L 204.63815 521.4735 L 211.78093 522.7235 L 221.06665 528.7949 L 251.95967 558.4379 L 285.35266 605.2239 Z"/>
                    </g>
                    <g filter="url(#filter4201)" opacity="0.6278">
                        <path id="path4175" fill="#a6a5a1" stroke="none" d="M 408.86 522.03 C 433.94504 555.618 468.88 524.3028 473.51 525.0605 C 479.4867 524.6396 489.252 531.5423 498.25897 548.7995 C 497.58557 543.9171 501.2053 539.0347 500.5318 534.1525 C 493.5449 528.4283 484.53778 518.6635 477.5508 512.9395 C 463.0718 511.761 446.3198 514.6231 431.84183 513.4446 C 425.6125 509.99316 419.3828 506.54187 413.1538 503.09058 C 411.72278 509.40396 410.2917 515.7176 408.8606 522.0306 Z"/>
                    </g>
                    <g filter="url(#filter4380)" opacity="0.9417">
                        <path id="path4366" fill="#8c8c8c" stroke="none" d="M 269.46 410.93002 C 268.835 414.0252 271.8707 416.58484 275.3529 416.46573 C 285.8589 415.7514 291.6329 420.305 295.3529 421.82285 C 301.9577 425.422 306.5789 431.0754 310.1739 435.39377 C 310.6501 432.17947 311.12628 428.96518 311.6025 425.7509 C 303.9239 421.7033 296.2455 417.65567 288.5665 413.6079 C 282.1975 412.715 275.8285 411.8222 269.4595 410.92926 Z"/>
                    </g>
                    <g filter="url(#filter4407)" opacity="0.75336">
                        <path id="path4385" fill="#968b87" stroke="none" d="M 339.46 466.47 L 329.8172 445.756 L 332.1386 438.7917 L 329.8172 435.2203 L 332.8529 433.07742 L 340.71 434.6846 L 344.63864 432.8989 L 343.74573 429.1489 L 327.67474 427.36322 L 321.60336 431.8275 L 321.06763 440.9347 L 327.49625 456.8277 L 333.21054 467.5417 Z"/>
                    </g>
                    <g filter="url(#filter4421)" opacity="0.58296">
                        <path id="path4411" fill="#8e8d88" stroke="none" d="M 313.21 469.86 L 313.03143 482.003 L 322.13852 487.3602 L 352.31754 490.03882 L 363.92453 477.0028 L 356.60312 475.9314 Z"/>
                    </g>
                </g>
                <g id="g4436">
                    <path id="path4364" fill="#f48e66" stroke="none" d="M 291.49 408.9 L 295.0887 412.3093 L 309.1047 414.32962 L 315.797 418.9384 L 317.0597 418.43332 L 316.23895 412.24612 L 313.27164 410.92032 L 308.03146 411.04657 L 303.17004 411.04657 Z"/>
                    <path id="path4362" fill="#dfb197" stroke="none" d="M 293.01 410.35 C 297.3032 412.9596 301.5963 412.1599 305.7 413.633 C 312.9815 410.4552 314.3915 414.6642 315.4227 416.6634 C 316.01196 417.8419 316.4118 418.9573 317.0011 420.1358 C 309.8459 418.2838 302.6911 416.4319 295.5351 414.58 L 293.0097 410.35 Z"/>
                    <path id="path4352" fill="url(#radialGradient4609)" stroke="none" d="M 280.89 407.76 L 279.943 412.432 L 286.82468 412.30573 L 297.4947 414.0103 L 292.00198 408.89642 Z"/>
                    <path id="path4350" fill="#cf5c3a" stroke="none" d="M 306.08 412.62 C 309.8891 410.6207 312.2461 411.14688 315.6133 413.25134 C 315.7185 410.47342 312.5407 409.58957 311.0045 407.75864 C 309.363 409.37906 306.3325 410.05258 306.08 412.62006 Z"/>
                    <path id="path4348" fill="#cf5c3a" stroke="none" d="M 314.2 411.2 C 316.1345 414.2357 316.6405 417.2268 316.2536 419.5036 C 317.325 422.5988 318.3964 425.6941 319.4679 428.7893 L 323.0393 431.825 C 324.02145 431.46783 325.0036 431.11072 325.9857 430.7536 C 325.33093 427.8965 324.6762 425.0393 324.0214 422.1822 C 322.6524 421.20007 321.2833 420.2179 319.9143 419.2358 C 318.7238 416.5572 317.6673 413.16437 314.2 411.2001 Z"/>
                    <path id="path4346" fill="#e9ff96" stroke="none" d="M 296.88 413.7 C 314.38 414.325 310.362 417.7179 316.166 418.52136 C 317.8624 419.9202 318.4874 424.17618 318.5767 427.0035 C 311.3446 422.569 304.1127 418.13452 296.8807 413.6995 Z"/>
                    <path id="path4336" fill="url(#radialGradient4612)" stroke="none" d="M 322.41 422.27 L 324.3743 424.9486 L 331.7404 429.1897 L 336.1154 429.59152 L 337.09753 427.35934 L 336.33862 425.5737 L 329.55292 423.69873 Z"/>
                    <path id="path4326" fill="url(#radialGradient4614)" stroke="none" d="M 317.06 413.22 L 321.0375 420.7014 L 323.1525 421.04865 L 328.2348 410.7576 L 328.6814 408.75745 L 329.4028 401.06644 L 328.58203 400.78235 L 325.10965 405.01233 Z"/>
                    <path id="path4316" fill="url(#radialGradient4616)" stroke="none" d="M 328.71 408.66 C 327.4451 419.687 327.2517 421.47195 333.3528 424.687 C 330.4361 423.68994 327.5195 422.693 324.6028 421.6959 C 324.5284 420.4608 324.45398 419.2257 324.37958 417.99048 L 326.9689 413.1244 C 327.5046 411.53214 328.1743 410.2524 328.71 408.6601 Z"/>
                    <path id="path4306" fill="url(#radialGradient4618)" stroke="none" d="M 313.39 399.76996 C 317.8096 404.5617 322.5418 405.648 327.051 397.93958 C 326.679 399.50208 326.30695 401.0646 325.9349 402.6271 C 323.8367 405.4694 321.7385 408.3116 319.6403 411.1539 L 317.0957 413.7432 L 315.7118 412.27 C 314.938 408.10333 314.1642 403.9367 313.3904 399.76996 Z"/>
                    <path id="path4296" fill="url(#radialGradient4620)" stroke="none" d="M 310.18 409.99 C 313.34 410.09583 314.0446 411.8311 315.843 413.7003 C 314.93808 410.0385 314.368 405.9303 313.463 402.2683 C 310.7272 397.5543 307.9913 392.84018 305.2555 388.1263 C 304.4558 387.7054 303.6561 387.28452 302.8564 386.8636 L 302.16193 390.0203 C 303.635 394.48184 305.10822 398.94333 306.58133 403.4053 C 307.7809 405.4887 308.9804 407.907 310.18002 409.9904 Z"/>
                    <path id="path4286" fill="url(#radialGradient4622)" stroke="none" d="M 283.16 406.69 C 294.945 407.17407 300.985 402.5442 300.901 390.528 C 302.6477 394.9685 304.3944 399.4089 306.1412 403.849 C 305.97284 406.185 305.8045 408.521 305.63614 410.8569 C 304.2892 410.8779 302.94244 410.89902 301.59552 410.92 C 299.19644 410.56223 296.79733 410.2045 294.39822 409.8467 C 292.77783 409.50998 291.15732 409.17328 289.53683 408.83652 C 287.41132 408.121 285.28574 407.4055 283.16022 406.69 Z"/>
                    <path id="path4272" fill="url(#linearGradient4624)" stroke="none" d="M 279.31 412.11 C 287.4123 409.31097 293.291 412.23114 295.851 413.1833 C 308.786 418.13077 301.0063 416.98273 313.718 422.2747 C 312.9183 425.5156 309.8942 432.14728 309.3471 430.7162 C 309.43 429.7086 308.71957 428.1283 308.1092 427.437 C 304.9525 425.12213 302.3538 422.6955 299.1971 420.38065 C 295.1355 418.76022 291.0738 417.1397 287.0121 415.51923 C 284.4446 414.3828 281.8772 413.24637 279.3097 412.1099 Z"/>
                    <path id="path4270" fill="#cc4509" stroke="none" d="M 326.61 395.03998 C 327.8898 401.55786 318.9017 410.03998 317.5921 413.254 C 321.6695 412.65878 326.729 401.974 329.0211 401.29 C 329.0806 403.96863 327.1759 407.9864 328.66397 409.0578 C 330.30087 404.4149 332.69666 401.9596 336.56577 399.906 C 333.17285 398.4477 330.00327 396.4983 326.61035 395.03986 Z"/>
                    <path id="path4268" fill="#cc4509" stroke="none" d="M 336.27 427.09 C 336.95453 426.39063 337.6614 425.468 338.3459 424.7686 C 335.7864 426.21204 325.2809 421.4055 325.5779 420.52753 C 324.2535 418.3251 326.9916 415.8549 327.6315 411.6436 C 324.2982 413.1466 323.3309 420.8996 321.7833 420.1704 C 319.3279 418.6228 318.3905 412.7002 316.694 412.4472 C 315.2059 413.36978 319.3874 418.35486 319.9976 421.6436 C 320.6226 422.89355 321.8726 422.04538 322.8101 422.9829 C 326.8131 423.20615 336.4861 425.8847 336.2701 427.09 Z"/>
                    <path id="path4266" fill="#cc4509" stroke="none" d="M 324.32 433.27002 C 327.5073 432.98813 331.8999 427.4831 337.141 431.6208 L 336.3834 427.8327 C 335.14618 429.5661 332.3912 428.8442 331.33258 428.2115 C 329.399 426.50494 327.3762 424.8877 325.39798 424.29724 C 324.47202 423.83423 323.546 423.37122 322.6201 422.9082 C 325.166 426.1835 322.66718 429.7714 324.3202 433.2702 Z"/>
                    <path id="path4264" fill="#cc4509" stroke="none" d="M 295.36 384.95 C 302.7359 388.7732 306.513 411.895 303.5743 410.486 C 297.4731 408.95334 293.9166 409.51874 291.2533 409.19144 C 296.8485 411.0069 304.4083 412.9563 306.1643 412.5396 C 307.5631 411.02167 309.1405 409.7717 311.4322 410.1289 C 306.9977 402.89676 304.5274 395.48593 303.2179 388.1649 C 307.5036 392.18277 313.5749 404.23593 313.6639 406.6469 C 313.30676 408.9981 313.39606 410.01 314.19962 411.0219 C 314.97342 412.4802 315.83652 414.47433 317.05673 414.3255 C 315.6281 409.74216 316.87814 406.766 314.11032 400.5755 C 310.7174 394.32547 305.04782 387.4505 306.38712 381.55753 C 302.5776 382.3313 299.16983 384.17648 295.3601 384.9503 Z"/>
                    <path id="path4262" fill="#cc4509" stroke="none" d="M 280.06 404.21997 C 282.2333 407.1536 287.8887 407.5872 291.803 409.2708 C 288.5902 410.20575 282.8327 406.8996 281.45 409.3524 C 281.23956 407.6267 280.2702 405.9457 280.0597 404.21997 Z"/>
                    <path id="path4260" fill="#cc4509" stroke="none" d="M 275.98 414.78 C 284.0771 412.8581 303.605 423.1918 309.201 428.43002 C 311.0165 419.4419 280.29 415.99002 281.213 410.573 C 279.7844 411.91226 277.4088 413.441 275.9803 414.7803 Z"/>
                    <path id="path4230" fill="url(#linearGradient4626)" stroke="none" d="M 313.53 422.28 C 308.6266 423.5216 307.1955 446.10297 307.1534 450.627 C 306.43787 459.6763 307.83127 466.486 309.9313 469.631 C 313.8827 473.8331 311.7864 476.04913 315.424 474.8712 C 319.5698 471.967 323.7157 469.0628 327.862 466.1586 C 327.46216 461.0868 327.0623 456.0146 326.6624 450.9436 C 325.8627 447.99728 325.063 445.051 324.2633 442.1048 L 322.5587 434.213 C 321.65378 431.9612 320.7489 429.5674 319.6861 427.4576 C 318.6549 425.0374 316.8345 422.61728 313.5305 422.2806 Z"/>
                    <path id="path4218" fill="#8da545" stroke="none" d="M 308.48 466.54 C 308.8167 468.9812 310.4161 471.3593 312.5206 473.67416 C 314.4988 473.00076 316.5402 471.7591 316.7506 470.32806 C 316.07715 469.42316 314.141 470.3491 312.8362 471.212 C 311.4472 470.6648 310.374 467.71857 308.4799 466.53998 Z"/>
                    <path id="path4216" fill="#539589" stroke="none" d="M 333.04 462.09 C 334.429 465.9622 341.3043 463.7979 345.408 464.6397 C 347.49142 465.16583 348.9435 466.8284 350.7113 467.9227 C 350.7955 469.2906 350.87967 470.6585 350.96384 472.0265 C 341.38843 470.9953 331.23285 469.473 321.65683 468.44177 C 326.17264 467.69632 327.43475 465.61508 323.92023 464.163 C 326.69815 463.97363 330.26163 462.2794 333.03955 462.09 Z"/>
                    <path id="path4214" fill="#577f5c" stroke="none" d="M 324.83 473.48004 C 317.0855 472.65924 318.748 475.6266 313.908 475.18463 C 318.7273 472.8276 316.5386 468.5134 322.6837 468.3029 C 324.8513 467.9662 327.0821 468.19766 328.9971 468.61856 C 331.8171 469.12366 334.6371 469.62875 337.4571 470.13376 C 333.2481 471.24918 329.0392 472.36456 324.8301 473.47986 Z"/>
                    <path id="path4212" fill="#384884" stroke="none" d="M 323.88 464.2 C 328.1304 463.86197 331.3094 466.38107 335.56 465.4627 C 329.3307 458.9177 324.869 442.0817 324.07 438.4407 C 324.42776 435.9153 324.91183 432.7586 324.0069 431.8116 C 322.8705 428.08667 321.6709 426.31888 319.6506 427.4553 C 322.1339 432.022 324.1752 443.5963 325.3958 451.3833 C 327.6055 458.1808 325.71146 461.8843 323.8805 464.1993 Z"/>
                    <path id="path4210" fill="#2664af" stroke="none" d="M 325.94 472.72 L 353.128 477.1843 L 351.5655 470.8004 L 328.2175 470.62183 L 325.405 472.3182 Z"/>
                    <path id="path4208" fill="#2f434a" stroke="none" d="M 352.16 477.21002 L 322.866 473.29565 C 320.7779 472.033 324.5381 470.0114 326.7804 469.5076 C 334.8195 469.80222 342.8584 470.09686 350.8974 470.39148 L 350.8974 471.40167 C 342.8583 471.7384 326.9624 470.6912 326.7804 472.41187 C 327.65115 472.80594 348.9234 474.7179 352.1604 477.21008 Z"/>
                    <path id="path4206" fill="#645478" stroke="none" d="M 342.1 464.42 C 354.269 466.7601 348.06357 475.46402 351.7875 477.188 C 354.5256 477.48563 357.2637 477.78323 360.00177 478.08087 C 360.59705 473.02136 361.1923 467.96185 361.7875 462.90186 C 355.2399 463.37805 348.6475 463.94354 342.0995 464.41977 Z"/>
                    <path id="path5148" fill="url(#radialGradient4628)" stroke="none" d="M 254.38 529.86 C 256.7312 533.0445 258.7252 533.2826 262.5943 526.8243 C 261.99905 531.5862 261.85025 537.1513 261.255 541.9133 C 259.886 542.955 258.5169 543.9966 257.1479 545.0383 C 256.22528 539.9788 255.3027 534.9193 254.38 529.8593 Z"/>
                    <path id="path5138" fill="url(#radialGradient4630)" stroke="none" d="M 250.18 513.43 L 246.8764 525.662 L 254.6443 542.894 L 255.53716 540.3047 L 252.94785 526.3757 L 253.305 516.465 L 253.39429 514.0543 Z"/>
                    <path id="path5128" fill="url(#radialGradient4632)" stroke="none" d="M 237.23 507.35995 C 242.08119 526.08 247.29 520.247 248.301 511.8243 L 251.0689 513.7886 C 248.6284 518.61 247.61649 524.0566 248.301 529.0566 C 248.18195 532.9256 248.06291 536.7947 247.94386 540.6636 C 246.30696 538.2529 244.67006 535.8422 243.03314 533.4315 C 240.83076 525.5446 238.62836 517.6575 236.42606 509.7705 C 236.69394 508.96692 236.96178 508.16333 237.22963 507.3598 Z"/>
                    <path id="path5118" fill="url(#linearGradient4634)" stroke="none" d="M 234.38 529.24 L 245.005 541.294 L 248.48709 542.8119 L 241.88 524.1509 L 235.0943 506.5619 L 233.2193 505.2226 L 232.77287 516.9186 L 233.04073 523.3472 Z"/>
                    <path id="path5094" fill="url(#radialGradient4636)" stroke="none" d="M 218.93 518.61 C 225.50742 519.6517 230.567 516.9433 230.359 511.0207 C 232.11502 517.6874 233.8709 524.3537 235.6269 531.0207 C 230.0614 526.8838 224.4959 522.7469 218.9309 518.6097 Z"/>
                    <path id="path5084" fill="url(#linearGradient4638)" stroke="none" d="M 210 524.15 C 219.1964 525.6083 225.089 535.281 229.82098 537.096 C 231.1008 534.477 232.3805 531.8579 233.6603 529.2389 C 227.5293 525.5187 221.3983 521.7984 215.2673 518.0779 C 213.5113 520.1017 211.7554 522.1255 209.9994 524.1493 Z"/>
                    <path id="path5082" fill="#cc4509" stroke="none" d="M 265.29 560.42 C 265.753 555.4113 266.21597 550.403 266.679 545.394 C 265.3321 539.3752 264.6103 533.356 263.2634 527.338 C 256.8693 532.2408 261.636 540.001 258.7241 540.975 C 256.4403 543.1385 257.6409 536.4656 255.5674 531.6311 C 255.5674 531.6311 250.5266 522.971 256.5776 513.9531 C 254.0585 515.8355 253.593 513.0528 251.8886 514.09814 C 254.1201 517.0094 249.65172 526.17816 254.05222 539.71216 C 252.074 534.91394 250.0958 535.1158 248.1176 525.3172 C 246.6623 527.74426 247.7962 533.74286 247.23372 535.54517 C 247.02715 538.19556 245.21342 539.41736 244.20322 541.3536 C 251.23221 547.70905 258.26123 554.0646 265.29022 560.4206 Z"/>
                    <path id="path5080" fill="#cc4509" stroke="none" d="M 225.8 499.77 C 231.4399 506.02 229.669 518.877 233.3893 522.895 C 234.6691 520.4248 232.64525 511.347 233.74646 506.91302 C 236.69286 509.3237 239.37144 522.181 243.65714 529.681 C 243.80597 525.7524 242.07974 523.5203 241.42503 520.8417 C 242.64523 521.3179 245.11554 521.79407 244.81795 520.66315 C 238.38934 518.81793 235.53224 503.08914 236.96075 496.69012 C 233.09172 497.2258 229.66902 499.23474 225.79974 499.77054 Z"/>
                    <path id="path5078" fill="#cc4509" stroke="none" d="M 214.29001 521.47 C 219.3495 520.1307 221.73051 523.5236 222.3257 524.595 C 224.2007 527.6307 228.2186 525.845 232.2364 528.8807 C 233.5459 529.7438 236.0162 529.62476 231.87926 526.6486 C 224.81256 523.2948 215.94626 516.3496 214.29025 513.2556 C 214.43907 515.3687 212.62357 522.3925 214.29025 521.4699 Z"/>
                    <g filter="url(#filter5072)">
                        <path id="path5062" fill="url(#linearGradient4640)" stroke="none" d="M 289.64 610.76 C 289.7293 608.7957 289.81857 606.8314 289.90787 604.8671 C 287.49716 599.8969 285.08646 594.9266 282.67566 589.9561 C 279.25305 584.3609 275.83047 578.7661 272.40765 573.1701 C 269.28265 568.8844 266.15765 564.5987 263.03265 560.3131 C 260.02667 556.5036 257.02075 552.6941 254.01485 548.8841 C 252.49696 547.4555 250.97917 546.0269 249.46124 544.5984 C 244.89226 540.6058 246.19476 533.3934 241.24696 531.2944 C 238.45116 527.7905 231.99367 526.6857 229.63995 528.1694 C 224.98796 527.9195 223.87134 530.6369 225.53276 532.723 C 228.09225 535.3718 230.65176 538.0206 233.21136 540.6694 C 239.22328 546.7706 245.23537 552.8714 251.24738 558.9734 C 264.04535 576.2354 276.84235 593.4974 289.64035 610.7594 Z"/>
                    </g>
                    <g filter="url(#filter5058)">
                        <path id="path5016" fill="url(#linearGradient4642)" stroke="none" d="M 248.12 544.68 C 264.191 561.466 278.388 582.091 287.763 603.341 C 285.9178 594.2041 283.269 584.71 278.4773 575.93 C 271.6023 567.0312 264.7273 558.132 257.8523 549.234 C 255.0547 546.3769 249.9356 543.1626 248.1202 544.6804 Z"/>
                    </g>
                    <path id="path4822" fill="#89a14d" stroke="none" d="M 289.8 612.21 C 281.6006 600.625 273.513 590.938 265.179 579.866 C 259.5476 572.7231 254.548 565.58 250.17902 558.437 C 241.0808 550.3039 226.427 535.289 225.536 532.901 C 234.72789 540.2765 247.582 554.723 251.786 558.437 C 264.465 575.58 277.143 592.723 289.822 609.866 C 289.94104 610.9374 289.68063 611.1383 289.7997 612.2098 Z"/>
                    <path id="path5014" fill="#506f8b" stroke="none" d="M 257.84 548.93 C 266.0042 558.7216 273.9 567.888 280.19 579.108 C 278.4809 578.7433 277.6646 576.4143 276.4019 575.0674 C 270.2147 566.3548 258.3129 552.5534 257.8399 548.9294 Z"/>
                    <path id="path4812" fill="url(#linearGradient4644)" stroke="none" d="M 262.86 513.79 C 260.1342 541.925 272.354 560.933 275.896 571.111 C 280.9258 584.623 284.7055 593.492 289.11 604.682 C 288.39932 609.415 289.33273 612.6492 290.8064 613.1641 C 292.5624 614.5629 294.3183 614.3546 296.0743 614.9498 C 298.9314 614.50336 301.7886 614.05695 304.6457 613.6105 C 305.8957 612.0034 307.1457 610.3962 308.3957 608.7891 C 308.03857 605.6343 307.6814 602.4796 307.3243 599.3248 C 305.7767 592.2712 304.2291 585.2178 302.6814 578.1638 L 297.7707 561.9138 C 295.5981 556.1698 293.4255 550.4258 291.2528 544.6818 C 288.9909 539.7116 286.729 534.7413 284.4671 529.7708 C 283.1278 527.7768 281.7885 525.7827 280.4492 523.7886 C 279.64563 523.04456 278.8421 522.3005 278.0385 521.5565 C 277.20517 520.63385 276.3718 519.7113 275.5385 518.7886 C 271.3123 517.1219 267.0861 515.4553 262.8595 513.7886 Z"/>
                    <path id="path4804" fill="#687e33" stroke="none" d="M 277.92 521.27 C 288.821 528.5936 292.02 542.862 295.093 553.09 C 297.8709 559.3614 300.2114 565.633 301.1539 571.904 C 300.58508 574.3741 299.1011 570.0808 298.376 567.8634 C 292.986 549.1184 285.23 530.6404 277.92 521.2704 Z"/>
                    <path id="path4794" fill="url(#linearGradient4646)" stroke="none" d="M 280 521.47 L 286.1607 529.0593 L 302.4107 550.6663 L 315.8927 562.0053 L 327.9467 572.5413 L 329.4646 572.80914 L 330.0003 566.11273 L 316.16132 554.23773 L 301.16132 535.9338 L 295.53632 527.36237 L 285.53632 512.8984 L 282.2327 514.50543 L 279.19702 519.23755 Z"/>
                    <path id="path4792" fill="#a5d62d" stroke="none" d="M 262.5 517.18 C 263.0655 522.9755 268.9429 512.446 283.214 525.3943 C 284.3387 522.7735 276.5176 517.8645 285.8926 513.4303 C 281.9018 506.85294 279.2457 504.92294 273.2136 505.216 C 268.1243 506.0791 262.6776 511.7636 262.4996 517.18 Z"/>
                    <path id="path4253" fill="#d3f082" stroke="none" d="M 333.1 730.63 L 325.9027 723.1801 C 324.64 716.5299 327.5442 712.4051 332.7212 709.6691 C 339.3714 705.2076 345.1372 698.4731 352.67218 694.3901 C 349.1788 703.3131 345.68533 712.2361 342.1922 721.1591 C 340.5507 724.0633 338.9092 726.9675 337.2677 729.8717 C 335.8787 730.12427 334.4898 730.3768 333.1008 730.62933 Z"/>
                    <path id="path4209" fill="#9ca749" stroke="none" d="M 339.13 726.4 C 340.04544 726.57886 340.9609 726.7578 341.8764 726.93665 C 343.3074 727.3365 344.7385 727.7363 346.1696 728.1362 C 345.654 726.89465 345.13837 725.65295 344.6228 724.4114 C 344.23346 723.4959 343.84412 722.58044 343.4548 721.665 C 342.7603 721.3703 342.0658 721.0756 341.3714 720.78107 C 339.772 719.7394 341.17148 721.7912 340.3612 722.3909 C 339.95084 723.7273 339.54044 725.06366 339.1301 726.39996 Z"/>
                    <g filter="url(#filter4515)">
                        <path id="path4207" fill="#cae570" stroke="none" d="M 350.8 745.09 C 350.68094 743.6614 350.56192 742.2328 350.44287 740.8044 C 347.55597 736.07214 344.66907 731.3401 341.78217 726.6083 C 340.25125 725.769 338.72025 726.09784 337.09467 726.74225 C 335.91907 727.51605 330.32407 729.36316 333.56787 729.06366 C 335.11545 731.57855 336.66306 734.0935 338.21075 736.6083 L 346.06787 743.3046 C 347.64526 743.8999 349.22266 744.4951 350.79996 745.09033 Z"/>
                    </g>
                    <g filter="url(#filter4507)">
                        <path id="path4189" fill="#7b7f2b" stroke="none" d="M 335 728.17 C 335.9524 726.801 338.5119 725.789 337.8571 724.0629 C 337.63388 723.28906 338.39282 722.2474 340.8035 721.7415 C 340.7886 724.6879 340.1041 728.1254 334.9999 728.1701 Z"/>
                    </g>
                    <g filter="url(#filter4527)">
                        <path id="path4205" fill="#e5edd5" stroke="none" d="M 340.18 727.80994 C 340.2088 726.9514 340.55334 726.3452 341.8764 726.56006 C 350.4912 736.3011 357.5904 749.893 365.4474 761.56 C 368.58783 764.9367 368.0664 766.7981 369.376 769.4171 C 369.67368 770.5489 369.87668 773.6064 367.1439 774.3278 C 362.02493 764.8338 356.9059 755.3398 351.7869 745.8458 C 350.15 742.60175 348.51306 739.3577 346.8762 736.1137 C 343.2867 729.3368 340.7388 729.9466 340.1798 727.8101 Z"/>
                    </g>
                    <path id="path4191" fill="#4e3845" stroke="none" d="M 347.32 720.44006 C 345.04324 723.4013 346.2486 726.184 347.05215 729.6365 C 345.45984 727.434 344.09088 724.6513 343.34674 722.35956 C 345.34073 722.0917 346.0401 721.556 347.31995 720.44006 Z"/>
                    <g filter="url(#filter4535)">
                        <path id="path4195" fill="#78b4d6" stroke="none" d="M 341.62 726.5201 C 342.9248 725.8887 344.0402 726.2675 346.1657 727.9721 C 352.7107 738.74713 360.3917 749.5221 367.5047 760.2971 C 365.8001 759.8341 365.295 761.0758 364.0323 760.5497 C 362.6927 760.36615 349.2803 735.09766 341.6193 726.51965 Z"/>
                    </g>
                    <path id="path4193" fill="#6b757f" stroke="none" d="M 346.92 729.37 C 353.8858 739.703 361.357 749.973 367.81796 760.369 C 364.3877 760.17957 358.1795 747.868 353.36 741.618 C 349.8876 736.6514 342.753 725.624 346.92032 729.37 Z"/>
                    <g filter="url(#filter4543)">
                        <path id="path4203" fill="#d0e95a" stroke="none" d="M 376.16 802.6 C 376.4336 806.7248 374.9394 814.764 376.03378 815.353 C 379.82184 814.7427 381.65274 809.9655 382.47345 803.8629 C 383.14688 801.6322 383.50464 796.371 380.70563 793.004 C 376.7492 786.8589 373.48724 779.76697 367.32065 774.56903 C 366.78128 768.5641 363.19385 765.71326 359.99704 758.028 C 357.51376 752.6405 354.58856 747.442 350.65317 742.244 C 349.63983 741.86456 350.0218 743.6118 350.65317 745.1482 C 349.05374 743.1279 347.42056 742.07635 345.85495 741.7389 C 349.05374 749.2309 352.25253 756.7229 355.4514 764.2149 C 357.72415 768.8448 361.32288 773.6009 365.11093 777.7259 C 368.79373 786.0176 372.47665 794.30896 376.15994 802.6009 Z"/>
                    </g>
                    <path id="path4199" fill="#88a435" stroke="none" d="M 342.57 745.2801 C 345.91608 751.5514 350.96692 758.517 355.449 764.094 C 355.99612 762.3894 357.4272 761.6318 358.7951 762.01056 C 356.14352 755.5498 352.2291 749.40454 348.1881 743.76465 C 344.6736 739.503 343.8739 743.8277 342.5691 745.27985 Z"/>
                    <path id="path4197" fill="#adcb2d" stroke="none" d="M 336.82 728.86005 C 337.40927 729.5755 336.7989 730.4173 335.7467 731.0066 C 335.9473 732.7579 343.4632 738.2083 347.6787 743.9496 C 346.9842 744.9387 344.1432 744.2232 342.5648 745.40173 C 339.6606 742.2871 334.9255 734.6897 332.5268 729.23975 C 332.5689 728.29266 335.452 727.9138 336.82 728.8609 Z"/>
                    <path id="path4163" fill="url(#linearGradient4648)" stroke="none" d="M 345.71 582.9 L 349.1028 587.7214 L 395.5318 647.3644 L 399.6389 653.4358 L 404.8175 661.6501 L 409.8175 660.5787 L 419.6389 657.3644 L 417.67462 653.793 L 388.56763 620.222 L 355.1746 581.115 L 351.7818 578.615 Z"/>
                    <path id="path4095" fill="url(#linearGradient4650)" stroke="none" d="M 416.56 652.59 C 400.864 629.948 381.815 609.659 368.704 588.95 L 359.3601 581.7527 C 357.5081 582.5103 356.7926 583.5205 357.2135 585.162 C 376.36447 610.921 396.27246 633.018 416.5595 652.59 Z"/>
                    <path id="path4055" fill="#1d1f4f" stroke="none" d="M 369.34 569.73 C 366.9198 572.3396 363.30014 574.444 363.216 577.7481 C 366.2886 585.5557 374.777 597.9201 382.20496 608.0631 C 374.6709 599.7083 365.446 587.1131 359.491 583.1141 C 358.39667 583.093 358.06 584.2716 357.91263 586.0814 C 356.50262 586.4602 353.7668 582.6721 351.978 580.0205 C 357.7653 576.5902 363.553 573.1599 369.34 569.7295 Z"/>
                    <g id="g4048">
                        <path id="path4046" fill="#71501b" stroke="none" d="M 417.26 491.47 C 415.36597 496.8154 413.4719 502.161 411.5779 507.50598 C 409.03146 512.3674 406.4851 517.2287 403.9386 522.09 L 396.4887 532.76 C 393.2899 536.4428 390.09106 540.1257 386.8923 543.809 C 383.3778 547.3024 379.8633 550.7959 376.34927 554.289 C 372.77173 559.1924 369.1941 564.0959 365.6163 568.999 C 363.49078 571.335 361.3652 573.671 359.2397 576.0069 C 363.596 573.1869 365.9951 570.6194 372.8767 568.1151 C 378.13794 564.0955 379.4848 561.6543 388.0917 555.2991 C 393.3319 549.7643 396.4886 544.1031 402.29672 538.8841 C 406.23212 532.5075 408.5891 534.6541 414.1027 518.4281 C 416.8596 509.7576 418.4169 498.8771 417.2594 491.47012 Z"/>
                        <path id="path4038" fill="#18192d" stroke="none" d="M 361.96 573.97 C 366.70016 570.5032 375.607 566.3419 377.31696 564.3272 C 377.76978 563.3099 378.22256 558.694 376.78128 558.4343 C 372.7247 564.1179 366.39532 568.2232 361.9603 573.9703 Z"/>
                        <path id="path4040" fill="#18192d" stroke="none" d="M 380.39005 560.73 C 385.3987 558.1415 391.67 551.4492 393.143 549.176 C 393.37448 546.2929 392.46957 544.6093 390.4282 544.8829 C 387.67834 545.5239 384.587 552.4895 380.0112 556.4999 C 379.37982 557.973 379.3167 560.7089 380.39005 560.7299 Z"/>
                        <path id="path4042" fill="#18192d" stroke="none" d="M 396.35995 544.13 C 399.22208 542.6148 404.4202 536.4276 405.13574 534.8492 C 405.1146 531.3768 403.7678 529.609 402.7997 529.7353 C 401.1793 529.609 398.4855 536.175 395.8549 539.5843 C 395.01312 541.6046 395.43402 544.5719 396.35995 544.13 Z"/>
                        <path id="path4044" fill="#18192d" stroke="none" d="M 415.99002 507.38 C 413.8224 508.83212 408.8137 521.775 405.131 526.889 C 405.25726 528.5936 407.27756 531.3084 408.91907 530.4877 C 413.6655 521.5683 417.6255 508.8247 415.9902 507.3807 Z"/>
                    </g>
                    <path id="path4135" fill="#9b9bbf" stroke="none" d="M 297.87 530.74 C 303.6363 543.662 315.463 556.962 328.427 565.717 C 330.1527 562.5182 328.09027 557.0465 326.4067 553.09 L 297.8697 530.74 Z"/>
                    <g id="g4065">
                        <path id="path4063" fill="#23799a" stroke="none" d="M 311.25 540.49 C 308.3036 536.4126 301.5179 528.675 282.411 508.615 C 288.2741 520.371 301.905 537.663 303.929 538.883 C 309.1671 547.2461 316.369 553.823 322.322 551.383 C 319.3458 546.4128 316.191 543.4961 311.251 540.49 Z"/>
                        <path id="path4057" fill="#1d1f4f" stroke="none" d="M 335.1 552.39 C 333.1655 556.7948 331.0416 562.3359 329.107 566.741 C 327.6757 563.9461 328.32782 559.3835 326.5177 556.652 C 323.1439 551.588 316.6765 545.64 310.7137 540.134 C 316.023 543.6774 322.2167 546.6526 327.3997 552.658 C 328.6406 553.2632 332.912 553.7421 335.0999 552.39014 Z"/>
                    </g>
                    <path id="path4115" fill="url(#linearGradient4652)" stroke="none" d="M 329.44 592.68 C 332.4284 597.2257 335.9218 599.6248 340.804 602.971 C 343.0348 596.9311 344.9498 591.018 347.1806 584.978 L 345.09723 582.9577 L 333.3542 583.77844 C 331.6706 586.30383 327.651 591.22833 329.4399 592.6804 Z"/>
                    <path id="path4105" fill="url(#linearGradient4654)" stroke="none" d="M 318.07 582.64 C 321.7949 586.6596 323.6258 590.0478 328.677 591.7314 C 333.833 586.0703 329.39252 579.5254 329.18207 572.7914 C 325.19836 568.186 320.71396 565.0258 311.88306 558.7754 C 305.69586 554.3139 299.50906 549.8524 293.32108 545.3904 C 298.79276 553.64 304.26407 561.8894 309.73608 570.1394 C 312.51398 574.3063 313.83987 576.8948 318.0699 582.6404 Z"/>
                    <path id="path3863" fill="url(#linearGradient4656)" stroke="none" d="M 353.93 434.51004 C 354.90405 439.6886 353.6684 446.824 355.7157 450.046 C 354.64423 458.6122 355.84546 462.254 358.7514 466.653 C 360.56442 471.1334 356.56894 481.738 353.3943 488.617 L 349.6731 497.89746 C 348.1393 501.229 347.30002 504.4973 346.9657 508.0815 C 344.1933 511.6836 344.7038 516.2958 343.5728 520.4025 C 341.0186 526.6525 339.664 532.8395 338.7514 539.1525 C 336.3307 543.9667 334.2889 549.0335 333.5728 553.9735 C 326.8139 565.6435 328.1994 579.8395 327.5014 588.7945 C 329.1843 592.0379 332.3192 586.0005 334.8228 584.5088 C 332.808 586.5001 327.6364 590.8905 331.4299 592.1874 C 333.5764 593.0064 335.5966 590.1636 337.6799 589.1517 C 342.8982 586.778 348.0529 584.1517 351.2509 581.6517 C 354.47958 580.2448 358.7816 577.8277 360.1795 576.2945 C 366.6514 569.4006 372.42853 562.4435 377.3225 555.0445 C 381.9419 551.0781 385.7406 546.4172 389.2865 542.0085 C 394.8566 537.2538 398.72195 532.4991 401.0725 527.3655 C 404.828 523.2656 407.3839 518.7237 408.9296 514.6865 C 411.50958 511.6682 412.7055 508.07446 413.3939 505.2222 L 416.2539 495.4022 C 417.3253 492.2474 418.83875 491.1761 419.4682 485.9379 L 422.5082 477.0079 C 424.5717 472.9639 425.8776 468.79358 426.61526 464.6869 C 427.90137 461.1191 428.6824 456.4148 428.5796 453.7939 C 429.529 447.5445 430.7309 441.16888 429.53375 435.0459 C 431.61005 434.4113 432.42374 432.3877 432.73224 430.86908 L 417.83228 410.03506 C 409.07755 402.45905 403.89423 387.7401 391.5682 387.3071 C 378.11725 388.09875 367.88022 408.3551 363.53625 412.18213 L 366.81924 412.18213 C 362.31564 417.9484 357.81207 423.7151 353.30823 429.4811 C 351.81287 431.536 352.71658 433.7802 353.93597 434.50928 Z"/>
                    <g id="g3920">
                        <g id="g3807" transform="matrix(-0.29084 0.95677 -0.95677 -0.29084 933.64 198.42998)">
                            <path id="path3809" fill="url(#radialGradient1509)" stroke="none" d="M 353.04996 432 C 359.1109 425.7707 364.414 418.531 368.20203 411.79703 C 361.34143 410.1976 355.87 411.24982 352.923 414.9537 C 349.177 419.6257 349.4716 425.9387 353.0493 431.99973 Z"/>
                            <g filter="url(#filter3786)">
                                <path id="path3811" fill="#000000" stroke="none" d="M 350.44 421.4 C 350.76907 416.6375 353.3123 413.39664 357.5557 412.03436 C 358.6181 414.4782 358.7469 418.2879 357.7636 419.7265 C 356.60043 421.0224 353.1337 421.9471 350.44 421.39993 Z"/>
                            </g>
                            <g filter="url(#filter3796)">
                                <path id="path3813" fill="#000000" stroke="none" d="M 353.04 431.96 C 359.1895 425.8169 364.203 418.695 368.174 411.82596 L 367.72757 411.73666 C 363.4518 418.407 358.44998 425.26672 352.8166 431.5577 Z"/>
                            </g>
                        </g>
                        <g filter="url(#filter3909)" opacity="0.86996">
                            <path id="path3835" fill="url(#radialGradient4660)" stroke="none" d="M 432.58 430.89 C 429.0738 440.70587 417.443 440.88702 412.392 429.98575 C 419.1264 429.98575 424.361 427.4821 426.044 423.1889 C 428.21613 426.51395 430.19302 428.31488 432.5794 430.88995 Z"/>
                        </g>
                    </g>
                    <g id="g3975">
                        <g filter="url(#filter3937)" opacity="0.90135">
                            <path id="path3927" fill="#abd253" stroke="none" d="M 364.03 412.05 C 369.29117 403.92673 379.415 391.03397 384.359 389.953 C 382.6333 395.7193 374.8467 403.001 370.091 409.525 C 367.5656 409.35663 366.9343 412.2187 364.03006 412.05045 Z"/>
                        </g>
                        <path id="path3817" fill="#5a6824" stroke="none" d="M 384.82 393.7 C 384.82 394.34103 384.26035 394.86066 383.57 394.86066 C 382.8796 394.86066 382.32004 394.34103 382.32004 393.7 C 382.32004 393.05896 382.8796 392.5393 383.57 392.5393 C 384.26035 392.5393 384.82 393.05896 384.82 393.7 Z"/>
                        <g transform="matrix(1 0 0 1 16.226 0)">
                            <path id="path3819" fill="#5a6824" stroke="none" d="M 384.82 393.7 C 384.82 394.34103 384.26035 394.86066 383.57 394.86066 C 382.8796 394.86066 382.32004 394.34103 382.32004 393.7 C 382.32004 393.05896 382.8796 392.5393 383.57 392.5393 C 384.26035 392.5393 384.82 393.05896 384.82 393.7 Z"/>
                        </g>
                        <g filter="url(#filter3971)" opacity="0.85202">
                            <path id="path3941" fill="#b8e236" stroke="none" d="M 415.68 410.66 C 413.50162 409.4802 411.14453 409.10388 408.6089 409.39728 C 410.2504 412.1625 409.30264 415.90967 413.5334 418.3624 C 415.3918 418.5283 417.1162 417.1317 416.5639 414.5743 C 415.58566 414.13684 414.2948 413.20834 414.1648 411.92273 C 414.0895 411.32324 414.68387 411.03625 415.68 410.66 Z"/>
                        </g>
                    </g>
                    <g id="g3913">
                        <g id="g3802">
                            <path id="path2996" fill="url(#radialGradient1511)" stroke="none" d="M 353.04996 432 C 359.1109 425.7707 364.414 418.531 368.20203 411.79703 C 361.34143 410.1976 355.87 411.24982 352.923 414.9537 C 349.177 419.6257 349.4716 425.9387 353.0493 431.99973 Z"/>
                            <g filter="url(#filter1)">
                                <path id="path3780" fill="#000000" stroke="none" d="M 350.44 421.4 C 350.76907 416.6375 353.3123 413.39664 357.5557 412.03436 C 358.6181 414.4782 358.7469 418.2879 357.7636 419.7265 C 356.60043 421.0224 353.1337 421.9471 350.44 421.39993 Z"/>
                            </g>
                            <g filter="url(#filter2)">
                                <path id="path3790" fill="#000000" stroke="none" d="M 353.04 431.96 C 359.1895 425.8169 364.203 418.695 368.174 411.82596 L 367.72757 411.73666 C 363.4518 418.407 358.44998 425.26672 352.8166 431.5577 Z"/>
                            </g>
                        </g>
                        <g filter="url(#filter3905)" opacity="0.72646">
                            <path id="path3825" fill="url(#radialGradient4664)" stroke="none" d="M 352.95 431.96 C 352.17618 437.1386 361.2238 441.5136 371.07504 437.8975 C 375.2417 436.5285 377.8012 434.1773 377.14642 431.1118 C 373.0393 426.20114 363.48544 423.835 359.5574 424.5493 C 357.236 427.3469 355.27167 429.1624 352.9503 431.96 Z"/>
                        </g>
                    </g>
                    <g filter="url(#filter4011)" opacity="0.56502">
                        <path id="path3981" fill="#2b4d10" stroke="none" d="M 425.4 438.06 C 428.1358 438.64923 429.29333 439.5542 429.06183 440.5854 C 425.884 445.7414 425.6104 453.1074 423.8848 453.5914 C 421.9276 454.05438 422.0539 451.7394 422.3696 449.2982 C 421.73825 446.9412 426.9784 442.4376 425.90506 442.2271 C 423.527 441.6168 421.2752 440.12256 419.6548 437.99713 C 421.7172 438.35486 423.6533 438.64948 425.4 438.06018 Z"/>
                    </g>
                    <g filter="url(#filter4017)" opacity="0.57848" transform="matrix(1.0373 -0.10149 0.10927 0.96342 -60.406998 54.011)">
                        <path id="path4015" fill="#7dbb02" stroke="none" d="M 361.61 422.36 C 365.30048 419.1457 367.741 415.3957 369.6457 410.217 C 376.90762 411.52646 379.8837 419.086 378.3957 430.574 C 375.479 431.943 366.31268 426.5264 361.6097 422.35968 Z"/>
                    </g>
                    <g id="g4031">
                        <path id="path4029" fill="#fde577" stroke="none" d="M 334.36 551.01 L 359.23495 474.302 C 356.7938 479.2686 353.2162 483.4776 350.20676 488.06497 C 347.1132 492.6738 344.2722 497.2826 342.2518 501.891 C 341.2206 507.8467 336.4013 512.855 335.7489 519.379 C 334.1705 526.5974 334.3599 533.942 333.6655 541.224 C 333.5813 544.486 333.7497 547.7479 334.36 551.0099 Z"/>
                        <path id="path4021" fill="#436e74" stroke="none" d="M 354.82 481.44 C 351.7685 485.3122 348.0856 491.0154 346.9913 493.246 C 347.8331 493.87732 348.86432 493.8142 349.1379 493.246 C 351.6001 489.4369 354.7569 483.7969 354.82 481.44 Z"/>
                        <path id="path4023" fill="#386876" stroke="none" d="M 346.42 495.2 C 343.0318 498.3778 340.6537 505.02792 340.0434 508.52097 C 343.64206 509.5943 345.09424 507.2583 345.7255 505.11166 C 345.13626 501.3657 347.5775 497.1778 346.41998 495.19962 Z"/>
                        <path id="path4025" fill="#346f81" stroke="none" d="M 338.4 511.3 C 336.3797 515.7826 334.4857 523.548 334.9907 525.695 C 336.4007 526.7683 338.0001 527.5259 338.8419 526.0738 C 340.9043 523.0012 342.0828 519.2974 342.3774 515.9088 C 342.188 514.0568 339.5995 510.4371 338.3999 511.30005 Z"/>
                        <path id="path4027" fill="#3e7977" stroke="none" d="M 334.36 529.55 C 333.2657 533.0434 333.3709 543.355 334.2969 550.258 C 336.1699 550.5947 337.7272 538.557 338.2112 532.707 C 338.56894 531.4022 336.3382 529.5292 334.36 529.5503 Z"/>
                    </g>
                    <g filter="url(#filter4091)">
                        <path id="path4069" fill="url(#linearGradient4666)" stroke="none" d="M 342.57 604.3 C 339.3712 602.869 337.6245 599.7333 337.5192 598.0497 C 334.8465 595.1245 344.3588 584.3077 348.6312 584.7917 C 363.93118 602.4697 388.32224 635.9307 390.7422 640.4767 L 384.0499 640.0979 C 378.80972 636.12036 373.56992 632.1429 368.3299 628.1659 C 359.74362 620.2109 351.1569 612.2559 342.5709 604.3009 Z"/>
                    </g>
                    <path id="path4059" fill="#1d1f4f" stroke="none" d="M 342.44 604.11 C 357.47 621.617 375.80203 639.998 397.493 652.85 C 400.64597 656.179 401.2097 659.1508 400.52338 660.4261 C 395.62573 662.4999 390.5044 665.3327 386.3214 668.0316 C 395.765 663.2741 404.8064 663.1148 405.3214 660.6787 C 401.62 656.2809 399.7936 652.2403 398.5029 648.5567 C 394.9407 644.7543 391.0573 642.1295 388.14886 635.9297 C 386.56223 635.422 388.1898 638.575 387.13867 638.9601 C 375.0527 626.8431 367.9877 614.2321 357.8447 602.3421 C 362.49753 612.8851 370.5407 622.7131 378.0937 632.8101 C 368.2568 629.0095 359.54068 615.9841 352.5417 607.3931 C 350.6031 603.9773 345.0038 602.5259 342.4397 604.1101 Z"/>
                    <path id="path4061" fill="#1d1f4f" stroke="none" d="M 317.31 562.69 C 282.291 531.754 307.8819 543.75 278.167 521.4 C 284.8593 526.4087 289.405 536.721 295.213 553.851 C 302.8733 565.005 311.796 576.032 321.224 586.176 C 315.3314 575.948 318.0252 570.897 315.2894 568.372 C 306.2822 562.6899 299.1694 555.114 295.3384 547.916 C 301.231 555.3659 309.6484 559.28 317.3094 562.689 Z"/>
                    <path id="path4145" fill="#7b7f2b" stroke="none" d="M 354.75 714.39996 C 349.3415 717.8934 347.6579 719.7454 346.29 722.2287 C 344.73273 723.6597 339.8292 721.2396 339.9134 719.5139 C 339.66086 717.662 359.6114 707.0979 369.2714 700.8889 C 364.5574 705.39246 360.85352 710.14856 354.7504 714.3999 Z"/>
                    <path id="path4187" fill="#687e33" stroke="none" d="M 290.67 613.2 C 292.3816 614.3441 295.0753 615.89 298.7512 616.2305 C 303.2689 616.67957 307.0723 615.1643 309.3582 611.6848 C 310.5738 610.6977 310.45 606.4963 309.21027 603.0539 C 307.34055 591.9279 304.48865 579.8649 299.76175 568.2479 C 301.35986 581.6919 306.93115 597.6819 306.83286 607.6439 C 303.69647 609.5456 302.92615 612.8759 300.77197 612.9472 C 298.38696 612.7189 295.91257 613.8745 290.66995 613.19977 Z"/>
                    <g id="g4224">
                        <path id="path4149" fill="url(#linearGradient4668)" stroke="none" d="M 340.71 718.97 C 347.079 712.2438 341.4838 700.875 347.1386 700.22 L 386.9596 669.684 L 404.6386 662.3626 L 407.7186 660.4234 L 419.58762 661.3704 L 417.06216 666.1055 L 410.0543 674.43933 L 395.53333 686.30835 L 372.6153 701.0813 L 353.0433 712.00323 Z"/>
                        <path id="path4147" fill="#cbf69d" stroke="none" d="M 347.24 701.45996 C 343.6146 699.95264 356.6857 691.392 367.56903 683.277 C 374.9679 677.7084 379.286 670.979 388.02496 667.241 C 393.0898 664.1595 398.958 661.9262 404.693 660.675 C 405.86517 660.4454 406.948 661.37646 406.3345 663.2004 C 398.6933 665.6428 390.8285 668.0406 384.6165 672.6706 C 385.5603 673.5048 391.54874 671.0801 392.18 671.3786 C 387.9022 676.0072 382.3743 677.1537 377.293 682.8986 C 369.21048 686.9596 363.271 693.5656 355.322 698.4296 C 358.8996 696.746 360.8701 696.7142 366.05496 693.3787 C 363.3179 696.5139 360.84872 699.6043 355.701 701.7125 C 353.46143 702.8338 350.1949 702.9728 347.24097 701.4601 Z"/>
                        <path id="path4137" fill="#4d6615" stroke="none" d="M 415.54 651.2 C 416.96857 652.6583 418.3971 653.3131 419.8257 655.575 C 420.62927 657.6286 421.5221 662.0036 419.55786 662.8071 C 414.6472 660.1285 407.3258 663.61066 406.07584 661.2892 C 406.07584 659.8606 408.84375 656.7356 411.16516 656.7356 C 413.36755 657.0927 414.58774 655.7535 417.32584 656.557 C 416.37347 655.307 416.84967 653.8784 415.54013 651.19995 Z"/>
                        <path id="path4141" fill="#3f5723" stroke="none" d="M 354.06 715.1 C 380.338 696.886 391.13297 701.338 415.33197 669.943 C 415.27084 669.1005 414.6646 668.5749 413.9115 668.7592 C 395.9255 685.8132 358.3955 704.51227 354.0595 715.1002 Z"/>
                        <path id="path4143" fill="#708d19" stroke="none" d="M 408.57 667.18 C 403.6368 666.4909 398.31796 669.9974 395.26602 674.8586 C 396.16684 675.23926 401.81552 669.9703 403.4803 670.8407 C 401.7243 671.4602 401.7974 673.9738 399.8196 676.1086 C 409.3914 674.0298 407.2086 669.4094 412.1406 667.7157 C 410.95013 667.5371 409.7596 667.3586 408.5692 667.18 Z"/>
                        <path id="path4139" fill="#293f19" stroke="none" d="M 419.69 662.67 C 418.64825 665.0956 417.20486 667.5658 415.3596 669.9468 C 413.9459 670.82477 412.39832 666.7474 408.44 667.8932 C 407.7555 667.4468 407.60663 666.1075 408.2614 665.3486 C 408.93103 664.3069 411.38644 666.07776 412.14532 665.17004 C 412.2495 664.78314 410.56793 664.21765 410.71674 663.60754 C 411.6096 662.53613 415.13632 664.45575 416.20782 663.4736 C 416.83282 662.80396 417.81494 662.2682 419.6899 662.67004 Z"/>
                    </g>
                    <g filter="url(#filter4569)">
                        <path id="path4547" fill="url(#linearGradient4670)" stroke="none" d="M 345.90997 742.61993 C 349.88754 749.0808 354.11752 754.247 357.842 762.00195 C 357.842 762.828 358.6943 763.512 359.1678 762.444 C 359.38876 762.18616 359.6571 762.11774 359.5466 761.62317 C 358.93634 760.613 354.4117 750.51117 350.329 744.7662 C 349.4872 743.5456 347.3827 741.3148 346.09903 741.29376 C 346.0359 741.63055 345.97275 741.9672 345.90958 742.304 L 345.90958 742.6197 Z"/>
                    </g>
                    <path id="path4753" fill="url(#linearGradient4672)" stroke="none" d="M 367.19 759.54 C 368.3385 760.88367 368.4826 762.272 370.8588 762.3657 C 372.71075 767.5638 374.8082 773.0297 376.6602 778.2277 C 377.9018 781.13184 379.1435 784.0361 380.3851 786.9403 C 381.05853 790.076 381.732 793.2117 382.4054 796.3473 C 379.33282 791.6964 376.2603 787.0455 373.18777 782.39435 C 370.99915 779.7216 368.8105 777.0489 366.62177 774.3762 L 367.25314 772.7978 C 367.77927 772.5031 368.30536 772.20856 368.83154 771.914 C 368.36856 769.66205 367.90558 767.41034 367.44254 765.1585 C 365.92734 763.3697 364.41208 761.58093 362.89682 759.7921 C 364.32785 759.7079 365.75894 759.6238 367.19006 759.53955 Z"/>
                    <g filter="url(#filter4767)">
                        <path id="path4691" fill="url(#linearGradient4674)" stroke="none" d="M 375.36 777.72 C 373.1279 775.1902 370.5386 769.4462 370.80643 762.363 C 375.92545 761.5892 379.43744 757.7797 377.86 751.4699 L 382.32434 753.4343 C 382.4136 756.8568 382.50287 760.2795 382.59216 763.7022 C 381.6993 765.96423 380.80646 768.2261 379.91357 770.488 C 380.80643 772.3331 381.69925 774.17847 382.59216 776.0237 C 380.18146 776.5892 378.12784 777.9582 375.35992 777.72003 Z"/>
                    </g>
                    <path id="path4681" fill="url(#linearGradient4676)" stroke="none" d="M 379.41003 766.15 C 377.3679 770.6881 378.54004 775.6726 381.58716 775.83575 C 384.8013 776.59717 387.4798 775.7515 390.426 775.7094 C 393.7932 774.4046 397.1604 773.09985 400.528 771.7951 L 404.9474 768.1333 L 405.8313 762.95636 C 399.36438 769.65906 391.0673 769.97327 387.14328 768.00714 C 382.88312 763.31354 384.51578 757.4591 386.5949 752.67615 C 385.87936 752.67615 384.4496 752.85474 383.73398 752.85474 C 383.18683 756.60065 382.63968 760.3467 382.0925 764.0928 C 381.377 764.8082 380.1257 765.4345 379.4102 766.15 Z"/>
                    <path id="path4671" fill="url(#linearGradient4678)" stroke="none" d="M 402.67 800.96 C 404.9428 799.4027 407.342 797.7191 409.61484 796.1618 C 402.5016 794.8991 392.8628 786.5654 391.93677 779.2418 C 388.275 777.9792 384.61316 776.7164 380.9518 775.4537 C 379.0157 776.12714 377.0796 776.8006 375.14337 777.47394 C 379.5628 781.4305 383.9822 785.38684 388.4014 789.343 C 393.1575 793.2152 397.9137 797.0875 402.6694 800.96 Z"/>
                    <path id="path4661" fill="url(#linearGradient4680)" stroke="none" d="M 410.09 825.31 C 405.6257 819.08984 399.376 810.727 398.84003 802.6309 C 400.4769 801.5596 401.84592 806.0239 406.6971 807.45245 C 405.4471 805.3988 405.2685 804.23816 404.55423 802.6309 C 399.9709 799.625 395.38748 796.6191 390.8042 793.6131 C 390.62564 794.5655 390.44705 795.5179 390.26846 796.4702 C 393.5423 801.79755 396.8161 807.1252 400.0899 812.4523 C 402.26248 816.351 404.43512 820.2498 406.6077 824.1482 C 407.50055 824.2673 409.197 825.1899 410.08994 825.30896 Z"/>
                    <path id="path4651" fill="url(#linearGradient4682)" stroke="none" d="M 402.13998 825.76 L 405.35428 824.42065 L 402.8543 818.08136 L 386.8723 794.9564 L 378.4794 782.6353 L 383.033 799.8674 L 393.747 812.8134 Z"/>
                    <path id="path4641" fill="url(#linearGradient4684)" stroke="none" d="M 380.76 805.7601 L 386.9472 811.82086 L 391.1772 810.6213 L 383.2222 800.646 L 381.3913 801.2774 Z"/>
                    <path id="path4631" fill="url(#linearGradient4686)" stroke="none" d="M 375.89 811.65 C 375.23523 813.22736 376.45544 819.4476 372.58643 824.954 C 375.9197 825.0134 379.2531 825.0731 382.5864 825.13257 C 383.4197 822.1266 381.75305 813.40656 381.8721 806.4716 L 375.89 811.65015 Z"/>
                    <g filter="url(#filter4709)">
                        <path id="path4629" fill="#cc4509" stroke="none" d="M 378.21 751.74005 C 380.71002 755.49 381.1564 765.66895 375.5314 765.57904 C 376.8112 767.8707 382.91245 770.3409 384.1921 770.0433 C 382.2278 759.53723 384.37064 754.74524 385.97778 752.9893 C 384.1623 753.1678 380.0254 751.5607 378.21 751.7393 Z"/>
                    </g>
                    <g filter="url(#filter4717)">
                        <path id="path4627" fill="#cc4509" stroke="none" d="M 380.54004 775.2199 C 384.4388 779.476 389.94482 776.8569 392.236 781.5593 C 392.9205 774.5653 402.35498 771.9462 406.343 772.3629 C 405.4799 771.0831 404.61682 769.8034 403.7537 768.5236 C 398.6049 772.5414 392.4737 775.845 380.5397 775.2199 Z"/>
                    </g>
                    <g filter="url(#filter4725)">
                        <path id="path4625" fill="#cc4509" stroke="none" d="M 404.02 824.33 C 404.55573 816.5324 381.699 793.378 374.824 777.36597 C 386.31204 781.5922 401.639 801.5331 404.199 799.687 C 404.37756 801.65137 404.55615 804.1513 404.73474 806.1156 C 401.28235 801.9787 395.41925 796.9489 391.9667 795.84753 C 398.36548 804.62744 403.8717 820.37164 408.75272 824.59766 C 407.17532 824.50836 405.59787 824.41907 404.0206 824.3298 Z"/>
                    </g>
                    <g filter="url(#filter4749)">
                        <path id="path4623" fill="#cc4509" stroke="none" d="M 384.02 828.43 C 383.45453 820.7217 385.74615 816.138 387.5021 816.376 C 392.9783 815.78076 399.43707 825.8104 399.55606 829.858 C 400.568 828.489 402.6513 826.7629 403.6632 825.3936 C 400.5382 822.4473 390.6272 803.3397 382.7702 799.1437 C 382.6214 803.0127 383.544 803.22107 389.5559 810.21466 C 387.9487 811.7921 385.538 810.5123 381.5202 805.5719 C 379.169 818.0419 383.51416 819.8869 381.16306 826.64294 C 381.93686 827.23816 383.24637 827.8334 384.02014 828.4286 Z"/>
                    </g>
                    <path id="path4201" fill="#88a435" stroke="none" d="M 364.92 777.41 C 365.63553 786.7329 373.23267 797.95 376.158 804.053 C 376.7052 801.56964 380.6616 801.4855 379.6935 799.823 C 372.7487 792.9203 368.3925 778.441 364.9205 777.41 Z"/>
                    <g filter="url(#filter3)" transform="matrix(0.056513 0.31136 -0.41121 0.042791 646.95 621.52)">
                        <path id="path4573" fill="url(#linearGradient4688)" stroke="none" d="M 345.85 750.15 C 349.8275 756.6107 342.963 753.4918 353.82037 757.8625 C 353.82037 758.68854 357.4536 757.5216 357.92706 756.4536 C 358.14804 756.1958 361.4157 753.73016 361.3052 753.23553 C 360.69485 752.2254 359.86392 746.1509 353.84827 747.7781 C 353.0065 746.5574 351.34897 747.991 350.0653 747.97 C 350.00223 748.3067 348.2931 748.496 348.2299 748.8328 C 343.7803 751.2031 347.01257 749.1134 345.85 750.15 Z"/>
                    </g>
                    <g transform="matrix(1.1176 0 0 1 -44.412003 0)">
                        <path id="path4577" fill="url(#radialGradient1513)" stroke="none" d="M 383.57 829.42 C 383.57 833.5128 380.85175 836.8307 377.4986 836.8307 C 374.1454 836.8307 371.42722 833.5128 371.42722 829.42 C 371.42722 825.3272 374.1455 822.0093 377.4986 822.0093 C 380.8518 822.0093 383.57 825.3272 383.57 829.42 Z"/>
                    </g>
                    <g transform="matrix(1.2759 0 0 1.2063 -112.65 -171.68)">
                        <path id="path4579" fill="url(#radialGradient4692)" stroke="none" d="M 411.61 830.6699 C 411.61 833.7766 409.2915 836.295 406.43143 836.295 C 403.5714 836.295 401.2528 833.7766 401.2528 830.6699 C 401.2528 827.56335 403.5713 825.045 406.43143 825.045 C 409.2914 825.045 411.61 827.56335 411.61 830.6699 Z"/>
                    </g>
                    <g transform="matrix(1.0962 0 0 1.1786 -38.788 -143.43)">
                        <path id="path4581" fill="url(#radialGradient4694)" stroke="none" d="M 412.68 802.18 C 412.68 804.9414 410.60132 807.17993 408.0372 807.17993 C 405.473 807.17993 403.3943 804.9414 403.3943 802.18 C 403.3943 799.41864 405.473 797.18 408.0372 797.18 C 410.60138 797.18 412.68 799.41864 412.68 802.18 Z"/>
                    </g>
                    <g transform="matrix(1.1296 0 0 1.25 -53.323 -192.47)">
                        <path id="path4583" fill="url(#radialGradient4696)" stroke="none" d="M 414.11 768.08 C 414.11 770.6442 411.9514 772.7228 409.28864 772.7228 C 406.62582 772.7228 404.4672 770.6441 404.4672 768.08 C 404.4672 765.51575 406.62582 763.4371 409.28864 763.4371 C 411.9514 763.4371 414.11 765.51575 414.11 768.08 Z"/>
                    </g>
                    <g transform="matrix(0.97059 0 0 1.0161 11.602 -12.348)">
                        <path id="path4585" fill="url(#radialGradient4698)" stroke="none" d="M 388.39 748.97 C 388.39 752.02734 385.6717 754.5057 382.3186 754.5057 C 378.9654 754.5057 376.24716 752.02734 376.24716 748.97 C 376.24716 745.9127 378.9655 743.4343 382.3186 743.4343 C 385.6718 743.4343 388.39 745.9127 388.39 748.97 Z"/>
                    </g>
                    <path id="path4806" fill="#687e33" stroke="none" d="M 275.45 569.86 C 279.4381 580.931 286.283 602.985 287.861 604.146 C 288.9622 608.2532 289.3491 606.646 290.0931 607.896 C 293.1883 606.9734 289.67642 603.5508 292.6824 602.9853 C 287.6229 602.3901 288.1884 599.1163 275.4504 569.8603 Z"/>
                    <g transform="matrix(1.1176 0 0 0.89777 -212.6 -226.97002)">
                        <path id="path4857" fill="url(#radialGradient1515)" stroke="none" d="M 383.57 829.42 C 383.57 833.5128 380.85175 836.8307 377.4986 836.8307 C 374.1454 836.8307 371.42722 833.5128 371.42722 829.42 C 371.42722 825.3272 374.1455 822.0093 377.4986 822.0093 C 380.8518 822.0093 383.57 825.3272 383.57 829.42 Z"/>
                    </g>
                    <g transform="matrix(0.99286 0 0 0.85517 -143.9 -212.77998)">
                        <path id="path4861" fill="url(#radialGradient1517)" stroke="none" d="M 383.57 829.42 C 383.57 833.5128 380.85175 836.8307 377.4986 836.8307 C 374.1454 836.8307 371.42722 833.5128 371.42722 829.42 C 371.42722 825.3272 374.1455 822.0093 377.4986 822.0093 C 380.8518 822.0093 383.57 825.3272 383.57 829.42 Z"/>
                    </g>
                    <g transform="matrix(0.96167 0 0 0.79554 -109.59 -150.76)">
                        <path id="path4865" fill="url(#radialGradient1519)" stroke="none" d="M 383.57 829.42 C 383.57 833.5128 380.85175 836.8307 377.4986 836.8307 C 374.1454 836.8307 371.42722 833.5128 371.42722 829.42 C 371.42722 825.3272 374.1455 822.0093 377.4986 822.0093 C 380.8518 822.0093 383.57 825.3272 383.57 829.42 Z"/>
                    </g>
                    <g transform="matrix(1.094 0 0 0.87385 -137.98 -316.36)">
                        <path id="path4869" fill="url(#radialGradient1521)" stroke="none" d="M 383.57 829.42 C 383.57 833.5128 380.85175 836.8307 377.4986 836.8307 C 374.1454 836.8307 371.42722 833.5128 371.42722 829.42 C 371.42722 825.3272 374.1455 822.0093 377.4986 822.0093 C 380.8518 822.0093 383.57 825.3272 383.57 829.42 Z"/>
                    </g>
                    <g transform="matrix(1.1014 0 0 0.90999 -115.87 -374.8)">
                        <path id="path4873" fill="url(#radialGradient1523)" stroke="none" d="M 383.57 829.42 C 383.57 833.5128 380.85175 836.8307 377.4986 836.8307 C 374.1454 836.8307 371.42722 833.5128 371.42722 829.42 C 371.42722 825.3272 374.1455 822.0093 377.4986 822.0093 C 380.8518 822.0093 383.57 825.3272 383.57 829.42 Z"/>
                    </g>
                    <g transform="matrix(1.0278 0 0 0.84975 -55.229 -310.01)">
                        <path id="path4877" fill="url(#radialGradient1525)" stroke="none" d="M 383.57 829.42 C 383.57 833.5128 380.85175 836.8307 377.4986 836.8307 C 374.1454 836.8307 371.42722 833.5128 371.42722 829.42 C 371.42722 825.3272 374.1455 822.0093 377.4986 822.0093 C 380.8518 822.0093 383.57 825.3272 383.57 829.42 Z"/>
                    </g>
                    <g transform="matrix(0.68226 0 0 0.58469 82.581 -56.292)">
                        <path id="path4881" fill="url(#radialGradient1527)" stroke="none" d="M 383.57 829.42 C 383.57 833.5128 380.85175 836.8307 377.4986 836.8307 C 374.1454 836.8307 371.42722 833.5128 371.42722 829.42 C 371.42722 825.3272 374.1455 822.0093 377.4986 822.0093 C 380.8518 822.0093 383.57 825.3272 383.57 829.42 Z"/>
                    </g>
                    <g id="g4140">
                        <path id="path4122" fill="url(#linearGradient4714)" stroke="none" d="M 481.59 502.51996 L 478.3701 508.13898 L 480.70605 514.4525 L 495.1011 524.4905 L 496.1113 516.3461 L 490.4923 510.15887 L 487.9669 504.7293 L 481.84293 502.3302 Z"/>
                        <path id="path4108" fill="url(#radialGradient4716)" stroke="none" d="M 482.28 503.14996 L 488.40402 508.327 L 501.031 489.955 L 500.08398 487.61896 L 496.9273 489.008 L 482.78528 501.698 Z"/>
                        <path id="path4078" fill="url(#radialGradient4718)" stroke="none" d="M 471.87003 489.83 C 470.81778 494.1968 481.12973 500.521 489.926 494.502 C 485.4224 498.12167 480.91876 501.7414 476.415 505.361 C 474.0159 502.1622 471.6168 498.9634 469.21774 495.76462 C 470.1016 493.7864 470.98553 491.8082 471.86926 489.83 Z"/>
                        <path id="path4058" fill="#cc4509" stroke="none" d="M 464.23004 503.91 C 467.6182 503.16293 469.2702 497.2704 465.3349 495.1659 C 467.271 494.0505 469.4281 492.7773 471.3643 491.6619 C 468.6495 497.4071 475.3102 499.3643 478.37222 505.48795 C 473.7423 505.046 468.8599 504.604 464.2302 503.9095 Z"/>
                        <path id="path4060" fill="#cc4509" stroke="none" d="M 495.8 485.21997 C 497.07977 494.5057 472.824 501.29095 477.13904 503.702 C 478.1807 505.9044 479.2223 506.8568 480.26398 508.4341 C 479.90686 503.7913 496.157 489.68414 499.014 488.97006 C 498.21042 487.83914 496.6033 486.3511 495.7997 485.2201 Z"/>
                        <path id="path4098" fill="url(#radialGradient4720)" stroke="none" d="M 501.16 542.87 L 505.51627 542.23865 L 504.56927 537.06165 L 494.0893 517.4896 L 494.2787 522.03534 Z"/>
                        <path id="path4088" fill="url(#radialGradient4722)" stroke="none" d="M 502.42004 490.78003 C 495.39102 503.239 502.63043 513.235 527.705 508.584 C 526.9474 510.6464 524.5167 513.5295 523.7591 515.5919 C 512.6891 514.85535 501.6201 514.1188 490.5501 513.3822 C 488.36136 513.3401 485.8571 510.7095 487.9616 507.7632 C 492.2758 502.2494 496.59 496.7352 500.9046 491.22217 C 501.40967 491.0749 501.9148 490.92758 502.41977 490.78027 Z"/>
                        <path id="path4068" fill="url(#radialGradient4724)" stroke="none" d="M 505.01 535.16 C 502.64282 528.668 506.0294 519.28 513.47 518.682 C 507.3039 518.28217 500.885 517.4404 494.71896 517.0405 C 497.8547 522.6384 501.8742 529.5625 505.01 535.1605 Z"/>
                        <path id="path4066" fill="#cc4509" stroke="none" d="M 502.19998 542.24 C 504.7 543.5793 507.9442 544.9556 511.78342 546.3841 C 508.14 542.5286 500.9204 525.2831 495.0874 516.2051 L 490.98026 514.0622 C 497.5577 523.586 509.1513 542.5672 502.2003 542.2392 Z"/>
                        <path id="path4064" fill="#cc4509" stroke="none" d="M 495.72998 517.99 C 507.136 520.1787 518.311 517.00165 528.52 521.4809 C 526.4155 518.7451 525.7396 516.0539 523.6351 513.3181 C 519.4261 517.0641 512.3131 510.45602 501.5381 511.2978 C 495.47717 510.49808 490.0481 512.35 490.1741 513.4444 C 492.5311 517.1062 493.878 517.7376 495.72986 517.9901 Z"/>
                        <path id="path4062" fill="#cc4509" stroke="none" d="M 499.38 489.15002 C 501.7014 491.4417 487.059 505.42996 487.862 508.079 C 490.7489 507.5433 499.975 490.847 506.166 487.99 C 503.90414 488.3769 501.6422 488.76385 499.3803 489.1507 Z"/>
                        <path id="path4047" fill="url(#linearGradient4726)" stroke="none" d="M 427.05 518.26 L 428.74637 515.8493 L 428.03214 509.5993 L 427.4071 506.385 L 432.13922 506.20642 L 441.4249 505.2243 L 449.907 504.42072 L 455.532 505.04572 L 473.21002 505.04572 C 475.59097 505.4475 477.2576 506.385 478.21002 507.45642 C 478.56717 507.99216 480.48682 510.00098 479.8172 510.67072 L 479.90652 514.51 L 479.46005 518.5279 L 475.6208 519.5101 L 468.56717 520.22437 L 458.47818 523.0814 L 445.62115 524.68854 L 438.83548 525.22424 L 435.5319 525.0457 L 427.40692 521.5635 Z"/>
                        <path id="path4041" fill="#c7dc7f" stroke="none" d="M 478.81 517.3 C 477.1054 513.1542 477.3579 510.58673 480.3252 510.9234 C 488.659 514.2274 494.8462 520.3094 498.1292 527.0854 C 499.96008 530.4736 498.76053 533.6093 500.5914 536.8713 C 495.6669 531.8837 490.7424 526.896 485.81842 521.9083 L 478.8105 517.2995 Z"/>
                        <path id="path5192" fill="#959aba" stroke="none" d="M 479.82 510.83 C 483.6956 514.0401 479.7741 506.0122 477.6835 504.32928 C 475.2449 502.6545 472.2696 503.59964 466.7685 503.97668 C 472.4048 505.5174 476.705 507.50934 479.8195 510.82993 Z"/>
                        <path id="path4039" fill="#a06c45" stroke="none" d="M 482.59 521.56 L 499.019 545.131 L 502.2333 542.5417 L 492.3226 528.0777 Z"/>
                        <path id="path3268" fill="#cc4509" stroke="none" d="M 464.99 521.97 C 472.019 521.19135 477.28 518.8343 481.152 523.4221 C 485.5504 527.147 496.565 535.8961 497.50998 548.1821 C 497.90985 547.7191 498.9347 544.8454 499.3346 544.3824 C 495.6518 537.2061 492.5371 528.3254 484.1196 523.4214 C 483.27777 521.2538 480.35257 518.1392 476.1015 518.2444 C 472.3345 519.17035 468.2518 520.2226 464.9895 521.9693 Z"/>
                        <path id="path5196" fill="#7aa203" stroke="none" d="M 428.3 516.65 C 425.8446 518.1083 425.4875 519.7899 425.62137 521.025 C 426.03806 524.8494 429.4012 523.9863 431.6928 524.8643 C 432.57077 516.5905 426.3952 523.1381 428.29987 516.65 Z"/>
                        <path id="path5194" fill="#e2fd72" stroke="none" d="M 443.48 503.21 C 445.84613 503.21 464.819 503.43323 469.86398 504.4154 L 473.0336 505.1297 C 475.13184 506.91537 464.5961 504.86182 463.70322 506.3797 C 462.85495 507.19815 466.47113 508.23978 464.7746 509.3708 C 463.61392 510.15952 461.2925 506.70712 458.8817 507.04938 C 454.47687 507.25772 453.7775 505.3679 449.55133 505.26373 C 445.7418 505.53156 443.9412 507.4958 440.53354 506.73688 C 438.9859 507.18332 437.6615 508.7012 435.8906 508.0762 C 435.16147 508.23987 435.1019 508.7607 435.17627 509.6387 C 434.78943 510.54642 437.39362 511.231 438.3013 514.50476 C 435.6227 511.55838 432.2745 511.2012 430.26563 505.6655 C 430.9799 504.98096 431.69424 504.29648 432.4085 503.61188 C 436.099 503.478 439.78952 503.34406 443.47952 503.2101 Z"/>
                        <path id="path5190" fill="#7aa203" stroke="none" d="M 438.08 525.4 C 461.979 525.69763 463.512 521.531 476.785 518.1678 C 470.6243 517.75116 459.37396 523.2273 453.214 523.0785 C 446.3688 523.644 440.461 523.8523 438.08 525.3999 Z"/>
                        <path id="path5186" fill="#b1cfb7" stroke="none" d="M 424.07 490.34 C 424.02786 491.75 423.9858 493.16 423.94376 494.57 C 426.27972 498.4633 428.61572 502.35657 430.95163 506.25 C 431.89865 504.3139 433.8558 504.77686 436.06552 505.36612 C 433.49802 501.47278 430.93054 497.57953 428.36313 493.68613 L 425.58527 490.2137 C 425.08014 490.2558 424.57504 490.2979 424.07 490.34 Z"/>
                        <path id="path5184" fill="#959aba" stroke="none" d="M 430.61996 495.09 C 434.1468 504.584 439.995 501.08698 445.084 503.215 C 442.21204 505.0305 436.9292 503.8549 436.20013 506.51855 C 435.1882 504.0186 433.2834 504.24182 432.3608 502.099 C 431.1554 499.2716 431.2001 497.4264 430.6197 495.0901 Z"/>
                        <path id="path5180" fill="#54773f" stroke="none" d="M 427.26004 512.03 C 428.04916 514.1976 428.11932 516.2552 427.67737 517.097 C 430.87613 514.3822 433.24728 516.22845 439.22437 521.1529 C 439.22437 514.7027 431.77448 515.4497 427.67035 506.8209 C 427.56512 508.7991 427.36526 510.0513 427.26004 512.0295 Z"/>
                        <path id="path4976" fill="#5e927c" stroke="none" d="M 427.8 512.94 C 428.76807 514.9393 430.9988 512.77167 427.86307 507.00543 C 429.0206 506.54242 431.4407 508.0997 431.3355 505.6164 C 431.46173 504.3537 426.2847 497.7877 424.8958 493.1154 C 424.28552 492.37885 424.4328 491.07397 425.52713 491.2845 C 427.1896 491.57913 430.43054 502.8595 433.73465 503.7225 C 432.93497 500.4816 427.46323 487.3915 424.3276 479.2265 C 423.52795 485.1401 422.72824 491.0535 421.9285 496.96753 C 423.88574 502.29184 424.26453 506.5429 427.80014 512.9405 Z"/>
                        <path id="path4960" fill="#56507c" stroke="none" d="M 424.39 504.48004 C 421.1912 488.107 425.06342 491.432 425.4002 484.908 C 425.10556 480.5728 422.9169 471.818 422.2435 475.31158 C 420.8545 479.60477 419.46564 483.8979 418.0766 488.1906 C 418.7921 493.4939 421.1492 499.0496 424.39 504.4796 Z"/>
                        <path id="path4958" fill="#312749" stroke="none" d="M 416.44 490.09 C 419.76514 496.8244 423.2164 505.832 427.93002 513.324 C 425.6151 506.2108 421.7849 498.97098 420.9852 491.985 C 420.26968 485.7136 423.8473 481.336 422.6267 475.44403 C 420.5643 480.32635 418.5019 485.2088 416.4395 490.09097 Z"/>
                        <g transform="matrix(0.96167 0 0 0.79554 103.05 -170.46)">
                            <path id="path4885" fill="url(#radialGradient1529)" stroke="none" d="M 383.57 829.42 C 383.57 833.5128 380.85175 836.8307 377.4986 836.8307 C 374.1454 836.8307 371.42722 833.5128 371.42722 829.42 C 371.42722 825.3272 374.1455 822.0093 377.4986 822.0093 C 380.8518 822.0093 383.57 825.3272 383.57 829.42 Z"/>
                        </g>
                        <g transform="matrix(1.0205 0 0 0.79554 116.55 -176.01)">
                            <path id="path4889" fill="url(#radialGradient1531)" stroke="none" d="M 383.57 829.42 C 383.57 833.5128 380.85175 836.8307 377.4986 836.8307 C 374.1454 836.8307 371.42722 833.5128 371.42722 829.42 C 371.42722 825.3272 374.1455 822.0093 377.4986 822.0093 C 380.8518 822.0093 383.57 825.3272 383.57 829.42 Z"/>
                        </g>
                        <g transform="matrix(1.0553 0 0 0.90629 131.55 -236.87)">
                            <path id="path4893" fill="url(#radialGradient1533)" stroke="none" d="M 383.57 829.42 C 383.57 833.5128 380.85175 836.8307 377.4986 836.8307 C 374.1454 836.8307 371.42722 833.5128 371.42722 829.42 C 371.42722 825.3272 374.1455 822.0093 377.4986 822.0093 C 380.8518 822.0093 383.57 825.3272 383.57 829.42 Z"/>
                        </g>
                        <g transform="matrix(1.2164 0 0 1.0085 45.544 -287.45)">
                            <path id="path4897" fill="url(#radialGradient4690)" stroke="none" d="M 383.57 829.42 C 383.57 833.5128 380.85175 836.8307 377.4986 836.8307 C 374.1454 836.8307 371.42722 833.5128 371.42722 829.42 C 371.42722 825.3272 374.1455 822.0093 377.4986 822.0093 C 380.8518 822.0093 383.57 825.3272 383.57 829.42 Z"/>
                        </g>
                        <g filter="url(#filter4972)">
                            <path id="path4962" fill="#646b3f" stroke="none" d="M 425.65002 499.56 C 428.0912 507.62024 429.52228 509.935 432.97363 515.596 C 430.827 514.92255 429.1855 512.9864 427.29147 509.40884 C 425.7973 505.747 425.4396 502.5903 425.65002 499.55984 Z"/>
                        </g>
                        <path id="path5182" fill="#425810" stroke="none" d="M 429.59998 524.37 C 430.54703 523.3072 431.6834 522.6548 430.1682 520.2347 C 433.98782 521.2869 435.56622 524.1385 439.2596 525.4749 C 436.03973 525.1066 432.3464 525.6222 429.59998 524.37 Z"/>
                        <path id="path5188" fill="#7aa203" stroke="none" d="M 441.18 515.47 C 454.47998 517.9112 462.35104 517.1957 473.884 515.59625 C 469.5488 516.90106 465.3398 519.3423 460.878 519.51056 C 454.8171 521.3205 447.746 516.8169 441.18 515.47 Z"/>
                        <path id="path5198" fill="#6a7527" stroke="none" d="M 475.95 518.37 C 479.9597 518.4185 486.045 524.5201 490.71802 528.1673 C 495.0552 531.5204 497.2774 539.0723 499.468 543.4353 C 501.4432 542.5984 501.9347 540.0885 501.7001 537.9889 C 499.2688 529.9404 493.3019 529.7207 487.6821 520.7569 C 485.41928 520.05615 481.89392 519.1345 479.3785 516.3819 C 478.48563 516.0319 476.4327 515.9108 475.9502 518.3703 Z"/>
                    </g>
                    <g filter="url(#filter4226)">
                        <path id="path4220" fill="#c1ebab" stroke="none" d="M 312.77 439.33 C 311.9703 446.4011 312.55954 453.78796 315.2954 459.217 C 316.516 458.3962 314.4536 452.3985 316.495 452.96667 C 317.08426 454.2083 317.6735 455.45 318.2628 456.6916 C 319.6097 453.4086 319.5044 448.8629 318.51535 446.4636 C 317.31573 442.44397 315.16925 441.3918 314.34845 437.6248 C 312.81213 436.67776 312.53864 438.31927 312.77005 439.32944 Z"/>
                    </g>
                </g>
            </g>
        </g>
    </g>
</svg>
