<svg width="234" height="333.00003" xmlns="http://www.w3.org/2000/svg">
    <g id="layer1" transform="matrix(1 0 0 1 0 -719.3622)">
        <g id="g921">
            <path id="rect4266" fill="#ffffff" stroke="#808080" stroke-width="0.7559055" d="M 9.297138 719.7401 L 224.70288 719.7401 C 229.6288 719.7401 233.62206 723.74524 233.62206 728.68585 L 233.62206 1043.0385 C 233.62207 1045.411 232.68237 1047.6864 231.0097 1049.3641 C 229.33702 1051.0417 227.06839 1051.9843 224.70288 1051.9843 L 9.297138 1051.9843 C 6.9316134 1051.9843 4.662975 1051.0417 2.9903018 1049.3641 C 1.3176281 1047.6864 0.3779376 1045.411 0.37795275 1043.0385 L 0.37795275 728.68585 C 0.37795484 723.74524 4.3712096 719.7401 9.297138 719.7401 Z"/>
            <g id="g4233" transform="matrix(0.07348588 0 0 0.07370838 -248.0173 933.60065)"/>
            <g id="g4211" transform="matrix(0.07348588 0 0 0.07370838 -248.01726 933.60065)"/>
            <g id="g4227" transform="matrix(0.07348588 0 0 0.07370838 -248.0173 933.60065)"/>
            <g id="g5492-7-8-1" transform="matrix(0.01882914 0 0 0.01889089 -28.914568 764.9804)">
                <path id="rect4124-6-9-7" fill="#000000" stroke="none" d="M 2406.7065 536.5494 L 2491.963 536.5494 L 2491.963 832.23486 L 2406.7065 832.23486 Z"/>
                <path id="path3979-1-6-1-2-4" fill="#000000" stroke="none" d="M 2917.856 395.12878 C 2984.9912 515.9333 2941.4573 668.2736 2820.6213 735.3906 C 2699.7852 802.50757 2547.4053 758.98535 2480.2712 638.1809 C 2462.391 606.0078 2451.8313 570.2876 2449.382 533.6091 C 2440.0403 671.5299 2320.6353 775.7004 2182.7202 766.32275 C 2044.8062 756.94507 1940.6091 637.57043 1949.9891 499.69196 C 1959.3691 361.81357 2078.7751 257.64313 2216.6892 267.02075 C 2252.895 269.48264 2288.132 279.78604 2320.4143 297.24246 C 2202.2222 226.35654 2163.539 72.71341 2234.469 -45.903423 C 2305.3992 -164.52025 2459.0823 -203.19305 2577.7302 -132.28156 C 2696.3772 -61.370026 2735.0603 92.27311 2664.1301 210.88994 C 2642.7893 246.57954 2612.8872 276.38965 2577.318 297.77246 C 2698.3423 230.80214 2850.7222 274.32434 2917.856 395.12878 Z"/>
            </g>
            <g id="g5492-7-8-8-4" transform="matrix(0.01882924 0 0 -0.01889089 171.24295 1006.7439)">
                <path id="rect4124-6-9-8-8" fill="#000000" stroke="none" d="M 2406.7065 536.5494 L 2491.963 536.5494 L 2491.963 832.23486 L 2406.7065 832.23486 Z"/>
                <path id="path3979-1-6-1-2-2-8" fill="#000000" stroke="none" d="M 2917.856 395.12878 C 2984.9912 515.9333 2941.4573 668.2736 2820.6213 735.3906 C 2699.7852 802.50757 2547.4053 758.98535 2480.2712 638.1809 C 2462.391 606.0078 2451.8313 570.2876 2449.382 533.6091 C 2440.0403 671.5299 2320.6353 775.7004 2182.7202 766.32275 C 2044.8062 756.94507 1940.6091 637.57043 1949.9891 499.69196 C 1959.3691 361.81357 2078.7751 257.64313 2216.6892 267.02075 C 2252.895 269.48264 2288.132 279.78604 2320.4143 297.24246 C 2202.2222 226.35654 2163.539 72.71341 2234.469 -45.903423 C 2305.3992 -164.52025 2459.0823 -203.19305 2577.7302 -132.28156 C 2696.3772 -61.370026 2735.0603 92.27311 2664.1301 210.88994 C 2642.7893 246.57954 2612.8872 276.38965 2577.318 297.77246 C 2698.3423 230.80214 2850.7222 274.32434 2917.856 395.12878 Z"/>
            </g>
            <g id="g5492-7-7" transform="matrix(0.05648742 0 0 0.05667266 -21.360401 867.03375)">
                <path id="rect4124-6-6" fill="#000000" stroke="none" d="M 2406.7065 536.5494 L 2491.963 536.5494 L 2491.963 832.23486 L 2406.7065 832.23486 Z"/>
                <path id="path3979-1-6-1-1" fill="#000000" stroke="none" d="M 2917.856 395.12878 C 2984.9912 515.9333 2941.4573 668.2736 2820.6213 735.3906 C 2699.7852 802.50757 2547.4053 758.98535 2480.2712 638.1809 C 2462.391 606.0078 2451.8313 570.2876 2449.382 533.6091 C 2440.0403 671.5299 2320.6353 775.7004 2182.7202 766.32275 C 2044.8062 756.94507 1940.6091 637.57043 1949.9891 499.69196 C 1959.3691 361.81357 2078.7751 257.64313 2216.6892 267.02075 C 2252.895 269.48264 2288.132 279.78604 2320.4143 297.24246 C 2202.2222 226.35654 2163.539 72.71341 2234.469 -45.903423 C 2305.3992 -164.52025 2459.0823 -203.19305 2577.7302 -132.28156 C 2696.3772 -61.370026 2735.0603 92.27311 2664.1301 210.88994 C 2642.7893 246.57954 2612.8872 276.38965 2577.318 297.77246 C 2698.3423 230.80214 2850.7222 274.32434 2917.856 395.12878 Z"/>
            </g>
            <g id="text3755-0" transform="matrix(0.83054507 0 0 1.2040286 0 0)">
                <path id="path898" fill="#000000" stroke="none" d="M 32.051407 627.48846 L 27.39565 627.48846 L 25.555746 622.64075 L 15.956245 622.64075 L 14.036343 627.48846 L 9.380587 627.48846 L 18.452114 603.9537 L 22.995878 603.9537 Z M 23.875832 618.27295 L 20.755995 610.19336 L 17.620157 618.27295 Z"/>
            </g>
            <g id="text3755-2-2" transform="matrix(-0.8305451 0 0 -1.2040285 0 0)">
                <path id="path901" fill="#000000" stroke="none" d="M -249.69128 -844.0084 L -254.34705 -844.0084 L -256.18695 -848.8561 L -265.78644 -848.8561 L -267.70633 -844.0084 L -272.3621 -844.0084 L -263.29056 -867.5432 L -258.7468 -867.5432 Z M -257.86685 -853.22394 L -260.9867 -861.3035 L -264.12253 -853.22394 Z"/>
            </g>
        </g>
    </g>
</svg>
