<svg width="234" height="333" xmlns="http://www.w3.org/2000/svg">
    <g id="layer1" transform="matrix(1 0 0 1 0 -719.3622)">
        <g id="g857">
            <path id="rect4266" fill="#ffffff" stroke="#808080" stroke-width="0.756" d="M 9.297135 719.7403 L 224.70277 719.7403 C 227.0683 719.7403 229.33693 720.68274 231.00961 722.3603 C 232.68227 724.038 233.62195 726.3135 233.62195 728.6859 L 233.62195 1043.0385 C 233.62198 1045.411 232.6823 1047.6864 231.00961 1049.3641 C 229.33694 1051.0417 227.0683 1051.9843 224.70277 1051.9843 L 9.297135 1051.9843 C 6.931611 1051.9843 4.6629725 1051.0417 2.9903 1049.3641 C 1.3176267 1047.6864 0.37793684 1045.411 0.37795272 1043.0385 L 0.37795272 728.6859 C 0.3779533 723.74536 4.371207 719.7403 9.297135 719.7403 Z"/>
            <g>
                <g transform="matrix(0.05648739 0 0 0.05667264 -21.360397 766.9114)">
                    <path fill="#000000" stroke="none" d="M 2406.7065 536.5494 L 2491.963 536.5494 L 2491.963 832.23486 L 2406.7065 832.23486 Z"/>
                    <path fill="#000000" stroke="none" d="M 2917.856 395.12878 C 2984.9912 515.9333 2941.4573 668.2736 2820.6213 735.3906 C 2699.7852 802.50757 2547.4053 758.98535 2480.2712 638.1809 C 2462.391 606.0078 2451.8313 570.2876 2449.382 533.6091 C 2440.0403 671.5299 2320.6353 775.7004 2182.7202 766.32275 C 2044.8062 756.94507 1940.6091 637.57043 1949.9891 499.69196 C 1959.3691 361.81357 2078.7751 257.64313 2216.6892 267.02075 C 2252.895 269.48264 2288.132 279.78604 2320.4143 297.24246 C 2202.2222 226.35654 2163.539 72.71341 2234.469 -45.903423 C 2305.3992 -164.52025 2459.0823 -203.19305 2577.7302 -132.28156 C 2696.3772 -61.370026 2735.0603 92.27311 2664.1301 210.88994 C 2642.7893 246.57954 2612.8872 276.38965 2577.318 297.77246 C 2698.3423 230.80214 2850.7222 274.32434 2917.856 395.12878 Z"/>
                </g>
            </g>
            <g id="g5492-7-8-1" transform="matrix(0.01882913 0 0 0.01889088 -28.914555 764.9805)">
                <path id="rect4124-6-9-7" fill="#000000" stroke="none" d="M 2406.7065 536.5494 L 2491.963 536.5494 L 2491.963 832.23486 L 2406.7065 832.23486 Z"/>
                <path id="path3979-1-6-1-2-4" fill="#000000" stroke="none" d="M 2917.856 395.12878 C 2984.9912 515.9333 2941.4573 668.2736 2820.6213 735.3906 C 2699.7852 802.50757 2547.4053 758.98535 2480.2712 638.1809 C 2462.391 606.0078 2451.8313 570.2876 2449.382 533.6091 C 2440.0403 671.5299 2320.6353 775.7004 2182.7202 766.32275 C 2044.8062 756.94507 1940.6091 637.57043 1949.9891 499.69196 C 1959.3691 361.81357 2078.7751 257.64313 2216.6892 267.02075 C 2252.895 269.48264 2288.132 279.78604 2320.4143 297.24246 C 2202.2222 226.35654 2163.539 72.71341 2234.469 -45.903423 C 2305.3992 -164.52025 2459.0823 -203.19305 2577.7302 -132.28156 C 2696.3772 -61.370026 2735.0603 92.27311 2664.1301 210.88994 C 2642.7893 246.57954 2612.8872 276.38965 2577.318 297.77246 C 2698.3423 230.80214 2850.7222 274.32434 2917.856 395.12878 Z"/>
            </g>
            <g id="g5492-7-8-8-4" transform="matrix(0.01882923 0 0 -0.01889088 171.24287 1006.7439)">
                <path id="rect4124-6-9-8-8" fill="#000000" stroke="none" d="M 2406.7065 536.5494 L 2491.963 536.5494 L 2491.963 832.23486 L 2406.7065 832.23486 Z"/>
                <path id="path3979-1-6-1-2-2-8" fill="#000000" stroke="none" d="M 2917.856 395.12878 C 2984.9912 515.9333 2941.4573 668.2736 2820.6213 735.3906 C 2699.7852 802.50757 2547.4053 758.98535 2480.2712 638.1809 C 2462.391 606.0078 2451.8313 570.2876 2449.382 533.6091 C 2440.0403 671.5299 2320.6353 775.7004 2182.7202 766.32275 C 2044.8062 756.94507 1940.6091 637.57043 1949.9891 499.69196 C 1959.3691 361.81357 2078.7751 257.64313 2216.6892 267.02075 C 2252.895 269.48264 2288.132 279.78604 2320.4143 297.24246 C 2202.2222 226.35654 2163.539 72.71341 2234.469 -45.903423 C 2305.3992 -164.52025 2459.0823 -203.19305 2577.7302 -132.28156 C 2696.3772 -61.370026 2735.0603 92.27311 2664.1301 210.88994 C 2642.7893 246.57954 2612.8872 276.38965 2577.318 297.77246 C 2698.3423 230.80214 2850.7222 274.32434 2917.856 395.12878 Z"/>
            </g>
            <g id="g5492-7-5-2-6" transform="matrix(0.05648739 0 0 -0.05667264 -21.360394 1004.81305)">
                <path id="rect4124-6-51-2-8" fill="#000000" stroke="none" d="M 2406.7065 536.5494 L 2491.963 536.5494 L 2491.963 832.23486 L 2406.7065 832.23486 Z"/>
                <path id="path3979-1-6-1-7-1-5" fill="#000000" stroke="none" d="M 2917.856 395.12878 C 2984.9912 515.9333 2941.4573 668.2736 2820.6213 735.3906 C 2699.7852 802.50757 2547.4053 758.98535 2480.2712 638.1809 C 2462.391 606.0078 2451.8313 570.2876 2449.382 533.6091 C 2440.0403 671.5299 2320.6353 775.7004 2182.7202 766.32275 C 2044.8062 756.94507 1940.6091 637.57043 1949.9891 499.69196 C 1959.3691 361.81357 2078.7751 257.64313 2216.6892 267.02075 C 2252.895 269.48264 2288.132 279.78604 2320.4143 297.24246 C 2202.2222 226.35654 2163.539 72.71341 2234.469 -45.903423 C 2305.3992 -164.52025 2459.0823 -203.19305 2577.7302 -132.28156 C 2696.3772 -61.370026 2735.0603 92.27311 2664.1301 210.88994 C 2642.7893 246.57954 2612.8872 276.38965 2577.318 297.77246 C 2698.3423 230.80214 2850.7222 274.32434 2917.856 395.12878 Z"/>
            </g>
            <g id="text3755-0" transform="matrix(0.9810548 0 0 1.0193111 0 0)">
                <path id="path901" fill="#000000" stroke="none" d="M 26.999706 735.55237 L 26.288866 741.20074 L 7.941449 741.20074 Q 8.364112 736.34015 11.860687 732.6129 L 18.08536 727.3105 Q 21.33218 724.50555 21.33218 721.6814 Q 21.33218 719.7987 20.256311 718.6843 Q 19.199654 717.5509 17.336094 717.5509 Q 15.184355 717.5509 14.127698 718.70355 Q 13.436067 719.47205 13.07104 721.06665 Q 12.706012 722.7572 12.494683 723.02625 Q 12.187289 723.1223 11.783838 723.1223 L 9.363133 723.1223 Q 8.940471 723.1223 8.633079 722.9494 Q 8.498595 722.54596 8.498595 722.0465 Q 8.498595 718.0312 11.130633 715.6681 Q 13.647398 713.40106 17.68191 713.40106 Q 21.42824 713.40106 23.810522 715.3991 Q 26.3465 717.51245 26.3465 721.20105 Q 26.3465 724.83215 23.541555 727.84845 Q 22.561747 728.9244 17.970087 732.44006 Q 14.627209 735.03375 13.85873 737.10864 L 22.811499 737.10864 L 22.965197 735.3795 Q 23.17653 734.45734 24.098701 734.45734 L 26.019896 734.45734 Q 27.13419 734.45734 26.999706 735.5525 Z"/>
            </g>
            <g id="text3755-2-2" transform="matrix(-0.9810549 0 0 -1.019311 0 0)">
                <path id="path904" fill="#000000" stroke="none" d="M -211.51898 -1002.6063 L -212.22981 -996.95807 L -230.57724 -996.95807 Q -230.15457 -1001.8186 -226.65799 -1005.5458 L -220.43332 -1010.8483 Q -217.1865 -1013.6532 -217.1865 -1016.4775 Q -217.1865 -1018.3601 -218.26239 -1019.4744 Q -219.31903 -1020.6079 -221.18259 -1020.6079 Q -223.33434 -1020.6079 -224.39099 -1019.45514 Q -225.08261 -1018.68665 -225.44765 -1017.0921 Q -225.81267 -1015.4015 -226.024 -1015.1325 Q -226.33138 -1015.0365 -226.73483 -1015.0365 L -229.15555 -1015.0365 Q -229.57822 -1015.0365 -229.8856 -1015.2094 Q -230.0201 -1015.6128 -230.0201 -1016.1123 Q -230.0201 -1020.1276 -227.38805 -1022.4907 Q -224.87128 -1024.7577 -220.83678 -1024.7577 Q -217.09044 -1024.7577 -214.70816 -1022.7597 Q -212.17218 -1020.6463 -212.17218 -1016.95764 Q -212.17218 -1013.32654 -214.97713 -1010.31024 Q -215.95692 -1009.23444 -220.54858 -1005.7186 Q -223.89145 -1003.125 -224.65994 -1001.0502 L -215.70718 -1001.0502 L -215.55348 -1002.7792 Q -215.34215 -1003.7015 -214.41998 -1003.7015 L -212.49878 -1003.7015 Q -211.38449 -1003.7015 -211.51898 -1002.6063 Z"/>
            </g>
        </g>
    </g>
</svg>
