<svg width="234" height="333.00003" xmlns="http://www.w3.org/2000/svg">
    <g id="layer1" transform="matrix(1 0 0 1 0 -719.3622)">
        <g id="g914">
            <path id="rect4266" fill="#ffffff" stroke="#808080" stroke-width="0.7559055" d="M 9.297138 719.7401 L 224.70288 719.7401 C 229.6288 719.7401 233.62206 723.74524 233.62206 728.68585 L 233.62206 1043.0385 C 233.62207 1045.411 232.68237 1047.6864 231.0097 1049.3641 C 229.33702 1051.0417 227.06839 1051.9843 224.70288 1051.9843 L 9.297138 1051.9843 C 6.9316134 1051.9843 4.662975 1051.0417 2.9903018 1049.3641 C 1.3176281 1047.6864 0.3779376 1045.411 0.37795275 1043.0385 L 0.37795275 728.68585 C 0.37795484 723.74524 4.3712096 719.7401 9.297138 719.7401 Z"/>
            <g id="g4233" transform="matrix(0.07348588 0 0 0.07370838 -248.0173 933.60065)"/>
            <g id="g4211" transform="matrix(0.07348588 0 0 0.07370838 -248.01726 933.60065)"/>
            <g id="g4227" transform="matrix(0.07348588 0 0 0.07370838 -248.0173 933.60065)"/>
            <path id="path4884-1" fill="#ff0000" stroke="none" d="M 58.629673 814.07623 L 86.87338 785.7397 L 58.629673 757.40326 L 30.385965 785.7397 Z"/>
            <path id="path4884-1-4" fill="#ff0000" stroke="none" d="M 58.629677 1014.3212 L 86.87338 985.9846 L 58.629677 957.6481 L 30.385965 985.9846 Z"/>
            <path id="path4884-1-40" fill="#ff0000" stroke="none" d="M 175.37032 814.07623 L 203.61404 785.7397 L 175.37032 757.40314 L 147.12662 785.7397 Z"/>
            <path id="path4884-1-4-9" fill="#ff0000" stroke="none" d="M 175.37032 1014.3212 L 203.61404 985.9846 L 175.37032 957.6481 L 147.12662 985.9846 Z"/>
            <path id="path4884-1-4-1-4" fill="#ff0000" stroke="none" d="M 117 914.19867 L 145.24371 885.8622 L 117 857.52563 L 88.756294 885.8622 Z"/>
            <path id="path4884-1-4-5-3" fill="#ff0000" stroke="none" d="M 17.205568 780.7021 L 26.620136 771.2566 L 17.205568 761.8111 L 7.7910004 771.2566 Z"/>
            <path id="path4884-1-4-5-3-5" fill="#ff0000" stroke="none" d="M 216.79443 991.0222 L 226.209 1000.4677 L 216.79443 1009.9134 L 207.37987 1000.4677 Z"/>
            <g id="text3755" transform="matrix(0.9950993 0 0 1.0049248 0 0)">
                <path id="path893" fill="#ff0000" stroke="none" d="M 26.751238 742.30176 Q 26.751238 746.667 24.101007 749.2392 Q 21.470263 751.81146 17.105177 751.81146 Q 12.915474 751.81146 10.4796 749.7653 Q 7.829368 747.5828 7.829368 743.4711 Q 7.829368 742.8085 8.881666 742.8085 L 11.434462 742.8085 Q 11.843689 742.8085 12.194455 742.9254 Q 12.311377 743.1203 12.350351 743.432 Q 12.681631 745.6341 13.617004 746.589 Q 14.669303 747.66077 16.851847 747.66077 Q 19.03439 747.66077 20.37899 746.1213 Q 21.645645 744.6598 21.645645 742.45776 Q 21.645645 737.0209 17.144152 737.0209 Q 15.507243 737.0209 13.850849 738.1511 L 10.635496 738.1511 Q 10.187295 738.1511 9.778068 738.0342 Q 9.583199 737.8393 9.583199 737.586 Q 9.583199 734.81885 9.875503 730.6097 Q 10.128834 727.102 10.382165 723.61383 L 24.997406 723.61383 Q 25.504068 723.61383 25.913298 723.7698 Q 26.08868 724.1594 26.08868 726.49786 Q 26.08868 726.88763 26.04971 727.1409 Q 25.9133 727.7645 24.919464 727.7645 L 14.338024 727.7645 Q 14.396483 728.81683 14.162641 730.9799 Q 13.928796 733.1235 13.987258 734.1758 Q 15.994418 732.9286 18.176962 732.9286 Q 22.191282 732.9286 24.52972 735.65686 Q 26.751238 738.22906 26.751238 742.30176 Z"/>
            </g>
            <g id="text3755-2" transform="matrix(-0.9950993 0 0 -1.0049248 0 0)">
                <path id="path896" fill="#ff0000" stroke="none" d="M -208.40118 -1020.7398 Q -208.40118 -1016.3747 -211.05139 -1013.8024 Q -213.68216 -1011.23004 -218.04724 -1011.23004 Q -222.23695 -1011.23004 -224.67284 -1013.27637 Q -227.32304 -1015.4588 -227.32304 -1019.57056 Q -227.32304 -1020.2331 -226.27077 -1020.2331 L -223.71796 -1020.2331 Q -223.30873 -1020.2331 -222.95796 -1020.11615 Q -222.84103 -1019.92126 -222.80206 -1019.6095 Q -222.4708 -1017.4075 -221.53542 -1016.4526 Q -220.48314 -1015.381 -218.30055 -1015.381 Q -216.11803 -1015.381 -214.77344 -1016.9203 Q -213.50676 -1018.3819 -213.50676 -1020.5839 Q -213.50676 -1026.0208 -218.00827 -1026.0208 Q -219.64519 -1026.0208 -221.30157 -1024.8905 L -224.51692 -1024.8905 Q -224.96512 -1024.8905 -225.37434 -1025.0074 Q -225.56921 -1025.2023 -225.56921 -1025.4556 Q -225.56921 -1028.2228 -225.2769 -1032.432 Q -225.02359 -1035.9396 -224.77025 -1039.4279 L -210.15501 -1039.4279 Q -209.64835 -1039.4279 -209.23912 -1039.2719 Q -209.06374 -1038.8822 -209.06374 -1036.5437 Q -209.06374 -1036.154 -209.10275 -1035.9008 Q -209.23914 -1035.2771 -210.233 -1035.2771 L -220.81442 -1035.2771 Q -220.75592 -1034.2249 -220.9898 -1032.0616 Q -221.22365 -1029.9182 -221.1652 -1028.8658 Q -219.15804 -1030.113 -216.97551 -1030.113 Q -212.96115 -1030.113 -210.62273 -1027.3848 Q -208.40123 -1024.8126 -208.40123 -1020.7398 Z"/>
            </g>
        </g>
    </g>
</svg>
