<svg width="234" height="333.00003" xmlns="http://www.w3.org/2000/svg">
    <g id="layer1" transform="matrix(1 0 0 1 0 -719.3622)">
        <g id="g916">
            <path id="rect4266" fill="#ffffff" stroke="#808080" stroke-width="0.7559055" d="M 9.297138 719.7401 L 224.70288 719.7401 C 229.6288 719.7401 233.62206 723.74524 233.62206 728.68585 L 233.62206 1043.0385 C 233.62207 1045.411 232.68237 1047.6864 231.0097 1049.3641 C 229.33702 1051.0417 227.06839 1051.9843 224.70288 1051.9843 L 9.297138 1051.9843 C 6.9316134 1051.9843 4.662975 1051.0417 2.9903018 1049.3641 C 1.3176281 1047.6864 0.3779376 1045.411 0.37795275 1043.0385 L 0.37795275 728.68585 C 0.37795484 723.74524 4.3712096 719.7401 9.297138 719.7401 Z"/>
            <g id="g4233" transform="matrix(0.07348588 0 0 0.07370838 -248.0173 933.60065)"/>
            <g id="g4211" transform="matrix(0.07348588 0 0 0.07370838 -248.01726 933.60065)"/>
            <g id="g4227" transform="matrix(0.07348588 0 0 0.07370838 -248.0173 933.60065)"/>
            <path id="path4884-1" fill="#ff0000" stroke="none" d="M 58.629673 814.07623 L 86.87338 785.7397 L 58.629673 757.40326 L 30.385965 785.7397 Z"/>
            <path id="path4884-1-4" fill="#ff0000" stroke="none" d="M 58.629677 1014.3212 L 86.87338 985.9846 L 58.629677 957.6481 L 30.385965 985.9846 Z"/>
            <path id="path4884-1-7" fill="#ff0000" stroke="none" d="M 58.629673 914.19867 L 86.87338 885.8622 L 58.629673 857.52563 L 30.385965 885.8622 Z"/>
            <path id="path4884-1-40" fill="#ff0000" stroke="none" d="M 175.37032 814.07623 L 203.61404 785.7397 L 175.37032 757.40314 L 147.12662 785.7397 Z"/>
            <path id="path4884-1-4-9" fill="#ff0000" stroke="none" d="M 175.37032 1014.3212 L 203.61404 985.9846 L 175.37032 957.6481 L 147.12662 985.9846 Z"/>
            <path id="path4884-1-4-1-4" fill="#ff0000" stroke="none" d="M 117 864.13745 L 145.24371 835.8009 L 117 807.4644 L 88.756294 835.8009 Z"/>
            <path id="path4884-1-7-8" fill="#ff0000" stroke="none" d="M 175.37032 914.19867 L 203.61404 885.8622 L 175.37032 857.52563 L 147.12662 885.8622 Z"/>
            <path id="path4884-1-4-5-3" fill="#ff0000" stroke="none" d="M 17.205568 780.7021 L 26.620136 771.2566 L 17.205568 761.8111 L 7.7910004 771.2566 Z"/>
            <path id="path4884-1-4-5-3-5" fill="#ff0000" stroke="none" d="M 216.79443 991.0222 L 226.209 1000.4677 L 216.79443 1009.9134 L 207.37987 1000.4677 Z"/>
            <g id="text3755-8" transform="matrix(1.0298762 0 0 0.9709905 0 0)">
                <path id="path893" fill="#ff0000" stroke="none" d="M 25.847902 752.97253 L 18.137993 777.1452 Q 17.831232 778.08594 16.58374 778.08594 L 13.557038 778.08594 Q 12.616306 778.08594 12.616306 777.4929 Q 12.616306 776.92017 16.481487 765.9178 Q 18.731062 759.57806 20.960188 753.25885 L 11.900531 753.25885 Q 11.839182 754.1586 11.53242 755.87646 Q 11.246109 756.06055 10.9189 756.06055 L 8.546619 756.06055 Q 7.564986 756.06055 7.564986 755.3447 Q 7.564986 754.9972 8.158056 748.90283 L 25.847902 748.90283 Z"/>
            </g>
            <g id="text3755-2-4" transform="matrix(-1.0298762 0 0 -0.9709905 0 0)">
                <path id="path896" fill="#ff0000" stroke="none" d="M -201.36389 -1071.6841 L -209.07379 -1047.5114 Q -209.38055 -1046.5707 -210.62804 -1046.5707 L -213.65475 -1046.5707 Q -214.59547 -1046.5707 -214.59547 -1047.1637 Q -214.59547 -1047.7365 -210.73029 -1058.7388 Q -208.48071 -1065.0786 -206.2516 -1071.3978 L -215.31126 -1071.3978 Q -215.37265 -1070.498 -215.67937 -1068.7802 Q -215.96568 -1068.5961 -216.29288 -1068.5961 L -218.66516 -1068.5961 Q -219.6468 -1068.5961 -219.6468 -1069.3118 Q -219.6468 -1069.6595 -219.05373 -1075.7538 L -201.36389 -1075.7538 Z"/>
            </g>
        </g>
    </g>
</svg>
