<svg width="234" height="333.00003" xmlns="http://www.w3.org/2000/svg">
    <g id="layer1" transform="matrix(1 0 0 1 0 -719.3622)">
        <g id="g922">
            <path id="rect4266" fill="#ffffff" stroke="#808080" stroke-width="0.7559055" d="M 9.297138 719.7401 L 224.70288 719.7401 C 229.6288 719.7401 233.62206 723.74524 233.62206 728.68585 L 233.62206 1043.0385 C 233.62207 1045.411 232.68237 1047.6864 231.0097 1049.3641 C 229.33702 1051.0417 227.06839 1051.9843 224.70288 1051.9843 L 9.297138 1051.9843 C 6.9316134 1051.9843 4.662975 1051.0417 2.9903018 1049.3641 C 1.3176281 1047.6864 0.3779376 1045.411 0.37795275 1043.0385 L 0.37795275 728.68585 C 0.37795484 723.74524 4.3712096 719.7401 9.297138 719.7401 Z"/>
            <g id="g4233" transform="matrix(0.07348588 0 0 0.07370838 -248.0173 933.60065)"/>
            <g id="g4211" transform="matrix(0.07348588 0 0 0.07370838 -248.01726 933.60065)"/>
            <g id="g4227" transform="matrix(0.07348588 0 0 0.07370838 -248.0173 933.60065)"/>
            <path id="path4884-1" fill="#ff0000" stroke="none" d="M 58.629673 814.07623 L 86.87338 785.7397 L 58.629673 757.40326 L 30.385965 785.7397 Z"/>
            <path id="path4884-1-4" fill="#ff0000" stroke="none" d="M 58.629677 1014.3212 L 86.87338 985.9846 L 58.629677 957.6481 L 30.385965 985.9846 Z"/>
            <path id="path4884-1-4-1" fill="#ff0000" stroke="none" d="M 58.629677 947.5729 L 86.87338 919.2364 L 58.629677 890.8997 L 30.385965 919.2364 Z"/>
            <path id="path4884-1-7" fill="#ff0000" stroke="none" d="M 58.629673 880.82446 L 86.87338 852.48804 L 58.629673 824.1515 L 30.385965 852.48804 Z"/>
            <path id="path4884-1-40" fill="#ff0000" stroke="none" d="M 175.37032 814.07623 L 203.61404 785.7397 L 175.37032 757.40314 L 147.12662 785.7397 Z"/>
            <path id="path4884-1-4-9" fill="#ff0000" stroke="none" d="M 175.37032 1014.3212 L 203.61404 985.9846 L 175.37032 957.6481 L 147.12662 985.9846 Z"/>
            <path id="path4884-1-4-1-4" fill="#ff0000" stroke="none" d="M 175.37032 947.5728 L 203.61404 919.2364 L 175.37032 890.8997 L 147.12662 919.2364 Z"/>
            <path id="path4884-1-7-8" fill="#ff0000" stroke="none" d="M 175.37032 880.82446 L 203.61404 852.488 L 175.37032 824.1515 L 147.12662 852.488 Z"/>
            <path id="path4884-1-40-8-2" fill="#ff0000" stroke="none" d="M 117 914.19867 L 145.24371 885.8622 L 117 857.52563 L 88.756294 885.8622 Z"/>
            <path id="path4884-1-4-5-3" fill="#ff0000" stroke="none" d="M 17.205568 780.7021 L 26.620136 771.2566 L 17.205568 761.8111 L 7.7910004 771.2566 Z"/>
            <path id="path4884-1-4-5-3-5" fill="#ff0000" stroke="none" d="M 216.79443 991.0222 L 226.209 1000.4677 L 216.79443 1009.9134 L 207.37987 1000.4677 Z"/>
            <g id="text3755" transform="matrix(0.9907914 0 0 1.0092942 0 0)">
                <path id="path897" fill="#ff0000" stroke="none" d="M 26.86755 734.10754 Q 26.86755 740.0978 24.743221 743.8488 Q 22.083023 748.5569 16.55211 748.5569 Q 13.317772 748.5569 11.212579 747.2746 Q 8.667211 745.7052 8.667211 742.64325 Q 8.667211 741.9734 9.604979 741.9734 L 12.437418 741.9734 Q 12.992424 741.9734 13.375185 742.60486 Q 13.949328 743.5427 14.255538 743.8106 Q 15.040201 744.4421 16.55211 744.4421 Q 19.097479 744.4421 20.513699 742.06903 Q 21.623709 740.1552 21.757675 737.361 Q 19.518518 739.14087 16.399006 739.14087 Q 12.437418 739.14087 10.083431 736.34674 Q 7.8634105 733.72473 7.8634105 729.68665 Q 7.8634105 725.438 10.29395 722.9692 Q 12.72449 720.48126 16.954012 720.48126 Q 26.86755 720.48126 26.86755 734.10754 Z M 21.642847 729.8015 Q 21.642847 727.71545 20.513699 726.2609 Q 19.269722 724.6533 17.260221 724.6533 Q 15.193306 724.6533 13.968467 726.22266 Q 12.858455 727.658 12.858455 729.8015 Q 12.858455 731.9832 13.949328 733.3995 Q 15.135891 734.94965 17.260221 734.94965 Q 19.365414 734.94965 20.551975 733.3803 Q 21.642847 731.9641 21.642847 729.8015 Z"/>
            </g>
            <g id="text3755-2" transform="matrix(-0.9907914 0 0 -1.0092942 0 0)">
                <path id="path900" fill="#ff0000" stroke="none" d="M -209.3073 -1021.3016 Q -209.3073 -1015.3114 -211.43163 -1011.5603 Q -214.09184 -1006.85223 -219.62274 -1006.85223 Q -222.85709 -1006.85223 -224.96228 -1008.1346 Q -227.50764 -1009.7039 -227.50764 -1012.766 Q -227.50764 -1013.4359 -226.56987 -1013.4359 L -223.73743 -1013.4359 Q -223.18243 -1013.4359 -222.79967 -1012.8043 Q -222.22552 -1011.8665 -221.91931 -1011.5985 Q -221.13464 -1010.96704 -219.62274 -1010.96704 Q -217.07738 -1010.96704 -215.66113 -1013.3403 Q -214.55115 -1015.254 -214.41718 -1018.0481 Q -216.65633 -1016.2683 -219.77583 -1016.2683 Q -223.73743 -1016.2683 -226.09142 -1019.0625 Q -228.31145 -1021.6844 -228.31145 -1025.7225 Q -228.31145 -1029.9712 -225.8809 -1032.44 Q -223.45036 -1034.9279 -219.22086 -1034.9279 Q -209.3073 -1034.9279 -209.3073 -1021.3016 Z M -214.532 -1025.6077 Q -214.532 -1027.6937 -215.66113 -1029.1482 Q -216.90514 -1030.7559 -218.91463 -1030.7559 Q -220.98154 -1030.7559 -222.20638 -1029.1865 Q -223.31639 -1027.7512 -223.31639 -1025.6077 Q -223.31639 -1023.4259 -222.22552 -1022.00964 Q -221.03896 -1020.4595 -218.91463 -1020.4595 Q -216.80943 -1020.4595 -215.62286 -1022.0289 Q -214.532 -1023.4451 -214.532 -1025.6077 Z"/>
            </g>
        </g>
    </g>
</svg>
