<svg width="234" height="333.00003" xmlns="http://www.w3.org/2000/svg">
    <g id="layer1" transform="matrix(1 0 0 1 0 -719.3622)">
        <g id="g933">
            <path id="rect4266" fill="#ffffff" stroke="#808080" stroke-width="0.7559055" d="M 9.297138 719.7401 L 224.70288 719.7401 C 229.6288 719.7401 233.62206 723.74524 233.62206 728.68585 L 233.62206 1043.0385 C 233.62207 1045.411 232.68237 1047.6864 231.0097 1049.3641 C 229.33702 1051.0417 227.06839 1051.9843 224.70288 1051.9843 L 9.297138 1051.9843 C 6.9316134 1051.9843 4.662975 1051.0417 2.9903018 1049.3641 C 1.3176281 1047.6864 0.3779376 1045.411 0.37795275 1043.0385 L 0.37795275 728.68585 C 0.37795484 723.74524 4.3712096 719.7401 9.297138 719.7401 Z"/>
            <g id="g4233" transform="matrix(0.07348588 0 0 0.07370838 -248.0173 933.60065)"/>
            <g id="g4211" transform="matrix(0.07348588 0 0 0.07370838 -248.01726 933.60065)"/>
            <g id="g4227" transform="matrix(0.07348588 0 0 0.07370838 -248.0173 933.60065)"/>
            <path id="path4884-1" fill="#ff0000" stroke="none" d="M 58.629673 814.07623 L 86.87338 785.7397 L 58.629673 757.40326 L 30.385965 785.7397 Z"/>
            <path id="path4884-1-4" fill="#ff0000" stroke="none" d="M 58.629677 1014.3212 L 86.87338 985.9846 L 58.629677 957.6481 L 30.385965 985.9846 Z"/>
            <path id="path4884-1-4-1" fill="#ff0000" stroke="none" d="M 58.629677 947.5729 L 86.87338 919.2364 L 58.629677 890.8997 L 30.385965 919.2364 Z"/>
            <path id="path4884-1-7" fill="#ff0000" stroke="none" d="M 58.629673 880.82446 L 86.87338 852.48804 L 58.629673 824.1515 L 30.385965 852.48804 Z"/>
            <path id="path4884-1-40" fill="#ff0000" stroke="none" d="M 175.37032 814.07623 L 203.61404 785.7397 L 175.37032 757.40314 L 147.12662 785.7397 Z"/>
            <path id="path4884-1-4-9" fill="#ff0000" stroke="none" d="M 175.37032 1014.3212 L 203.61404 985.9846 L 175.37032 957.6481 L 147.12662 985.9846 Z"/>
            <path id="path4884-1-4-1-4" fill="#ff0000" stroke="none" d="M 175.37032 947.5728 L 203.61404 919.2364 L 175.37032 890.8997 L 147.12662 919.2364 Z"/>
            <path id="path4884-1-7-8" fill="#ff0000" stroke="none" d="M 175.37032 880.82446 L 203.61404 852.488 L 175.37032 824.1515 L 147.12662 852.488 Z"/>
            <path id="path4884-1-40-8" fill="#ff0000" stroke="none" d="M 117 980.947 L 145.24371 952.6105 L 117 924.2739 L 88.756294 952.6105 Z"/>
            <path id="path4884-1-40-8-2" fill="#ff0000" stroke="none" d="M 117 847.4504 L 145.24371 819.11383 L 117 790.77734 L 88.756294 819.11383 Z"/>
            <g id="text3216-7" transform="matrix(0.7218474 0 0 1.3853343 0 0)">
                <path id="path900" fill="#ff0000" stroke="none" d="M 23.835468 544.6304 Q 23.835468 544.984 23.708157 545.2528 Q 23.36866 545.36597 22.972582 545.36597 L 12.533062 545.36597 Q 11.599447 545.36597 11.599447 544.3758 Q 11.599447 544.206 11.627738 543.83826 Q 11.656027 543.4563 11.656027 543.25824 Q 11.656027 542.32465 12.476476 542.32465 L 15.998752 542.32465 L 15.998752 529.254 L 11.698464 529.254 Q 10.79314 529.254 10.79314 528.26385 Q 10.79314 528.05164 10.83558 527.58484 Q 10.89216 527.1039 10.89216 526.8634 Q 10.89216 526.38245 11.797484 526.38245 Q 12.052106 526.38245 12.759391 526.439 Q 13.466675 526.48145 13.862755 526.48145 Q 16.126064 526.48145 16.607018 524.91125 L 19.308846 524.91125 L 19.308846 542.32465 Q 20.256605 542.32465 21.345823 542.268 Q 22.449184 542.1973 22.661373 542.1973 Q 23.481823 542.1973 23.679861 542.63586 Q 23.835464 543.01776 23.835464 544.6304 Z"/>
            </g>
            <g id="text3990-14" transform="matrix(0.6991885 0 0 1.4302295 0 0)">
                <path id="path897" fill="#ff0000" stroke="none" d="M 38.072906 518.5768 Q 38.072906 528.2467 31.387678 528.2467 Q 24.607912 528.2467 24.607912 518.52277 Q 24.607912 508.43414 31.522734 508.43414 Q 38.072906 508.43414 38.072906 518.5768 Z M 34.561474 518.29315 Q 34.561474 511.36484 31.333654 511.36484 Q 29.442884 511.36484 28.646063 514.10645 Q 28.146358 515.83514 28.146358 518.41473 Q 28.146358 525.3431 31.333654 525.3431 Q 33.237934 525.3431 34.048264 522.6149 Q 34.561474 520.8592 34.561474 518.29315 Z"/>
            </g>
            <path id="path4884-1-4-5-3" fill="#ff0000" stroke="none" d="M 17.205568 780.7021 L 26.620136 771.2566 L 17.205568 761.8111 L 7.7910004 771.2566 Z"/>
            <g id="text3216-7-2" transform="matrix(-0.7218474 0 0 -1.3853343 0 0)">
                <path id="path906" fill="#ff0000" stroke="none" d="M -300.33276 -734.2844 Q -300.33276 -733.9308 -300.46008 -733.662 Q -300.79956 -733.54877 -301.19565 -733.54877 L -311.63516 -733.54877 Q -312.5688 -733.54877 -312.5688 -734.53906 Q -312.5688 -734.7088 -312.54047 -735.07654 Q -312.51218 -735.4585 -312.51218 -735.6566 Q -312.51218 -736.59015 -311.69174 -736.59015 L -308.16946 -736.59015 L -308.16946 -749.6607 L -312.46973 -749.6607 Q -313.37506 -749.6607 -313.37506 -750.6509 Q -313.37506 -750.86316 -313.33267 -751.32996 Q -313.27606 -751.8109 -313.27606 -752.0514 Q -313.27606 -752.53235 -312.37073 -752.53235 Q -312.11612 -752.53235 -311.40884 -752.47577 Q -310.70154 -752.4333 -310.30548 -752.4333 Q -308.04214 -752.4333 -307.56122 -754.00354 L -304.85938 -754.00354 L -304.85938 -736.59015 Q -303.91162 -736.59015 -302.8224 -736.6467 Q -301.71906 -736.71747 -301.50684 -736.71747 Q -300.6864 -736.71747 -300.48837 -736.27893 Q -300.33276 -735.89703 -300.33276 -734.2844 Z"/>
            </g>
            <g id="text3990-14-6" transform="matrix(-0.6991885 0 0 -1.4302295 0 0)">
                <path id="path903" fill="#ff0000" stroke="none" d="M -296.60083 -720.19244 Q -296.60083 -710.52246 -303.28604 -710.52246 Q -310.06583 -710.52246 -310.06583 -720.24646 Q -310.06583 -730.3351 -303.151 -730.3351 Q -296.60083 -730.3351 -296.60083 -720.19244 Z M -300.11227 -720.4761 Q -300.11227 -727.40436 -303.34006 -727.40436 Q -305.23083 -727.40436 -306.02768 -724.6628 Q -306.52737 -722.9341 -306.52737 -720.3545 Q -306.52737 -713.4262 -303.34006 -713.4262 Q -301.4358 -713.4262 -300.62546 -716.1543 Q -300.11227 -717.91003 -300.11227 -720.4761 Z"/>
            </g>
            <path id="path4884-1-4-5-3-5" fill="#ff0000" stroke="none" d="M 216.79443 991.0222 L 226.209 1000.4677 L 216.79443 1009.9134 L 207.37987 1000.4677 Z"/>
        </g>
    </g>
</svg>
