<svg width="234" height="333.00003" xmlns="http://www.w3.org/2000/svg">
    <g id="layer1" transform="matrix(1 0 0 1 0 -719.3622)">
        <g id="g919">
            <path id="rect4266" fill="#ffffff" stroke="#808080" stroke-width="0.7559055" d="M 9.297138 719.7401 L 224.70288 719.7401 C 229.6288 719.7401 233.62206 723.74524 233.62206 728.68585 L 233.62206 1043.0385 C 233.62207 1045.411 232.68237 1047.6864 231.0097 1049.3641 C 229.33702 1051.0417 227.06839 1051.9843 224.70288 1051.9843 L 9.297138 1051.9843 C 6.9316134 1051.9843 4.662975 1051.0417 2.9903018 1049.3641 C 1.3176281 1047.6864 0.3779376 1045.411 0.37795275 1043.0385 L 0.37795275 728.68585 C 0.37795484 723.74524 4.3712096 719.7401 9.297138 719.7401 Z"/>
            <g id="g4233" transform="matrix(0.07348588 0 0 0.07370838 -248.0173 933.60065)"/>
            <g id="g4211" transform="matrix(0.07348588 0 0 0.07370838 -248.01726 933.60065)"/>
            <g id="g4227" transform="matrix(0.07348588 0 0 0.07370838 -248.0173 933.60065)"/>
            <path id="path4884-1" fill="#ff0000" stroke="none" d="M 58.629673 814.07623 L 86.87338 785.7397 L 58.629673 757.40326 L 30.385965 785.7397 Z"/>
            <path id="path4884-1-4" fill="#ff0000" stroke="none" d="M 58.629677 1014.3212 L 86.87338 985.9846 L 58.629677 957.6481 L 30.385965 985.9846 Z"/>
            <path id="path4884-1-7" fill="#ff0000" stroke="none" d="M 58.629673 914.19867 L 86.87338 885.8622 L 58.629673 857.52563 L 30.385965 885.8622 Z"/>
            <path id="path4884-1-40" fill="#ff0000" stroke="none" d="M 175.37032 814.07623 L 203.61404 785.7397 L 175.37032 757.40314 L 147.12662 785.7397 Z"/>
            <path id="path4884-1-4-9" fill="#ff0000" stroke="none" d="M 175.37032 1014.3212 L 203.61404 985.9846 L 175.37032 957.6481 L 147.12662 985.9846 Z"/>
            <path id="path4884-1-7-8" fill="#ff0000" stroke="none" d="M 175.37032 914.19867 L 203.61404 885.8622 L 175.37032 857.52563 L 147.12662 885.8622 Z"/>
            <path id="path4884-1-4-5-3" fill="#ff0000" stroke="none" d="M 17.205568 780.7021 L 26.620136 771.2566 L 17.205568 761.8111 L 7.7910004 771.2566 Z"/>
            <path id="path4884-1-4-5-3-5" fill="#ff0000" stroke="none" d="M 216.79443 991.0222 L 226.209 1000.4677 L 216.79443 1009.9134 L 207.37987 1000.4677 Z"/>
            <g id="text3755-0" transform="matrix(0.9902929 0 0 1.0098023 0 0)">
                <path id="path897" fill="#ff0000" stroke="none" d="M 26.881077 738.99854 Q 26.881077 743.2451 24.413504 745.7126 Q 21.96506 748.1802 17.718536 748.1802 Q 7.867369 748.1802 7.867369 734.5607 Q 7.867369 728.5544 9.99063 724.8243 Q 12.630361 720.1187 18.17762 720.1187 Q 21.391205 720.1187 23.514465 721.43854 Q 26.058556 723.0071 26.058556 726.0294 Q 26.058556 726.6989 25.121258 726.6989 L 22.290243 726.6989 Q 21.73552 726.6989 21.352947 726.0677 Q 20.798222 725.1304 20.473038 724.86255 Q 19.688768 724.23126 18.17762 724.23126 Q 15.633533 724.23126 14.218023 726.6033 Q 13.108574 728.5161 12.974672 731.30884 Q 15.212706 729.52985 18.330647 729.52985 Q 22.290243 729.52985 24.643047 732.3227 Q 26.881077 734.9624 26.881077 738.99854 Z M 21.888546 738.8837 Q 21.888546 736.70306 20.798222 735.2876 Q 19.593126 733.719 17.469866 733.719 Q 15.365733 733.719 14.179767 735.2876 Q 13.108574 736.70306 13.108574 738.8837 Q 13.108574 740.96875 14.237153 742.4224 Q 15.461376 744.0102 17.488995 744.0102 Q 19.55487 744.0102 20.779093 742.4416 Q 21.888546 741.007 21.888546 738.8837 Z"/>
            </g>
            <g id="text3755-2-2" transform="matrix(-0.9902929 0 0 -1.0098023 0 0)">
                <path id="path900" fill="#ff0000" stroke="none" d="M -209.41267 -1015.5274 Q -209.41267 -1011.2809 -211.88026 -1008.81323 Q -214.3287 -1006.34564 -218.57521 -1006.34564 Q -228.42638 -1006.34564 -228.42638 -1019.9652 Q -228.42638 -1025.9716 -226.30315 -1029.7017 Q -223.6634 -1034.4072 -218.11613 -1034.4072 Q -214.90256 -1034.4072 -212.7793 -1033.0873 Q -210.23521 -1031.5188 -210.23521 -1028.4965 Q -210.23521 -1027.827 -211.1725 -1027.827 L -214.00352 -1027.827 Q -214.55824 -1027.827 -214.94084 -1028.4583 Q -215.49553 -1029.3955 -215.82072 -1029.6633 Q -216.605 -1030.2946 -218.11613 -1030.2946 Q -220.66022 -1030.2946 -222.07574 -1027.9226 Q -223.1852 -1026.0098 -223.3191 -1023.217 Q -221.08104 -1024.996 -217.9631 -1024.996 Q -214.00352 -1024.996 -211.65073 -1022.2032 Q -209.41267 -1019.5635 -209.41267 -1015.5274 Z M -214.40523 -1015.6421 Q -214.40523 -1017.8228 -215.49553 -1019.23834 Q -216.70064 -1020.8068 -218.8239 -1020.8068 Q -220.92802 -1020.8068 -222.11398 -1019.23834 Q -223.1852 -1017.8228 -223.1852 -1015.6421 Q -223.1852 -1013.5572 -222.05661 -1012.1034 Q -220.8324 -1010.51575 -218.80476 -1010.51575 Q -216.73889 -1010.51575 -215.51466 -1012.0842 Q -214.40523 -1013.5189 -214.40523 -1015.6421 Z"/>
            </g>
        </g>
    </g>
</svg>
