<svg width="234" height="333.00003" xmlns="http://www.w3.org/2000/svg">
    <g id="layer1" transform="matrix(1 0 0 1 0 -719.3622)">
        <g id="g920">
            <path id="rect4266" fill="#ffffff" stroke="#808080" stroke-width="0.7559055" d="M 9.297138 719.7401 L 224.70288 719.7401 C 229.6288 719.7401 233.62206 723.74524 233.62206 728.68585 L 233.62206 1043.0385 C 233.62207 1045.411 232.68237 1047.6864 231.0097 1049.3641 C 229.33702 1051.0417 227.06839 1051.9843 224.70288 1051.9843 L 9.297138 1051.9843 C 6.9316134 1051.9843 4.662975 1051.0417 2.9903018 1049.3641 C 1.3176281 1047.6864 0.3779376 1045.411 0.37795275 1043.0385 L 0.37795275 728.68585 C 0.37795484 723.74524 4.3712096 719.7401 9.297138 719.7401 Z"/>
            <g id="g4233" transform="matrix(0.07348588 0 0 0.07370838 -248.0173 933.60065)"/>
            <g id="g4211" transform="matrix(0.07348588 0 0 0.07370838 -248.01726 933.60065)"/>
            <g id="g4227" transform="matrix(0.07348588 0 0 0.07370838 -248.0173 933.60065)"/>
            <path id="path4884-1" fill="#ff0000" stroke="none" d="M 58.629673 814.07623 L 86.87338 785.7397 L 58.629673 757.40326 L 30.385965 785.7397 Z"/>
            <path id="path4884-1-4" fill="#ff0000" stroke="none" d="M 58.629677 1014.3212 L 86.87338 985.9846 L 58.629677 957.6481 L 30.385965 985.9846 Z"/>
            <path id="path4884-1-4-1" fill="#ff0000" stroke="none" d="M 117 964.25995 L 145.24371 935.9234 L 117 907.58685 L 88.756294 935.9234 Z"/>
            <path id="path4884-1-7" fill="#ff0000" stroke="none" d="M 58.629673 914.19867 L 86.87338 885.8622 L 58.629673 857.52563 L 30.385965 885.8622 Z"/>
            <path id="path4884-1-40" fill="#ff0000" stroke="none" d="M 175.37032 814.07623 L 203.61404 785.7397 L 175.37032 757.40314 L 147.12662 785.7397 Z"/>
            <path id="path4884-1-4-9" fill="#ff0000" stroke="none" d="M 175.37032 1014.3212 L 203.61404 985.9846 L 175.37032 957.6481 L 147.12662 985.9846 Z"/>
            <path id="path4884-1-4-1-4" fill="#ff0000" stroke="none" d="M 117 864.13745 L 145.24371 835.8009 L 117 807.4644 L 88.756294 835.8009 Z"/>
            <path id="path4884-1-7-8" fill="#ff0000" stroke="none" d="M 175.37032 914.19867 L 203.61404 885.8622 L 175.37032 857.52563 L 147.12662 885.8622 Z"/>
            <path id="path4884-1-4-5-3" fill="#ff0000" stroke="none" d="M 17.205568 780.7021 L 26.620136 771.2566 L 17.205568 761.8111 L 7.7910004 771.2566 Z"/>
            <path id="path4884-1-4-5-3-5" fill="#ff0000" stroke="none" d="M 216.79443 991.0222 L 226.209 1000.4677 L 216.79443 1009.9134 L 207.37987 1000.4677 Z"/>
            <g id="text3755" transform="matrix(0.97854984 0 0 1.0219204 0 0)">
                <path id="path896" fill="#ff0000" stroke="none" d="M 27.203661 731.19934 Q 27.203661 735.3011 24.292809 737.4369 Q 21.741085 739.30817 17.507114 739.30817 Q 13.310949 739.30817 10.759226 737.30457 Q 7.961782 735.0931 7.961782 731.0103 Q 7.961782 726.71967 12.479276 724.69714 Q 9.001372 722.48566 9.001372 718.38403 Q 9.001372 714.7738 11.83662 713.0159 Q 14.161523 711.5794 17.960754 711.5794 Q 21.419756 711.5794 23.65015 713.26166 Q 26.107367 715.15186 26.107367 718.51636 Q 26.107367 722.37225 22.648363 724.6782 Q 27.203661 726.60626 27.203661 731.19934 Z M 21.325249 719.23456 Q 21.325249 715.69995 17.544918 715.69995 Q 15.824868 715.69995 14.804179 716.62616 Q 13.78349 717.53345 13.78349 719.23456 Q 13.78349 720.879 14.860883 721.843 Q 15.881573 722.7881 17.544918 722.7881 Q 19.17046 722.7881 20.247854 721.8241 Q 21.325249 720.8602 21.325249 719.23456 Z M 22.213627 731.02924 Q 22.213627 729.0635 20.871609 727.9293 Q 19.605198 726.852 17.601624 726.852 Q 15.635852 726.852 14.369441 727.94824 Q 13.008522 729.10126 13.008522 731.02924 Q 13.008522 733.0517 14.331637 734.1669 Q 15.560245 735.20654 17.620525 735.20654 Q 19.661903 735.20654 20.89051 734.148 Q 22.213627 733.0328 22.213627 731.02924 Z"/>
            </g>
            <g id="text3755-2" transform="matrix(-0.97854984 0 0 -1.0219204 0 0)">
                <path id="path899" fill="#ff0000" stroke="none" d="M -211.9257 -1002.5212 Q -211.9257 -998.4195 -214.83658 -996.28357 Q -217.3883 -994.41235 -221.62225 -994.41235 Q -225.81844 -994.41235 -228.37015 -996.41595 Q -231.16759 -998.6274 -231.16759 -1002.7102 Q -231.16759 -1007.0009 -226.65009 -1009.0233 Q -230.128 -1011.2348 -230.128 -1015.3365 Q -230.128 -1018.94666 -227.29276 -1020.7046 Q -224.96785 -1022.1412 -221.16862 -1022.1412 Q -217.70963 -1022.1412 -215.47922 -1020.45874 Q -213.022 -1018.5687 -213.022 -1015.2042 Q -213.022 -1011.3483 -216.48099 -1009.0422 Q -211.9257 -1007.1143 -211.9257 -1002.5212 Z M -217.80412 -1014.4859 Q -217.80412 -1018.0205 -221.58447 -1018.0205 Q -223.3045 -1018.0205 -224.3252 -1017.09436 Q -225.34589 -1016.1871 -225.34589 -1014.4859 Q -225.34589 -1012.8415 -224.2685 -1011.8775 Q -223.24782 -1010.9324 -221.58447 -1010.9324 Q -219.95891 -1010.9324 -218.88152 -1011.8964 Q -217.80412 -1012.8604 -217.80412 -1014.4859 Z M -216.91576 -1002.6913 Q -216.91576 -1004.6571 -218.25778 -1005.79126 Q -219.52419 -1006.8686 -221.52776 -1006.8686 Q -223.49352 -1006.8686 -224.75993 -1005.77234 Q -226.12085 -1004.61926 -226.12085 -1002.6913 Q -226.12085 -1000.6689 -224.79773 -999.55365 Q -223.56914 -998.51404 -221.50885 -998.51404 Q -219.46747 -998.51404 -218.23885 -999.5725 Q -216.91576 -1000.6877 -216.91576 -1002.6913 Z"/>
            </g>
        </g>
    </g>
</svg>
