<svg width="234" height="333.00003" xmlns="http://www.w3.org/2000/svg">
    <g id="layer1" transform="matrix(1 0 0 1 0 -719.3622)">
        <g id="g912">
            <path id="rect4266" fill="#ffffff" stroke="#808080" stroke-width="0.7559055" d="M 9.297138 719.7401 L 224.70288 719.7401 C 229.6288 719.7401 233.62206 723.74524 233.62206 728.68585 L 233.62206 1043.0385 C 233.62207 1045.411 232.68237 1047.6864 231.0097 1049.3641 C 229.33702 1051.0417 227.06839 1051.9843 224.70288 1051.9843 L 9.297138 1051.9843 C 6.9316134 1051.9843 4.662975 1051.0417 2.9903018 1049.3641 C 1.3176281 1047.6864 0.3779376 1045.411 0.37795275 1043.0385 L 0.37795275 728.68585 C 0.37795484 723.74524 4.3712096 719.7401 9.297138 719.7401 Z"/>
            <g id="g4233" transform="matrix(0.07348588 0 0 0.07370838 -248.0173 933.60065)"/>
            <g id="g4211" transform="matrix(0.07348588 0 0 0.07370838 -248.01726 933.60065)"/>
            <g id="g4227" transform="matrix(0.07348588 0 0 0.07370838 -248.0173 933.60065)"/>
            <path id="path4884-1" fill="#ff0000" stroke="none" d="M 58.629673 814.07623 L 86.87338 785.7397 L 58.629673 757.40326 L 30.385965 785.7397 Z"/>
            <path id="path4884-1-4" fill="#ff0000" stroke="none" d="M 58.629677 1014.3212 L 86.87338 985.9846 L 58.629677 957.6481 L 30.385965 985.9846 Z"/>
            <path id="path4884-1-40" fill="#ff0000" stroke="none" d="M 175.37032 814.07623 L 203.61404 785.7397 L 175.37032 757.40314 L 147.12662 785.7397 Z"/>
            <path id="path4884-1-4-9" fill="#ff0000" stroke="none" d="M 175.37032 1014.3212 L 203.61404 985.9846 L 175.37032 957.6481 L 147.12662 985.9846 Z"/>
            <path id="path4884-1-4-5-3" fill="#ff0000" stroke="none" d="M 17.205568 780.7021 L 26.620136 771.2566 L 17.205568 761.8111 L 7.7910004 771.2566 Z"/>
            <path id="path4884-1-4-5-3-5" fill="#ff0000" stroke="none" d="M 216.79443 991.0222 L 226.209 1000.4677 L 216.79443 1009.9134 L 207.37987 1000.4677 Z"/>
            <g id="text3755-5" transform="matrix(0.9367271 0 0 1.0675468 0 0)">
                <path id="path892" fill="#ff0000" stroke="none" d="M 28.418243 706.77167 Q 28.418243 707.15826 28.270983 707.5264 Q 27.939651 707.7105 27.571499 707.7105 L 15.753885 707.7105 Q 14.391731 707.7105 14.391731 706.3299 Q 14.391731 706.109 14.428551 705.5568 Q 14.465361 705.0046 14.465361 704.71 Q 14.465361 704.0658 14.741473 703.8817 Q 14.943956 703.75287 15.64344 703.75287 L 20.245316 703.75287 L 20.245316 700.9181 L 9.918709 700.9181 Q 8.317257 700.9181 8.317257 699.4271 Q 8.317257 699.1693 8.372479 698.48834 Q 8.427702 697.7888 8.427702 697.3838 Q 8.427702 696.75806 9.145594 695.8192 L 19.785128 681.8295 Q 20.28213 681.1669 21.036837 681.1669 L 23.466627 681.1669 Q 24.33178 681.1669 24.33178 682.124 L 24.33178 697.1446 Q 24.99445 697.1446 25.841192 697.10785 Q 26.706348 697.071 26.945644 697.071 Q 27.939651 697.071 28.178947 697.568 Q 28.418243 698.0466 28.418243 699.96094 Q 28.418243 700.31067 28.363024 700.49475 Q 28.25258 700.91815 27.516281 700.91815 L 24.331781 700.91815 L 24.331781 703.75287 Q 25.01286 703.75287 25.878012 703.71606 Q 26.743166 703.67926 26.964054 703.67926 Q 28.013285 703.67926 28.234173 704.21313 Q 28.418247 704.65485 28.418247 706.7718 Z M 20.318945 687.0757 Q 19.306532 688.6219 12.845502 697.1446 L 20.245316 697.1446 Q 20.245316 696.16895 20.208494 693.79443 Q 20.153275 691.64075 20.171675 690.42584 Q 20.190084 688.58514 20.318935 687.0757 Z"/>
            </g>
            <g id="text3755-2-28" transform="matrix(-0.9367271 0 0 -1.0675468 0 0)">
                <path id="path895" fill="#ff0000" stroke="none" d="M -221.38771 -952.8504 Q -221.38771 -952.46387 -221.53497 -952.0957 Q -221.86632 -951.9117 -222.23447 -951.9117 L -234.05205 -951.9117 Q -235.41422 -951.9117 -235.41422 -953.29224 Q -235.41422 -953.51306 -235.37741 -954.0653 Q -235.34062 -954.61755 -235.34062 -954.9121 Q -235.34062 -955.55634 -235.0645 -955.7404 Q -234.86205 -955.86926 -234.16255 -955.86926 L -229.56067 -955.86926 L -229.56067 -958.70404 L -239.88728 -958.70404 Q -241.48874 -958.70404 -241.48874 -960.19495 Q -241.48874 -960.45276 -241.43353 -961.1338 Q -241.37833 -961.8333 -241.37833 -962.2383 Q -241.37833 -962.8642 -240.66045 -963.8029 L -230.02089 -977.7926 Q -229.52388 -978.45526 -228.7692 -978.45526 L -226.33942 -978.45526 Q -225.47426 -978.45526 -225.47426 -977.4981 L -225.47426 -962.4775 Q -224.81158 -962.4775 -223.96483 -962.51434 Q -223.09969 -962.55115 -222.8604 -962.55115 Q -221.8664 -962.55115 -221.62709 -962.05414 Q -221.3878 -961.57556 -221.3878 -959.6612 Q -221.3878 -959.31146 -221.443 -959.1274 Q -221.55344 -958.7039 -222.28973 -958.7039 L -225.47426 -958.7039 L -225.47426 -955.86926 Q -224.79317 -955.86926 -223.92801 -955.90607 Q -223.06285 -955.9428 -222.84196 -955.9428 Q -221.79276 -955.9428 -221.57185 -955.40894 Q -221.38777 -954.9672 -221.38777 -952.8504 Z M -229.48701 -972.54645 Q -230.49944 -971.00024 -236.96043 -962.4775 L -229.56065 -962.4775 Q -229.56065 -963.4532 -229.59744 -965.82776 Q -229.65265 -967.9814 -229.63425 -969.1962 Q -229.61584 -971.0371 -229.48698 -972.54645 Z"/>
            </g>
        </g>
    </g>
</svg>
