<svg width="234" height="333.00003" xmlns="http://www.w3.org/2000/svg">
    <g id="layer1" transform="matrix(1 0 0 1 0 -719.3622)">
        <g id="g911">
            <path id="rect4266" fill="#ffffff" stroke="#808080" stroke-width="0.7559055" d="M 9.297138 719.7401 L 224.70288 719.7401 C 229.6288 719.7401 233.62206 723.74524 233.62206 728.68585 L 233.62206 1043.0385 C 233.62207 1045.411 232.68237 1047.6864 231.0097 1049.3641 C 229.33702 1051.0417 227.06839 1051.9843 224.70288 1051.9843 L 9.297138 1051.9843 C 6.9316134 1051.9843 4.662975 1051.0417 2.9903018 1049.3641 C 1.3176281 1047.6864 0.3779376 1045.411 0.37795275 1043.0385 L 0.37795275 728.68585 C 0.37795484 723.74524 4.3712096 719.7401 9.297138 719.7401 Z"/>
            <g id="g4233" transform="matrix(0.07348588 0 0 0.07370838 -248.0173 933.60065)"/>
            <g id="g4211" transform="matrix(0.07348588 0 0 0.07370838 -248.01726 933.60065)"/>
            <g id="g4227" transform="matrix(0.07348588 0 0 0.07370838 -248.0173 933.60065)"/>
            <path id="path4884-1" fill="#ff0000" stroke="none" d="M 117 814.07623 L 145.24371 785.7397 L 117 757.40326 L 88.756294 785.7397 Z"/>
            <path id="path4884-1-4" fill="#ff0000" stroke="none" d="M 117 1014.3212 L 145.24371 985.9846 L 117 957.6481 L 88.756294 985.9846 Z"/>
            <path id="path4884-1-7" fill="#ff0000" stroke="none" d="M 117 914.19867 L 145.24371 885.8622 L 117 857.52563 L 88.756294 885.8622 Z"/>
            <path id="path4884-1-4-5-3" fill="#ff0000" stroke="none" d="M 17.205568 780.7021 L 26.620136 771.2566 L 17.205568 761.8111 L 7.7910004 771.2566 Z"/>
            <path id="path4884-1-4-5-3-5" fill="#ff0000" stroke="none" d="M 216.79443 991.0222 L 226.209 1000.4677 L 216.79443 1009.9134 L 207.37987 1000.4677 Z"/>
            <g id="text3755-0" transform="matrix(1.0092549 0 0 0.99083 0 0)">
                <path id="path892" fill="#ff0000" stroke="none" d="M 26.376028 754.4354 Q 26.376028 758.41235 23.58828 760.55676 Q 21.073458 762.5062 16.999056 762.5062 Q 7.7195554 762.5062 7.7195554 753.7335 Q 7.7195554 753.3242 7.8560185 752.95386 Q 8.148439 752.77826 8.51884 752.77826 L 11.053157 752.77826 Q 11.423557 752.77826 11.735473 752.95386 Q 11.832943 753.2267 11.891431 753.59705 Q 12.222841 756.01447 13.256064 757.1062 Q 14.406254 758.3148 16.784613 758.3148 Q 18.734089 758.3148 19.962257 757.26215 Q 21.24891 756.1314 21.24891 754.22095 Q 21.24891 750.1661 16.823603 749.46423 Q 16.277748 749.3862 16.004824 749.23035 Q 15.848864 748.9184 15.848864 746.07214 Q 15.848864 745.7018 16.024319 745.37036 Q 17.486423 744.94147 18.94853 744.49316 Q 20.488615 743.79126 20.488615 741.5493 Q 20.488615 738.1573 16.511686 738.1573 Q 14.679179 738.1573 13.645958 739.0541 Q 13.100106 739.5415 12.515263 740.7111 Q 12.086379 741.60785 11.657494 741.60785 L 9.142672 741.60785 Q 8.187429 741.60785 8.187429 740.75006 Q 8.187429 737.49445 10.741241 735.60345 Q 13.041622 733.9074 16.394718 733.9074 Q 20.254679 733.9074 22.69152 735.5255 Q 25.557247 737.4165 25.557247 741.101 Q 25.557247 745.54584 21.17093 747.1443 Q 26.376028 749.3473 26.376028 754.4354 Z"/>
            </g>
            <g id="text3755-2-2" transform="matrix(-1.0092549 0 0 -0.99083 0 0)">
                <path id="path895" fill="#ff0000" stroke="none" d="M -205.47818 -1033.6859 Q -205.47818 -1029.709 -208.26591 -1027.5646 Q -210.78075 -1025.6151 -214.85515 -1025.6151 Q -224.13463 -1025.6151 -224.13463 -1034.3877 Q -224.13463 -1034.7971 -223.99818 -1035.1675 Q -223.70576 -1035.343 -223.33536 -1035.343 L -220.80104 -1035.343 Q -220.43065 -1035.343 -220.11873 -1035.1675 Q -220.02122 -1034.8947 -219.96278 -1034.5242 Q -219.63136 -1032.1069 -218.59816 -1031.0153 Q -217.44795 -1029.8065 -215.0696 -1029.8065 Q -213.12012 -1029.8065 -211.89194 -1030.8593 Q -210.60529 -1031.9899 -210.60529 -1033.9004 Q -210.60529 -1037.9553 -215.0306 -1038.6571 Q -215.57645 -1038.7351 -215.8494 -1038.891 Q -216.00534 -1039.2029 -216.00534 -1042.0492 Q -216.00534 -1042.4196 -215.82988 -1042.751 Q -214.36778 -1043.1799 -212.90567 -1043.6283 Q -211.36559 -1044.3301 -211.36559 -1046.572 Q -211.36559 -1049.964 -215.34251 -1049.964 Q -217.17502 -1049.964 -218.20824 -1049.0673 Q -218.75409 -1048.58 -219.33894 -1047.4102 Q -219.76782 -1046.5135 -220.19672 -1046.5135 L -222.71155 -1046.5135 Q -223.66676 -1046.5135 -223.66676 -1047.3712 Q -223.66676 -1050.627 -221.11296 -1052.518 Q -218.81258 -1054.2139 -215.45947 -1054.2139 Q -211.59952 -1054.2139 -209.16267 -1052.5958 Q -206.29695 -1050.705 -206.29695 -1047.0203 Q -206.29695 -1042.5754 -210.68327 -1040.977 Q -205.47818 -1038.774 -205.47818 -1033.6859 Z"/>
            </g>
        </g>
    </g>
</svg>
