<svg width="234" height="333" xmlns="http://www.w3.org/2000/svg">
    <g id="layer1" transform="matrix(1 0 0 1 0 -719.3621)">
        <g id="g919">
            <path id="rect4266" fill="#ffffff" stroke="#808080" stroke-width="0.7559055" d="M 9.297138 719.74005 L 224.70288 719.74005 C 229.6288 719.74005 233.62206 723.7452 233.62206 728.6858 L 233.62206 1043.0383 C 233.62207 1045.4109 232.68237 1047.6863 231.0097 1049.364 C 229.33702 1051.0416 227.06839 1051.9841 224.70288 1051.9841 L 9.297138 1051.9841 C 6.931613 1051.9841 4.6629744 1051.0416 2.9903011 1049.364 C 1.3176278 1047.6863 0.37793735 1045.4109 0.37795275 1043.0383 L 0.37795275 728.6858 C 0.37795433 723.7452 4.371209 719.74005 9.297138 719.74005 Z"/>
            <g id="g4233" transform="matrix(0.07348588 0 0 0.07370838 -248.0173 933.60065)"/>
            <g id="g4211" transform="matrix(0.07348588 0 0 0.07370838 -248.01726 933.60065)"/>
            <g id="g4227" transform="matrix(0.07348588 0 0 0.07370838 -248.0173 933.60065)"/>
            <path id="path3940-9-0" fill="#ff0000" stroke="none" d="M 17.19471 780.7021 C 16.310305 778.80347 15.168663 777.0293 13.812274 775.44556 C 12.937504 774.42426 11.975963 773.4839 11.001837 772.56055 C 10.240889 771.83923 9.466447 771.12195 8.843829 770.2743 C 8.423218 769.70154 8.072211 769.0644 7.9049773 768.3698 C 7.602111 767.11176 7.9316525 765.7631 8.553233 764.633 C 8.9172945 763.9712 9.383064 763.3625 9.95682 762.87866 C 10.809278 762.15985 11.921515 761.73 13.024526 761.8238 C 14.036058 761.90985 14.981971 762.4265 15.720137 763.1359 C 16.373413 763.76385 16.88224 764.5466 17.205566 765.4042 C 17.528894 764.5466 18.037722 763.76385 18.690998 763.1359 C 19.429163 762.4265 20.375076 761.90985 21.386608 761.8238 C 22.489595 761.7299 23.60183 762.15985 24.4543 762.87866 C 25.028053 763.3625 25.493837 763.9712 25.857883 764.633 C 26.47952 765.7631 26.809021 767.11176 26.506144 768.3698 C 26.33892 769.0644 25.987902 769.70154 25.56728 770.2743 C 24.944674 771.12195 24.170221 771.83923 23.409296 772.56055 C 22.43516 773.4839 21.4736 774.42426 20.598862 775.44556 C 19.242441 777.0293 18.1008 778.80347 17.216394 780.7021"/>
            <g id="text3755" transform="matrix(0.99509937 0 0 1.0049248 0 0)">
                <path id="path898" fill="#ff0000" stroke="none" d="M 26.751238 742.3019 Q 26.751238 746.667 24.101007 749.23926 Q 21.470263 751.8115 17.105177 751.8115 Q 12.915474 751.8115 10.4796 749.76544 Q 7.829368 747.5829 7.829368 743.4711 Q 7.829368 742.80853 8.881666 742.80853 L 11.434462 742.80853 Q 11.843689 742.80853 12.194455 742.92554 Q 12.311377 743.1203 12.350351 743.4321 Q 12.681631 745.6341 13.617004 746.58905 Q 14.669303 747.6608 16.851847 747.6608 Q 19.03439 747.6608 20.37899 746.1213 Q 21.645645 744.65985 21.645645 742.4578 Q 21.645645 737.021 17.144152 737.021 Q 15.507243 737.021 13.850849 738.15125 L 10.635496 738.15125 Q 10.187295 738.15125 9.778068 738.03424 Q 9.583199 737.83936 9.583199 737.58606 Q 9.583199 734.81885 9.875503 730.6097 Q 10.128834 727.102 10.382165 723.61383 L 24.997406 723.61383 Q 25.504068 723.61383 25.913298 723.7698 Q 26.08868 724.1594 26.08868 726.4979 Q 26.08868 726.8877 26.04971 727.141 Q 25.9133 727.7646 24.919464 727.7646 L 14.338024 727.7646 Q 14.396483 728.81696 14.162641 730.9799 Q 13.928796 733.12354 13.987258 734.1758 Q 15.994418 732.92865 18.176962 732.92865 Q 22.191282 732.92865 24.52972 735.65686 Q 26.751238 738.2291 26.751238 742.3019 Z"/>
            </g>
            <g id="text3755-2" transform="matrix(-0.99509937 0 0 -1.0049248 0 0)">
                <path id="path901" fill="#ff0000" stroke="none" d="M -208.40118 -1020.7398 Q -208.40118 -1016.3747 -211.05139 -1013.8024 Q -213.68216 -1011.23004 -218.04724 -1011.23004 Q -222.23695 -1011.23004 -224.67284 -1013.27637 Q -227.32304 -1015.4588 -227.32304 -1019.57056 Q -227.32304 -1020.2331 -226.27077 -1020.2331 L -223.71796 -1020.2331 Q -223.30873 -1020.2331 -222.95796 -1020.11615 Q -222.84103 -1019.92126 -222.80206 -1019.6095 Q -222.4708 -1017.4075 -221.53542 -1016.4526 Q -220.48314 -1015.381 -218.30055 -1015.381 Q -216.11803 -1015.381 -214.77344 -1016.9203 Q -213.50676 -1018.3819 -213.50676 -1020.5839 Q -213.50676 -1026.0208 -218.00827 -1026.0208 Q -219.64519 -1026.0208 -221.30157 -1024.8905 L -224.51692 -1024.8905 Q -224.96512 -1024.8905 -225.37434 -1025.0074 Q -225.56921 -1025.2023 -225.56921 -1025.4556 Q -225.56921 -1028.2228 -225.2769 -1032.432 Q -225.02359 -1035.9396 -224.77025 -1039.4279 L -210.15501 -1039.4279 Q -209.64835 -1039.4279 -209.23912 -1039.2719 Q -209.06374 -1038.8822 -209.06374 -1036.5437 Q -209.06374 -1036.154 -209.10275 -1035.9008 Q -209.23914 -1035.2771 -210.233 -1035.2771 L -220.81442 -1035.2771 Q -220.75592 -1034.2249 -220.9898 -1032.0616 Q -221.22365 -1029.9182 -221.1652 -1028.8658 Q -219.15804 -1030.113 -216.97551 -1030.113 Q -212.96115 -1030.113 -210.62273 -1027.3848 Q -208.40123 -1024.8126 -208.40123 -1020.7398 Z"/>
            </g>
            <path id="path3940-9-6-6" fill="#ff0000" stroke="none" d="M 216.78358 991.0222 C 215.89917 992.92084 214.75752 994.695 213.40112 996.2787 C 212.52637 997.30005 211.56483 998.24023 210.5907 999.16376 C 209.82974 999.88495 209.05531 1000.60223 208.43271 1001.4501 C 208.01208 1002.0228 207.6611 1002.6599 207.49384 1003.3545 C 207.19098 1004.6127 207.52054 1005.9611 208.1421 1007.09125 C 208.50616 1007.753 208.97192 1008.3617 209.54568 1008.84564 C 210.39815 1009.5644 211.51038 1009.9943 212.61339 1009.9004 C 213.62491 1009.8144 214.57085 1009.2979 215.309 1008.5883 C 215.96228 1007.9604 216.47112 1007.1777 216.79443 1006.3201 C 217.11775 1007.1777 217.62659 1007.9604 218.27986 1008.5883 C 219.01804 1009.2979 219.96394 1009.8144 220.97548 1009.9004 C 222.07845 1009.9944 223.19069 1009.5644 224.0432 1008.84564 C 224.61694 1008.3617 225.0827 1007.753 225.44676 1007.09125 C 226.06837 1005.9611 226.39787 1004.6127 226.09502 1003.3545 C 225.9278 1002.6599 225.57678 1002.0228 225.15614 1001.4501 C 224.53354 1000.60223 223.75908 999.88495 222.99815 999.16376 C 222.02403 998.24023 221.06247 997.30005 220.18773 996.2787 C 218.83131 994.695 217.68967 992.92084 216.80527 991.0222"/>
            <path id="path3940-9" fill="#ff0000" stroke="none" d="M 58.597134 814.07623 C 55.94392 808.3803 52.518993 803.0578 48.449768 798.3068 C 45.825516 795.2428 42.94089 792.4217 40.018486 789.6517 C 37.735672 787.488 35.412346 785.33594 33.544495 782.7928 C 32.282627 781.0747 31.229609 779.16315 30.727938 777.07935 C 29.819305 773.30524 30.807808 769.25934 32.672672 765.8691 C 33.764828 763.8836 35.162197 762.0576 36.883434 760.60614 C 39.440838 758.44946 42.77755 757.16003 46.086555 757.44147 C 49.121117 757.69965 51.958916 759.2494 54.17335 761.3778 C 56.133183 763.2616 57.659725 765.6098 58.629677 768.18274 C 59.599625 765.6098 61.12617 763.2616 63.086 761.3778 C 65.30043 759.2494 68.13823 757.69965 71.17277 757.44147 C 74.48177 757.16003 77.81848 758.44946 80.375885 760.60614 C 82.09715 762.0576 83.49449 763.8836 84.58665 765.8691 C 86.451546 769.25934 87.44005 773.30524 86.53141 777.07935 C 86.02974 779.16315 84.97669 781.0747 83.71483 782.7928 C 81.84701 785.33594 79.52365 787.488 77.24087 789.6517 C 74.31846 792.4217 71.4338 795.2428 68.809555 798.3068 C 64.740326 803.0578 61.3154 808.3803 58.662186 814.07623"/>
            <path id="path3940-9-1" fill="#ff0000" stroke="none" d="M 175.33778 814.07623 C 172.68457 808.3803 169.25964 803.0578 165.19041 798.3068 C 162.56618 795.2428 159.68155 792.4217 156.75914 789.6517 C 154.47633 787.488 152.153 785.33594 150.28516 782.7928 C 149.02328 781.0747 147.97026 779.16315 147.4686 777.07935 C 146.55997 773.30524 147.5485 769.25934 149.41333 765.8691 C 150.50548 763.8836 151.90285 762.0576 153.62408 760.60614 C 156.18149 758.44946 159.5182 757.16003 162.8272 757.44147 C 165.86177 757.69965 168.69957 759.2494 170.91402 761.3778 C 172.87383 763.2616 174.40038 765.6098 175.37032 768.18274 C 176.3403 765.6098 177.8668 763.2616 179.82664 761.3778 C 182.04106 759.2494 184.87888 757.69965 187.91342 757.44147 C 191.22244 757.16003 194.55911 758.44946 197.11653 760.60614 C 198.8378 762.0576 200.23514 763.8836 201.32732 765.8691 C 203.1922 769.25934 204.18068 773.30524 203.27206 777.07935 C 202.77039 779.16315 201.71735 781.0747 200.45547 782.7928 C 198.58766 785.33594 196.2643 787.488 193.98152 789.6517 C 191.05911 792.4217 188.17445 795.2428 185.55022 798.3068 C 181.48099 803.0578 178.05605 808.3803 175.40285 814.07623"/>
            <path id="path3940-9-9" fill="#ff0000" stroke="none" d="M 116.96747 914.19867 C 114.31425 908.5028 110.88932 903.1803 106.8201 898.4292 C 104.19584 895.3652 101.31122 892.5441 98.38881 889.7741 C 96.106 887.6104 93.78267 885.4584 91.914825 882.9152 C 90.65296 881.1971 89.59994 879.28564 89.098274 877.20184 C 88.18964 873.42773 89.17815 869.38184 91.043 865.9916 C 92.135155 864.00616 93.53253 862.1802 95.25376 860.7286 C 97.81117 858.57196 101.14788 857.2825 104.45688 857.56384 C 107.49145 857.822 110.32924 859.3718 112.543686 861.5003 C 114.50351 863.38403 116.03005 865.7323 117 868.30524 C 117.96996 865.7323 119.4965 863.38403 121.45633 861.5003 C 123.67076 859.3718 126.50857 857.822 129.5431 857.56384 C 132.8521 857.2825 136.18881 858.57196 138.74622 860.7286 C 140.46748 862.1802 141.86482 864.00616 142.95699 865.9916 C 144.82188 869.38184 145.81036 873.42773 144.90173 877.20184 C 144.40007 879.28564 143.34702 881.1971 142.08514 882.9152 C 140.21735 885.4584 137.89398 887.6104 135.61119 889.7741 C 132.6888 892.5441 129.80412 895.3652 127.17988 898.4292 C 123.11066 903.1803 119.68574 908.5028 117.03252 914.19867"/>
            <path id="path3940-9-6" fill="#ff0000" stroke="none" d="M 58.597134 957.648 C 55.94392 963.3439 52.518993 968.6665 48.449768 973.41754 C 45.825516 976.4815 42.94089 979.30255 40.018486 982.0725 C 37.735672 984.23627 35.412346 986.3883 33.544495 988.9315 C 32.282627 990.64954 31.229609 992.56116 30.727938 994.6449 C 29.819305 998.41907 30.807808 1002.46484 32.672672 1005.8551 C 33.764828 1007.8405 35.162197 1009.6666 36.883434 1011.1182 C 39.440838 1013.2748 42.77755 1014.5642 46.086555 1014.2827 C 49.121117 1014.02466 51.958916 1012.4749 54.17335 1010.3464 C 56.133183 1008.4627 57.659725 1006.1145 58.629677 1003.54144 C 59.599625 1006.1145 61.12617 1008.4627 63.086 1010.3464 C 65.30043 1012.4749 68.13823 1014.02466 71.17277 1014.2827 C 74.48177 1014.5642 77.81848 1013.2748 80.375885 1011.1182 C 82.09715 1009.6666 83.49449 1007.8405 84.58665 1005.8551 C 86.451546 1002.46484 87.44005 998.41907 86.53141 994.6449 C 86.02974 992.56116 84.97669 990.64954 83.71483 988.9315 C 81.84701 986.3883 79.52365 984.23627 77.24087 982.0725 C 74.31846 979.30255 71.4338 976.4815 68.809555 973.41754 C 64.740326 968.6665 61.3154 963.3439 58.662186 957.648"/>
            <path id="path3940-9-1-0" fill="#ff0000" stroke="none" d="M 175.33778 957.648 C 172.6846 963.3439 169.25964 968.6665 165.19041 973.41754 C 162.56618 976.4815 159.68155 979.30255 156.75914 982.0725 C 154.47633 984.2364 152.153 986.3883 150.28516 988.9315 C 149.02328 990.64954 147.97026 992.56116 147.4686 994.6449 C 146.55997 998.41907 147.5485 1002.46484 149.41333 1005.8551 C 150.50548 1007.8405 151.90286 1009.6666 153.62408 1011.1182 C 156.18149 1013.2748 159.5182 1014.5642 162.82721 1014.2827 C 165.86177 1014.02466 168.69958 1012.4749 170.91402 1010.3464 C 172.87383 1008.4627 174.40038 1006.1145 175.37032 1003.54144 C 176.3403 1006.1145 177.86684 1008.4627 179.82666 1010.3464 C 182.04109 1012.4749 184.8789 1014.02466 187.91344 1014.2827 C 191.22244 1014.5642 194.55914 1013.2748 197.11653 1011.1182 C 198.83781 1009.6666 200.23515 1007.8405 201.32732 1005.8551 C 203.1922 1002.46484 204.18068 998.41907 203.27206 994.6449 C 202.77039 992.56116 201.71735 990.64954 200.45547 988.9315 C 198.58766 986.3883 196.2643 984.2364 193.98152 982.0725 C 191.05911 979.30255 188.17445 976.4815 185.55022 973.41754 C 181.48099 968.6665 178.05608 963.3439 175.40285 957.648"/>
        </g>
    </g>
</svg>
