<svg width="234" height="333.00003" xmlns="http://www.w3.org/2000/svg">
    <g id="layer1" transform="matrix(1 0 0 1 0 -719.3622)">
        <g id="g912">
            <path id="rect4266" fill="#ffffff" stroke="#808080" stroke-width="0.7559055" d="M 9.297138 719.7401 L 224.70288 719.7401 C 229.6288 719.7401 233.62206 723.74524 233.62206 728.68585 L 233.62206 1043.0385 C 233.62207 1045.411 232.68237 1047.6864 231.0097 1049.3641 C 229.33702 1051.0417 227.06839 1051.9843 224.70288 1051.9843 L 9.297138 1051.9843 C 6.9316134 1051.9843 4.662975 1051.0417 2.9903018 1049.3641 C 1.3176281 1047.6864 0.3779376 1045.411 0.37795275 1043.0385 L 0.37795275 728.68585 C 0.37795484 723.74524 4.3712096 719.7401 9.297138 719.7401 Z"/>
            <g id="g4233" transform="matrix(0.07348588 0 0 0.07370838 -248.0173 933.60065)"/>
            <g id="g4211" transform="matrix(0.07348588 0 0 0.07370838 -248.01726 933.60065)"/>
            <g id="g4227" transform="matrix(0.07348588 0 0 0.07370838 -248.0173 933.60065)"/>
            <path id="path3940-9-0" fill="#ff0000" stroke="none" d="M 17.19471 780.7021 C 16.310305 778.80347 15.168663 777.0293 13.812274 775.4456 C 12.937504 774.42426 11.975963 773.48395 11.001837 772.56055 C 10.240889 771.83936 9.466447 771.12195 8.843829 770.2743 C 8.423218 769.70154 8.072211 769.0644 7.9049773 768.3698 C 7.602111 767.11176 7.9316525 765.7631 8.553233 764.6331 C 8.9172945 763.9712 9.383064 763.3625 9.95682 762.87866 C 10.809278 762.15985 11.921515 761.73 13.024526 761.8239 C 14.036058 761.90985 14.981971 762.4265 15.720137 763.1359 C 16.373413 763.7639 16.88224 764.5467 17.205566 765.4042 C 17.528894 764.5467 18.037722 763.7639 18.690998 763.1359 C 19.429163 762.4265 20.375076 761.90985 21.386608 761.8239 C 22.489595 761.73 23.60183 762.15985 24.4543 762.87866 C 25.028053 763.3625 25.493837 763.9712 25.857883 764.6331 C 26.47952 765.7631 26.809021 767.11176 26.506144 768.3698 C 26.33892 769.0644 25.987902 769.70154 25.56728 770.2743 C 24.944674 771.12195 24.170221 771.83936 23.409296 772.56055 C 22.43516 773.48395 21.4736 774.42426 20.598862 775.4456 C 19.242441 777.0293 18.1008 778.80347 17.216394 780.7021"/>
            <path id="path3940-9-6-6" fill="#ff0000" stroke="none" d="M 216.78358 991.0222 C 215.89917 992.92084 214.75752 994.695 213.40112 996.27875 C 212.52637 997.30005 211.56483 998.2404 210.5907 999.16376 C 209.82974 999.8851 209.05531 1000.60223 208.43271 1001.4501 C 208.01208 1002.0228 207.6611 1002.6599 207.49384 1003.3545 C 207.19098 1004.6125 207.52054 1005.96124 208.1421 1007.0913 C 208.50616 1007.7531 208.97192 1008.3617 209.54568 1008.84564 C 210.39815 1009.5646 211.51038 1009.9943 212.61339 1009.9005 C 213.62491 1009.8145 214.57085 1009.2978 215.309 1008.5883 C 215.96228 1007.9604 216.47112 1007.1777 216.79443 1006.32 C 217.11775 1007.1777 217.62659 1007.9604 218.27986 1008.5883 C 219.01804 1009.2978 219.96394 1009.8144 220.97548 1009.9005 C 222.07845 1009.99457 223.19069 1009.5646 224.0432 1008.84564 C 224.61694 1008.3617 225.0827 1007.7531 225.44676 1007.0913 C 226.06837 1005.96124 226.39787 1004.6125 226.09502 1003.3545 C 225.9278 1002.6599 225.57678 1002.0228 225.15614 1001.4501 C 224.53354 1000.60223 223.75908 999.8851 222.99815 999.16376 C 222.02403 998.2404 221.06247 997.30005 220.18773 996.27875 C 218.83131 994.695 217.68967 992.92084 216.80527 991.0222"/>
            <path id="path3940-9-3" fill="#ff0000" stroke="none" d="M 116.96747 914.19867 C 114.31425 908.5028 110.88932 903.1803 106.8201 898.42926 C 104.19584 895.3652 101.31122 892.5442 98.38881 889.7742 C 96.106 887.6104 93.78267 885.4584 91.914825 882.9152 C 90.65296 881.19714 89.59994 879.28564 89.098274 877.20184 C 88.18964 873.42773 89.17815 869.38184 91.043 865.9916 C 92.135155 864.00616 93.53253 862.1802 95.25376 860.7286 C 97.81117 858.57196 101.14788 857.2825 104.45688 857.56396 C 107.49145 857.8221 110.32924 859.3718 112.543686 861.5003 C 114.50351 863.38416 116.03005 865.7323 117 868.30524 C 117.96996 865.7323 119.4965 863.38416 121.45633 861.5003 C 123.67076 859.3718 126.50857 857.8221 129.5431 857.56396 C 132.8521 857.2825 136.18881 858.57196 138.74622 860.7286 C 140.46748 862.1802 141.86482 864.00616 142.95699 865.9916 C 144.82188 869.38184 145.81038 873.42773 144.90173 877.20184 C 144.40007 879.28564 143.34702 881.19714 142.08514 882.9152 C 140.21735 885.4584 137.89398 887.6104 135.61119 889.7742 C 132.6888 892.5442 129.80412 895.3652 127.17988 898.42926 C 123.11066 903.1803 119.68574 908.5028 117.03252 914.19867"/>
            <g id="text3755-0" transform="matrix(0.83054507 0 0 1.2040286 0 0)">
                <path id="path895" fill="#ff0000" stroke="none" d="M 32.051407 627.48846 L 27.39565 627.48846 L 25.555746 622.64075 L 15.956245 622.64075 L 14.036343 627.48846 L 9.380587 627.48846 L 18.452114 603.9537 L 22.995878 603.9537 Z M 23.875832 618.27295 L 20.755995 610.19336 L 17.620157 618.27295 Z"/>
            </g>
            <g id="text3755-2-2" transform="matrix(-0.8305451 0 0 -1.2040285 0 0)">
                <path id="path898" fill="#ff0000" stroke="none" d="M -249.69128 -844.0084 L -254.34705 -844.0084 L -256.18695 -848.8561 L -265.78644 -848.8561 L -267.70633 -844.0084 L -272.3621 -844.0084 L -263.29056 -867.5432 L -258.7468 -867.5432 Z M -257.86685 -853.22394 L -260.9867 -861.3035 L -264.12253 -853.22394 Z"/>
            </g>
        </g>
    </g>
</svg>
