<svg width="234" height="333.00003" xmlns="http://www.w3.org/2000/svg">
    <g id="layer1" transform="matrix(1 0 0 1 0 -719.3622)">
        <g id="g913">
            <path id="rect4266" fill="#ffffff" stroke="#808080" stroke-width="0.7559055" d="M 9.297138 719.7401 L 224.70288 719.7401 C 229.6288 719.7401 233.62206 723.74524 233.62206 728.68585 L 233.62206 1043.0385 C 233.62207 1045.411 232.68237 1047.6864 231.0097 1049.3641 C 229.33702 1051.0417 227.06839 1051.9843 224.70288 1051.9843 L 9.297138 1051.9843 C 6.9316134 1051.9843 4.662975 1051.0417 2.9903018 1049.3641 C 1.3176281 1047.6864 0.3779376 1045.411 0.37795275 1043.0385 L 0.37795275 728.68585 C 0.37795484 723.74524 4.3712096 719.7401 9.297138 719.7401 Z"/>
            <g id="g4233" transform="matrix(0.07348588 0 0 0.07370838 -248.0173 933.60065)"/>
            <g id="g4211" transform="matrix(0.07348588 0 0 0.07370838 -248.01726 933.60065)"/>
            <g id="g4227" transform="matrix(0.07348588 0 0 0.07370838 -248.0173 933.60065)"/>
            <path id="path3940-9-0" fill="#ff0000" stroke="none" d="M 17.19471 780.7021 C 16.310305 778.80347 15.168663 777.0293 13.812274 775.4456 C 12.937504 774.42426 11.975963 773.48395 11.001837 772.56055 C 10.240889 771.83936 9.466447 771.12195 8.843829 770.2743 C 8.423218 769.70154 8.072211 769.0644 7.9049773 768.3698 C 7.602111 767.11176 7.9316525 765.7631 8.553233 764.6331 C 8.9172945 763.9712 9.383064 763.3625 9.95682 762.87866 C 10.809278 762.15985 11.921515 761.73 13.024526 761.8239 C 14.036058 761.90985 14.981971 762.4265 15.720137 763.1359 C 16.373413 763.7639 16.88224 764.5467 17.205566 765.4042 C 17.528894 764.5467 18.037722 763.7639 18.690998 763.1359 C 19.429163 762.4265 20.375076 761.90985 21.386608 761.8239 C 22.489595 761.73 23.60183 762.15985 24.4543 762.87866 C 25.028053 763.3625 25.493837 763.9712 25.857883 764.6331 C 26.47952 765.7631 26.809021 767.11176 26.506144 768.3698 C 26.33892 769.0644 25.987902 769.70154 25.56728 770.2743 C 24.944674 771.12195 24.170221 771.83936 23.409296 772.56055 C 22.43516 773.48395 21.4736 774.42426 20.598862 775.4456 C 19.242441 777.0293 18.1008 778.80347 17.216394 780.7021"/>
            <path id="path3940-9-6-6" fill="#ff0000" stroke="none" d="M 216.78358 991.0222 C 215.89917 992.92084 214.75752 994.695 213.40112 996.27875 C 212.52637 997.30005 211.56483 998.2404 210.5907 999.16376 C 209.82974 999.8851 209.05531 1000.60223 208.43271 1001.4501 C 208.01208 1002.0228 207.6611 1002.6599 207.49384 1003.3545 C 207.19098 1004.6125 207.52054 1005.96124 208.1421 1007.0913 C 208.50616 1007.7531 208.97192 1008.3617 209.54568 1008.84564 C 210.39815 1009.5646 211.51038 1009.9943 212.61339 1009.9005 C 213.62491 1009.8145 214.57085 1009.2978 215.309 1008.5883 C 215.96228 1007.9604 216.47112 1007.1777 216.79443 1006.32 C 217.11775 1007.1777 217.62659 1007.9604 218.27986 1008.5883 C 219.01804 1009.2978 219.96394 1009.8144 220.97548 1009.9005 C 222.07845 1009.99457 223.19069 1009.5646 224.0432 1008.84564 C 224.61694 1008.3617 225.0827 1007.7531 225.44676 1007.0913 C 226.06837 1005.96124 226.39787 1004.6125 226.09502 1003.3545 C 225.9278 1002.6599 225.57678 1002.0228 225.15614 1001.4501 C 224.53354 1000.60223 223.75908 999.8851 222.99815 999.16376 C 222.02403 998.2404 221.06247 997.30005 220.18773 996.27875 C 218.83131 994.695 217.68967 992.92084 216.80527 991.0222"/>
            <path id="path3940-9" fill="#ff0000" stroke="none" d="M 116.96747 814.07623 C 114.31425 808.3803 110.88932 803.0578 106.8201 798.3068 C 104.19584 795.2428 101.31122 792.42175 98.38881 789.6517 C 96.106 787.488 93.78267 785.33594 91.914825 782.7928 C 90.65296 781.0747 89.59994 779.16315 89.098274 777.07947 C 88.18964 773.3053 89.17815 769.25946 91.043 765.8692 C 92.135155 763.88367 93.53253 762.0577 95.25376 760.60614 C 97.81117 758.4495 101.14788 757.16003 104.45688 757.44147 C 107.49145 757.69965 110.32924 759.2494 112.543686 761.3778 C 114.50351 763.26166 116.03005 765.6099 117 768.18274 C 117.96996 765.6099 119.4965 763.26166 121.45633 761.3778 C 123.67076 759.2494 126.50857 757.69965 129.5431 757.44147 C 132.8521 757.16003 136.18881 758.4495 138.74622 760.60614 C 140.46748 762.0577 141.86482 763.88367 142.95699 765.8692 C 144.82188 769.25946 145.81038 773.3053 144.90173 777.07947 C 144.40007 779.16315 143.34702 781.0747 142.08514 782.7928 C 140.21735 785.33594 137.89398 787.488 135.61119 789.6517 C 132.6888 792.42175 129.80412 795.2428 127.17988 798.3068 C 123.11066 803.0578 119.68574 808.3803 117.03252 814.07623"/>
            <path id="path3940-9-6" fill="#ff0000" stroke="none" d="M 116.96747 957.6481 C 114.31425 963.3439 110.88932 968.6665 106.8201 973.41754 C 104.19584 976.4815 101.31122 979.30255 98.38881 982.07263 C 96.106 984.2364 93.78267 986.3884 91.914825 988.9315 C 90.65296 990.64966 89.59994 992.56116 89.098274 994.64496 C 88.18964 998.41907 89.17815 1002.46484 91.043 1005.8552 C 92.135155 1007.8407 93.53253 1009.6666 95.25376 1011.1182 C 97.81117 1013.2748 101.14788 1014.5643 104.45688 1014.28284 C 107.49145 1014.02466 110.32924 1012.4749 112.543686 1010.3464 C 114.50351 1008.4627 116.03005 1006.1145 117 1003.54144 C 117.96996 1006.1145 119.4965 1008.4627 121.45633 1010.3464 C 123.67076 1012.4749 126.50857 1014.02466 129.5431 1014.28284 C 132.8521 1014.5643 136.18881 1013.2748 138.74622 1011.1182 C 140.46748 1009.6666 141.86482 1007.8407 142.95699 1005.8552 C 144.82188 1002.46484 145.81036 998.41907 144.90173 994.64496 C 144.40007 992.56116 143.34702 990.64966 142.08514 988.9315 C 140.21735 986.3884 137.89398 984.2364 135.61119 982.07263 C 132.6888 979.30255 129.80412 976.4815 127.17988 973.41754 C 123.11066 968.6665 119.68574 963.3439 117.03252 957.6481"/>
            <g id="text3755-0" transform="matrix(0.9810549 0 0 1.019311 0 0)">
                <path id="path893" fill="#ff0000" stroke="none" d="M 26.999716 735.55237 L 26.288874 741.20074 L 7.941451 741.20074 Q 8.364115 736.34015 11.860691 732.6129 L 18.085365 727.3105 Q 21.332188 724.50555 21.332188 721.6814 Q 21.332188 719.7987 20.256317 718.6843 Q 19.19966 717.5509 17.3361 717.5509 Q 15.18436 717.5509 14.127702 718.70355 Q 13.436071 719.47205 13.071044 721.0665 Q 12.706016 722.7572 12.494685 723.02625 Q 12.187293 723.1223 11.783842 723.1223 L 9.363136 723.1223 Q 8.940474 723.1223 8.633081 722.9494 Q 8.498598 722.54596 8.498598 722.0465 Q 8.498598 718.0312 11.130637 715.6681 Q 13.647402 713.40106 17.681913 713.40106 Q 21.428246 713.40106 23.81053 715.3991 Q 26.346508 717.51245 26.346508 721.20105 Q 26.346508 724.83215 23.541561 727.84845 Q 22.56175 728.9243 17.970095 732.44006 Q 14.627213 735.03375 13.858735 737.10864 L 22.811506 737.10864 L 22.965202 735.3795 Q 23.176535 734.45734 24.09871 734.45734 L 26.019903 734.45734 Q 27.134197 734.45734 26.999716 735.5525 Z"/>
            </g>
            <g id="text3755-2-2" transform="matrix(-0.98105496 0 0 -1.019311 0 0)">
                <path id="path896" fill="#ff0000" stroke="none" d="M -211.51904 -1002.6063 L -212.22987 -996.95807 L -230.5773 -996.95807 Q -230.15463 -1001.81866 -226.65807 -1005.5458 L -220.43338 -1010.8483 Q -217.18655 -1013.6533 -217.18655 -1016.4775 Q -217.18655 -1018.3602 -218.26245 -1019.4745 Q -219.31908 -1020.6079 -221.18263 -1020.6079 Q -223.33438 -1020.6079 -224.39105 -1019.4553 Q -225.08267 -1018.6868 -225.4477 -1017.0923 Q -225.81273 -1015.4015 -226.02406 -1015.1326 Q -226.33144 -1015.0366 -226.7349 -1015.0366 L -229.15561 -1015.0366 Q -229.57828 -1015.0366 -229.88567 -1015.2095 Q -230.02016 -1015.613 -230.02016 -1016.1125 Q -230.02016 -1020.1278 -227.3881 -1022.49084 Q -224.87134 -1024.7579 -220.83682 -1024.7579 Q -217.0905 -1024.7579 -214.7082 -1022.7598 Q -212.17224 -1020.64655 -212.17224 -1016.9578 Q -212.17224 -1013.3268 -214.97717 -1010.3105 Q -215.95699 -1009.2347 -220.54865 -1005.7188 Q -223.89151 -1003.1251 -224.66 -1001.0503 L -215.70724 -1001.0503 L -215.55354 -1002.7794 Q -215.34221 -1003.7016 -214.42003 -1003.7016 L -212.49884 -1003.7016 Q -211.38455 -1003.7016 -211.51904 -1002.6065 Z"/>
            </g>
        </g>
    </g>
</svg>
