<svg width="234" height="333.00003" xmlns="http://www.w3.org/2000/svg">
    <g id="layer1" transform="matrix(1 0 0 1 0 -719.3622)">
        <g id="g920">
            <path id="rect4266" fill="#ffffff" stroke="#808080" stroke-width="0.7559055" d="M 9.297138 719.7401 L 224.70288 719.7401 C 229.6288 719.7401 233.62206 723.74524 233.62206 728.68585 L 233.62206 1043.0385 C 233.62207 1045.411 232.68237 1047.6864 231.0097 1049.3641 C 229.33702 1051.0417 227.06839 1051.9843 224.70288 1051.9843 L 9.297138 1051.9843 C 6.9316134 1051.9843 4.662975 1051.0417 2.9903018 1049.3641 C 1.3176281 1047.6864 0.3779376 1045.411 0.37795275 1043.0385 L 0.37795275 728.68585 C 0.37795484 723.74524 4.3712096 719.7401 9.297138 719.7401 Z"/>
            <g id="g4233" transform="matrix(0.07348588 0 0 0.07370838 -248.0173 933.60065)"/>
            <g id="g4211" transform="matrix(0.07348588 0 0 0.07370838 -248.01726 933.60065)"/>
            <g id="g4227" transform="matrix(0.07348588 0 0 0.07370838 -248.0173 933.60065)"/>
            <path id="path3940-9-0" fill="#ff0000" stroke="none" d="M 17.19471 780.7021 C 16.310305 778.80347 15.168663 777.0293 13.812274 775.4456 C 12.937504 774.42426 11.975963 773.48395 11.001837 772.56055 C 10.240889 771.83936 9.466447 771.12195 8.843829 770.2743 C 8.423218 769.70154 8.072211 769.0644 7.9049773 768.3698 C 7.602111 767.11176 7.9316525 765.7631 8.553233 764.6331 C 8.9172945 763.9712 9.383064 763.3625 9.95682 762.87866 C 10.809278 762.15985 11.921515 761.73 13.024526 761.8239 C 14.036058 761.90985 14.981971 762.4265 15.720137 763.1359 C 16.373413 763.7639 16.88224 764.5467 17.205566 765.4042 C 17.528894 764.5467 18.037722 763.7639 18.690998 763.1359 C 19.429163 762.4265 20.375076 761.90985 21.386608 761.8239 C 22.489595 761.73 23.60183 762.15985 24.4543 762.87866 C 25.028053 763.3625 25.493837 763.9712 25.857883 764.6331 C 26.47952 765.7631 26.809021 767.11176 26.506144 768.3698 C 26.33892 769.0644 25.987902 769.70154 25.56728 770.2743 C 24.944674 771.12195 24.170221 771.83936 23.409296 772.56055 C 22.43516 773.48395 21.4736 774.42426 20.598862 775.4456 C 19.242441 777.0293 18.1008 778.80347 17.216394 780.7021"/>
            <path id="path3940-9-6-6" fill="#ff0000" stroke="none" d="M 216.78358 991.0222 C 215.89917 992.92084 214.75752 994.695 213.40112 996.27875 C 212.52637 997.30005 211.56483 998.2404 210.5907 999.16376 C 209.82974 999.8851 209.05531 1000.60223 208.43271 1001.4501 C 208.01208 1002.0228 207.6611 1002.6599 207.49384 1003.3545 C 207.19098 1004.6125 207.52054 1005.96124 208.1421 1007.0913 C 208.50616 1007.7531 208.97192 1008.3617 209.54568 1008.84564 C 210.39815 1009.5646 211.51038 1009.9943 212.61339 1009.9005 C 213.62491 1009.8145 214.57085 1009.2978 215.309 1008.5883 C 215.96228 1007.9604 216.47112 1007.1777 216.79443 1006.32 C 217.11775 1007.1777 217.62659 1007.9604 218.27986 1008.5883 C 219.01804 1009.2978 219.96394 1009.8144 220.97548 1009.9005 C 222.07845 1009.99457 223.19069 1009.5646 224.0432 1008.84564 C 224.61694 1008.3617 225.0827 1007.7531 225.44676 1007.0913 C 226.06837 1005.96124 226.39787 1004.6125 226.09502 1003.3545 C 225.9278 1002.6599 225.57678 1002.0228 225.15614 1001.4501 C 224.53354 1000.60223 223.75908 999.8851 222.99815 999.16376 C 222.02403 998.2404 221.06247 997.30005 220.18773 996.27875 C 218.83131 994.695 217.68967 992.92084 216.80527 991.0222"/>
            <path id="path3940-9" fill="#ff0000" stroke="none" d="M 58.597134 814.07623 C 55.94392 808.3803 52.518993 803.0578 48.449768 798.3068 C 45.825516 795.2428 42.94089 792.42175 40.018486 789.6517 C 37.735672 787.488 35.412346 785.33594 33.544495 782.7928 C 32.282627 781.0747 31.229609 779.16315 30.727938 777.07947 C 29.819305 773.3053 30.807808 769.25946 32.672672 765.8692 C 33.764828 763.88367 35.162197 762.0577 36.883434 760.60614 C 39.440838 758.4495 42.77755 757.16003 46.086555 757.44147 C 49.121117 757.69965 51.958916 759.2494 54.17335 761.3778 C 56.133183 763.26166 57.659725 765.6099 58.629677 768.18274 C 59.599625 765.6099 61.12617 763.26166 63.086 761.3778 C 65.30043 759.2494 68.13823 757.69965 71.17277 757.44147 C 74.48177 757.16003 77.81848 758.4495 80.375885 760.60614 C 82.09715 762.0577 83.49449 763.88367 84.58665 765.8692 C 86.451546 769.25946 87.44005 773.3053 86.53141 777.07947 C 86.02974 779.16315 84.97669 781.0747 83.71483 782.7928 C 81.84701 785.33594 79.52365 787.488 77.24087 789.6517 C 74.31846 792.42175 71.4338 795.2428 68.809555 798.3068 C 64.740326 803.0578 61.3154 808.3803 58.662186 814.07623"/>
            <path id="path3940-9-1" fill="#ff0000" stroke="none" d="M 175.33778 814.07623 C 172.68457 808.3803 169.25964 803.0578 165.19041 798.3068 C 162.56618 795.2428 159.68155 792.42175 156.75914 789.6517 C 154.47633 787.488 152.153 785.33594 150.28516 782.7928 C 149.02328 781.0747 147.97026 779.16315 147.4686 777.07947 C 146.55997 773.3053 147.5485 769.25946 149.41333 765.8692 C 150.50548 763.88367 151.90285 762.0577 153.62408 760.60614 C 156.18149 758.4495 159.5182 757.16003 162.8272 757.44147 C 165.86177 757.69965 168.69957 759.2494 170.91402 761.3778 C 172.87383 763.26166 174.40038 765.6099 175.37032 768.18274 C 176.3403 765.6099 177.8668 763.26166 179.82664 761.3778 C 182.04106 759.2494 184.87888 757.69965 187.91342 757.44147 C 191.22244 757.16003 194.55911 758.4495 197.11653 760.60614 C 198.8378 762.0577 200.23514 763.88367 201.32732 765.8692 C 203.1922 769.25946 204.18068 773.3053 203.27206 777.07947 C 202.77039 779.16315 201.71735 781.0747 200.45547 782.7928 C 198.58766 785.33594 196.2643 787.488 193.98152 789.6517 C 191.05911 792.42175 188.17445 795.2428 185.55022 798.3068 C 181.48099 803.0578 178.05605 808.3803 175.40285 814.07623"/>
            <path id="path3940-9-6" fill="#ff0000" stroke="none" d="M 58.597134 957.6481 C 55.94392 963.3439 52.518993 968.6665 48.449768 973.41754 C 45.825516 976.4815 42.94089 979.30255 40.018486 982.07263 C 37.735672 984.2364 35.412346 986.3884 33.544495 988.9315 C 32.282627 990.64966 31.229609 992.56116 30.727938 994.64496 C 29.819305 998.41907 30.807808 1002.46484 32.672672 1005.8552 C 33.764828 1007.8407 35.162197 1009.6666 36.883434 1011.1182 C 39.440838 1013.2748 42.77755 1014.5643 46.086555 1014.28284 C 49.121117 1014.02466 51.958916 1012.4749 54.17335 1010.3464 C 56.133183 1008.4627 57.659725 1006.1145 58.629677 1003.54144 C 59.599625 1006.1145 61.12617 1008.4627 63.086 1010.3464 C 65.30043 1012.4749 68.13823 1014.02466 71.17277 1014.28284 C 74.48177 1014.5643 77.81848 1013.2748 80.375885 1011.1182 C 82.09715 1009.6666 83.49449 1007.8407 84.58665 1005.8552 C 86.451546 1002.46484 87.44005 998.41907 86.53141 994.64496 C 86.02974 992.56116 84.97669 990.64966 83.71483 988.9315 C 81.84701 986.3884 79.52365 984.2364 77.24087 982.07263 C 74.31846 979.30255 71.4338 976.4815 68.809555 973.41754 C 64.740326 968.6665 61.3154 963.3439 58.662186 957.6481"/>
            <path id="path3940-9-1-0" fill="#ff0000" stroke="none" d="M 175.33778 957.6481 C 172.6846 963.3439 169.25964 968.6665 165.19041 973.41754 C 162.56618 976.4815 159.68155 979.30255 156.75914 982.07263 C 154.47633 984.2364 152.153 986.3884 150.28516 988.9315 C 149.02328 990.64966 147.97026 992.56116 147.4686 994.64496 C 146.55997 998.41907 147.5485 1002.46484 149.41333 1005.8552 C 150.50548 1007.8407 151.90286 1009.6666 153.62408 1011.1182 C 156.18149 1013.2748 159.5182 1014.5643 162.82721 1014.28284 C 165.86177 1014.02466 168.69958 1012.4749 170.91402 1010.3464 C 172.87383 1008.4627 174.40038 1006.1145 175.37032 1003.54144 C 176.3403 1006.1145 177.86684 1008.4627 179.82666 1010.3464 C 182.04109 1012.4749 184.8789 1014.02466 187.91344 1014.28284 C 191.22244 1014.5643 194.55914 1013.2748 197.11653 1011.1182 C 198.83781 1009.6666 200.23515 1007.8407 201.32732 1005.8552 C 203.1922 1002.46484 204.18068 998.41907 203.27206 994.64496 C 202.77039 992.56116 201.71735 990.64966 200.45547 988.9315 C 198.58766 986.3884 196.2643 984.2364 193.98152 982.07263 C 191.05911 979.30255 188.17445 976.4815 185.55022 973.41754 C 181.48099 968.6665 178.05608 963.3439 175.40285 957.6481"/>
            <g id="text3755-5" transform="matrix(0.9367271 0 0 1.0675468 0 0)">
                <path id="path900" fill="#ff0000" stroke="none" d="M 28.418243 706.77167 Q 28.418243 707.15826 28.270983 707.5264 Q 27.939651 707.7105 27.571499 707.7105 L 15.753885 707.7105 Q 14.391731 707.7105 14.391731 706.3299 Q 14.391731 706.109 14.428551 705.5568 Q 14.465361 705.0046 14.465361 704.71 Q 14.465361 704.0658 14.741473 703.8817 Q 14.943956 703.75287 15.64344 703.75287 L 20.245316 703.75287 L 20.245316 700.9181 L 9.918709 700.9181 Q 8.317257 700.9181 8.317257 699.4271 Q 8.317257 699.1693 8.372479 698.48834 Q 8.427702 697.7888 8.427702 697.3838 Q 8.427702 696.75806 9.145594 695.8192 L 19.785128 681.8295 Q 20.28213 681.1669 21.036837 681.1669 L 23.466627 681.1669 Q 24.33178 681.1669 24.33178 682.124 L 24.33178 697.1446 Q 24.99445 697.1446 25.841192 697.10785 Q 26.706348 697.071 26.945644 697.071 Q 27.939651 697.071 28.178947 697.568 Q 28.418243 698.0466 28.418243 699.96094 Q 28.418243 700.31067 28.363024 700.49475 Q 28.25258 700.91815 27.516281 700.91815 L 24.331781 700.91815 L 24.331781 703.75287 Q 25.01286 703.75287 25.878012 703.71606 Q 26.743166 703.67926 26.964054 703.67926 Q 28.013285 703.67926 28.234173 704.21313 Q 28.418247 704.65485 28.418247 706.7718 Z M 20.318945 687.0757 Q 19.306532 688.6219 12.845502 697.1446 L 20.245316 697.1446 Q 20.245316 696.16895 20.208494 693.79443 Q 20.153275 691.64075 20.171675 690.42584 Q 20.190084 688.58514 20.318935 687.0757 Z"/>
            </g>
            <g id="text3755-2-28" transform="matrix(-0.9367271 0 0 -1.0675468 0 0)">
                <path id="path903" fill="#ff0000" stroke="none" d="M -221.38774 -952.8504 Q -221.38774 -952.46387 -221.535 -952.0957 Q -221.86633 -951.9117 -222.2345 -951.9117 L -234.0521 -951.9117 Q -235.41425 -951.9117 -235.41425 -953.29224 Q -235.41425 -953.51306 -235.37746 -954.0653 Q -235.34065 -954.61755 -235.34065 -954.9121 Q -235.34065 -955.55634 -235.06454 -955.7404 Q -234.86206 -955.86926 -234.16257 -955.86926 L -229.56071 -955.86926 L -229.56071 -958.70404 L -239.88731 -958.70404 Q -241.48875 -958.70404 -241.48875 -960.19495 Q -241.48875 -960.45276 -241.43356 -961.1338 Q -241.37837 -961.8333 -241.37837 -962.2383 Q -241.37837 -962.8642 -240.66048 -963.8029 L -230.02094 -977.7926 Q -229.52394 -978.45526 -228.76923 -978.45526 L -226.33945 -978.45526 Q -225.47429 -978.45526 -225.47429 -977.4981 L -225.47429 -962.4775 Q -224.81161 -962.4775 -223.96487 -962.51434 Q -223.09972 -962.55115 -222.86041 -962.55115 Q -221.86644 -962.55115 -221.62712 -962.05414 Q -221.38782 -961.57556 -221.38782 -959.6612 Q -221.38782 -959.31146 -221.44302 -959.1274 Q -221.55347 -958.7039 -222.28975 -958.7039 L -225.47427 -958.7039 L -225.47427 -955.86926 Q -224.7932 -955.86926 -223.92804 -955.90607 Q -223.06288 -955.9428 -222.842 -955.9428 Q -221.79277 -955.9428 -221.57188 -955.40894 Q -221.3878 -954.9672 -221.3878 -952.8504 Z M -229.48705 -972.54645 Q -230.49945 -971.00024 -236.96048 -962.4775 L -229.56067 -962.4775 Q -229.56067 -963.4532 -229.59747 -965.82776 Q -229.65266 -967.9814 -229.63428 -969.1962 Q -229.61588 -971.0371 -229.48701 -972.54645 Z"/>
            </g>
        </g>
    </g>
</svg>
