<svg width="234" height="333.00003" xmlns="http://www.w3.org/2000/svg">
    <g id="layer1" transform="matrix(1 0 0 1 0 -719.3622)">
        <g id="g935">
            <path id="rect4266" fill="#ffffff" stroke="#808080" stroke-width="0.7559055" d="M 9.297138 719.7401 L 224.70288 719.7401 C 229.6288 719.7401 233.62206 723.74524 233.62206 728.68585 L 233.62206 1043.0385 C 233.62207 1045.411 232.68237 1047.6864 231.0097 1049.3641 C 229.33702 1051.0417 227.06839 1051.9843 224.70288 1051.9843 L 9.297138 1051.9843 C 6.9316134 1051.9843 4.662975 1051.0417 2.9903018 1049.3641 C 1.3176281 1047.6864 0.3779376 1045.411 0.37795275 1043.0385 L 0.37795275 728.68585 C 0.37795484 723.74524 4.3712096 719.7401 9.297138 719.7401 Z"/>
            <g id="g4233" transform="matrix(0.07348588 0 0 0.07370838 -248.0173 933.60065)"/>
            <g id="g4211" transform="matrix(0.07348588 0 0 0.07370838 -248.01726 933.60065)"/>
            <g id="g4227" transform="matrix(0.07348588 0 0 0.07370838 -248.0173 933.60065)"/>
            <g id="text3216-7" transform="matrix(0.7218474 0 0 1.3853343 0 0)">
                <path id="path902" fill="#ff0000" stroke="none" d="M 23.835468 544.6304 Q 23.835468 544.984 23.708157 545.2528 Q 23.36866 545.36597 22.972582 545.36597 L 12.533062 545.36597 Q 11.599447 545.36597 11.599447 544.3758 Q 11.599447 544.206 11.627738 543.83826 Q 11.656027 543.4563 11.656027 543.25824 Q 11.656027 542.32465 12.476476 542.32465 L 15.998752 542.32465 L 15.998752 529.254 L 11.698464 529.254 Q 10.79314 529.254 10.79314 528.26385 Q 10.79314 528.05164 10.83558 527.58484 Q 10.89216 527.1039 10.89216 526.8634 Q 10.89216 526.38245 11.797484 526.38245 Q 12.052106 526.38245 12.759391 526.439 Q 13.466675 526.48145 13.862755 526.48145 Q 16.126064 526.48145 16.607018 524.91125 L 19.308846 524.91125 L 19.308846 542.32465 Q 20.256605 542.32465 21.345823 542.268 Q 22.449184 542.1973 22.661373 542.1973 Q 23.481823 542.1973 23.679861 542.63586 Q 23.835464 543.01776 23.835464 544.6304 Z"/>
            </g>
            <g id="text3990-14" transform="matrix(0.6991885 0 0 1.4302295 0 0)">
                <path id="path899" fill="#ff0000" stroke="none" d="M 38.072906 518.5768 Q 38.072906 528.2467 31.387678 528.2467 Q 24.607912 528.2467 24.607912 518.52277 Q 24.607912 508.43414 31.522734 508.43414 Q 38.072906 508.43414 38.072906 518.5768 Z M 34.561474 518.29315 Q 34.561474 511.36484 31.333654 511.36484 Q 29.442884 511.36484 28.646063 514.10645 Q 28.146358 515.83514 28.146358 518.41473 Q 28.146358 525.3431 31.333654 525.3431 Q 33.237934 525.3431 34.048264 522.6149 Q 34.561474 520.8592 34.561474 518.29315 Z"/>
            </g>
            <g id="text3216-7-2" transform="matrix(-0.7218474 0 0 -1.3853343 0 0)">
                <path id="path908" fill="#ff0000" stroke="none" d="M -300.33276 -734.2844 Q -300.33276 -733.9308 -300.46008 -733.662 Q -300.79956 -733.54877 -301.19565 -733.54877 L -311.63516 -733.54877 Q -312.5688 -733.54877 -312.5688 -734.53906 Q -312.5688 -734.7088 -312.54047 -735.07654 Q -312.51218 -735.4585 -312.51218 -735.6566 Q -312.51218 -736.59015 -311.69174 -736.59015 L -308.16946 -736.59015 L -308.16946 -749.6607 L -312.46973 -749.6607 Q -313.37506 -749.6607 -313.37506 -750.6509 Q -313.37506 -750.86316 -313.33267 -751.32996 Q -313.27606 -751.8109 -313.27606 -752.0514 Q -313.27606 -752.53235 -312.37073 -752.53235 Q -312.11612 -752.53235 -311.40884 -752.47577 Q -310.70154 -752.4333 -310.30548 -752.4333 Q -308.04214 -752.4333 -307.56122 -754.00354 L -304.85938 -754.00354 L -304.85938 -736.59015 Q -303.91162 -736.59015 -302.8224 -736.6467 Q -301.71906 -736.71747 -301.50684 -736.71747 Q -300.6864 -736.71747 -300.48837 -736.27893 Q -300.33276 -735.89703 -300.33276 -734.2844 Z"/>
            </g>
            <g id="text3990-14-6" transform="matrix(-0.6991885 0 0 -1.4302295 0 0)">
                <path id="path905" fill="#ff0000" stroke="none" d="M -296.60083 -720.19244 Q -296.60083 -710.52246 -303.28604 -710.52246 Q -310.06583 -710.52246 -310.06583 -720.24646 Q -310.06583 -730.3351 -303.151 -730.3351 Q -296.60083 -730.3351 -296.60083 -720.19244 Z M -300.11227 -720.4761 Q -300.11227 -727.40436 -303.34006 -727.40436 Q -305.23083 -727.40436 -306.02768 -724.6628 Q -306.52737 -722.9341 -306.52737 -720.3545 Q -306.52737 -713.4262 -303.34006 -713.4262 Q -301.4358 -713.4262 -300.62546 -716.1543 Q -300.11227 -717.91003 -300.11227 -720.4761 Z"/>
            </g>
            <path id="path3940-9" fill="#ff0000" stroke="none" d="M 58.597134 814.07623 C 55.94392 808.3803 52.518993 803.0578 48.449768 798.3068 C 45.825516 795.2428 42.94089 792.42175 40.018486 789.6517 C 37.735672 787.488 35.412346 785.33594 33.544495 782.7928 C 32.282627 781.0747 31.229609 779.16315 30.727938 777.07947 C 29.819305 773.3053 30.807808 769.25946 32.672672 765.8692 C 33.764828 763.88367 35.162197 762.0577 36.883434 760.60614 C 39.440838 758.4495 42.77755 757.16003 46.086555 757.44147 C 49.121117 757.69965 51.958916 759.2494 54.17335 761.3778 C 56.133183 763.26166 57.659725 765.6099 58.629677 768.18274 C 59.599625 765.6099 61.12617 763.26166 63.086 761.3778 C 65.30043 759.2494 68.13823 757.69965 71.17277 757.44147 C 74.48177 757.16003 77.81848 758.4495 80.375885 760.60614 C 82.09715 762.0577 83.49449 763.88367 84.58665 765.8692 C 86.451546 769.25946 87.44005 773.3053 86.53141 777.07947 C 86.02974 779.16315 84.97669 781.0747 83.71483 782.7928 C 81.84701 785.33594 79.52365 787.488 77.24087 789.6517 C 74.31846 792.42175 71.4338 795.2428 68.809555 798.3068 C 64.740326 803.0578 61.3154 808.3803 58.662186 814.07623"/>
            <path id="path3940-9-3" fill="#ff0000" stroke="none" d="M 58.597134 880.82446 C 55.94392 875.12866 52.518993 869.80615 48.449768 865.05505 C 45.825516 861.9911 42.94089 859.1701 40.018486 856.4 C 37.735672 854.23627 35.412346 852.0842 33.544495 849.541 C 32.282627 847.823 31.229609 845.9115 30.727938 843.8277 C 29.819305 840.0535 30.807808 836.0077 32.672672 832.61743 C 33.764828 830.63196 35.162197 828.80597 36.883434 827.3544 C 39.440838 825.1979 42.77755 823.9083 46.086555 824.1898 C 49.121117 824.4479 51.958916 825.99774 54.17335 828.12616 C 56.133183 830.0099 57.659725 832.35815 58.629677 834.9311 C 59.599625 832.35815 61.12617 830.0099 63.086 828.12616 C 65.30043 825.99774 68.13823 824.4479 71.17277 824.1898 C 74.48177 823.9083 77.81848 825.1979 80.375885 827.3544 C 82.09715 828.80597 83.49449 830.63196 84.58665 832.61743 C 86.451546 836.0077 87.44005 840.0535 86.53141 843.8277 C 86.02974 845.9115 84.97669 847.823 83.71483 849.541 C 81.84701 852.0842 79.52365 854.23627 77.24087 856.4 C 74.31846 859.1701 71.4338 861.9911 68.809555 865.05505 C 64.740326 869.80615 61.3154 875.12866 58.662186 880.82446"/>
            <path id="path3940-9-1" fill="#ff0000" stroke="none" d="M 175.33778 814.07623 C 172.6846 808.3803 169.25964 803.0578 165.19041 798.3068 C 162.56618 795.2428 159.68155 792.42175 156.75914 789.6517 C 154.47633 787.488 152.153 785.33594 150.28516 782.7928 C 149.02328 781.0747 147.97026 779.16315 147.4686 777.07947 C 146.55997 773.3053 147.5485 769.25946 149.41333 765.8692 C 150.50548 763.88367 151.90286 762.0577 153.62408 760.60614 C 156.18149 758.4495 159.5182 757.16003 162.82721 757.44147 C 165.86177 757.69965 168.69958 759.2494 170.91402 761.3778 C 172.87383 763.26166 174.40038 765.6099 175.37032 768.18274 C 176.3403 765.6099 177.86684 763.26166 179.82666 761.3778 C 182.04109 759.2494 184.8789 757.69965 187.91344 757.44147 C 191.22244 757.16003 194.55914 758.4495 197.11653 760.60614 C 198.83781 762.0577 200.23515 763.88367 201.32732 765.8692 C 203.1922 769.25946 204.18068 773.3053 203.27206 777.07947 C 202.77039 779.16315 201.71735 781.0747 200.45547 782.7928 C 198.58766 785.33594 196.2643 787.488 193.98152 789.6517 C 191.05911 792.42175 188.17445 795.2428 185.55022 798.3068 C 181.48099 803.0578 178.05608 808.3803 175.40285 814.07623"/>
            <path id="path3940-9-9" fill="#ff0000" stroke="none" d="M 116.96747 847.4504 C 114.31425 841.7545 110.88932 836.432 106.8201 831.6809 C 104.19584 828.61694 101.31122 825.7959 98.38881 823.0258 C 96.106 820.8622 93.78267 818.71014 91.914825 816.16693 C 90.65296 814.4488 89.59994 812.5373 89.098274 810.45355 C 88.18964 806.67944 89.17815 802.63354 91.043 799.2433 C 92.135155 797.2578 93.53253 795.4318 95.25376 793.9803 C 97.81117 791.82367 101.14788 790.5341 104.45688 790.8157 C 107.49145 791.0737 110.32924 792.62354 112.543686 794.752 C 114.50351 796.6358 116.03005 798.984 117 801.55695 C 117.96996 798.984 119.4965 796.6358 121.45633 794.752 C 123.67076 792.62354 126.50857 791.0737 129.5431 790.8157 C 132.8521 790.5341 136.18881 791.82367 138.74622 793.9803 C 140.46748 795.4318 141.86482 797.2578 142.95699 799.2433 C 144.82188 802.63354 145.81036 806.67944 144.90173 810.45355 C 144.40007 812.5373 143.34702 814.4488 142.08514 816.16693 C 140.21735 818.71014 137.89398 820.8622 135.61119 823.0258 C 132.6888 825.7959 129.80412 828.61694 127.17988 831.6809 C 123.11066 836.432 119.68574 841.7545 117.03252 847.4504"/>
            <path id="path3940-9-8" fill="#ff0000" stroke="none" d="M 175.33778 880.82446 C 172.6846 875.12866 169.25964 869.80615 165.19041 865.05505 C 162.56618 861.9911 159.68155 859.1701 156.75914 856.4 C 154.47633 854.23627 152.153 852.0842 150.28516 849.541 C 149.02328 847.823 147.97026 845.9115 147.4686 843.8277 C 146.55997 840.0535 147.5485 836.0077 149.41333 832.61743 C 150.50548 830.63196 151.90286 828.80597 153.62408 827.3544 C 156.18149 825.1979 159.5182 823.9083 162.82721 824.1898 C 165.86177 824.4479 168.69958 825.99774 170.91402 828.12616 C 172.87383 830.0099 174.40038 832.35815 175.37032 834.9311 C 176.3403 832.35815 177.86684 830.0099 179.82666 828.12616 C 182.04109 825.99774 184.8789 824.4479 187.91344 824.1898 C 191.22244 823.9083 194.55914 825.1979 197.11653 827.3544 C 198.83781 828.80597 200.23515 830.63196 201.32732 832.61743 C 203.1922 836.0077 204.18068 840.0535 203.27206 843.8277 C 202.77039 845.9115 201.71735 847.823 200.45547 849.541 C 198.58766 852.0842 196.2643 854.23627 193.98152 856.4 C 191.05911 859.1701 188.17445 861.9911 185.55022 865.05505 C 181.48099 869.80615 178.05608 875.12866 175.40285 880.82446"/>
            <path id="path3940-9-6" fill="#ff0000" stroke="none" d="M 58.597134 957.6481 C 55.94392 963.3439 52.518993 968.6665 48.449768 973.41754 C 45.825516 976.4815 42.94089 979.3027 40.018486 982.07263 C 37.735672 984.2364 35.412346 986.3884 33.544495 988.9315 C 32.282627 990.64966 31.229609 992.56116 30.727938 994.64496 C 29.819305 998.41907 30.807808 1002.46484 32.672672 1005.8552 C 33.764828 1007.8407 35.162197 1009.6666 36.883434 1011.1182 C 39.440838 1013.2748 42.77755 1014.5643 46.086555 1014.28284 C 49.121117 1014.02466 51.958916 1012.4749 54.17335 1010.3464 C 56.133183 1008.4627 57.659725 1006.1145 58.629677 1003.54144 C 59.599625 1006.1145 61.12617 1008.4627 63.086 1010.3464 C 65.30043 1012.4749 68.13823 1014.02466 71.17277 1014.28284 C 74.48177 1014.5643 77.81848 1013.2748 80.375885 1011.1182 C 82.09715 1009.6666 83.49449 1007.8407 84.58665 1005.8552 C 86.451546 1002.46484 87.44005 998.41907 86.53141 994.64496 C 86.02974 992.56116 84.97669 990.64966 83.71483 988.9315 C 81.84701 986.3884 79.52365 984.2364 77.24087 982.07263 C 74.31846 979.3027 71.4338 976.4815 68.809555 973.41754 C 64.740326 968.6665 61.3154 963.3439 58.662186 957.6481"/>
            <path id="path3940-9-3-5" fill="#ff0000" stroke="none" d="M 58.597134 890.8997 C 55.94392 896.59564 52.518993 901.91815 48.449768 906.66925 C 45.825516 909.7332 42.94089 912.55426 40.018486 915.32434 C 37.735672 917.48804 35.412346 919.6401 33.544495 922.18317 C 32.282627 923.90137 31.229609 925.8129 30.727938 927.8966 C 29.819305 931.6708 30.807808 935.7166 32.672672 939.1069 C 33.764828 941.09235 35.162197 942.9184 36.883434 944.36993 C 39.440838 946.5264 42.77755 947.816 46.086555 947.5345 C 49.121117 947.2764 51.958916 945.72656 54.17335 943.59814 C 56.133183 941.7144 57.659725 939.36615 58.629677 936.7932 C 59.599625 939.36615 61.12617 941.7144 63.086 943.59814 C 65.30043 945.72656 68.13823 947.2764 71.17277 947.5345 C 74.48177 947.816 77.81848 946.5264 80.375885 944.36993 C 82.09715 942.9184 83.49449 941.09235 84.58665 939.1069 C 86.451546 935.7166 87.44005 931.6708 86.53141 927.8966 C 86.02974 925.8129 84.97669 923.90137 83.71483 922.18317 C 81.84701 919.6401 79.52365 917.48804 77.24087 915.32434 C 74.31846 912.55426 71.4338 909.7332 68.809555 906.66925 C 64.740326 901.91815 61.3154 896.59564 58.662186 890.8997"/>
            <path id="path3940-9-1-0" fill="#ff0000" stroke="none" d="M 175.33778 957.6481 C 172.6846 963.3439 169.25964 968.6665 165.19041 973.41754 C 162.56618 976.4815 159.68155 979.3027 156.75914 982.07263 C 154.47633 984.2364 152.153 986.3884 150.28516 988.9315 C 149.02328 990.64966 147.97026 992.56116 147.4686 994.64496 C 146.55997 998.41907 147.5485 1002.46484 149.41333 1005.8552 C 150.50548 1007.8407 151.90286 1009.6666 153.62408 1011.1182 C 156.18149 1013.2748 159.5182 1014.5643 162.82721 1014.28284 C 165.86177 1014.02466 168.69958 1012.4749 170.91402 1010.3464 C 172.87383 1008.4627 174.40038 1006.1145 175.37032 1003.54144 C 176.3403 1006.1145 177.86684 1008.4627 179.82666 1010.3464 C 182.04109 1012.4749 184.8789 1014.02466 187.91344 1014.28284 C 191.22244 1014.5643 194.55914 1013.2748 197.11653 1011.1182 C 198.83781 1009.6666 200.23515 1007.8407 201.32732 1005.8552 C 203.1922 1002.46484 204.18068 998.41907 203.27206 994.64496 C 202.77039 992.56116 201.71735 990.64966 200.45547 988.9315 C 198.58766 986.3884 196.2643 984.2364 193.98152 982.07263 C 191.05911 979.3027 188.17445 976.4815 185.55022 973.41754 C 181.48099 968.6665 178.05608 963.3439 175.40285 957.6481"/>
            <path id="path3940-9-9-2" fill="#ff0000" stroke="none" d="M 116.96747 924.2739 C 114.31425 929.9698 110.88932 935.2923 106.8201 940.0434 C 104.19584 943.10736 101.31122 945.92847 98.38881 948.6985 C 96.106 950.8621 93.78267 953.01416 91.914825 955.5574 C 90.65296 957.2755 89.59994 959.187 89.098274 961.27075 C 88.18964 965.04486 89.17815 969.0908 91.043 972.481 C 92.135155 974.4665 93.53253 976.2925 95.25376 977.744 C 97.81117 979.90063 101.14788 981.1902 104.45688 980.9086 C 107.49145 980.6506 110.32924 979.10077 112.543686 976.9723 C 114.50351 975.0886 116.03005 972.7403 117 970.16736 C 117.96996 972.7403 119.4965 975.0886 121.45633 976.9723 C 123.67076 979.10077 126.50857 980.6506 129.5431 980.9086 C 132.8521 981.1902 136.18881 979.90063 138.74622 977.744 C 140.46748 976.2925 141.86482 974.4665 142.95699 972.481 C 144.82188 969.0908 145.81036 965.04486 144.90173 961.27075 C 144.40007 959.187 143.34702 957.2755 142.08514 955.5574 C 140.21735 953.01416 137.89398 950.8621 135.61119 948.6985 C 132.6888 945.92847 129.80412 943.10736 127.17988 940.0434 C 123.11066 935.2923 119.68574 929.9698 117.03252 924.2739"/>
            <path id="path3940-9-8-8" fill="#ff0000" stroke="none" d="M 175.33778 890.8997 C 172.6846 896.59564 169.25964 901.91815 165.19041 906.66925 C 162.56618 909.7332 159.68155 912.55426 156.75914 915.32434 C 154.47633 917.48804 152.153 919.6401 150.28516 922.18317 C 149.02328 923.90137 147.97026 925.8129 147.4686 927.8966 C 146.55997 931.6708 147.5485 935.7166 149.41333 939.1069 C 150.50548 941.09235 151.90286 942.9184 153.62408 944.36993 C 156.18149 946.5264 159.5182 947.816 162.82721 947.5345 C 165.86177 947.2764 168.69958 945.72656 170.91402 943.59814 C 172.87383 941.7144 174.40038 939.36615 175.37032 936.7932 C 176.3403 939.36615 177.86684 941.7144 179.82666 943.59814 C 182.04109 945.72656 184.8789 947.2764 187.91344 947.5345 C 191.22244 947.816 194.55914 946.5264 197.11653 944.36993 C 198.83781 942.9184 200.23515 941.09235 201.32732 939.1069 C 203.1922 935.7166 204.18068 931.6708 203.27206 927.8966 C 202.77039 925.8129 201.71735 923.90137 200.45547 922.18317 C 198.58766 919.6401 196.2643 917.48804 193.98152 915.32434 C 191.05911 912.55426 188.17445 909.7332 185.55022 906.66925 C 181.48099 901.91815 178.05608 896.59564 175.40285 890.8997"/>
            <path id="path3940-9-6-6" fill="#ff0000" stroke="none" d="M 216.78358 991.0222 C 215.89917 992.92084 214.75752 994.695 213.40112 996.27875 C 212.52637 997.30005 211.56483 998.2404 210.5907 999.16376 C 209.82974 999.8851 209.05531 1000.60223 208.43271 1001.4501 C 208.01208 1002.0228 207.6611 1002.6599 207.49384 1003.3545 C 207.19098 1004.6125 207.52054 1005.96124 208.1421 1007.0913 C 208.50616 1007.7531 208.97192 1008.3617 209.54568 1008.84564 C 210.39815 1009.5646 211.51038 1009.9943 212.61339 1009.9005 C 213.62491 1009.8145 214.57085 1009.2978 215.309 1008.5883 C 215.96228 1007.9604 216.47112 1007.1777 216.79443 1006.32 C 217.11775 1007.1777 217.62659 1007.9604 218.27986 1008.5883 C 219.01804 1009.2978 219.96394 1009.8144 220.97548 1009.9005 C 222.07845 1009.99457 223.19069 1009.5646 224.0432 1008.84564 C 224.61694 1008.3617 225.0827 1007.7531 225.44676 1007.0913 C 226.06837 1005.96124 226.39787 1004.6125 226.09502 1003.3545 C 225.9278 1002.6599 225.57678 1002.0228 225.15614 1001.4501 C 224.53354 1000.60223 223.75908 999.8851 222.99815 999.16376 C 222.02403 998.2404 221.06247 997.30005 220.18773 996.27875 C 218.83131 994.695 217.68967 992.92084 216.80527 991.0222"/>
            <path id="path3940-9-0" fill="#ff0000" stroke="none" d="M 17.194721 780.7021 C 16.310316 778.80347 15.168674 777.0293 13.812267 775.4456 C 12.937519 774.42426 11.975977 773.48395 11.001838 772.56055 C 10.240904 771.83936 9.466461 771.12195 8.843844 770.2743 C 8.423221 769.70154 8.072214 769.0644 7.904992 768.3698 C 7.602113 767.11176 7.931604 765.7631 8.553235 764.6331 C 8.917288 763.97125 9.38308 763.3625 9.956822 762.87866 C 10.809293 762.15985 11.92153 761.73 13.024528 761.8239 C 14.036051 761.90985 14.981983 762.4265 15.720131 763.136 C 16.373405 763.7639 16.882252 764.5467 17.20557 765.4043 C 17.528889 764.5467 18.037733 763.7639 18.69101 763.136 C 19.429155 762.4265 20.375088 761.90985 21.386602 761.8239 C 22.4896 761.73 23.601837 762.15985 24.454306 762.87866 C 25.02806 763.3625 25.493841 763.97125 25.857891 764.6331 C 26.479527 765.7631 26.809027 767.11176 26.506147 768.3698 C 26.338926 769.0644 25.987907 769.70154 25.567286 770.2743 C 24.94468 771.12195 24.170225 771.83936 23.4093 772.56055 C 22.435163 773.48395 21.473612 774.42426 20.598864 775.4456 C 19.242453 777.0293 18.10081 778.80347 17.216406 780.7021"/>
        </g>
    </g>
</svg>
