<svg width="234" height="333.00003" xmlns="http://www.w3.org/2000/svg">
    <g id="layer1" transform="matrix(1 0 0 1 0 -719.3622)">
        <g id="g923">
            <path id="rect4266" fill="#ffffff" stroke="#808080" stroke-width="0.7559055" d="M 9.297138 719.7401 L 224.70288 719.7401 C 229.6288 719.7401 233.62206 723.74524 233.62206 728.68585 L 233.62206 1043.0385 C 233.62207 1045.411 232.68237 1047.6864 231.0097 1049.3641 C 229.33702 1051.0417 227.06839 1051.9843 224.70288 1051.9843 L 9.297138 1051.9843 C 6.9316134 1051.9843 4.662975 1051.0417 2.9903018 1049.3641 C 1.3176281 1047.6864 0.3779376 1045.411 0.37795275 1043.0385 L 0.37795275 728.68585 C 0.37795484 723.74524 4.3712096 719.7401 9.297138 719.7401 Z"/>
            <g id="g4233" transform="matrix(0.07348588 0 0 0.07370838 -248.0173 933.60065)"/>
            <g id="g4211" transform="matrix(0.07348588 0 0 0.07370838 -248.01726 933.60065)"/>
            <g id="g4227" transform="matrix(0.07348588 0 0 0.07370838 -248.0173 933.60065)"/>
            <path id="path3940-9-0" fill="#ff0000" stroke="none" d="M 17.19471 780.7021 C 16.310305 778.80347 15.168663 777.0293 13.812274 775.4456 C 12.937504 774.42426 11.975963 773.48395 11.001837 772.56055 C 10.240889 771.83936 9.466447 771.12195 8.843829 770.2743 C 8.423218 769.70154 8.072211 769.0644 7.9049773 768.3698 C 7.602111 767.11176 7.9316525 765.7631 8.553233 764.6331 C 8.9172945 763.9712 9.383064 763.3625 9.95682 762.87866 C 10.809278 762.15985 11.921515 761.73 13.024526 761.8239 C 14.036058 761.90985 14.981971 762.4265 15.720137 763.1359 C 16.373413 763.7639 16.88224 764.5467 17.205566 765.4042 C 17.528894 764.5467 18.037722 763.7639 18.690998 763.1359 C 19.429163 762.4265 20.375076 761.90985 21.386608 761.8239 C 22.489595 761.73 23.60183 762.15985 24.4543 762.87866 C 25.028053 763.3625 25.493837 763.9712 25.857883 764.6331 C 26.47952 765.7631 26.809021 767.11176 26.506144 768.3698 C 26.33892 769.0644 25.987902 769.70154 25.56728 770.2743 C 24.944674 771.12195 24.170221 771.83936 23.409296 772.56055 C 22.43516 773.48395 21.4736 774.42426 20.598862 775.4456 C 19.242441 777.0293 18.1008 778.80347 17.216394 780.7021"/>
            <g id="text3755" transform="matrix(0.97854984 0 0 1.0219204 0 0)">
                <path id="path899" fill="#ff0000" stroke="none" d="M 27.203661 731.19934 Q 27.203661 735.3011 24.292809 737.4369 Q 21.741085 739.30817 17.507114 739.30817 Q 13.310949 739.30817 10.759226 737.30457 Q 7.961782 735.0931 7.961782 731.0103 Q 7.961782 726.71967 12.479276 724.69714 Q 9.001372 722.48566 9.001372 718.38403 Q 9.001372 714.7738 11.83662 713.0159 Q 14.161523 711.5794 17.960754 711.5794 Q 21.419756 711.5794 23.65015 713.26166 Q 26.107367 715.15186 26.107367 718.51636 Q 26.107367 722.37225 22.648363 724.6782 Q 27.203661 726.60626 27.203661 731.19934 Z M 21.325249 719.23456 Q 21.325249 715.69995 17.544918 715.69995 Q 15.824868 715.69995 14.804179 716.62616 Q 13.78349 717.53345 13.78349 719.23456 Q 13.78349 720.879 14.860883 721.843 Q 15.881573 722.7881 17.544918 722.7881 Q 19.17046 722.7881 20.247854 721.8241 Q 21.325249 720.8602 21.325249 719.23456 Z M 22.213627 731.02924 Q 22.213627 729.0635 20.871609 727.9293 Q 19.605198 726.852 17.601624 726.852 Q 15.635852 726.852 14.369441 727.94824 Q 13.008522 729.10126 13.008522 731.02924 Q 13.008522 733.0517 14.331637 734.1669 Q 15.560245 735.20654 17.620525 735.20654 Q 19.661903 735.20654 20.89051 734.148 Q 22.213627 733.0328 22.213627 731.02924 Z"/>
            </g>
            <g id="text3755-2" transform="matrix(-0.97854984 0 0 -1.0219204 0 0)">
                <path id="path902" fill="#ff0000" stroke="none" d="M -211.9257 -1002.5212 Q -211.9257 -998.4195 -214.83658 -996.28357 Q -217.3883 -994.41235 -221.62225 -994.41235 Q -225.81844 -994.41235 -228.37015 -996.41595 Q -231.16759 -998.6274 -231.16759 -1002.7102 Q -231.16759 -1007.0009 -226.65009 -1009.0233 Q -230.128 -1011.2348 -230.128 -1015.3365 Q -230.128 -1018.94666 -227.29276 -1020.7046 Q -224.96785 -1022.1412 -221.16862 -1022.1412 Q -217.70963 -1022.1412 -215.47922 -1020.45874 Q -213.022 -1018.5687 -213.022 -1015.2042 Q -213.022 -1011.3483 -216.48099 -1009.0422 Q -211.9257 -1007.1143 -211.9257 -1002.5212 Z M -217.80412 -1014.4859 Q -217.80412 -1018.0205 -221.58447 -1018.0205 Q -223.3045 -1018.0205 -224.3252 -1017.09436 Q -225.34589 -1016.1871 -225.34589 -1014.4859 Q -225.34589 -1012.8415 -224.2685 -1011.8775 Q -223.24782 -1010.9324 -221.58447 -1010.9324 Q -219.95891 -1010.9324 -218.88152 -1011.8964 Q -217.80412 -1012.8604 -217.80412 -1014.4859 Z M -216.91576 -1002.6913 Q -216.91576 -1004.6571 -218.25778 -1005.79126 Q -219.52419 -1006.8686 -221.52776 -1006.8686 Q -223.49352 -1006.8686 -224.75993 -1005.77234 Q -226.12085 -1004.61926 -226.12085 -1002.6913 Q -226.12085 -1000.6689 -224.79773 -999.55365 Q -223.56914 -998.51404 -221.50885 -998.51404 Q -219.46747 -998.51404 -218.23885 -999.5725 Q -216.91576 -1000.6877 -216.91576 -1002.6913 Z"/>
            </g>
            <path id="path3940-9-6-6" fill="#ff0000" stroke="none" d="M 216.78358 991.0222 C 215.89917 992.92084 214.75752 994.695 213.40112 996.27875 C 212.52637 997.30005 211.56483 998.2404 210.5907 999.16376 C 209.82974 999.8851 209.05531 1000.60223 208.43271 1001.4501 C 208.01208 1002.0228 207.6611 1002.6599 207.49384 1003.3545 C 207.19098 1004.6125 207.52054 1005.96124 208.1421 1007.0913 C 208.50616 1007.7531 208.97192 1008.3617 209.54568 1008.84564 C 210.39815 1009.5646 211.51038 1009.9943 212.61339 1009.9005 C 213.62491 1009.8145 214.57085 1009.2978 215.309 1008.5883 C 215.96228 1007.9604 216.47112 1007.1777 216.79443 1006.32 C 217.11775 1007.1777 217.62659 1007.9604 218.27986 1008.5883 C 219.01804 1009.2978 219.96394 1009.8144 220.97548 1009.9005 C 222.07845 1009.99457 223.19069 1009.5646 224.0432 1008.84564 C 224.61694 1008.3617 225.0827 1007.7531 225.44676 1007.0913 C 226.06837 1005.96124 226.39787 1004.6125 226.09502 1003.3545 C 225.9278 1002.6599 225.57678 1002.0228 225.15614 1001.4501 C 224.53354 1000.60223 223.75908 999.8851 222.99815 999.16376 C 222.02403 998.2404 221.06247 997.30005 220.18773 996.27875 C 218.83131 994.695 217.68967 992.92084 216.80527 991.0222"/>
            <path id="path3940-9" fill="#ff0000" stroke="none" d="M 58.597134 814.07623 C 55.94392 808.3803 52.518993 803.0578 48.449768 798.3068 C 45.825516 795.2428 42.94089 792.42175 40.018486 789.6517 C 37.735672 787.488 35.412346 785.33594 33.544495 782.7928 C 32.282627 781.0747 31.229609 779.16315 30.727938 777.07947 C 29.819305 773.3053 30.807808 769.25946 32.672672 765.8692 C 33.764828 763.88367 35.162197 762.0577 36.883434 760.60614 C 39.440838 758.4495 42.77755 757.16003 46.086555 757.44147 C 49.121117 757.69965 51.958916 759.2494 54.17335 761.3778 C 56.133183 763.26166 57.659725 765.6099 58.629677 768.18274 C 59.599625 765.6099 61.12617 763.26166 63.086 761.3778 C 65.30043 759.2494 68.13823 757.69965 71.17277 757.44147 C 74.48177 757.16003 77.81848 758.4495 80.375885 760.60614 C 82.09715 762.0577 83.49449 763.88367 84.58665 765.8692 C 86.451546 769.25946 87.44005 773.3053 86.53141 777.07947 C 86.02974 779.16315 84.97669 781.0747 83.71483 782.7928 C 81.84701 785.33594 79.52365 787.488 77.24087 789.6517 C 74.31846 792.42175 71.4338 795.2428 68.809555 798.3068 C 64.740326 803.0578 61.3154 808.3803 58.662186 814.07623"/>
            <path id="path3940-9-3" fill="#ff0000" stroke="none" d="M 58.597134 914.19867 C 55.94392 908.5028 52.518993 903.1803 48.449768 898.42926 C 45.825516 895.3652 42.94089 892.5442 40.018486 889.7742 C 37.735672 887.6104 35.412346 885.4584 33.544495 882.9152 C 32.282627 881.19714 31.229609 879.28564 30.727938 877.20184 C 29.819305 873.42773 30.807808 869.38184 32.672672 865.9916 C 33.764828 864.00616 35.162197 862.1802 36.883434 860.7286 C 39.440838 858.57196 42.77755 857.2825 46.086555 857.56396 C 49.121117 857.8221 51.958916 859.3718 54.17335 861.5003 C 56.133183 863.38416 57.659725 865.7323 58.629677 868.30524 C 59.599625 865.7323 61.12617 863.38416 63.086 861.5003 C 65.30043 859.3718 68.13823 857.8221 71.17277 857.56396 C 74.48177 857.2825 77.81848 858.57196 80.375885 860.7286 C 82.09715 862.1802 83.49449 864.00616 84.58665 865.9916 C 86.451546 869.38184 87.44005 873.42773 86.53141 877.20184 C 86.02974 879.28564 84.97669 881.19714 83.71483 882.9152 C 81.84701 885.4584 79.52365 887.6104 77.24087 889.7742 C 74.31846 892.5442 71.4338 895.3652 68.809555 898.42926 C 64.740326 903.1803 61.3154 908.5028 58.662186 914.19867"/>
            <path id="path3940-9-1" fill="#ff0000" stroke="none" d="M 175.33778 814.07623 C 172.68457 808.3803 169.25964 803.0578 165.19041 798.3068 C 162.56618 795.2428 159.68155 792.42175 156.75914 789.6517 C 154.47633 787.488 152.153 785.33594 150.28516 782.7928 C 149.02328 781.0747 147.97026 779.16315 147.4686 777.07947 C 146.55997 773.3053 147.5485 769.25946 149.41333 765.8692 C 150.50548 763.88367 151.90285 762.0577 153.62408 760.60614 C 156.18149 758.4495 159.5182 757.16003 162.8272 757.44147 C 165.86177 757.69965 168.69957 759.2494 170.91402 761.3778 C 172.87383 763.26166 174.40038 765.6099 175.37032 768.18274 C 176.3403 765.6099 177.8668 763.26166 179.82664 761.3778 C 182.04106 759.2494 184.87888 757.69965 187.91342 757.44147 C 191.22244 757.16003 194.55911 758.4495 197.11653 760.60614 C 198.8378 762.0577 200.23514 763.88367 201.32732 765.8692 C 203.1922 769.25946 204.18068 773.3053 203.27206 777.07947 C 202.77039 779.16315 201.71735 781.0747 200.45547 782.7928 C 198.58766 785.33594 196.2643 787.488 193.98152 789.6517 C 191.05911 792.42175 188.17445 795.2428 185.55022 798.3068 C 181.48099 803.0578 178.05605 808.3803 175.40285 814.07623"/>
            <path id="path3940-9-9" fill="#ff0000" stroke="none" d="M 116.96747 869.80475 C 114.31425 864.1089 110.88932 858.7864 106.8201 854.03534 C 104.19584 850.97125 101.31122 848.15027 98.38881 845.38025 C 96.106 843.2165 93.78267 841.06445 91.914825 838.5213 C 90.65296 836.8032 89.59994 834.8917 89.098274 832.8079 C 88.18964 829.0338 89.17815 824.9879 91.043 821.59766 C 92.135155 819.61224 93.53253 817.78625 95.25376 816.33466 C 97.81117 814.17804 101.14788 812.8886 104.45688 813.17004 C 107.49145 813.42816 110.32924 814.978 112.543686 817.10645 C 114.50351 818.9902 116.03005 821.3384 117 823.9113 C 117.96996 821.3384 119.4965 818.9902 121.45633 817.10645 C 123.67076 814.978 126.50857 813.42816 129.5431 813.17004 C 132.8521 812.8886 136.18881 814.17804 138.74622 816.33466 C 140.46748 817.78625 141.86482 819.61224 142.95699 821.59766 C 144.82188 824.9879 145.81036 829.0338 144.90173 832.8079 C 144.40007 834.8917 143.34702 836.8032 142.08514 838.5213 C 140.21735 841.06445 137.89398 843.2165 135.61119 845.38025 C 132.6888 848.15027 129.80412 850.97125 127.17988 854.03534 C 123.11066 858.7864 119.68574 864.1089 117.03252 869.80475"/>
            <path id="path3940-9-8" fill="#ff0000" stroke="none" d="M 175.33778 914.19867 C 172.68457 908.5028 169.25964 903.1803 165.19041 898.42926 C 162.56618 895.3652 159.68155 892.5442 156.75914 889.7742 C 154.47633 887.6104 152.153 885.4584 150.28516 882.9152 C 149.02328 881.19714 147.97026 879.28564 147.4686 877.20184 C 146.55997 873.42773 147.5485 869.38184 149.41333 865.9916 C 150.50548 864.00616 151.90285 862.1802 153.62408 860.7286 C 156.18149 858.57196 159.5182 857.2825 162.8272 857.56396 C 165.86177 857.8221 168.69957 859.3718 170.91402 861.5003 C 172.87383 863.38416 174.40038 865.7323 175.37032 868.30524 C 176.3403 865.7323 177.8668 863.38416 179.82664 861.5003 C 182.04106 859.3718 184.87888 857.8221 187.91342 857.56396 C 191.22244 857.2825 194.55911 858.57196 197.11653 860.7286 C 198.8378 862.1802 200.23514 864.00616 201.32732 865.9916 C 203.1922 869.38184 204.18068 873.42773 203.27206 877.20184 C 202.77039 879.28564 201.71735 881.19714 200.45547 882.9152 C 198.58766 885.4584 196.2643 887.6104 193.98152 889.7742 C 191.05911 892.5442 188.17445 895.3652 185.55022 898.42926 C 181.48099 903.1803 178.05605 908.5028 175.40285 914.19867"/>
            <path id="path3940-9-6" fill="#ff0000" stroke="none" d="M 58.597134 957.6481 C 55.94392 963.3439 52.518993 968.6665 48.449768 973.41754 C 45.825516 976.4815 42.94089 979.30255 40.018486 982.07263 C 37.735672 984.2364 35.412346 986.3884 33.544495 988.9315 C 32.282627 990.64966 31.229609 992.56116 30.727938 994.64496 C 29.819305 998.41907 30.807808 1002.46484 32.672672 1005.8552 C 33.764828 1007.8407 35.162197 1009.6666 36.883434 1011.1182 C 39.440838 1013.2748 42.77755 1014.5643 46.086555 1014.28284 C 49.121117 1014.02466 51.958916 1012.4749 54.17335 1010.3464 C 56.133183 1008.4627 57.659725 1006.1145 58.629677 1003.54144 C 59.599625 1006.1145 61.12617 1008.4627 63.086 1010.3464 C 65.30043 1012.4749 68.13823 1014.02466 71.17277 1014.28284 C 74.48177 1014.5643 77.81848 1013.2748 80.375885 1011.1182 C 82.09715 1009.6666 83.49449 1007.8407 84.58665 1005.8552 C 86.451546 1002.46484 87.44005 998.41907 86.53141 994.64496 C 86.02974 992.56116 84.97669 990.64966 83.71483 988.9315 C 81.84701 986.3884 79.52365 984.2364 77.24087 982.07263 C 74.31846 979.30255 71.4338 976.4815 68.809555 973.41754 C 64.740326 968.6665 61.3154 963.3439 58.662186 957.6481"/>
            <path id="path3940-9-1-0" fill="#ff0000" stroke="none" d="M 175.33778 957.6481 C 172.6846 963.3439 169.25964 968.6665 165.19041 973.41754 C 162.56618 976.4815 159.68155 979.30255 156.75914 982.07263 C 154.47633 984.2364 152.153 986.3884 150.28516 988.9315 C 149.02328 990.64966 147.97026 992.56116 147.4686 994.64496 C 146.55997 998.41907 147.5485 1002.46484 149.41333 1005.8552 C 150.50548 1007.8407 151.90286 1009.6666 153.62408 1011.1182 C 156.18149 1013.2748 159.5182 1014.5643 162.82721 1014.28284 C 165.86177 1014.02466 168.69958 1012.4749 170.91402 1010.3464 C 172.87383 1008.4627 174.40038 1006.1145 175.37032 1003.54144 C 176.3403 1006.1145 177.86684 1008.4627 179.82666 1010.3464 C 182.04109 1012.4749 184.8789 1014.02466 187.91344 1014.28284 C 191.22244 1014.5643 194.55914 1013.2748 197.11653 1011.1182 C 198.83781 1009.6666 200.23515 1007.8407 201.32732 1005.8552 C 203.1922 1002.46484 204.18068 998.41907 203.27206 994.64496 C 202.77039 992.56116 201.71735 990.64966 200.45547 988.9315 C 198.58766 986.3884 196.2643 984.2364 193.98152 982.07263 C 191.05911 979.30255 188.17445 976.4815 185.55022 973.41754 C 181.48099 968.6665 178.05608 963.3439 175.40285 957.6481"/>
            <path id="path3940-9-8-8" fill="#ff0000" stroke="none" d="M 116.96747 907.58685 C 114.31425 913.2827 110.88932 918.6052 106.8201 923.35626 C 104.19584 926.4202 101.31122 929.24133 98.38881 932.01135 C 96.106 934.1751 93.78267 936.32715 91.914825 938.8703 C 90.65296 940.5884 89.59994 942.49994 89.098274 944.5836 C 88.18964 948.3578 89.17815 952.40375 91.043 955.794 C 92.135155 957.7794 93.53253 959.6054 95.25376 961.05695 C 97.81117 963.21356 101.14788 964.50305 104.45688 964.22156 C 107.49145 963.96356 110.32924 962.4137 112.543686 960.2852 C 114.50351 958.4015 116.03005 956.0533 117 953.4803 C 117.96996 956.0533 119.4965 958.4015 121.45633 960.2852 C 123.67076 962.4137 126.50857 963.96356 129.5431 964.22156 C 132.8521 964.50305 136.18881 963.21356 138.74622 961.05695 C 140.46748 959.6054 141.86482 957.7794 142.95699 955.794 C 144.82188 952.40375 145.81036 948.3578 144.90173 944.5836 C 144.40007 942.49994 143.34702 940.5884 142.08514 938.8703 C 140.21735 936.32715 137.89398 934.1751 135.61119 932.01135 C 132.6888 929.24133 129.80412 926.4202 127.17988 923.35626 C 123.11066 918.6052 119.68574 913.2827 117.03252 907.58685"/>
        </g>
    </g>
</svg>
