<svg width="234" height="333.00003" xmlns="http://www.w3.org/2000/svg">
    <g id="layer1" transform="matrix(1 0 0 1 0 -719.3622)">
        <g id="g913">
            <path id="rect4266" fill="#ffffff" stroke="#808080" stroke-width="0.7559055" d="M 9.297138 719.7401 L 224.70288 719.7401 C 229.6288 719.7401 233.62206 723.74524 233.62206 728.68585 L 233.62206 1043.0385 C 233.62207 1045.411 232.68237 1047.6864 231.0097 1049.3641 C 229.33702 1051.0417 227.06839 1051.9843 224.70288 1051.9843 L 9.297138 1051.9843 C 6.9316134 1051.9843 4.662975 1051.0417 2.9903018 1049.3641 C 1.3176281 1047.6864 0.3779376 1045.411 0.37795275 1043.0385 L 0.37795275 728.68585 C 0.37795484 723.74524 4.3712096 719.7401 9.297138 719.7401 Z"/>
            <g id="g4233" transform="matrix(0.07348588 0 0 0.07370838 -248.0173 933.60065)"/>
            <g id="g4211" transform="matrix(0.07348588 0 0 0.07370838 -248.01726 933.60065)"/>
            <g id="g4227" transform="matrix(0.07348588 0 0 0.07370838 -248.0173 933.60065)"/>
            <path id="path3940-9-0" fill="#ff0000" stroke="none" d="M 17.19471 780.7021 C 16.310305 778.80347 15.168663 777.0293 13.812274 775.4456 C 12.937504 774.42426 11.975963 773.48395 11.001837 772.56055 C 10.240889 771.83936 9.466447 771.12195 8.843829 770.2743 C 8.423218 769.70154 8.072211 769.0644 7.9049773 768.3698 C 7.602111 767.11176 7.9316525 765.7631 8.553233 764.6331 C 8.9172945 763.9712 9.383064 763.3625 9.95682 762.87866 C 10.809278 762.15985 11.921515 761.73 13.024526 761.8239 C 14.036058 761.90985 14.981971 762.4265 15.720137 763.1359 C 16.373413 763.7639 16.88224 764.5467 17.205566 765.4042 C 17.528894 764.5467 18.037722 763.7639 18.690998 763.1359 C 19.429163 762.4265 20.375076 761.90985 21.386608 761.8239 C 22.489595 761.73 23.60183 762.15985 24.4543 762.87866 C 25.028053 763.3625 25.493837 763.9712 25.857883 764.6331 C 26.47952 765.7631 26.809021 767.11176 26.506144 768.3698 C 26.33892 769.0644 25.987902 769.70154 25.56728 770.2743 C 24.944674 771.12195 24.170221 771.83936 23.409296 772.56055 C 22.43516 773.48395 21.4736 774.42426 20.598862 775.4456 C 19.242441 777.0293 18.1008 778.80347 17.216394 780.7021"/>
            <path id="path3940-9-6-6" fill="#ff0000" stroke="none" d="M 216.78358 991.0222 C 215.89917 992.92084 214.75752 994.695 213.40112 996.27875 C 212.52637 997.30005 211.56483 998.2404 210.5907 999.16376 C 209.82974 999.8851 209.05531 1000.60223 208.43271 1001.4501 C 208.01208 1002.0228 207.6611 1002.6599 207.49384 1003.3545 C 207.19098 1004.6125 207.52054 1005.96124 208.1421 1007.0913 C 208.50616 1007.7531 208.97192 1008.3617 209.54568 1008.84564 C 210.39815 1009.5646 211.51038 1009.9943 212.61339 1009.9005 C 213.62491 1009.8145 214.57085 1009.2978 215.309 1008.5883 C 215.96228 1007.9604 216.47112 1007.1777 216.79443 1006.32 C 217.11775 1007.1777 217.62659 1007.9604 218.27986 1008.5883 C 219.01804 1009.2978 219.96394 1009.8144 220.97548 1009.9005 C 222.07845 1009.99457 223.19069 1009.5646 224.0432 1008.84564 C 224.61694 1008.3617 225.0827 1007.7531 225.44676 1007.0913 C 226.06837 1005.96124 226.39787 1004.6125 226.09502 1003.3545 C 225.9278 1002.6599 225.57678 1002.0228 225.15614 1001.4501 C 224.53354 1000.60223 223.75908 999.8851 222.99815 999.16376 C 222.02403 998.2404 221.06247 997.30005 220.18773 996.27875 C 218.83131 994.695 217.68967 992.92084 216.80527 991.0222"/>
            <path id="path3940-9" fill="#ff0000" stroke="none" d="M 116.96747 814.07623 C 114.31425 808.3803 110.88932 803.0578 106.8201 798.3068 C 104.19584 795.2428 101.31122 792.42175 98.38881 789.6517 C 96.106 787.488 93.78267 785.33594 91.914825 782.7928 C 90.65296 781.0747 89.59994 779.16315 89.098274 777.07947 C 88.18964 773.3053 89.17815 769.25946 91.043 765.8692 C 92.135155 763.88367 93.53253 762.0577 95.25376 760.60614 C 97.81117 758.4495 101.14788 757.16003 104.45688 757.44147 C 107.49145 757.69965 110.32924 759.2494 112.543686 761.3778 C 114.50351 763.26166 116.03005 765.6099 117 768.18274 C 117.96996 765.6099 119.4965 763.26166 121.45633 761.3778 C 123.67076 759.2494 126.50857 757.69965 129.5431 757.44147 C 132.8521 757.16003 136.18881 758.4495 138.74622 760.60614 C 140.46748 762.0577 141.86482 763.88367 142.95699 765.8692 C 144.82188 769.25946 145.81038 773.3053 144.90173 777.07947 C 144.40007 779.16315 143.34702 781.0747 142.08514 782.7928 C 140.21735 785.33594 137.89398 787.488 135.61119 789.6517 C 132.6888 792.42175 129.80412 795.2428 127.17988 798.3068 C 123.11066 803.0578 119.68574 808.3803 117.03252 814.07623"/>
            <path id="path3940-9-3" fill="#ff0000" stroke="none" d="M 116.96747 914.19867 C 114.31425 908.5028 110.88932 903.1803 106.8201 898.42926 C 104.19584 895.3652 101.31122 892.5442 98.38881 889.7742 C 96.106 887.6104 93.78267 885.4584 91.914825 882.9152 C 90.65296 881.19714 89.59994 879.28564 89.098274 877.20184 C 88.18964 873.42773 89.17815 869.38184 91.043 865.9916 C 92.135155 864.00616 93.53253 862.1802 95.25376 860.7286 C 97.81117 858.57196 101.14788 857.2825 104.45688 857.56396 C 107.49145 857.8221 110.32924 859.3718 112.543686 861.5003 C 114.50351 863.38416 116.03005 865.7323 117 868.30524 C 117.96996 865.7323 119.4965 863.38416 121.45633 861.5003 C 123.67076 859.3718 126.50857 857.8221 129.5431 857.56396 C 132.8521 857.2825 136.18881 858.57196 138.74622 860.7286 C 140.46748 862.1802 141.86482 864.00616 142.95699 865.9916 C 144.82188 869.38184 145.81038 873.42773 144.90173 877.20184 C 144.40007 879.28564 143.34702 881.19714 142.08514 882.9152 C 140.21735 885.4584 137.89398 887.6104 135.61119 889.7742 C 132.6888 892.5442 129.80412 895.3652 127.17988 898.42926 C 123.11066 903.1803 119.68574 908.5028 117.03252 914.19867"/>
            <path id="path3940-9-6" fill="#ff0000" stroke="none" d="M 116.96747 957.6481 C 114.31425 963.3439 110.88932 968.6665 106.8201 973.41754 C 104.19584 976.4815 101.31122 979.30255 98.38881 982.07263 C 96.106 984.2364 93.78267 986.3884 91.914825 988.9315 C 90.65296 990.64966 89.59994 992.56116 89.098274 994.64496 C 88.18964 998.41907 89.17815 1002.46484 91.043 1005.8552 C 92.135155 1007.8407 93.53253 1009.6666 95.25376 1011.1182 C 97.81117 1013.2748 101.14788 1014.5643 104.45688 1014.28284 C 107.49145 1014.02466 110.32924 1012.4749 112.543686 1010.3464 C 114.50351 1008.4627 116.03005 1006.1145 117 1003.54144 C 117.96996 1006.1145 119.4965 1008.4627 121.45633 1010.3464 C 123.67076 1012.4749 126.50857 1014.02466 129.5431 1014.28284 C 132.8521 1014.5643 136.18881 1013.2748 138.74622 1011.1182 C 140.46748 1009.6666 141.86482 1007.8407 142.95699 1005.8552 C 144.82188 1002.46484 145.81036 998.41907 144.90173 994.64496 C 144.40007 992.56116 143.34702 990.64966 142.08514 988.9315 C 140.21735 986.3884 137.89398 984.2364 135.61119 982.07263 C 132.6888 979.30255 129.80412 976.4815 127.17988 973.41754 C 123.11066 968.6665 119.68574 963.3439 117.03252 957.6481"/>
            <g id="text3755-0" transform="matrix(1.0092549 0 0 0.99083 0 0)">
                <path id="path894" fill="#ff0000" stroke="none" d="M 26.376028 754.4354 Q 26.376028 758.41235 23.58828 760.55676 Q 21.073458 762.5062 16.999056 762.5062 Q 7.7195554 762.5062 7.7195554 753.7335 Q 7.7195554 753.3242 7.8560185 752.95386 Q 8.148439 752.77826 8.51884 752.77826 L 11.053157 752.77826 Q 11.423557 752.77826 11.735473 752.95386 Q 11.832943 753.2267 11.891431 753.59705 Q 12.222841 756.01447 13.256064 757.1062 Q 14.406254 758.3148 16.784613 758.3148 Q 18.734089 758.3148 19.962257 757.26215 Q 21.24891 756.1314 21.24891 754.22095 Q 21.24891 750.1661 16.823603 749.46423 Q 16.277748 749.3862 16.004824 749.23035 Q 15.848864 748.9184 15.848864 746.07214 Q 15.848864 745.7018 16.024319 745.37036 Q 17.486423 744.94147 18.94853 744.49316 Q 20.488615 743.79126 20.488615 741.5493 Q 20.488615 738.1573 16.511686 738.1573 Q 14.679179 738.1573 13.645958 739.0541 Q 13.100106 739.5415 12.515263 740.7111 Q 12.086379 741.60785 11.657494 741.60785 L 9.142672 741.60785 Q 8.187429 741.60785 8.187429 740.75006 Q 8.187429 737.49445 10.741241 735.60345 Q 13.041622 733.9074 16.394718 733.9074 Q 20.254679 733.9074 22.69152 735.5255 Q 25.557247 737.4165 25.557247 741.101 Q 25.557247 745.54584 21.17093 747.1443 Q 26.376028 749.3473 26.376028 754.4354 Z"/>
            </g>
            <g id="text3755-2-2" transform="matrix(-1.0092549 0 0 -0.99082994 0 0)">
                <path id="path897" fill="#ff0000" stroke="none" d="M -205.4782 -1033.6862 Q -205.4782 -1029.7091 -208.26596 -1027.5647 Q -210.78078 -1025.6152 -214.8552 -1025.6152 Q -224.13467 -1025.6152 -224.13467 -1034.388 Q -224.13467 -1034.7972 -223.99821 -1035.1677 Q -223.70581 -1035.3431 -223.33539 -1035.3431 L -220.80107 -1035.3431 Q -220.43066 -1035.3431 -220.11876 -1035.1677 Q -220.02126 -1034.8947 -219.9628 -1034.5243 Q -219.6314 -1032.107 -218.59818 -1031.0153 Q -217.44798 -1029.8066 -215.06964 -1029.8066 Q -213.12012 -1029.8066 -211.89195 -1030.8593 Q -210.60532 -1031.99 -210.60532 -1033.9005 Q -210.60532 -1037.9554 -215.03062 -1038.6572 Q -215.57648 -1038.7352 -215.84941 -1038.8912 Q -216.00537 -1039.2031 -216.00537 -1042.0493 Q -216.00537 -1042.4197 -215.82991 -1042.7511 Q -214.3678 -1043.18 -212.9057 -1043.6284 Q -211.36562 -1044.3302 -211.36562 -1046.5721 Q -211.36562 -1049.9642 -215.34254 -1049.9642 Q -217.17503 -1049.9642 -218.20828 -1049.0674 Q -218.75414 -1048.58 -219.33897 -1047.4104 Q -219.76785 -1046.5135 -220.19675 -1046.5135 L -222.71156 -1046.5135 Q -223.6668 -1046.5135 -223.6668 -1047.3715 Q -223.6668 -1050.627 -221.11299 -1052.518 Q -218.8126 -1054.214 -215.45952 -1054.214 Q -211.59955 -1054.214 -209.1627 -1052.596 Q -206.29698 -1050.705 -206.29698 -1047.0205 Q -206.29698 -1042.5757 -210.6833 -1040.977 Q -205.4782 -1038.7742 -205.4782 -1033.6862 Z"/>
            </g>
        </g>
    </g>
</svg>
