<svg width="234" height="333" xmlns="http://www.w3.org/2000/svg">
    <defs>
        <filter id="filter4594-85" x="-296.8678" y="808.48694" width="118.40138" height="107.12256" filterUnits="userSpaceOnUse">
            <feGaussianBlur color-interpolation-filters="sRGB" in="SourceGraphic" stdDeviation="0.93967825 0.93967825" result="result1"/>
        </filter>
        <filter id="filter4594-8-6" x="-296.8678" y="808.48694" width="118.40138" height="107.12256" filterUnits="userSpaceOnUse">
            <feGaussianBlur color-interpolation-filters="sRGB" in="SourceGraphic" stdDeviation="0.93967825 0.93967825" result="result1"/>
        </filter>
    </defs>
    <g id="layer1" transform="matrix(1 0 0 1 0.00004724 -719.3621)">
        <g id="g11669">
            <path id="rect4266" fill="#ffffff" stroke="#808080" stroke-width="0.756" d="M 9.297138 719.7401 L 224.70288 719.7401 C 229.6288 719.7401 233.62206 723.74524 233.62206 728.68585 L 233.62206 1043.0385 C 233.62207 1045.411 232.68237 1047.6864 231.0097 1049.3641 C 229.33702 1051.0417 227.06839 1051.9843 224.70288 1051.9843 L 9.297138 1051.9843 C 6.9316134 1051.9843 4.662975 1051.0417 2.9903018 1049.3641 C 1.3176281 1047.6864 0.3779376 1045.411 0.37795275 1043.0385 L 0.37795275 728.68585 C 0.37795484 723.74524 4.3712096 719.7401 9.297138 719.7401 Z"/>
            <g id="g4233" transform="matrix(0.07348586 0 0 0.07370835 -248.01732 933.6007)"/>
            <g id="g4211" transform="matrix(0.07348586 0 0 0.07370835 -248.0173 933.6007)"/>
            <g id="g4227" transform="matrix(0.07348586 0 0 0.07370835 -248.01732 933.6007)"/>
            <g id="text3755-0" transform="matrix(1.1356171 0 0 0.88057846 0 0)">
                <path id="path1771" fill="#ff0000" stroke="none" d="M 23.441017 846.6225 Q 23.441017 850.50616 23.035572 852.2559 Q 22.331379 855.3075 20.048088 856.77985 Q 18.23426 857.97485 15.6949 857.97485 Q 10.509483 857.97485 6.860487 853.4296 L 11.170997 849.3964 Q 13.582323 852.1279 15.545525 852.1279 Q 16.889893 852.1279 17.273998 850.46344 Q 17.444712 849.7379 17.444712 847.75336 L 17.444712 825.79535 L 23.441017 825.79535 Z"/>
            </g>
            <g>
                <g id="text3995-4" transform="matrix(0.81968 0 0 1.2199883 0 0)">
                    <path id="path1774" fill="#ff0000" stroke="none" d="M 32.762524 636.1224 Q 32.762524 640.9482 29.470165 644.3157 Q 26.17781 647.66815 21.352028 647.66815 Q 16.466108 647.66815 13.128652 644.30066 Q 9.791195 640.9331 9.791195 636.04724 Q 9.791195 632.89014 11.309588 630.22925 Q 12.827979 627.5683 15.54906 625.98975 Q 18.22504 624.4413 21.32196 624.4413 Q 26.13271 624.4413 29.470165 627.884 Q 32.762524 631.2966 32.762524 636.1224 Z M 28.55312 636.0923 Q 28.55312 632.9653 26.493515 630.7854 Q 24.388811 628.5604 21.27686 628.5604 Q 18.089737 628.5604 16.04517 630.7704 Q 14.030669 632.92017 14.030669 636.1223 Q 14.030669 639.7905 16.661547 641.9253 Q 18.706116 643.59406 21.352028 643.59406 Q 24.433912 643.59406 26.52358 641.3691 Q 28.55312 639.2042 28.55312 636.0923 Z"/>
                </g>
                <g id="text3999-9" transform="matrix(0.95622313 0 0 1.045781 0 0)">
                    <path id="path1777" fill="#ff0000" stroke="none" d="M 27.838833 788.6748 L 21.72334 788.6748 L 13.360585 776.6464 L 13.360585 788.6748 L 8.147679 788.6748 L 8.147679 761.5787 L 13.360585 761.5787 L 13.360585 770.8993 L 20.71023 761.5787 L 26.917824 761.5787 L 17.449862 773.6624 Z"/>
                </g>
                <g id="text4003-8" transform="matrix(1.1032917 0 0 0.90637857 0 0)">
                    <path id="path1780" fill="#ff0000" stroke="none" d="M 24.127924 948.1852 L 7.061595 948.1852 L 7.061595 916.9217 L 24.127924 916.9217 L 24.127924 922.74506 L 12.969988 922.74506 L 12.969988 928.39844 L 24.127924 928.39844 L 24.127924 934.1156 L 12.969988 934.1156 L 12.969988 942.3406 L 24.127924 942.3406 Z"/>
                </g>
                <g id="text4007-2" transform="matrix(1.0181043 0 0 0.9822176 0 0)">
                    <path id="path1783" fill="#ff0000" stroke="none" d="M 26.146767 910.2343 L 20.145433 910.2343 L 13.653793 898.016 L 13.143874 898.016 L 13.143874 910.2343 L 7.6524568 910.2343 L 7.6524568 881.3848 L 13.477283 881.3848 Q 17.321276 881.3848 19.125599 881.8751 Q 22.04782 882.64 23.55796 885.0719 Q 24.793528 887.0527 24.793528 889.7593 Q 24.793528 895.4468 19.32172 897.408 Z M 19.478619 889.7004 Q 19.478619 887.71954 17.674295 887.0527 Q 16.850582 886.75854 14.654015 886.75854 L 13.143874 886.75854 L 13.143874 892.66187 L 14.86975 892.66187 Q 17.046705 892.66187 18.007704 892.23035 Q 19.478619 891.56354 19.478619 889.7004 Z"/>
                </g>
                <g id="text3755-0-7" transform="matrix(-1.1356165 0 0 -0.88057894 0 0)">
                    <path id="path1798" fill="#ff0000" stroke="none" d="M -182.61435 -1165.3776 Q -182.61435 -1161.4939 -183.01976 -1159.744 Q -183.72397 -1156.6925 -186.00725 -1155.2201 Q -187.82108 -1154.0251 -190.36046 -1154.0251 Q -195.54585 -1154.0251 -199.19485 -1158.5704 L -194.88434 -1162.6035 Q -192.47302 -1159.8721 -190.50983 -1159.8721 Q -189.16545 -1159.8721 -188.78134 -1161.5365 Q -188.61063 -1162.2621 -188.61063 -1164.2466 L -188.61063 -1186.2046 L -182.61435 -1186.2046 Z"/>
                </g>
                <g id="text3995-4-1" transform="matrix(-0.81968 0 0 -1.2199883 0 0)">
                    <path id="path1795" fill="#ff0000" stroke="none" d="M -253.00104 -816.12463 Q -253.00104 -811.2988 -256.2934 -807.93134 Q -259.58575 -804.57886 -264.41153 -804.57886 Q -269.29745 -804.57886 -272.63492 -807.94635 Q -275.97235 -811.3139 -275.97235 -816.19977 Q -275.97235 -819.3569 -274.45398 -822.0177 Q -272.93558 -824.6787 -270.2145 -826.25726 Q -267.5385 -827.8057 -264.4416 -827.8057 Q -259.63086 -827.8057 -256.2934 -824.36304 Q -253.00104 -820.95044 -253.00104 -816.12463 Z M -257.21045 -816.1547 Q -257.21045 -819.28174 -259.27005 -821.4617 Q -261.37476 -823.6866 -264.4867 -823.6866 Q -267.67383 -823.6866 -269.71838 -821.4766 Q -271.73288 -819.3268 -271.73288 -816.1247 Q -271.73288 -812.4565 -269.10202 -810.3218 Q -267.05743 -808.65295 -264.41153 -808.65295 Q -261.32965 -808.65295 -259.24 -810.8779 Q -257.21045 -813.0428 -257.21045 -816.1547 Z"/>
                </g>
                <g id="text3999-9-2" transform="matrix(-0.9562227 0 0 -1.0457815 0 0)">
                    <path id="path1792" fill="#ff0000" stroke="none" d="M -216.87404 -905.48865 L -222.98953 -905.48865 L -231.35228 -917.517 L -231.35228 -905.48865 L -236.56517 -905.48865 L -236.56517 -932.5847 L -231.35228 -932.5847 L -231.35228 -923.2641 L -224.00264 -932.5847 L -217.79504 -932.5847 L -227.26302 -920.5011 Z"/>
                </g>
                <g id="text4003-8-2" transform="matrix(-1.1032912 0 0 -0.90637904 0 0)">
                    <path id="path1789" fill="#ff0000" stroke="none" d="M -187.96477 -1006.54315 L -205.0311 -1006.54315 L -205.0311 -1037.8066 L -187.96477 -1037.8066 L -187.96477 -1031.9833 L -199.1227 -1031.9833 L -199.1227 -1026.33 L -187.96477 -1026.33 L -187.96477 -1020.6128 L -199.1227 -1020.6128 L -199.1227 -1012.3878 L -187.96477 -1012.3878 Z"/>
                </g>
                <g id="text4007-2-1" transform="matrix(-1.0181038 0 0 -0.9822181 0 0)">
                    <path id="path1786" fill="#ff0000" stroke="none" d="M -203.69228 -893.5655 L -209.69359 -893.5655 L -216.18524 -905.7839 L -216.69516 -905.7839 L -216.69516 -893.5655 L -222.18658 -893.5655 L -222.18658 -922.41504 L -216.36176 -922.41504 Q -212.51776 -922.41504 -210.71341 -921.92474 Q -207.79121 -921.15985 -206.28107 -918.72797 Q -205.04552 -916.74713 -205.04552 -914.04065 Q -205.04552 -908.35315 -210.5173 -906.3919 Z M -210.36043 -914.0995 Q -210.36043 -916.0802 -212.16473 -916.74713 Q -212.98846 -917.04126 -215.18501 -917.04126 L -216.69516 -917.04126 L -216.69516 -911.138 L -214.96928 -911.138 Q -212.79231 -911.138 -211.83133 -911.5696 Q -210.36043 -912.2363 -210.36043 -914.0995 Z"/>
                </g>
            </g>
            <path id="path15686-8" fill="#ffffff" stroke="#131f67" stroke-width="0.755906" d="M 164.77007 822.39166 C 163.51042 821.5279 163.76752 819.5765 163.79565 818.1217 C 163.81285 817.23267 163.98875 816.2903 164.49165 815.53394 C 164.71655 815.19574 165.04776 814.84106 165.46606 814.7576 C 166.26997 814.59735 167.25108 814.86414 167.83246 815.40454 C 168.41386 815.945 168.5041 816.8402 168.52846 817.6042 C 168.54686 818.1794 168.2087 818.71796 168.11087 819.28625 C 167.94885 820.22705 168.55727 821.4591 167.83247 822.1328 C 167.10767 822.8065 165.59492 822.95715 164.77007 822.39154 Z"/>
            <path id="path3384-9" fill="#000000" stroke="#000000" stroke-width="0.755906" d="M 129.06393 880.3835 L 126.77283 874.1651 L 120.74944 874.6218 L 122.81245 878.80914 Z"/>
            <path id="path3958-2" fill="#131f67" stroke="#131f67" stroke-opacity="0.941176" stroke-width="0.755906" d="M 81.46225 993.4217 C 82.04451 994.83386 82.91403 995.6977 82.37207 999.2557 C 81.54807 1000.9233 77.0522 1003.5419 76.98283 1005.4497 C 77.29767 1007.23035 75.81751 1009.0384 84.92462 1010.6841 L 108.15836 1013.9448 C 119.22332 1013.5505 116.95958 1012.19183 119.19487 1009.385 C 119.92949 1007.0707 119.76536 1001.7403 118.865036 1000.5701 C 116.92013 996.3889 114.08733 996.5364 113.74785 997.93964 C 112.31111 1000.4163 113.01752 999.06757 112.8482 1002.2759 C 114.15854 999.5639 116.40942 999.80286 115.32441 998.8494 C 117.28927 999.2131 117.41642 1001.3881 115.945885 1004.6051 C 114.50278 1007.7008 109.875336 1006.4313 108.02317 1006.9044 L 101.54455 1004.879 L 93.24845 999.84357 C 91.16748 996.0015 92.984085 995.16394 93.59062 993.3934 Z"/>
            <path id="path3249-7" fill="#000000" stroke="#000000" stroke-width="0.755906" d="M 93.81381 993.45074 C 91.68731 993.9512 90.00304 993.44366 87.87462 993.9401 L 86.59931 996.66376 Z M 81.23696 993.3078 C 83.28185 994.87616 82.78097 993.9927 84.593636 995.72296 L 87.17129 993.2079 C 85.174576 993.2849 83.21988 993.9089 81.23677 993.3078 Z"/>
            <path id="path3958-5-9" fill="#131f67" stroke="#131f67" stroke-opacity="0.941176" stroke-width="0.755906" d="M 133.90479 987.7808 C 134.58868 989.10345 135.50354 989.8746 135.28387 993.35535 C 134.62973 995.029 130.50616 997.89417 130.60204 999.74396 C 131.05888 1001.4427 129.78223 1003.3007 138.73055 1004.2186 L 161.47824 1005.6541 C 172.14487 1004.45465 169.83942 1003.30804 171.76134 1000.4284 C 172.27373 998.13586 171.65886 992.9935 170.68805 991.9284 C 167.29276 988.9822 164.91801 988.0961 164.70988 989.4783 C 163.53236 991.9796 163.75621 989.71094 163.86702 992.8262 C 164.90211 990.1067 165.05779 991.3857 165.75479 990.3145 C 167.68607 990.52094 169.35725 992.8267 168.21045 996.04663 C 167.07983 999.1471 162.49614 998.26154 160.74533 998.8561 L 154.30685 997.3764 L 145.8529 993.12024 C 143.51167 989.5585 145.19678 988.614 145.6318 986.8569 Z"/>
            <path id="path3249-2-5" fill="#000000" stroke="#000000" stroke-width="0.755906" d="M 145.22346 986.9331 C 143.92374 987.09 142.21802 987.42255 141.11148 987.4664 L 140.23853 991.80084 Z M 134.04782 987.7886 C 135.99562 990.51105 138.22061 991.8643 139.51463 991.7988 L 137.57521 987.4976 C 137.57521 987.4976 134.88799 988.0497 134.0477 987.7886 Z"/>
            <path id="path3239-4" fill="#ff0000" stroke="#131f67" stroke-opacity="0.941176" stroke-width="0.755906" d="M 110.29297 903.3599 L 94.153694 905.2194 C 92.68627 922.0641 90.03858 936.66473 90.67841 949.5565 L 91.10317 953.1257 L 89.97123 954.91705 C 89.97123 954.91705 86.26174 959.6961 85.34553 962.86755 C 82.85148 971.50165 84.3949 988.4021 84.51787 995.32544 C 85.72749 996.77814 86.169685 997.64594 86.169685 997.64594 C 86.889366 995.3914 88.44004 994.4328 88.44004 994.4328 C 88.44004 994.4328 90.73126 971.7534 94.69547 959.1931 C 96.7741 952.60724 94.35246 960.18146 98.105644 953.08417 C 98.46802 952.1725 97.609184 950.5285 97.609184 950.5285 C 103.97127 934.79205 106.15269 919.1209 110.29273 903.35876 Z M 130.32481 905.491 L 115.53138 906.3333 C 119.48473 922.853 119.225235 926.3031 125.67377 941.5117 L 130.68456 950.4113 L 130.5378 953.2214 C 130.5378 953.2214 130.90025 962.8312 131.08093 965.99677 C 131.60695 975.21454 137.01273 987.7306 137.01273 987.7306 C 137.01273 987.7306 138.54086 989.9003 139.58617 992.3161 C 140.57372 990.6686 140.49646 990.12524 141.68811 988.8348 C 139.69101 980.13403 137.02695 968.90735 136.86247 952.50433 C 136.86247 952.50433 138.184 950.00024 137.55032 948.4742 C 137.33923 947.96576 136.19933 946.5486 136.19933 946.5486 C 134.57285 932.09753 133.16179 921.639 130.32483 905.4903 Z"/>
            <path id="path4269-3" fill="#000000" stroke="#000000" stroke-width="0.25" d="M 110.23061 903.5918 L 108.32518 903.6197 L 94.15263 905.4849 C 93.96183 907.9878 93.77496 910.4881 93.592865 912.9717 L 108.40578 911.97363 C 108.9931 909.1814 109.59062 906.38354 110.23029 903.5917 Z M 130.32364 905.7952 L 115.53021 906.75775 C 115.97372 908.8754 116.44269 910.9828 116.93226 913.0725 C 120.13599 913.58685 123.81741 914.0464 126.34814 913.8974 C 127.7306 913.816 129.73564 913.3015 131.36789 912.82056 C 131.03033 910.5003 130.68636 908.15643 130.32329 905.795 Z"/>
            <path id="path3231-1" fill="#131f67" stroke="#131f67" stroke-opacity="0.941176" stroke-width="0.755906" d="M 89.058716 869.609 C 89.058716 869.609 91.8682 880.1338 93.72183 884.632 C 94.20031 885.793 95.16033 887.1087 95.16033 887.1087 C 95.16033 887.1087 94.14009 890.7512 92.90458 892.1373 C 88.6702 896.8877 80.34721 907.4622 81.35553 907.78973 C 81.35553 907.78973 84.21307 907.4616 86.144936 908.31915 C 88.36288 909.3037 89.522804 908.1979 91.865074 908.8902 C 94.76405 909.74713 97.36463 908.71094 100.11168 908.56805 C 103.79887 908.3764 108.48143 907.8854 112.17171 908.00854 C 117.07998 908.1723 121.20095 910.1924 125.750244 909.78217 C 129.53612 909.4407 135.0028 907.09076 135.0028 907.09076 L 134.41528 905.0226 C 137.23366 904.667 137.94064 903.9835 139.35242 903.045 C 133.26315 896.09393 129.16206 890.94977 122.87208 885.0264 C 122.87208 885.0264 123.7805 882.2142 124.10482 880.7789 C 125.400826 875.04456 126.94265 863.39984 126.94265 863.39984 Z"/>
            <path id="path4275-2" fill="#000000" stroke="#000000" stroke-width="0.377953" d="M 92.995316 879.456 C 93.92896 882.7579 92.80276 881.7212 93.72916 884.0466 C 93.862366 884.381 94.01831 884.707 94.19508 885.03326 C 97.389145 885.1172 104.33162 885.1472 108.09674 884.0257 C 112.49558 882.7152 121.50106 877.7591 121.50106 877.7591 C 122.383705 878.8693 123.03594 879.71515 123.97924 880.4938 C 124.01404 880.35126 124.05483 880.17633 124.08211 880.0514 C 124.66311 877.3921 124.45706 877.7149 124.97571 874.2345 C 103.87203 873.45276 93.14538 879.4337 92.99572 879.4559 Z"/>
            <path id="path3225-3" fill="#000000" stroke="#131f67" stroke-opacity="0.941176" stroke-width="0.755906" d="M 140.0942 852.3241 L 139.17834 873.8068 C 137.41147 873.863 134.691 872.5783 130.1947 871.29 C 125.06348 869.81976 126.80338 860.68756 125.72725 858.6595 Z"/>
            <path id="path3223-3" fill="#d40000" stroke="#131f67" stroke-opacity="0.941176" stroke-width="0.755906" d="M 151.37392 827.16675 C 155.95285 826.3545 162.46773 829.0107 164.12344 832.31696 C 165.79958 835.6639 165.64992 840.88153 163.48895 844.00195 C 160.1896 848.76605 145.00056 857.34656 138.87155 858.6457 C 134.04747 859.66846 135.59592 845.9554 137.32957 840.57 C 138.27374 837.6369 142.01102 836.1022 144.35155 833.8683 C 146.69226 831.63446 148.00291 827.76447 151.3735 827.16675 Z"/>
            <path id="path3207-4" fill="#000000" stroke="#131f67" stroke-opacity="0.941176" stroke-width="2.39093" d="M 113.34481 824.5291 C 113.34481 824.5291 123.49539 821.1623 128.16006 823.1882 C 134.49605 825.9398 139.57426 834.4225 140.78136 840.88245 C 141.71124 845.86 128.59114 851.58307 128.59114 851.58307 Z"/>
            <path id="path3227-1" fill="#131f67" stroke="#131f67" stroke-width="0.755906" d="M 157.71536 827.54346 C 155.69775 827.8741 152.25517 832.17096 152.25517 832.17096 C 152.25517 832.17096 153.21251 837.28033 155.34567 838.4473 C 157.40729 839.5753 160.41415 839.0182 162.50095 837.93085 C 164.72704 836.7709 166.31714 833.93976 166.33784 831.64575 C 166.36453 828.69336 161.31458 826.9534 157.71552 827.5432 Z"/>
            <path id="path3199-1" fill="#d40000" stroke="#131f67" stroke-opacity="0.941176" stroke-width="0.756" d="M 95.23646 821.48596 C 88.667 823.4617 83.28166 825.76215 78.75417 828.31006 L 84.32661 858.3269 C 76.30491 861.00793 88.76951 873.9354 87.76221 881.91345 C 96.26137 884.11536 99.9836 884.0095 105.97074 881.968 C 111.00959 879.6286 115.6618 876.992 120.749756 874.6215 C 124.71012 876.3393 125.99517 879.04944 129.06416 880.383 L 130.18472 865.4936 C 130.18472 865.4936 130.00786 851.31903 129.3253 844.2667 C 128.90147 839.8877 129.59747 835.0623 127.31943 831.2094 C 125.6643 828.40985 122.196 826.58405 119.48521 824.9798 C 117.324356 823.70123 112.50962 821.9163 112.50962 821.9163 Z"/>
            <path id="path3197-3" fill="#000000" stroke="#000000" stroke-width="2.39093" d="M 114.45953 830.2135 L 110.8991 829.8337 L 110.494194 826.868 C 109.89757 823.92096 109.47126 826.4645 110.88071 826.2219 L 111.65996 824.13403 L 115.59189 826.0715 Z"/>
            <path id="path3195-8" fill="#000000" stroke="#000000" stroke-width="0.755906" d="M 118.86384 823.0293 L 115.206 829.76245 L 113.37568 830.396 L 115.67893 823.2408 Z"/>
            <path id="path3115-7" fill="#ffffff" stroke="#131f67" stroke-width="0.755906" d="M 90.27866 791.8281 C 90.54076 796.26874 88.478165 803.8124 94.11959 804.74414 C 94.11959 804.74414 95.53357 813.73004 98.44712 816.3661 C 102.84325 820.34296 106.23535 822.2812 110.4288 825.77875 C 112.81384 827.76794 114.8565 828.3925 117.23561 828.03894 C 118.87413 827.79535 121.62162 826.6847 121.16754 825.20123 C 119.55583 819.93713 115.52806 815.2397 115.3441 809.80096 C 115.24298 806.811 116.95697 804.7199 116.94773 801.72845 C 116.943726 800.57025 116.90203 798.9835 116.93114 797.8255 C 116.97433 796.10443 118.75643 794.65643 118.7182 792.9353 C 118.64669 789.71533 113.13757 786.8615 113.13757 786.8615 L 101.50668 787.35583 Z"/>
            <path id="path3082-5-4-4" fill="#131f67" stroke="#131f67" stroke-width="0.755906" d="M 95.3105 816.33777 C 90.67038 817.30615 89.18656 820.3647 86.37364 823.99805 C 89.76503 822.0492 91.5263 821.00214 95.42353 822.25854 C 95.80293 819.0574 95.503235 819.15283 95.3108 816.338 Z"/>
            <path id="path3123-2" fill="#e2cf00" stroke="#131f67" stroke-width="0.755906" d="M 91.451866 803.51636 C 91.2035 801.5642 90.98637 809.5315 87.80446 812.15405 C 86.8432 812.9464 84.564445 814.06616 84.34224 815.5125 C 88.329506 813.6049 90.48411 812.9911 90.801384 812.3614 C 89.671616 814.0728 86.27117 816.1423 87.48902 817.96606 C 87.48902 817.96606 90.99786 814.77527 90.651276 816.0148 C 90.29269 817.2973 91.91196 820.24274 91.91196 820.24274 C 92.928116 818.95593 92.20029 815.13184 92.883484 815.77673 C 93.82403 816.66425 93.53396 820.26404 94.82537 820.41187 C 96.94345 819.6076 96.65028 816.914 98.032524 816.0891 C 98.032524 816.0891 94.11425 808.92584 94.5995 805.675 C 94.74491 804.7006 91.5672 804.4232 91.45181 803.5164 Z"/>
            <path id="path3119-7" fill="#e2cf00" stroke="#131f67" stroke-width="0.755906" d="M 101.92087 788.5929 L 96.16642 788.6582 L 90.26776 794.09216 L 90.04885 798.2256 C 90.04885 798.2256 90.9589 795.10535 92.0755 795.54254 C 93.17981 795.9749 95.20131 804.83215 95.20131 804.83215 C 95.20131 804.83215 96.59148 805.42975 96.21805 804.27423 C 95.74916 802.8233 95.7842 800.02277 95.7842 800.02277 C 95.7842 800.02277 95.93776 798.78204 96.0377 796.88403 C 96.15685 794.6204 96.45158 790.1106 96.45158 790.1106 L 97.66042 791.5579 L 99.69612 790.5837 L 101.47297 791.3948 Z M 116.36548 789.00287 L 117.7858 792.9214 L 118.1037 792.2818 L 119.31024 795.1062 L 118.51895 790.33777 Z"/>
            <path id="path3126-7" fill="#131f67" stroke="#131f67" stroke-width="0.755906" d="M 102.47434 795.801 L 101.90287 796.7916 C 104.54375 796.1844 107.3954 794.9643 109.70357 795.16254 L 109.96335 793.4677 C 107.38663 793.8195 106.64858 793.61334 103.65543 795.1606 Z"/>
            <path id="path3128-9" fill="#131f67" stroke="#131f67" stroke-width="0.755906" d="M 112.67832 793.4012 L 112.18644 795.3406 C 113.44081 795.22076 114.57475 794.9591 117.10797 796.3466 L 116.94063 795.58026 C 115.76799 794.20197 114.48193 793.37317 112.67858 793.4012 Z"/>
            <path id="path3130-3" fill="#131f67" stroke="#131f67" stroke-width="0.755906" d="M 107.95829 797.37915 C 106.764755 797.60034 105.22307 797.85187 104.34944 798.8726 C 104.14988 799.1058 103.989716 800.07184 103.989716 800.07184 C 103.989716 800.07184 105.59912 800.1688 106.3995 800.10443 C 106.97923 800.05786 108.11558 799.7482 108.11558 799.7482 C 108.11558 799.7482 108.50998 798.8926 108.33092 798.27216 C 108.27111 798.06506 108.18444 797.3372 107.958275 797.37915 Z"/>
            <path id="path3138-1" fill="#131f67" stroke="#131f67" stroke-opacity="0.941176" stroke-width="0.755906" d="M 111.60256 795.52856 C 111.60256 795.52856 110.54442 796.7467 110.35264 797.7566 C 109.88372 800.226 111.419685 805.3318 111.419685 805.3318 C 111.419685 805.3318 112.80889 806.5491 113.23014 807.45764 C 113.38703 807.796 112.95249 808.36127 112.55614 808.36835 C 111.0495 808.3955 108.82158 808.11346 108.82158 808.11346 C 108.82158 808.11346 109.80253 809.24396 110.50477 809.46484 C 111.444565 809.76074 112.71632 809.8938 113.47616 809.3007 C 114.25245 808.6948 114.04412 808.1411 114.09105 807.1999 C 114.12445 806.5299 112.27963 803.1502 111.84999 800.7957 C 112.28999 800.688 113.36441 800.44244 113.90763 799.9734 L 111.72028 798.5454 Z"/>
            <path id="path3132-9" fill="#131f67" stroke="#131f67" stroke-width="0.755906" d="M 111.21281 798.0016 C 110.95528 798.5145 110.99303 799.6247 110.99303 799.6247 C 110.99303 799.6247 112.20005 799.89197 112.93073 800.01227 C 113.27733 800.0694 114.40372 800.28516 114.40372 800.28516 C 114.40372 800.28516 114.35092 799.764 114.18355 799.45105 C 113.7186 798.5818 112.8384 797.5565 111.92149 797.43304 C 111.50281 797.37665 111.34475 797.7388 111.212776 798.0016 Z"/>
            <path id="path3134-8" fill="#000000" stroke="#131f67" stroke-width="0.755906" d="M 110.4177 812.75116 C 109.05376 812.49725 105.45954 810.8661 104.76692 811.9874 C 103.86414 813.4488 106.34405 816.58484 107.47904 817.8989 C 108.59256 819.18805 110.50477 820.05145 112.23297 819.66156 C 112.9989 819.4888 113.77437 818.81866 113.89028 818.094 C 114.07444 816.9426 113.29636 816.1273 113.06617 814.98315 C 112.86996 814.00775 113.88623 812.7755 113.29519 811.94916 C 112.89315 811.38715 110.41737 812.7513 110.41737 812.7513 Z"/>
            <path id="path3136-6" fill="#ffffff" stroke="#131f67" stroke-width="0.755906" d="M 107.724434 817.2145 C 107.726425 818.1019 109.99683 819.6968 111.61555 819.4714 C 112.49489 819.3491 113.34593 819.1846 113.28837 817.8928 C 113.27216 817.5281 114.035545 817.31024 112.83391 816.8129 C 112.83391 816.8129 112.03115 817.23645 111.8786 817.64453 C 112.109 817.9114 111.40376 817.9394 110.941925 818.00714 C 109.33101 818.2598 107.724434 817.2145 107.724434 817.2145 Z"/>
            <path id="path3159-5" fill="#131f67" stroke="#131f67" stroke-width="0.755906" d="M 91.31544 797.6241 C 91.59461 797.4833 92.00692 797.62213 92.245415 797.8173 C 93.15071 798.5575 93.47885 800.9778 93.47885 800.9778 L 92.81018 801.4747 C 92.81018 801.4747 92.43669 798.8801 91.49052 798.855 C 91.18347 798.84705 90.7813 799.4597 90.937874 799.3896 C 91.094475 799.3194 90.77153 797.8985 91.31541 797.62396 Z"/>
            <path id="path3201-0" fill="#131f67" fill-opacity="0.941176" stroke="#131f67" stroke-width="0.755906" d="M 86.14719 826.779 C 84.0155 826.04083 79.58983 825.7908 77.57086 826.76526 C 75.33966 827.8422 74.1275 830.45154 73.62881 832.74225 C 72.16957 839.4442 76.55619 846.1952 76.93995 853.0239 C 77.48312 862.69037 75.49631 882.0312 75.49631 882.0312 C 77.01061 886 78.822624 887.5568 80.66768 888.84656 L 81.46002 880.374 L 81.91862 858.09937 L 84.52387 853.22864 L 97.27884 860.24915 L 101.97392 858.14594 L 97.470215 855.03925 L 97.28075 853.0947 L 94.98972 851.9395 C 94.98972 851.9395 98.41928 840.7947 96.44848 836.01495 C 94.39459 831.0335 91.5254 828.64166 86.147064 826.77905 Z"/>
            <path id="path4302-2" fill="#131f67" stroke="#131f67" stroke-width="0.755906" d="M 112.30024 831.2585 L 114.49916 849.7301 L 113.61959 831.2585 Z"/>
            <path id="path3378-6" fill="#131f67" stroke="#131f67" stroke-width="0.755906" d="M 115.34429 834.36536 C 112.90391 834.37775 110.44225 834.71234 108.11303 835.34076 C 105.64178 836.0075 101.54047 836.202 101.21228 838.5742 C 101.15129 839.01483 101.82889 839.3683 102.295166 839.4654 C 104.88689 840.0049 107.33089 837.80835 109.94776 837.3867 C 112.66197 836.94934 115.43717 836.8472 118.190834 836.92584 C 120.11877 836.9809 122.48018 838.754 123.93399 837.57587 C 124.32469 837.2593 124.26452 836.53265 123.95639 836.14526 C 122.678116 834.5382 119.90832 834.6543 117.76735 834.46967 C 116.96238 834.40027 116.15791 834.3612 115.34442 834.36536 Z M 116.346565 840.40656 C 114.696236 840.3686 113.02556 840.5989 111.4492 841.02 C 109.24283 841.60944 106.005394 841.93536 105.34162 843.9781 C 105.22078 844.34985 105.5499 844.8697 105.94131 845.0057 C 107.70846 845.61975 109.41928 843.57855 111.26118 843.1996 C 113.29543 842.78094 115.40357 842.5928 117.48452 842.6935 C 119.27149 842.7799 121.24627 844.52625 122.76151 843.6413 C 123.12337 843.43 123.27755 842.8389 123.08752 842.48303 C 122.27022 840.9526 119.7966 840.79926 117.980064 840.536 C 117.43994 840.45764 116.89661 840.4192 116.346504 840.40656 Z"/>
            <g transform="matrix(0.9889341 0.14835592 -0.17107023 0.9852588 0 0)">
                <path id="rect10679-0" fill="#000000" stroke="#000000" stroke-width="0.756006" stroke-linejoin="round" d="M 279.6193 785.841 L 281.11453 785.841 C 281.26398 785.841 281.3851 786.80383 281.3851 787.99146 L 281.3851 852.18036 C 281.3851 853.3679 281.26398 854.3306 281.11453 854.33075 L 279.6193 854.33075 C 279.46985 854.3306 279.34872 853.3679 279.34872 852.18036 L 279.34872 787.99146 C 279.34872 786.80383 279.46985 785.841 279.6193 785.841 Z"/>
            </g>
            <path id="path3209-2" fill="#ffffff" stroke="#131f67" stroke-opacity="0.941176" stroke-width="0.755906" d="M 119.80317 855.621 C 119.80317 855.621 124.0586 853.4874 126.22412 852.04846 C 127.22608 851.3826 129.00037 850.7779 129.54572 849.7556 C 130.145 848.6323 129.43304 847.63007 130.07735 846.52826 C 130.5032 845.8001 131.79955 845.08624 132.61981 844.5749 C 133.92122 843.7635 136.48122 843.03375 136.48122 843.03375 C 136.48122 843.03375 136.89374 844.7026 136.54752 845.5486 C 136.2931 846.17017 134.55057 846.78864 134.91496 847.36383 C 135.85713 848.85095 138.89404 847.77216 140.48311 846.87665 C 141.50693 846.29956 142.41827 844.0776 142.41827 844.0776 C 142.41827 844.0776 139.0406 844.1601 139.16528 843.4093 C 139.30287 842.5807 141.69304 841.966 141.69304 841.966 C 141.69304 841.966 145.19678 842.8916 145.66705 844.125 C 146.0406 845.10474 145.23251 845.92706 145.2209 846.9627 C 145.21 847.9338 146.06058 848.5997 145.9938 849.46313 C 145.89111 850.7913 144.87408 851.91736 144.22598 853.10565 C 143.46689 854.4974 143.10387 856.2545 141.74657 857.18134 C 139.01935 859.0437 135.18062 859.451 131.79242 859.1915 C 130.01538 859.0554 128.56865 857.61505 126.80346 857.8403 C 124.88543 858.08514 122.22882 860.6262 122.22882 860.6262 Z"/>
            <path id="path3205-4" fill="#131f67" stroke="#131f67" stroke-opacity="0.941176" stroke-width="0.755906" d="M 113.17721 855.96515 C 113.17721 855.96515 115.84626 854.57214 117.27517 854.0786 C 118.05857 853.808 118.906105 853.26514 119.70332 853.4983 C 123.3441 854.5625 126.13478 858.74554 126.49337 862.2775 C 126.56427 862.9759 125.94668 863.65924 125.47355 864.2058 C 124.02672 865.8769 120.91021 867.7212 120.91021 867.7212 Z"/>
            <path id="path3203-8" fill="#d40000" stroke="#131f67" stroke-opacity="0.941176" stroke-width="0.755906" d="M 81.91827 858.099 L 90.235405 874.667 C 90.235405 874.667 96.609184 878.6529 99.84383 878.98724 C 108.350784 879.86694 115.61517 876.13934 121.52982 870.3886 C 122.51502 869.4308 123.0905 866.6871 123.0905 866.6871 C 123.25495 866.2971 121.28236 858.8341 118.32839 857.16077 C 116.21284 855.9623 113.96929 854.6488 113.96929 854.6488 C 109.47416 852.23126 102.18209 856.03625 97.27811 860.2487 L 84.52313 853.22815 Z"/>
            <path id="path3221-6" fill="#ffffff" stroke="#131f67" stroke-width="0.755906" d="M 156.87347 825.18134 C 156.87347 825.18134 157.02513 826.7292 157.49951 827.3361 C 158.49734 828.61285 161.65788 828.6189 161.65788 828.6189 C 161.65788 828.6189 157.92966 829.0088 157.01503 830.19135 C 156.1042 831.36914 157.5519 833.50104 158.49013 834.29974 C 160.0636 835.63904 162.41309 835.0256 164.09842 834.2734 C 167.03944 832.9607 170.36502 827.30585 170.36502 827.30585 C 170.36502 827.30585 172.1442 822.42145 171.57793 820.0654 C 171.1543 818.30316 168.88197 817.3008 167.12488 816.5302 C 164.99437 815.5957 161.19308 816.1434 161.19308 816.1434 C 161.19308 816.1434 160.80203 818.22894 161.4797 818.9068 C 162.28764 819.7151 164.9896 819.46533 164.9896 819.46533 C 167.82457 820.0933 167.33176 821.3615 167.69154 822.4658 C 167.69154 822.4658 164.61845 820.72144 162.885 820.4589 C 161.61075 820.26605 158.26125 820.8051 158.26125 820.8051 C 158.26125 820.8051 158.81602 822.495 159.3238 823.17035 C 159.9661 824.0246 161.95105 823.9213 161.95105 823.9213 L 164.12732 825.3816 C 164.12732 825.3816 161.59874 824.63574 160.29085 824.61426 C 159.13383 824.5953 156.8733 825.18134 156.8733 825.18134 Z"/>
            <path id="path3235-5" fill="#000000" stroke="#000000" stroke-width="0.755906" d="M 93.86059 885.6439 C 93.39525 886.22327 93.256226 887.36774 93.797264 889.69037 C 108.3393 890.3482 119.507935 888.6305 124.63565 886.5661 C 124.89218 885.0897 125.09257 883.6274 123.92165 882.5093 C 119.9944 884.0873 107.42417 886.30597 93.86044 885.6439 Z"/>
            <path id="path3233-0" fill="#e2cf00" stroke="#000000" stroke-width="0.755906" d="M 111.60647 884.36865 C 111.74844 886.1381 111.67607 888.3651 112.37333 890.01605 C 112.69652 890.7814 113.729355 891.4472 114.607285 891.34717 C 116.22722 891.1626 118.33732 890.9865 119.90689 890.5516 C 120.64066 890.3482 120.78526 889.32056 120.87027 888.6133 C 121.08364 886.83746 120.84546 885.1238 120.323044 883.8361 C 120.132774 883.367 119.93317 882.7146 119.40943 882.5951 C 117.18147 882.08704 114.35733 882.4439 112.40072 883.29535 C 111.97764 883.4795 111.57166 883.93567 111.60642 884.36865 Z"/>
            <path id="path3361-9" fill="#ffffff" stroke="#000000" stroke-width="1.5" d="M 77.954384 827.17755 C 76.075966 838.4212 82.4651 844.2403 84.52344 853.2295 C 84.52344 853.2295 76.23086 836.93726 77.21033 828.7031 C 77.363815 827.413 77.954384 827.1776 77.954384 827.1776 Z"/>
            <path id="path3363-0" fill="#000000" stroke="#000000" stroke-width="0.25" d="M 78.55072 827.6992 C 77.81006 827.6869 76.85136 827.93744 76.33048 828.1701 C 75.45087 828.5628 75.20648 829.90765 75.20648 829.90765 C 77.134796 828.4774 79.02701 829.1766 80.926636 829.57367 C 80.926636 829.57367 79.974915 828.1586 79.20311 827.81537 C 79.029335 827.7381 78.79756 827.7032 78.55068 827.6993 Z M 78.23317 832.00543 C 77.20957 832.01825 76.13531 832.4925 75.596306 833.2754 C 75.417435 833.5353 75.41281 834.3659 75.69718 834.2069 C 76.37989 833.8251 78.33712 833.22943 79.766304 833.6359 C 80.40582 833.8178 80.407776 832.91473 79.89936 832.51086 C 79.44326 832.1485 78.84731 831.9977 78.2332 832.00543 Z M 80.5975 837.0815 C 79.2326 837.08344 77.30545 837.9588 76.49915 838.29596 C 76.03362 838.4906 76.53556 839.7187 77.03636 839.62683 C 78.09371 839.43286 80.37842 838.504 81.56072 838.2571 C 81.97925 838.1696 81.551125 837.24115 81.13561 837.14233 C 80.968094 837.10266 80.79277 837.0812 80.59778 837.0815 Z M 81.979095 841.01746 C 80.93547 841.0254 80.12796 842.13184 78.525566 842.8308 C 77.946144 843.08356 78.83359 844.0513 78.83359 844.0513 C 78.83359 844.0513 80.58226 843.5011 82.495094 842.4731 C 83.08527 842.15594 82.86521 841.1281 82.19044 841.0381 C 82.11838 841.02814 82.04866 841.0168 81.979095 841.01746 Z M 83.546875 845.34924 C 82.18154 845.4143 80.37347 846.8909 79.784424 847.2301 C 79.497185 847.39545 79.64464 848.1383 79.98149 848.16284 C 80.82548 848.2245 82.78006 846.8465 84.29421 846.7902 C 84.86739 846.7689 84.11996 845.322 83.54707 845.34924 Z M 84.47116 850.2268 C 83.55978 850.30005 82.53486 850.74774 81.79162 851.7645 C 81.5055 852.156 82.2181 853.5522 82.09796 853.0923 C 81.94022 852.48834 83.42004 851.8768 85.64574 851.4053 C 86.153595 851.2977 85.84753 850.36707 85.33632 850.2743 C 85.074104 850.2267 84.77494 850.2024 84.47112 850.2268 Z"/>
            <path id="path3386-0" fill="#000000" stroke="#000000" stroke-width="0.755906" d="M 81.91827 858.099 L 81.45968 880.37366 C 83.43218 877.29785 86.883606 876.04364 90.235565 874.66656 Z"/>
            <path id="path3082-1" fill="#000000" stroke="#000000" stroke-width="0.755906" d="M 71.32971 773.6088 C 68.87795 778.3758 71.16204 784.18774 72.51011 789.79266 C 73.84337 785.19666 75.39915 780.25977 79.38396 778.1009 C 77.397064 774.9435 74.08163 774.8291 71.32952 773.6088 Z"/>
            <path id="path3084-8" fill="#000000" stroke="#000000" stroke-width="0.755906" d="M 96.20695 782.94336 C 95.48785 775.38495 95.72674 767.89703 97.547386 760.52625 L 99.50991 759.6013 L 106.140945 765.87805 C 106.12905 771.0815 104.9786 776.2101 106.53079 781.5174 Z"/>
            <path id="path3088-93" fill="#000000" stroke="#000000" stroke-width="0.755906" d="M 130.52554 761.86676 C 131.13316 768.118 131.17769 773.9381 134.74666 780.09894 C 130.27219 777.2622 126.21087 774.0001 123.22528 769.6389 C 124.63233 766.16016 128.1246 764.58673 130.52554 761.86676 Z"/>
            <path id="path3086-4" fill="#131f67" stroke="#131f67" stroke-width="0.756" d="M 105.93543 781.87274 C 109.33119 775.13745 111.905426 768.21075 117.206955 761.9197 C 122.28206 761.12537 125.528 761.6633 130.55516 761.7483 C 125.35106 768.2275 120.03782 773.335 118.223465 781.8478 Z"/>
            <path id="path3072-4" fill="#131f67" stroke="#131f67" stroke-width="0.755906" d="M 89.900604 794.2765 C 99.157455 789.1269 108.87384 788.423 118.85449 790.27716 C 118.69812 788.479 118.43382 786.65137 119.06801 785.0693 C 108.63641 781.90283 98.12375 781.99365 88.38436 789.3076 C 89.41567 790.8914 89.78821 792.566 89.900536 794.2765 Z"/>
            <path id="path3090-6" fill="#d40000" stroke="#d40000" stroke-width="0.755906" d="M 97.64908 761.166 C 99.1879 766.47034 102.82785 770.4617 108.05612 773.45996 C 108.12602 769.1364 107.53914 764.9389 110.828476 759.99945 C 108.45684 758.3654 106.59525 757.98956 103.43428 757.75134 L 97.546524 760.52625 Z"/>
            <path id="path3074-06" fill="#d40000" stroke="#d40000" d="M 88.688446 789.18634 C 98.30739 785.2855 108.15396 784.144 118.74185 785.06134 C 118.49203 783.8247 118.92647 782.7391 119.6508 781.71716 C 108.38942 780.342 97.00679 780.6133 86.8032 786.3331 C 88.0161 787.01697 88.329155 788.1121 88.68867 789.1861 Z"/>
            <path id="path15561-1" fill="#ffffff" stroke="#131f67" stroke-width="0.755906" d="M 161.2505 817.04785 L 163.64162 817.1773 L 164.00029 816.27155 L 161.48962 816.27155 Z"/>
            <path id="path15563-8" fill="#ffffff" stroke="#131f67" stroke-width="0.755906" d="M 158.85347 822.17065 L 160.15565 821.89526 L 160.23225 820.6559 L 158.54704 820.7937 Z"/>
            <path id="path15565-4" fill="#ffffff" stroke="#131f67" stroke-width="0.755906" d="M 157.19308 826.4022 L 158.30823 826.9198 L 158.5472 825.7553 L 158.38788 825.10834 L 157.11343 825.4965 Z"/>
            <path id="path4558-9" fill="#ffffff" stroke="#000000" stroke-width="2.39093" d="M 112.888794 1001.58765 C 112.89379 1001.6197 112.916595 1001.906 112.78506 1002.105 C 112.65064 1002.3085 112.86826 1002.2676 112.86826 1002.2676 C 113.03224 1002.29663 112.97274 1001.9304 113.15777 1001.7316 Z"/>
            <g opacity="0.25">
                <path id="path4573-6" fill="#000000" stroke="#000000" stroke-width="0.755906" d="M 77.038445 1005.7432 C 79.60866 1008.8617 109.57269 1015.1881 115.19422 1012.03406 C 117.17972 1010.9422 118.64541 1008.9752 119.55529 1007.3717 L 119.17106 1009.42285 C 118.40681 1010.10254 118.20309 1011.94525 116.47001 1012.86115 C 115.06012 1013.484 112.61331 1013.7028 108.03516 1013.9339 C 102.040215 1012.8884 95.012024 1012.1026 89.13285 1011.30365 C 83.79467 1010.5781 79.71424 1009.7777 77.9685 1008.40454 C 77.20433 1007.7305 76.90963 1006.946 77.03884 1005.7433 Z"/>
            </g>
            <g filter="url(#filter4594-85)" opacity="0.13" transform="matrix(0.06684425 0 0 0.05564779 132.2288 956.64923)">
                <path id="path4586-3" fill="#ffffff" stroke="#000000" stroke-width="12.394" d="M -287 898.27 C -234.013 886.807 -253.898 912.57007 -216.954 905.4008 C -183.134 890.3158 -188.201 887.8087 -189.166 842.9368 C -194.2266 793.9828 -230.467 824.5868 -241.832 858.6458 C -257.412 891.4118 -265.078 890.5138 -287.001 898.2708 Z"/>
            </g>
            <g opacity="0.25">
                <path id="path4588-7" fill="#ffffff" stroke="#000000" stroke-width="0.755906" d="M 108.00117 1006.9062 C 106.30726 1007.0221 105.95807 1008.1177 105.79842 1009.2206 C 105.6381 1009.8835 105.2648 1010.1287 105.45202 1009.5312 C 105.64296 1008.13116 105.62523 1006.9295 107.62806 1006.7804 Z"/>
            </g>
            <g opacity="0.25">
                <path id="path4794-8" fill="#ffffff" stroke="#000000" stroke-width="0.755906" d="M 101.49993 1004.8737 C 99.298904 1005.14716 98.929955 1006.4954 98.83193 1007.5074 C 98.83963 1007.9534 98.61334 1008.1976 98.55788 1007.35474 C 98.73154 1005.5175 100.16573 1004.9496 101.09519 1004.6886 Z"/>
            </g>
            <path id="path9399-3-8-8" fill="#e2cf00" stroke="#131f67" stroke-width="0.755906" stroke-linejoin="round" d="M 115.15117 1001.3512 C 115.15117 1002.4684 114.17684 1003.374 112.97499 1003.374 C 111.77307 1003.374 110.79882 1002.4684 110.79882 1001.3512 C 110.79882 1000.234 111.77314 999.32837 112.97499 999.32837 C 114.17691 999.32837 115.15117 1000.23413 115.15117 1001.3512 Z"/>
            <g opacity="0.25">
                <path id="path4573-2-2" fill="#000000" stroke="#000000" stroke-width="0.755906" d="M 130.40471 1000.211 C 133.18196 1003.03687 162.96663 1006.9391 168.1793 1003.4736 C 170.02246 1002.2709 171.28279 1000.2603 172.03201 998.6421 L 171.8342 1000.65405 C 171.14716 1001.3678 171.10747 1003.16486 169.49548 1004.1789 C 168.17352 1004.8854 165.80482 1005.2779 161.35725 1005.8399 C 155.41727 1005.2722 148.49158 1005.0317 142.6853 1004.6937 C 137.41376 1004.387 133.36296 1003.9146 131.54121 1002.7158 C 130.73732 1002.1204 130.38202 1001.3834 130.40427 1000.2108 Z"/>
            </g>
            <g filter="url(#filter4594-8-6)" opacity="0.13" transform="matrix(0.06464209 -0.00494236 0.00476212 0.05381822 180.31767 949.0592)">
                <path id="path4586-4-9" fill="#ffffff" stroke="#000000" stroke-width="12.7727" d="M -287 898.27 C -234.013 886.807 -253.898 912.57007 -216.954 905.4008 C -183.134 890.3158 -188.201 887.8087 -189.166 842.9368 C -194.2266 793.9828 -230.467 824.5868 -241.832 858.6458 C -257.412 891.4118 -265.078 890.5138 -287.001 898.2708 Z"/>
            </g>
            <g opacity="0.25">
                <path id="path4588-6-1" fill="#ffffff" stroke="#000000" stroke-width="2.39093" d="M 161.18423 999.4574 C 159.55605 999.6948 159.31213 1000.7802 159.2521 1001.8586 C 159.15381 1002.5114 158.81375 1002.7762 158.9437 1002.1846 C 159.00848 1000.8165 158.8886 999.65564 160.81268 999.36346 Z"/>
            </g>
            <g opacity="0.25">
                <path id="path4794-6-3" fill="#ffffff" stroke="#000000" stroke-width="0.755906" d="M 154.72588 997.96844 C 152.62074 998.3956 152.37932 999.7268 152.37112 1000.7126 C 152.41663 1001.1433 152.2188 1001.3961 152.09303 1000.5853 C 152.10374 998.79584 153.44212 998.1405 154.31866 997.81934 Z"/>
            </g>
            <path id="path3082-2-5" fill="#d40000" stroke="#d40000" stroke-width="0.755906" d="M 138.89372 816.86316 C 136.95499 818.5481 138.09872 820.8599 137.88713 823.41223 C 139.2526 821.6487 140.35402 819.18945 142.63718 818.8141 C 141.77837 817.5496 140.04942 817.7505 138.89389 816.8631 Z"/>
            <path id="path3088-9-9" fill="#131f67" stroke="#131f67" stroke-width="0.755906" d="M 147.35547 817.9283 C 146.75806 820.9096 146.70952 821.5352 147.62526 824.8578 C 145.76945 822.9617 143.74564 821.00415 142.8643 818.5927 C 144.081 817.15955 145.74571 818.88086 147.35555 817.92834 Z"/>
            <path id="path3082-5-8" fill="#131f67" stroke="#131f67" stroke-width="0.755906" d="M 135.26894 814.9321 C 132.97511 816.31116 133.62442 817.8628 132.8836 820.33026 C 134.61859 818.7947 136.08128 817.2527 138.44902 817.20306 C 138.29877 815.5677 136.24417 815.9609 135.26878 814.93207 Z"/>
            <path id="path3082-5-5-4" fill="#d40000" stroke="#d40000" d="M 149.64728 816.81964 C 150.2907 817.66144 151.67693 818.0476 152.51067 821.06714 C 150.3267 818.7545 149.63644 819.4481 146.29941 818.33215 C 147.87616 817.2906 148.34605 817.4164 149.64728 816.8196 Z"/>
            <path id="path3074-0-0" fill="#d40000" stroke="#d40000" stroke-width="0.755906" d="M 146.67339 815.0879 C 142.7843 816.1375 143.76576 816.573 140.2996 814.2414 C 140.23201 814.7981 135.57452 814.6583 135.12239 815.0053 C 139.37119 818.9832 145.80188 820.53265 149.63208 816.8162 C 149.21199 816.37775 148.7007 816.86743 146.67355 815.08795 Z"/>
            <path id="path13374-7" fill="#ffffff" stroke="#000000" stroke-width="0.377953" d="M 148.4507 810.1851 C 147.68123 814.61664 145.14815 817.923 142.793 817.56964 C 140.43785 817.2163 139.15234 813.33746 139.92184 808.9057 C 140.69131 804.4741 143.2244 801.1679 145.57954 801.52124 C 147.9347 801.8745 149.2202 805.7533 148.4507 810.1851 Z"/>
            <path id="path584-7-6" fill="#ffffff" fill-rule="evenodd" stroke="#131f67" stroke-width="0.377953" d="M 143.92557 810.1825 C 143.49133 810.3979 143.38937 810.47675 143.12312 810.7472 C 143.02551 810.85236 142.8337 811.1035 142.76242 811.28064 C 142.69122 811.45776 142.61552 811.7189 142.59123 811.85956 C 142.50893 812.3362 142.62022 812.6596 142.80028 812.6759 C 142.96246 812.6829 143.19191 812.5589 143.55984 812.2544"/>
            <path id="path585-6-3" fill="#ffffff" fill-rule="evenodd" stroke="#131f67" stroke-width="0.377953" stroke-linejoin="bevel" d="M 144.2023 810.2296 C 144.5416 810.561 144.6117 810.6657 144.7729 811.00024 C 144.83002 811.1286 144.92703 811.42316 144.93475 811.6122 C 144.94275 811.80096 144.92575 812.071 144.90135 812.21155 C 144.81815 812.6881 144.60303 812.9626 144.42662 812.9254 C 144.27032 812.8845 144.09448 812.6997 143.8483 812.30316"/>
            <path id="path573-6-6" fill="#ffffff" stroke="#131f67" stroke-width="0.377953" stroke-linecap="round" stroke-linejoin="round" d="M 139.15877 808.5486 C 138.51523 807.7443 138.18959 806.4673 138.34 805.1634 C 138.50696 803.7269 139.55965 802.4334 140.90904 801.80853 C 142.41797 801.1253 144.72606 801.22 146.12328 801.4975 C 147.07735 801.6413 149.12297 802.42 149.78307 803.0518 C 150.94472 804.13873 151.4313 805.50714 151.23038 806.95337 C 151.05173 808.4096 150.20564 809.4122 149.28436 809.97906"/>
            <path id="path613-8-1" fill="#ffffff" stroke="#131f67" stroke-width="0.377953" d="M 139.6031 811.48303 C 139.77176 812.14716 139.95969 812.7983 139.87662 813.44037 C 139.65999 813.9358 139.5933 814.54877 139.6477 815.0531 C 139.70961 815.7434 140.26482 816.6343 140.91116 817.0004 C 141.5781 817.346 142.01018 817.4742 142.80167 817.5929"/>
            <path id="path611-1-5" fill="#ffffff" stroke="#131f67" stroke-width="0.377953" d="M 140.24622 811.86707 C 140.38727 812.396 140.42484 812.59454 140.50285 813.1123 C 140.56316 813.58887 140.56615 813.8748 140.53986 814.53534"/>
            <path id="path580-4-4" fill="#ffffff" stroke="#131f67" stroke-width="0.377953" stroke-linejoin="round" d="M 139.90712 804.5018 C 139.55424 804.70685 139.5276 805.09076 139.48535 805.6632 C 139.45485 806.0984 139.67586 806.5644 139.62335 806.9583 C 139.58804 807.80084 139.18182 808.58765 138.94083 809.2445 C 138.72105 810.00775 138.84473 810.71185 139.109 811.0169 C 139.37389 811.3184 139.75464 811.48395 140.15329 811.6657 C 140.51819 811.8155 140.6878 812.0062 140.94127 812.2491 C 141.22572 812.63934 141.25899 812.9319 141.19135 813.2756"/>
            <path id="path614-9-2" fill="#ffffff" stroke="#131f67" stroke-width="0.377953" d="M 147.86217 812.72217 C 147.47733 813.30316 147.07858 813.8663 146.94014 814.50006 C 146.97813 815.0336 146.83395 815.63495 146.6116 816.0978 C 146.31923 816.7349 145.4864 817.3938 144.74893 817.5525 C 144.0115 817.711 143.55801 817.70636 142.76653 817.58765"/>
            <g id="g637-0-0" transform="matrix(0.03988828 0.00598395 -0.0064377 0.03707679 133.83463 798.7885)">
                <path id="path588-9-9" fill="#ffffff" stroke="#131f67" stroke-width="9.70242" d="M 236.52 349.73 C 251.238 358.75702 276.681 360.149 299.476 359.739 C 324.87 359.61 346.609 357.776 360.885 349.14203"/>
                <path id="path608-5-7" fill="#ffffff" stroke="#131f67" stroke-width="9.70242" d="M 241.67 373.28 C 257.908 383.48404 277.004 386.98798 298.996 386.158 C 321.838 385.602 339.347 383.68 354.997 372.986"/>
                <g id="g625-8-3">
                    <path id="path609-9-7" fill="#ffffff" stroke="#131f67" stroke-width="9.70242" d="M 229.89001 385.63998 C 247.257 406.588 271.498 410.225 299.063 410.955 C 328.582 412.032 358.229 400.31 365.882 385.641"/>
                    <g id="g615-0-2">
                        <path id="path589-0-6" fill="#ffffff" stroke="#131f67" stroke-width="9.70242" d="M 241.44002 354.26 L 241.024 395.472"/>
                        <path id="path592-0-0" fill="#ffffff" stroke="#131f67" stroke-width="9.70242" d="M 254.97 358.63 L 254.76198 402.75598"/>
                        <path id="path593-7-1" fill="#ffffff" stroke="#131f67" stroke-width="9.70242" d="M 269.96 360.50003 L 269.544 406.708"/>
                        <path id="path594-2-6" fill="#ffffff" stroke="#131f67" stroke-width="9.70242" d="M 283.49 361.54 L 283.281 408.372"/>
                        <path id="path595-5-5" fill="#ffffff" stroke="#131f67" stroke-width="9.70242" d="M 298.68 361.96 L 298.68 408.792"/>
                        <path id="path598-5-7" fill="#ffffff" stroke="#131f67" stroke-width="9.70242" d="M 313.25 361.75 L 313.458 408.58203"/>
                        <g transform="matrix(1 0 0 1 -0.41626 -0.00003052)">
                            <path id="path599-2-5" fill="#ffffff" stroke="#131f67" stroke-width="9.70242" d="M 326.78 360.50003 L 327.196 406.49997"/>
                        </g>
                        <path id="path604-1-4" fill="#ffffff" stroke="#131f67" stroke-width="9.70242" d="M 341.56 358 L 341.768 402.12598"/>
                        <path id="path606-4-1" fill="#ffffff" stroke="#131f67" stroke-width="9.70242" d="M 355.3 352.59 L 355.717 394.21802"/>
                    </g>
                </g>
            </g>
            <path id="path612-6-2" fill="#ffffff" stroke="#000000" stroke-width="0.377953" d="M 147.10603 812.86707 C 146.79315 813.3278 146.6903 813.5053 146.44102 813.97394 C 146.22244 814.4087 146.12288 814.67926 145.92432 815.3139"/>
            <path id="path586-7-0" fill="#131f67" fill-rule="evenodd" stroke="#131f67" stroke-width="0.377953" d="M 140.99844 807.6066 C 141.55055 807.5996 142.08063 807.6211 142.62735 807.6451 C 143.35889 807.58594 143.58363 808.3851 143.29251 808.9168 C 142.96234 809.37933 142.54323 809.7652 142.077 810.1281 C 141.7172 810.4015 141.34557 810.3986 141.01852 810.2385 C 140.75188 810.12463 140.52177 809.9265 140.30936 809.5145 C 140.24306 809.17725 140.16644 808.9969 140.08022 808.57745 C 140.02193 808.1939 140.3062 807.6755 140.99846 807.6066 Z"/>
            <path id="path581-6-0" fill="#ffffff" stroke="#131f67" stroke-width="0.377953" stroke-linejoin="round" d="M 149.97858 805.9908 C 150.24413 806.2887 150.1395 806.66077 149.98557 807.21655 C 149.8672 807.6386 149.49974 808.01636 149.41624 808.40564 C 149.16461 809.2157 149.28394 810.0813 149.29036 810.77527 C 149.24066 811.56396 148.88496 812.1962 148.53085 812.4085 C 148.1774 812.61725 147.58775 812.6693 147.32002 812.719 C 147.00916 812.77057 146.67818 812.8988 146.37193 813.0578 C 145.99446 813.3013 145.84196 813.5976 145.78983 813.9436"/>
            <path id="path587-8-1" fill="#131f67" fill-rule="evenodd" stroke="#131f67" stroke-width="0.377953" d="M 147.86217 808.6355 C 147.34042 808.46747 146.83 808.3329 146.30292 808.19574 C 145.62856 807.92566 145.14478 808.6185 145.24113 809.20844 C 145.398 809.7441 145.66524 810.23285 145.98495 810.7137 C 146.234 811.0783 146.58772 811.18427 146.95235 811.1279 C 147.24397 811.09784 147.52946 810.9769 147.87054 810.6481 C 148.04768 810.3473 148.18141 810.19836 148.40521 809.82556 C 148.5904 809.4786 148.49602 808.9033 147.86217 808.6355 Z"/>
            <path id="path3082-0-4" fill="#000000" stroke="#000000" stroke-width="0.755906" d="M 132.28336 793.269 C 130.57582 794.6906 130.78317 797.04333 130.61206 799.2116 C 131.81097 797.72003 133.00099 796.2155 135.02222 795.9093 C 134.58572 794.5436 133.42746 794.0868 132.3975 793.32587 Z"/>
            <path id="path3084-9-6" fill="#000000" stroke="#000000" stroke-width="0.755906" d="M 142.76797 800.0927 C 143.48772 797.2993 144.637 794.6474 146.49557 792.2288 L 147.52415 792.13544 L 149.69414 795.18616 C 148.9661 797.04785 147.72633 798.7446 147.70131 800.8328 Z"/>
            <path id="path3088-5-0" fill="#000000" stroke="#000000" stroke-width="0.755906" d="M 162.20541 796.4673 C 161.59113 798.9798 160.80536 801.44916 161.48709 804.2873 C 159.9462 802.6357 158.38411 800.5329 157.70218 798.46783 C 158.8005 797.2824 160.78345 797.23596 162.2055 796.4672 Z"/>
            <path id="path3086-3-7" fill="#131f67" stroke="#131f67" stroke-width="0.755906" d="M 147.26193 800.7049 C 149.8693 798.2801 151.43863 796.848 154.86658 794.86414 C 156.95447 795.13544 159.95377 795.732 162.28297 796.4316 C 158.87202 798.50854 155.132 798.92413 152.99104 802.31586 Z"/>
            <path id="path3072-1-1" fill="#131f67" stroke="#131f67" stroke-width="0.755906" d="M 138.41821 803.9004 C 143.18112 802.8556 147.48566 803.79144 151.5271 805.8669 C 151.72513 805.0695 151.88087 804.24567 152.38875 803.64264 C 148.34653 800.94214 143.78825 799.6397 138.49684 801.5587 C 138.70876 802.37494 138.62244 803.1465 138.41833 803.9004 Z"/>
            <path id="path3090-4-7" fill="#d40000" stroke="#d40000" stroke-width="0.755906" d="M 146.55646 792.38715 C 146.50876 794.4702 147.55028 796.3292 149.41537 798.0186 C 150.02905 796.4763 150.3407 794.902 152.43509 793.5168 C 151.62602 792.65216 150.86864 792.2987 149.52863 791.8421 L 146.5984 792.1457 Z"/>
            <path id="path3080-1-7" fill="#131f67" stroke="#131f67" stroke-width="0.755906" d="M 138.4611 800.13983 C 137.25868 797.4621 134.63649 795.3396 132.21295 793.24225 C 133.34111 792.1347 134.71754 792.0183 136.30142 791.64056 C 139.88551 794.0629 141.81305 796.9996 143.19281 800.10657 Z"/>
            <path id="path3074-7-7" fill="#d40000" stroke="#d40000" stroke-width="0.755906" d="M 138.64429 801.5419 C 143.37912 801.08325 147.80487 801.8464 152.2466 803.5944 C 152.3213 803.02795 152.6695 802.614 153.13358 802.2646 C 148.46812 800.2327 143.50684 798.8972 138.2505 800.06775 C 138.67387 800.51825 138.36227 800.9746 138.35904 801.4848 Z"/>
            <path id="path16597-7" fill="#131f67" stroke="#131f67" stroke-width="0.755906" d="M 120.01754 821.8084 L 120.57435 819.6577 L 118.62555 818.76776 L 120.01754 821.8084 Z"/>
            <path id="path9399-4-3" fill="#e2cf00" stroke="#131f67" stroke-width="0.755906" stroke-linejoin="round" d="M 165.71123 992.86694 C 165.88618 993.9613 165.07356 994.9802 163.89627 995.14294 C 162.71889 995.30554 161.6227 994.55023 161.44774 993.4559 C 161.27277 992.3615 162.0854 991.3426 163.2627 991.1799 C 164.44008 991.0174 165.53629 991.77264 165.71123 992.86694 Z"/>
            <path id="path3082-5-2-3" fill="#131f67" stroke="#131f67" stroke-width="0.755906" d="M 95.57165 821.7504 C 91.63544 824.5103 95.519516 826.6504 94.958206 829.9099 C 97.76246 827.24567 97.67336 826.2624 102.21908 825.0223 C 101.077 823.829 97.81243 822.4685 95.57168 821.7505 Z"/>
            <path id="path3082-5-81-5" fill="#131f67" stroke="#131f67" stroke-width="0.755906" d="M 102.30675 824.87335 C 98.70685 827.81775 101.53368 831.0098 101.093834 835.0744 C 103.64062 832.089 103.61131 830.2262 107.81841 829.30237 C 106.26973 827.22614 103.718895 825.8498 102.30639 824.87335 Z"/>
            <path id="path3088-9-8-9" fill="#131f67" stroke="#131f67" stroke-width="0.755906" d="M 121.424576 825.8914 C 122.69307 828.80084 123.80213 827.9386 125.41575 831.72797 C 121.7917 829.75525 118.69819 829.18176 114.84306 828.18353 C 116.49635 827.1367 120.2588 827.64355 121.424576 825.8915 Z"/>
            <path id="path9399-4-2-9" fill="#e2cf00" stroke="#131f67" stroke-opacity="0.941176" stroke-width="0.755906" stroke-linejoin="round" d="M 74.08693 789.91 C 74.26189 791.0044 73.44927 792.0233 72.271965 792.1859 C 71.09458 792.3486 69.99839 791.5932 69.82344 790.4989 C 69.648476 789.4045 70.46109 788.38556 71.6384 788.22296 C 72.81578 788.0603 73.91198 788.81573 74.08693 789.91 Z"/>
            <path id="path9399-4-2-4-8" fill="#e2cf00" stroke="#131f67" stroke-width="0.755906" stroke-linejoin="round" d="M 126.58792 832.0603 C 126.76288 833.15466 125.95026 834.1736 124.77296 834.3363 C 123.59557 834.4988 122.49938 833.7435 122.32443 832.6491 C 122.14947 831.5549 122.9621 830.53595 124.13939 830.3732 C 125.31677 830.21063 126.41297 830.96594 126.58792 832.0603 Z"/>
            <path id="path9399-4-2-4-9-1" fill="#e2cf00" stroke="#000000" stroke-width="0.755906" stroke-linejoin="round" d="M 103.70498 834.7775 C 103.87993 835.8719 103.06731 836.8908 101.89001 837.0534 C 100.71263 837.216 99.61643 836.4607 99.44148 835.3664 C 99.26652 834.272 100.07913 833.25305 101.25644 833.09033 C 102.43382 832.9278 103.53002 833.6831 103.70498 834.7775 Z"/>
            <path id="path9399-4-2-4-0-8" fill="#e2cf00" stroke="#000000" stroke-width="0.755906" stroke-linejoin="round" d="M 97.71822 830.3793 C 97.89318 831.4737 97.08057 832.4926 95.90326 832.6552 C 94.725876 832.8178 93.62968 832.0625 93.45473 830.96814 C 93.27978 829.8738 94.09238 828.85486 95.26969 828.69226 C 96.447075 828.5296 97.543274 829.2849 97.71822 830.3793 Z"/>
            <path id="path9399-4-2-4-2-2" fill="#e2cf00" stroke="#131f67" stroke-opacity="0.941176" stroke-width="0.755906" stroke-linejoin="round" d="M 134.90155 821.3221 C 135.0765 822.4163 134.26389 823.43524 133.0866 823.59796 C 131.90921 823.76056 130.813 823.00525 130.63806 821.9109 C 130.4631 820.8165 131.27573 819.7976 132.45302 819.6349 C 133.6304 819.4724 134.7266 820.22766 134.90155 821.3221 Z"/>
            <path id="path9399-4-2-4-21-6" fill="#e2cf00" stroke="#131f67" stroke-opacity="0.941176" stroke-width="0.755906" stroke-linejoin="round" d="M 132.93715 799.8425 C 133.1121 800.9369 132.29948 801.9558 131.1222 802.11847 C 129.9448 802.2811 128.84862 801.52576 128.67366 800.43146 C 128.4987 799.33704 129.31133 798.3181 130.48862 798.1555 C 131.666 797.99286 132.7622 798.7483 132.93715 799.8425 Z"/>
            <path id="path9399-4-2-4-5-6" fill="#e2cf00" stroke="#131f67" stroke-opacity="0.941176" stroke-width="0.755906" stroke-linejoin="round" d="M 151.17024 798.9368 C 151.3452 800.0312 150.53258 801.0501 149.35527 801.21277 C 148.17789 801.37537 147.0817 800.62006 146.90674 799.5257 C 146.73178 798.43134 147.5444 797.4124 148.7217 797.24976 C 149.8991 797.08716 150.99529 797.84247 151.17024 798.9368 Z"/>
            <path id="path9399-4-2-4-4-0" fill="#e2cf00" stroke="#131f67" stroke-opacity="0.941176" stroke-width="0.755906" stroke-linejoin="round" d="M 163.7011 804.8888 C 163.87605 805.9833 163.06345 807.0022 161.88612 807.1648 C 160.70876 807.3274 159.61255 806.57214 159.4376 805.4777 C 159.26263 804.38336 160.07526 803.36444 161.25256 803.20184 C 162.42995 803.0391 163.52614 803.79456 163.7011 804.8888 Z"/>
            <path id="path9399-4-2-4-44-3" fill="#e2cf00" stroke="#131f67" stroke-opacity="0.941176" stroke-width="0.755906" stroke-linejoin="round" d="M 154.70927 822.0973 C 154.88425 823.1917 154.07162 824.21063 152.89432 824.3732 C 151.71693 824.5359 150.62074 823.7806 150.44579 822.68616 C 150.27081 821.5918 151.08344 820.5729 152.26076 820.4103 C 153.43813 820.2476 154.53433 821.003 154.70927 822.0973 Z"/>
            <path id="path9399-4-2-4-25-8" fill="#e2cf00" stroke="#131f67" stroke-opacity="0.941176" stroke-width="0.755906" stroke-linejoin="round" d="M 149.37733 825.1949 C 149.55229 826.28925 148.73967 827.30817 147.56236 827.4708 C 146.38498 827.6334 145.28879 826.8781 145.11383 825.7838 C 144.93887 824.6894 145.7515 823.6705 146.9288 823.5079 C 148.10619 823.3452 149.20238 824.10065 149.37733 825.1949 Z"/>
            <path id="path9399-4-2-4-25-0-0" fill="#e2cf00" stroke="#131f67" stroke-opacity="0.941176" stroke-width="0.755906" stroke-linejoin="round" d="M 139.92169 824.53186 C 140.09665 825.6263 139.28403 826.6452 138.10674 826.8078 C 136.92935 826.97046 135.83315 826.21515 135.6582 825.1208 C 135.48325 824.0264 136.29585 823.0075 137.47316 822.84485 C 138.65054 822.6822 139.74673 823.43756 139.92169 824.53186 Z"/>
            <path id="path9399-4-2-4-0-2-1" fill="#e2cf00" stroke="#131f67" stroke-width="0.755906" stroke-linejoin="round" d="M 87.83385 823.65155 C 88.008804 824.7459 87.19619 825.76483 86.01889 825.9275 C 84.8415 826.09015 83.74531 825.3347 83.57036 824.2405 C 83.39539 823.14606 84.208015 822.12714 85.38532 821.9645 C 86.562706 821.8019 87.6589 822.5572 87.83385 823.65155 Z"/>
            <path id="path9399-4-2-4-0-1-2" fill="#e2cf00" stroke="#131f67" stroke-opacity="0.941176" stroke-width="0.755906" stroke-linejoin="round" d="M 110.52582 774.2236 C 110.70078 775.31793 109.88815 776.33685 108.71085 776.49945 C 107.53346 776.6621 106.43727 775.90686 106.26232 774.81244 C 106.08735 773.7181 106.89998 772.6991 108.07728 772.5365 C 109.25467 772.3739 110.35086 773.12915 110.52582 774.2236 Z"/>
            <path id="path9399-4-2-4-0-27-5" fill="#e2cf00" stroke="#131f67" stroke-opacity="0.941176" stroke-width="0.755906" stroke-linejoin="round" d="M 136.41772 779.9167 C 136.5927 781.0111 135.78008 782.03 134.60277 782.19275 C 133.42538 782.3552 132.3292 781.6 132.15424 780.50555 C 131.97926 779.4113 132.7919 778.3923 133.9692 778.2297 C 135.14658 778.0671 136.24278 778.8224 136.41772 779.9167 Z"/>
            <path id="path4452-1" fill="none" stroke="#000000" stroke-width="0.566929" d="M 109.61357 830.6869 L 108.8095 823.6253"/>
            <path id="path3188" fill="#131f67" stroke="#131f67" stroke-opacity="0.94118" stroke-width="0.755906" d="M 95.93323 816.29834 C 95.78447 816.70294 95.233215 819.2164 95.87252 821.3447 C 95.87252 821.3447 98.67077 822.8365 100.12892 823.608 C 103.52448 825.40454 109.53301 829.89374 109.53301 829.89374 L 110.667496 829.2647 L 110.31233 822.6314 L 108.41529 823.1644 C 104.0705 822.15857 99.640175 818.83813 95.933395 816.29834 Z"/>
            <path id="path15558" fill="#000000" stroke="#131f67" stroke-width="0.755906" d="M 109.84446 822.2095 L 106.77005 821.25134 C 102.76777 818.7535 103.49746 819.4157 101.30815 817.9637 L 98.42909 815.17755 L 95.87906 814.77844 L 95.78908 815.9054 L 101.39813 820.0634 L 108.14577 823.10376 Z"/>
            <path id="path3086-4-2" fill="#131f67" stroke="#131f67" stroke-width="0.756" d="M 96.80919 781.42847 C 92.2842 775.17706 87.77417 773.574 80.69814 767.9281 C 75.78436 768.26294 75.60344 770.8982 71.705505 773.2415 C 76.909615 779.7207 84.31998 779.5048 86.45696 785.9204 Z"/>
        </g>
    </g>
</svg>
