<svg width="234" height="333.00003" xmlns="http://www.w3.org/2000/svg">
    <g id="layer1" transform="matrix(1 0 0 1 0 -719.3622)">
        <g id="g922">
            <path id="rect4266" fill="#ffffff" stroke="#808080" stroke-width="0.7559055" d="M 9.297138 719.7401 L 224.70288 719.7401 C 229.6288 719.7401 233.62206 723.74524 233.62206 728.68585 L 233.62206 1043.0385 C 233.62207 1045.411 232.68237 1047.6864 231.0097 1049.3641 C 229.33702 1051.0417 227.06839 1051.9843 224.70288 1051.9843 L 9.297138 1051.9843 C 6.9316134 1051.9843 4.662975 1051.0417 2.9903018 1049.3641 C 1.3176281 1047.6864 0.3779376 1045.411 0.37795275 1043.0385 L 0.37795275 728.68585 C 0.37795484 723.74524 4.3712096 719.7401 9.297138 719.7401 Z"/>
            <g id="g4233" transform="matrix(0.07348588 0 0 0.07370838 -248.0173 933.60065)"/>
            <g id="g4211" transform="matrix(0.07348588 0 0 0.07370838 -248.01726 933.60065)"/>
            <g id="g4227" transform="matrix(0.07348588 0 0 0.07370838 -248.0173 933.60065)"/>
            <path id="path2985-3-2" fill="#000000" stroke="none" d="M 45.70946 880.82446 C 45.70946 879.1564 45.61708 877.9515 45.61708 876.28326 C 49.065784 876.28326 52.80252 876.28326 56.2512 876.28326 C 56.2512 872.3178 56.2512 872.03735 56.2512 868.07184 C 49.519413 868.28876 42.23382 868.7887 35.9295 866.01086 C 31.049646 863.3327 29.703152 857.09827 30.687014 851.97284 C 31.529135 846.19025 34.743835 841.05493 38.937595 837.0999 C 44.39492 831.26263 51.354813 827.32214 58.621044 824.1515 C 66.03811 827.3757 73.15144 831.4451 78.67798 837.4364 C 83.65587 842.1143 86.97254 848.7258 86.87064 855.6482 C 86.978615 860.64465 83.883575 865.9246 78.77849 867.0149 C 73.067375 868.59644 67.28707 868.31586 61.424263 868.07184 C 61.424263 872.03735 61.424263 872.3178 61.424263 876.28326 C 64.87294 876.28326 68.033615 876.28326 71.48232 876.28326 C 71.48232 877.9515 71.57472 879.1564 71.57472 880.82446 C 63.677856 880.7689 54.23885 880.7689 45.709454 880.82446 Z"/>
            <g id="text3216-7" transform="matrix(0.7218474 0 0 1.3853343 0 0)">
                <path id="path889" fill="#000000" stroke="none" d="M 23.835468 544.6304 Q 23.835468 544.984 23.708157 545.2528 Q 23.36866 545.36597 22.972582 545.36597 L 12.533062 545.36597 Q 11.599447 545.36597 11.599447 544.3758 Q 11.599447 544.206 11.627738 543.83826 Q 11.656027 543.4563 11.656027 543.25824 Q 11.656027 542.32465 12.476476 542.32465 L 15.998752 542.32465 L 15.998752 529.254 L 11.698464 529.254 Q 10.79314 529.254 10.79314 528.26385 Q 10.79314 528.05164 10.83558 527.58484 Q 10.89216 527.1039 10.89216 526.8634 Q 10.89216 526.38245 11.797484 526.38245 Q 12.052106 526.38245 12.759391 526.439 Q 13.466675 526.48145 13.862755 526.48145 Q 16.126064 526.48145 16.607018 524.91125 L 19.308846 524.91125 L 19.308846 542.32465 Q 20.256605 542.32465 21.345823 542.268 Q 22.449184 542.1973 22.661373 542.1973 Q 23.481823 542.1973 23.679861 542.63586 Q 23.835464 543.01776 23.835464 544.6304 Z"/>
            </g>
            <g id="text3990-14" transform="matrix(0.6991885 0 0 1.4302295 0 0)">
                <path id="path886" fill="#000000" stroke="none" d="M 38.072906 518.5768 Q 38.072906 528.2467 31.387678 528.2467 Q 24.607912 528.2467 24.607912 518.52277 Q 24.607912 508.43414 31.522734 508.43414 Q 38.072906 508.43414 38.072906 518.5768 Z M 34.561474 518.29315 Q 34.561474 511.36484 31.333654 511.36484 Q 29.442884 511.36484 28.646063 514.10645 Q 28.146358 515.83514 28.146358 518.41473 Q 28.146358 525.3431 31.333654 525.3431 Q 33.237934 525.3431 34.048264 522.6149 Q 34.561474 520.8592 34.561474 518.29315 Z"/>
            </g>
            <g id="text3216-7-2" transform="matrix(-0.7218474 0 0 -1.3853343 0 0)">
                <path id="path895" fill="#000000" stroke="none" d="M -300.33276 -734.2844 Q -300.33276 -733.9308 -300.46008 -733.662 Q -300.79956 -733.54877 -301.19565 -733.54877 L -311.63516 -733.54877 Q -312.5688 -733.54877 -312.5688 -734.53906 Q -312.5688 -734.7088 -312.54047 -735.07654 Q -312.51218 -735.4585 -312.51218 -735.6566 Q -312.51218 -736.59015 -311.69174 -736.59015 L -308.16946 -736.59015 L -308.16946 -749.6607 L -312.46973 -749.6607 Q -313.37506 -749.6607 -313.37506 -750.6509 Q -313.37506 -750.86316 -313.33267 -751.32996 Q -313.27606 -751.8109 -313.27606 -752.0514 Q -313.27606 -752.53235 -312.37073 -752.53235 Q -312.11612 -752.53235 -311.40884 -752.47577 Q -310.70154 -752.4333 -310.30548 -752.4333 Q -308.04214 -752.4333 -307.56122 -754.00354 L -304.85938 -754.00354 L -304.85938 -736.59015 Q -303.91162 -736.59015 -302.8224 -736.6467 Q -301.71906 -736.71747 -301.50684 -736.71747 Q -300.6864 -736.71747 -300.48837 -736.27893 Q -300.33276 -735.89703 -300.33276 -734.2844 Z"/>
            </g>
            <g id="text3990-14-6" transform="matrix(-0.6991885 0 0 -1.4302295 0 0)">
                <path id="path892" fill="#000000" stroke="none" d="M -296.60083 -720.19244 Q -296.60083 -710.52246 -303.28604 -710.52246 Q -310.06583 -710.52246 -310.06583 -720.24646 Q -310.06583 -730.3351 -303.151 -730.3351 Q -296.60083 -730.3351 -296.60083 -720.19244 Z M -300.11227 -720.4761 Q -300.11227 -727.40436 -303.34006 -727.40436 Q -305.23083 -727.40436 -306.02768 -724.6628 Q -306.52737 -722.9341 -306.52737 -720.3545 Q -306.52737 -713.4262 -303.34006 -713.4262 Q -301.4358 -713.4262 -300.62546 -716.1543 Q -300.11227 -717.91003 -300.11227 -720.4761 Z"/>
            </g>
            <path id="path2985-3-1-7" fill="#000000" stroke="none" d="M 45.70946 890.8997 C 45.70946 892.56793 45.61708 893.7728 45.61708 895.44104 C 49.065784 895.44104 52.80252 895.44104 56.2512 895.44104 C 56.2512 899.4065 56.2512 899.68695 56.2512 903.65247 C 49.519413 903.43555 42.23382 902.9356 35.9295 905.71344 C 31.049646 908.3916 29.703152 914.6261 30.687014 919.75146 C 31.529135 925.53406 34.743835 930.6694 38.937595 934.6244 C 44.39492 940.4617 51.354813 944.40216 58.621044 947.5729 C 66.03811 944.34863 73.15144 940.2792 78.67798 934.28796 C 83.65587 929.61 86.97254 922.99835 86.87064 916.0761 C 86.978615 911.07965 83.883575 905.7997 78.77849 904.7094 C 73.067375 903.1278 67.28707 903.40845 61.424263 903.65247 C 61.424263 899.68695 61.424263 899.4065 61.424263 895.44104 C 64.87294 895.44104 68.033615 895.44104 71.482315 895.44104 C 71.482315 893.7728 71.574715 892.56793 71.574715 890.8997 C 63.677856 890.9554 54.23885 890.9554 45.70946 890.8997 Z"/>
            <path id="path2985-3" fill="#000000" stroke="none" d="M 162.45012 880.82446 C 162.45012 879.1564 162.35773 877.9515 162.35773 876.28326 C 165.80643 876.28326 169.54317 876.28326 172.99184 876.28326 C 172.99184 872.3178 172.99184 872.03735 172.99184 868.07184 C 166.26006 868.28876 158.97446 868.7887 152.67014 866.01086 C 147.79028 863.3327 146.44379 857.09827 147.42766 851.97284 C 148.26978 846.19025 151.48448 841.05493 155.67824 837.0999 C 161.13556 831.26263 168.09544 827.32214 175.3617 824.1515 C 182.77876 827.3757 189.89207 831.4451 195.41862 837.4364 C 200.39651 842.1143 203.71318 848.7258 203.61128 855.6482 C 203.71925 860.64465 200.62424 865.9246 195.51913 867.0149 C 189.808 868.59644 184.02771 868.31586 178.1649 868.07184 C 178.1649 872.03735 178.1649 872.3178 178.1649 876.28326 C 181.61359 876.28326 184.77425 876.28326 188.22296 876.28326 C 188.22296 877.9515 188.31537 879.1564 188.31537 880.82446 C 180.4185 880.7689 170.97949 880.7689 162.4501 880.82446 Z"/>
            <path id="path2985-3-1" fill="#000000" stroke="none" d="M 162.45012 814.07623 C 162.45012 812.408 162.35773 811.2032 162.35773 809.535 C 165.80643 809.535 169.54317 809.535 172.99184 809.535 C 172.99184 805.5695 172.99184 805.289 172.99184 801.3236 C 166.26006 801.5405 158.97446 802.0404 152.67014 799.2626 C 147.79028 796.58435 146.44379 790.3499 147.42766 785.2246 C 148.26978 779.44196 151.48448 774.30664 155.67824 770.3516 C 161.13556 764.5143 168.09544 760.5737 175.3617 757.40314 C 182.77876 760.6274 189.89207 764.6969 195.41862 770.6881 C 200.39651 775.366 203.71318 781.9776 203.61128 788.89984 C 203.71925 793.8963 200.62424 799.1763 195.51913 800.26654 C 189.808 801.84814 184.02771 801.56757 178.1649 801.3236 C 178.1649 805.289 178.1649 805.5695 178.1649 809.535 C 181.61359 809.535 184.77425 809.535 188.22296 809.535 C 188.22296 811.2032 188.31537 812.408 188.31537 814.07623 C 180.4185 814.0206 170.97949 814.0206 162.4501 814.07623 Z"/>
            <path id="path2985-3-3" fill="#000000" stroke="none" d="M 45.70946 814.07623 C 45.70946 812.408 45.61708 811.2032 45.61708 809.535 C 49.065784 809.535 52.80252 809.535 56.2512 809.535 C 56.2512 805.5695 56.2512 805.289 56.2512 801.3236 C 49.519413 801.5405 42.23382 802.0404 35.9295 799.2626 C 31.049646 796.58435 29.703152 790.3499 30.687014 785.2246 C 31.529135 779.44196 34.743835 774.30664 38.937595 770.3516 C 44.39492 764.5143 51.354813 760.5737 58.621044 757.40314 C 66.03811 760.6274 73.15144 764.6969 78.67798 770.6881 C 83.65587 775.366 86.97254 781.9776 86.87064 788.89984 C 86.978615 793.8963 83.883575 799.1763 78.77849 800.26654 C 73.067375 801.84814 67.28707 801.56757 61.424263 801.3236 C 61.424263 805.289 61.424263 805.5695 61.424263 809.535 C 64.87294 809.535 68.033615 809.535 71.482315 809.535 C 71.482315 811.2032 71.574715 812.408 71.574715 814.07623 C 63.677856 814.0206 54.23885 814.0206 45.70946 814.07623 Z"/>
            <path id="path2985-3-34" fill="#000000" stroke="none" d="M 104.07979 847.4504 C 104.07979 845.78217 103.98738 844.57733 103.98738 842.9091 C 107.4361 842.9091 111.17284 842.9091 114.62152 842.9091 C 114.62152 838.9436 114.62152 838.6632 114.62152 834.6977 C 107.88972 834.9146 100.60414 835.4146 94.29981 832.63666 C 89.41996 829.95856 88.07346 823.72406 89.057335 818.5987 C 89.899445 812.81604 93.11415 807.68085 97.30791 803.7258 C 102.76523 797.8885 109.72512 793.94794 116.99136 790.7773 C 124.40841 794.00146 131.52176 798.07104 137.0483 804.06226 C 142.02618 808.74023 145.34285 815.35175 145.24097 822.27405 C 145.34892 827.2705 142.25389 832.5505 137.1488 833.64075 C 131.43768 835.22235 125.65739 834.9418 119.79458 834.6977 C 119.79458 838.6632 119.79458 838.9436 119.79458 842.9091 C 123.24324 842.9091 126.40393 842.9091 129.85263 842.9091 C 129.85263 844.57733 129.94502 845.78217 129.94502 847.4504 C 122.04817 847.39484 112.60915 847.39484 104.07977 847.4504 Z"/>
            <path id="path2985-3-11" fill="#000000" stroke="none" d="M 12.898825 780.7021 C 12.898825 780.14606 12.868036 779.7444 12.868036 779.1884 C 14.017601 779.1884 15.263182 779.1884 16.412743 779.1884 C 16.412743 777.8665 16.412743 777.77295 16.412743 776.4512 C 14.168812 776.52356 11.740283 776.6902 9.638841 775.7642 C 8.012223 774.87146 7.563393 772.7933 7.8913465 771.08484 C 8.172051 769.15735 9.243621 767.44556 10.64154 766.1272 C 12.460648 764.18146 14.78061 762.868 17.20269 761.81104 C 19.675045 762.8858 22.046156 764.2423 23.888336 766.2394 C 25.547632 767.7987 26.653187 770.00256 26.619223 772.31 C 26.655212 773.97546 25.623537 775.7355 23.921839 776.0989 C 22.018133 776.62604 20.091366 776.53253 18.137093 776.4512 C 18.137093 777.77295 18.137093 777.8665 18.137093 779.1884 C 19.286654 779.1884 20.340212 779.1884 21.489779 779.1884 C 21.489779 779.7444 21.52057 780.14606 21.52057 780.7021 C 18.888287 780.6836 15.741945 780.6836 12.898819 780.7021 Z"/>
            <path id="path2985-3-38" fill="#000000" stroke="none" d="M 45.70946 957.6481 C 45.70946 959.3163 45.61708 960.5211 45.61708 962.1894 C 49.065784 962.1894 52.80252 962.1894 56.2512 962.1894 C 56.2512 966.1548 56.2512 966.4353 56.2512 970.40076 C 49.519413 970.1839 42.23382 969.6839 35.9295 972.46173 C 31.049646 975.13995 29.703152 981.3744 30.687014 986.4998 C 31.529135 992.28235 34.743835 997.4177 38.937595 1001.37274 C 44.39492 1007.21 51.354813 1011.1506 58.621044 1014.3212 C 66.03811 1011.0969 73.15144 1007.02747 78.67798 1001.0362 C 83.65587 996.35834 86.97254 989.7467 86.87064 982.82446 C 86.978615 977.828 83.883575 972.54803 78.77849 971.45776 C 73.067375 969.8762 67.28707 970.1568 61.424263 970.40076 C 61.424263 966.4353 61.424263 966.1548 61.424263 962.1894 C 64.87294 962.1894 68.033615 962.1894 71.482315 962.1894 C 71.482315 960.5211 71.574715 959.3163 71.574715 957.6481 C 63.677856 957.7037 54.23885 957.7037 45.70946 957.6481 Z"/>
            <path id="path2985-3-2-4" fill="#000000" stroke="none" d="M 104.07979 924.2739 C 104.07979 925.9422 103.98738 927.147 103.98738 928.8152 C 107.4361 928.8152 111.17284 928.8152 114.62152 928.8152 C 114.62152 932.7806 114.62152 933.06116 114.62152 937.0266 C 107.88972 936.8097 100.60414 936.3097 94.29981 939.08765 C 89.41996 941.7658 88.07346 948.0003 89.057335 953.1257 C 89.899445 958.90826 93.11415 964.0435 97.30791 967.99854 C 102.76523 973.8359 109.72512 977.77637 116.99136 980.947 C 124.40841 977.72284 131.52176 973.65326 137.04828 967.6622 C 142.02617 962.9841 145.34286 956.37256 145.24097 949.4503 C 145.34892 944.4538 142.25388 939.1739 137.1488 938.08356 C 131.43768 936.502 125.65739 936.78253 119.79458 937.0266 C 119.79458 933.06116 119.79458 932.7806 119.79458 928.8152 C 123.24324 928.8152 126.40392 928.8152 129.85263 928.8152 C 129.85263 927.147 129.94502 925.9422 129.94502 924.2739 C 122.04817 924.32947 112.60915 924.32947 104.07977 924.2739 Z"/>
            <path id="path2985-3-3-2" fill="#000000" stroke="none" d="M 162.4501 957.6481 C 162.4501 959.3163 162.35771 960.5211 162.35771 962.1894 C 165.8064 962.1894 169.54314 962.1894 172.99182 962.1894 C 172.99182 966.1548 172.99182 966.4353 172.99182 970.40076 C 166.26003 970.1839 158.97443 969.6839 152.67012 972.46173 C 147.79027 975.13995 146.44376 981.3744 147.42764 986.4998 C 148.26974 992.28235 151.48445 997.4177 155.67822 1001.37274 C 161.13554 1007.21 168.09541 1011.1505 175.3617 1014.3212 C 182.77876 1011.0969 189.89207 1007.02747 195.41861 1001.0362 C 200.3965 996.35834 203.71317 989.7467 203.61125 982.82446 C 203.71925 977.82794 200.6242 972.54803 195.51913 971.45776 C 189.808 969.8762 184.0277 970.1568 178.16489 970.40076 C 178.16489 966.4353 178.16489 966.1548 178.16489 962.1894 C 181.61354 962.1894 184.77425 962.1894 188.22293 962.1894 C 188.22293 960.5211 188.31532 959.3163 188.31532 957.6481 C 180.41846 957.7037 170.97943 957.7037 162.45004 957.6481 Z"/>
            <path id="path2985-3-34-7" fill="#000000" stroke="none" d="M 162.45009 890.8997 C 162.45009 892.56793 162.35779 893.7728 162.35779 895.44104 C 165.80647 895.44104 169.54321 895.44104 172.9919 895.44104 C 172.9919 899.4065 172.9919 899.68695 172.9919 903.65247 C 166.2601 903.43555 158.9745 902.9356 152.6702 905.71344 C 147.79034 908.3916 146.44386 914.6261 147.42772 919.75146 C 148.26984 925.53406 151.48453 930.6694 155.67831 934.6244 C 161.13562 940.4617 168.0955 944.40216 175.36176 947.5729 C 182.7788 944.34863 189.89214 940.2792 195.41869 934.28796 C 200.39658 929.60986 203.71323 922.99835 203.61131 916.0761 C 203.71931 911.07965 200.6243 905.7997 195.5192 904.7094 C 189.80806 903.1278 184.02777 903.40845 178.16495 903.65247 C 178.16495 899.68695 178.16495 899.4065 178.16495 895.44104 C 181.61363 895.44104 184.77432 895.44104 188.22302 895.44104 C 188.22302 893.7728 188.31543 892.56793 188.31543 890.8997 C 180.41853 890.95526 170.97952 890.95526 162.45015 890.8997 Z"/>
            <path id="path2985-3-11-7" fill="#000000" stroke="none" d="M 212.48766 991.0222 C 212.48766 991.57825 212.45686 991.9799 212.45686 992.536 C 213.60641 992.536 214.85199 992.536 216.00157 992.536 C 216.00157 993.8578 216.00157 993.95135 216.00157 995.27313 C 213.75764 995.2008 211.32909 995.0342 209.22765 995.9601 C 207.60104 996.85284 207.15224 998.931 207.48016 1000.6395 C 207.76085 1002.567 208.83244 1004.2787 210.23035 1005.5971 C 212.04945 1007.5429 214.36943 1008.8563 216.7915 1009.9132 C 219.26387 1008.8385 221.63496 1007.482 223.47717 1005.4849 C 225.13646 1003.9256 226.24203 1001.7218 226.20804 999.4143 C 226.24403 997.74884 225.21234 995.98883 223.51067 995.6254 C 221.60693 995.09827 219.68019 995.1918 217.7259 995.27313 C 217.7259 993.95135 217.7259 993.8578 217.7259 992.536 C 218.87546 992.536 219.92905 992.536 221.07858 992.536 C 221.07858 991.9799 221.10928 991.57825 221.10928 991.0222 C 218.47699 991.0408 215.33067 991.0408 212.48753 991.0222 Z"/>
        </g>
    </g>
</svg>
