<svg width="234" height="333.00003" xmlns="http://www.w3.org/2000/svg">
    <g id="layer1" transform="matrix(1 0 0 1 0 -719.3622)">
        <g id="g917">
            <path id="rect4266" fill="#ffffff" stroke="#808080" stroke-width="0.7559055" d="M 9.297138 719.7401 L 224.70288 719.7401 C 229.6288 719.7401 233.62206 723.74524 233.62206 728.68585 L 233.62206 1043.0385 C 233.62207 1045.411 232.68237 1047.6864 231.0097 1049.3641 C 229.33702 1051.0417 227.06839 1051.9843 224.70288 1051.9843 L 9.297138 1051.9843 C 6.9316134 1051.9843 4.662975 1051.0417 2.9903018 1049.3641 C 1.3176281 1047.6864 0.3779376 1045.411 0.37795275 1043.0385 L 0.37795275 728.68585 C 0.37795484 723.74524 4.3712096 719.7401 9.297138 719.7401 Z"/>
            <g id="g4233" transform="matrix(0.07348588 0 0 0.07370838 -248.0173 933.60065)"/>
            <g id="g4211" transform="matrix(0.07348588 0 0 0.07370838 -248.01726 933.60065)"/>
            <g id="g4227" transform="matrix(0.07348588 0 0 0.07370838 -248.0173 933.60065)"/>
            <path id="path2985-3-11" fill="#000000" stroke="none" d="M 12.898825 780.7021 C 12.898825 780.14606 12.868036 779.7444 12.868036 779.1883 C 14.017601 779.1883 15.263182 779.1883 16.412743 779.1883 C 16.412743 777.8665 16.412743 777.77295 16.412743 776.4512 C 14.168812 776.52356 11.740283 776.6902 9.638841 775.7642 C 8.012223 774.87146 7.563393 772.7933 7.8913465 771.08484 C 8.172051 769.1573 9.243621 767.44556 10.64154 766.1272 C 12.460648 764.18146 14.78061 762.868 17.20269 761.81104 C 19.675045 762.8858 22.046156 764.2423 23.888336 766.2394 C 25.547632 767.7987 26.653187 770.00256 26.619223 772.31 C 26.655212 773.97546 25.623537 775.7355 23.921839 776.0989 C 22.018133 776.6261 20.091366 776.53253 18.137093 776.4512 C 18.137093 777.77295 18.137093 777.8665 18.137093 779.1883 C 19.286654 779.1883 20.340212 779.1883 21.489779 779.1883 C 21.489779 779.7444 21.52057 780.14606 21.52057 780.7021 C 18.888287 780.68353 15.741945 780.68353 12.898819 780.7021 Z"/>
            <path id="path2985-3-11-7" fill="#000000" stroke="none" d="M 212.48766 991.0222 C 212.48766 991.57825 212.45686 991.9799 212.45686 992.536 C 213.60641 992.536 214.85199 992.536 216.00157 992.536 C 216.00157 993.8578 216.00157 993.95135 216.00157 995.27313 C 213.75764 995.2008 211.32909 995.0342 209.22765 995.9601 C 207.60104 996.85284 207.15224 998.931 207.48016 1000.6395 C 207.76085 1002.567 208.83244 1004.2787 210.23035 1005.5971 C 212.04945 1007.5429 214.36943 1008.8563 216.7915 1009.9132 C 219.26387 1008.8385 221.63496 1007.482 223.47717 1005.4849 C 225.13646 1003.9256 226.24203 1001.7218 226.20804 999.4143 C 226.24403 997.74884 225.21234 995.98883 223.51067 995.6254 C 221.60693 995.09827 219.68019 995.1918 217.7259 995.27313 C 217.7259 993.95135 217.7259 993.8578 217.7259 992.536 C 218.87546 992.536 219.92905 992.536 221.07858 992.536 C 221.07858 991.9799 221.10928 991.57825 221.10928 991.0222 C 218.47699 991.0408 215.33067 991.0408 212.48753 991.0222 Z"/>
            <path id="path2985-3-3" fill="#000000" stroke="none" d="M 104.07979 814.07623 C 104.07979 812.408 103.98738 811.2032 103.98738 809.5349 C 107.4361 809.5349 111.17284 809.5349 114.62152 809.5349 C 114.62152 805.5695 114.62152 805.289 114.62152 801.3236 C 107.88972 801.5405 100.60414 802.0404 94.29981 799.2626 C 89.41996 796.58435 88.07346 790.3499 89.057335 785.2245 C 89.899445 779.44196 93.11415 774.30664 97.30791 770.3516 C 102.76523 764.5143 109.72512 760.5737 116.99136 757.40314 C 124.40841 760.6274 131.52176 764.6969 137.0483 770.6881 C 142.02618 775.366 145.34285 781.9776 145.24095 788.89984 C 145.34892 793.89636 142.25389 799.1763 137.1488 800.26654 C 131.43768 801.84814 125.65739 801.56757 119.79458 801.3236 C 119.79458 805.289 119.79458 805.5695 119.79458 809.5349 C 123.24324 809.5349 126.40392 809.5349 129.85263 809.5349 C 129.85263 811.2032 129.94502 812.408 129.94502 814.07623 C 122.04817 814.0206 112.60915 814.0206 104.07977 814.07623 Z"/>
            <path id="path2985-3-3-5-4-3" fill="#000000" stroke="none" d="M 104.07979 914.19867 C 104.07979 912.53046 103.98738 911.3256 103.98738 909.65735 C 107.4361 909.65735 111.17284 909.65735 114.62151 909.65735 C 114.62151 905.69196 114.62151 905.41144 114.62151 901.446 C 107.88972 901.6629 100.604126 902.16284 94.299805 899.3851 C 89.41995 896.7069 88.07345 890.4725 89.05732 885.347 C 89.89944 879.56433 93.11414 874.42914 97.30791 870.47406 C 102.76523 864.6368 109.72512 860.6962 116.99135 857.52563 C 124.40841 860.7498 131.52174 864.81934 137.04828 870.8106 C 142.02617 875.48846 145.34283 882.10004 145.24095 889.0223 C 145.3489 894.01874 142.25388 899.29877 137.14879 900.38904 C 131.43768 901.9706 125.65737 901.69 119.79456 901.446 C 119.79456 905.41144 119.79456 905.69196 119.79456 909.65735 C 123.24324 909.65735 126.40392 909.65735 129.85262 909.65735 C 129.85262 911.3256 129.94502 912.53046 129.94502 914.19867 C 122.04816 914.1431 112.60915 914.1431 104.07976 914.19867 Z"/>
            <path id="path2985-3-38-2" fill="#000000" stroke="none" d="M 104.07979 957.6481 C 104.07979 959.3163 103.98738 960.5211 103.98738 962.1894 C 107.4361 962.1894 111.17284 962.1894 114.62152 962.1894 C 114.62152 966.1548 114.62152 966.4353 114.62152 970.40076 C 107.88972 970.1839 100.60414 969.6839 94.29981 972.46173 C 89.41996 975.13995 88.07346 981.3744 89.057335 986.4998 C 89.899445 992.28235 93.11415 997.4177 97.30791 1001.37274 C 102.76523 1007.21 109.72512 1011.1506 116.99136 1014.3212 C 124.40841 1011.0969 131.52176 1007.02747 137.0483 1001.0362 C 142.02618 996.35834 145.34285 989.7467 145.24095 982.82446 C 145.34892 977.828 142.25389 972.54803 137.1488 971.45776 C 131.43768 969.8762 125.65739 970.1568 119.79458 970.40076 C 119.79458 966.4353 119.79458 966.1548 119.79458 962.1894 C 123.24324 962.1894 126.40392 962.1894 129.85263 962.1894 C 129.85263 960.5211 129.94502 959.3163 129.94502 957.6481 C 122.04817 957.7037 112.60915 957.7037 104.07977 957.6481 Z"/>
            <g id="text3755-0" transform="matrix(1.0092549 0 0 0.99083 0 0)">
                <path id="path901" fill="#000000" stroke="none" d="M 26.376028 754.4354 Q 26.376028 758.41235 23.58828 760.55676 Q 21.073458 762.5062 16.999056 762.5062 Q 7.7195554 762.5062 7.7195554 753.7335 Q 7.7195554 753.3242 7.8560185 752.95386 Q 8.148439 752.77826 8.51884 752.77826 L 11.053157 752.77826 Q 11.423557 752.77826 11.735473 752.95386 Q 11.832943 753.2267 11.891431 753.59705 Q 12.222841 756.01447 13.256064 757.1062 Q 14.406254 758.3148 16.784613 758.3148 Q 18.734089 758.3148 19.962257 757.26215 Q 21.24891 756.1314 21.24891 754.22095 Q 21.24891 750.1661 16.823603 749.46423 Q 16.277748 749.3862 16.004824 749.23035 Q 15.848864 748.9184 15.848864 746.07214 Q 15.848864 745.7018 16.024319 745.37036 Q 17.486423 744.94147 18.94853 744.49316 Q 20.488615 743.79126 20.488615 741.5493 Q 20.488615 738.1573 16.511686 738.1573 Q 14.679179 738.1573 13.645958 739.0541 Q 13.100106 739.5415 12.515263 740.7111 Q 12.086379 741.60785 11.657494 741.60785 L 9.142672 741.60785 Q 8.187429 741.60785 8.187429 740.75006 Q 8.187429 737.49445 10.741241 735.60345 Q 13.041622 733.9074 16.394718 733.9074 Q 20.254679 733.9074 22.69152 735.5255 Q 25.557247 737.4165 25.557247 741.101 Q 25.557247 745.54584 21.17093 747.1443 Q 26.376028 749.3473 26.376028 754.4354 Z"/>
            </g>
            <g id="text3755-2-2" transform="matrix(-1.0092549 0 0 -0.99083 0 0)">
                <path id="path898" fill="#000000" stroke="none" d="M -205.47818 -1033.6859 Q -205.47818 -1029.709 -208.26591 -1027.5646 Q -210.78075 -1025.6151 -214.85515 -1025.6151 Q -224.13463 -1025.6151 -224.13463 -1034.3877 Q -224.13463 -1034.7971 -223.99818 -1035.1675 Q -223.70576 -1035.343 -223.33536 -1035.343 L -220.80104 -1035.343 Q -220.43065 -1035.343 -220.11873 -1035.1675 Q -220.02122 -1034.8947 -219.96278 -1034.5242 Q -219.63136 -1032.1069 -218.59816 -1031.0153 Q -217.44795 -1029.8065 -215.0696 -1029.8065 Q -213.12012 -1029.8065 -211.89194 -1030.8593 Q -210.60529 -1031.9899 -210.60529 -1033.9004 Q -210.60529 -1037.9553 -215.0306 -1038.6571 Q -215.57645 -1038.7351 -215.8494 -1038.891 Q -216.00534 -1039.2029 -216.00534 -1042.0492 Q -216.00534 -1042.4196 -215.82988 -1042.751 Q -214.36778 -1043.1799 -212.90567 -1043.6283 Q -211.36559 -1044.3301 -211.36559 -1046.572 Q -211.36559 -1049.964 -215.34251 -1049.964 Q -217.17502 -1049.964 -218.20824 -1049.0673 Q -218.75409 -1048.58 -219.33894 -1047.4102 Q -219.76782 -1046.5135 -220.19672 -1046.5135 L -222.71155 -1046.5135 Q -223.66676 -1046.5135 -223.66676 -1047.3712 Q -223.66676 -1050.627 -221.11296 -1052.518 Q -218.81258 -1054.2139 -215.45947 -1054.2139 Q -211.59952 -1054.2139 -209.16267 -1052.5958 Q -206.29695 -1050.705 -206.29695 -1047.0203 Q -206.29695 -1042.5754 -210.68327 -1040.977 Q -205.47818 -1038.774 -205.47818 -1033.6859 Z"/>
            </g>
        </g>
    </g>
</svg>
