<svg width="234" height="333.00003" xmlns="http://www.w3.org/2000/svg">
    <g id="layer1" transform="matrix(1 0 0 1 0 -719.3622)">
        <g id="g924">
            <path id="rect4266" fill="#ffffff" stroke="#808080" stroke-width="0.7559055" d="M 9.297138 719.7401 L 224.70288 719.7401 C 229.6288 719.7401 233.62206 723.74524 233.62206 728.68585 L 233.62206 1043.0385 C 233.62207 1045.411 232.68237 1047.6864 231.0097 1049.3641 C 229.33702 1051.0417 227.06839 1051.9843 224.70288 1051.9843 L 9.297138 1051.9843 C 6.9316134 1051.9843 4.662975 1051.0417 2.9903018 1049.3641 C 1.3176281 1047.6864 0.3779376 1045.411 0.37795275 1043.0385 L 0.37795275 728.68585 C 0.37795484 723.74524 4.3712096 719.7401 9.297138 719.7401 Z"/>
            <g id="g4233" transform="matrix(0.07348588 0 0 0.07370838 -248.0173 933.60065)"/>
            <g id="g4211" transform="matrix(0.07348588 0 0 0.07370838 -248.01726 933.60065)"/>
            <g id="g4227" transform="matrix(0.07348588 0 0 0.07370838 -248.0173 933.60065)"/>
            <path id="path2985-3-11" fill="#000000" stroke="none" d="M 12.898825 780.7021 C 12.898825 780.14606 12.868036 779.7444 12.868036 779.1883 C 14.017601 779.1883 15.263182 779.1883 16.412743 779.1883 C 16.412743 777.8665 16.412743 777.77295 16.412743 776.4512 C 14.168812 776.52356 11.740283 776.6902 9.638841 775.7642 C 8.012223 774.87146 7.563393 772.7933 7.8913465 771.08484 C 8.172051 769.1573 9.243621 767.44556 10.64154 766.1272 C 12.460648 764.18146 14.78061 762.868 17.20269 761.81104 C 19.675045 762.8858 22.046156 764.2423 23.888336 766.2394 C 25.547632 767.7987 26.653187 770.00256 26.619223 772.31 C 26.655212 773.97546 25.623537 775.7355 23.921839 776.0989 C 22.018133 776.6261 20.091366 776.53253 18.137093 776.4512 C 18.137093 777.77295 18.137093 777.8665 18.137093 779.1883 C 19.286654 779.1883 20.340212 779.1883 21.489779 779.1883 C 21.489779 779.7444 21.52057 780.14606 21.52057 780.7021 C 18.888287 780.68353 15.741945 780.68353 12.898819 780.7021 Z"/>
            <path id="path2985-3-11-7" fill="#000000" stroke="none" d="M 212.48766 991.0222 C 212.48766 991.57825 212.45686 991.9799 212.45686 992.536 C 213.60641 992.536 214.85199 992.536 216.00157 992.536 C 216.00157 993.8578 216.00157 993.95135 216.00157 995.27313 C 213.75764 995.2008 211.32909 995.0342 209.22765 995.9601 C 207.60104 996.85284 207.15224 998.931 207.48016 1000.6395 C 207.76085 1002.567 208.83244 1004.2787 210.23035 1005.5971 C 212.04945 1007.5429 214.36943 1008.8563 216.7915 1009.9132 C 219.26387 1008.8385 221.63496 1007.482 223.47717 1005.4849 C 225.13646 1003.9256 226.24203 1001.7218 226.20804 999.4143 C 226.24403 997.74884 225.21234 995.98883 223.51067 995.6254 C 221.60693 995.09827 219.68019 995.1918 217.7259 995.27313 C 217.7259 993.95135 217.7259 993.8578 217.7259 992.536 C 218.87546 992.536 219.92905 992.536 221.07858 992.536 C 221.07858 991.9799 221.10928 991.57825 221.10928 991.0222 C 218.47699 991.0408 215.33067 991.0408 212.48753 991.0222 Z"/>
            <path id="path2985-3-3" fill="#000000" stroke="none" d="M 45.70946 814.07623 C 45.70946 812.408 45.61708 811.2032 45.61708 809.5349 C 49.065784 809.5349 52.80252 809.5349 56.2512 809.5349 C 56.2512 805.5695 56.2512 805.289 56.2512 801.3236 C 49.519413 801.5405 42.23382 802.0404 35.9295 799.2626 C 31.049646 796.58435 29.703152 790.3499 30.687014 785.2245 C 31.529135 779.44196 34.743835 774.30664 38.937595 770.3516 C 44.39492 764.5143 51.354813 760.5737 58.621044 757.40314 C 66.03811 760.6274 73.15144 764.6969 78.67798 770.6881 C 83.65587 775.366 86.97254 781.9776 86.87064 788.89984 C 86.978615 793.89636 83.883575 799.1763 78.77849 800.26654 C 73.067375 801.84814 67.28707 801.56757 61.424263 801.3236 C 61.424263 805.289 61.424263 805.5695 61.424263 809.5349 C 64.87294 809.5349 68.033615 809.5349 71.482315 809.5349 C 71.482315 811.2032 71.574715 812.408 71.574715 814.07623 C 63.677856 814.0206 54.23885 814.0206 45.70946 814.07623 Z"/>
            <path id="path2985-3-3-5" fill="#000000" stroke="none" d="M 162.45012 814.07623 C 162.45012 812.408 162.35773 811.2032 162.35773 809.5349 C 165.80643 809.5349 169.54317 809.5349 172.99185 809.5349 C 172.99185 805.5695 172.99185 805.289 172.99185 801.3236 C 166.26006 801.5405 158.97447 802.0404 152.67015 799.2626 C 147.79028 796.58435 146.44379 790.3499 147.42766 785.2245 C 148.26978 779.44196 151.48448 774.30664 155.67824 770.3516 C 161.13557 764.5143 168.09546 760.5737 175.3617 757.40314 C 182.77876 760.6274 189.89209 764.6969 195.41862 770.6881 C 200.39651 775.366 203.71318 781.9776 203.6113 788.89984 C 203.71925 793.89636 200.62424 799.1763 195.51913 800.26654 C 189.808 801.84814 184.02773 801.56757 178.1649 801.3236 C 178.1649 805.289 178.1649 805.5695 178.1649 809.5349 C 181.61359 809.5349 184.77426 809.5349 188.22296 809.5349 C 188.22296 811.2032 188.31537 812.408 188.31537 814.07623 C 180.4185 814.0206 170.97949 814.0206 162.4501 814.07623 Z"/>
            <path id="path2985-3-3-5-4-3-1" fill="#000000" stroke="none" d="M 104.07979 914.19867 C 104.07979 912.53046 103.98738 911.3256 103.98738 909.65735 C 107.4361 909.65735 111.17284 909.65735 114.62151 909.65735 C 114.62151 905.69196 114.62151 905.41144 114.62151 901.446 C 107.88972 901.6629 100.604126 902.16284 94.299805 899.3851 C 89.41995 896.7069 88.07345 890.4725 89.05732 885.347 C 89.89944 879.56433 93.11414 874.42914 97.30791 870.47406 C 102.76523 864.6368 109.72512 860.6962 116.99135 857.52563 C 124.40841 860.7498 131.52174 864.81934 137.04828 870.8106 C 142.02617 875.48846 145.34283 882.10004 145.24095 889.0223 C 145.3489 894.01874 142.25388 899.29877 137.14879 900.38904 C 131.43768 901.9706 125.65737 901.69 119.79456 901.446 C 119.79456 905.41144 119.79456 905.69196 119.79456 909.65735 C 123.24324 909.65735 126.40392 909.65735 129.85262 909.65735 C 129.85262 911.3256 129.94502 912.53046 129.94502 914.19867 C 122.04816 914.1431 112.60915 914.1431 104.07976 914.19867 Z"/>
            <path id="path2985-3-38-2" fill="#000000" stroke="none" d="M 45.70946 957.6481 C 45.70946 959.3163 45.61708 960.5211 45.61708 962.1894 C 49.065784 962.1894 52.80252 962.1894 56.2512 962.1894 C 56.2512 966.1548 56.2512 966.4353 56.2512 970.40076 C 49.519413 970.1839 42.23382 969.6839 35.9295 972.46173 C 31.049646 975.13995 29.703152 981.3744 30.687014 986.4998 C 31.529135 992.28235 34.743835 997.4177 38.937595 1001.37274 C 44.39492 1007.21 51.354813 1011.1506 58.621044 1014.3212 C 66.03811 1011.0969 73.15144 1007.02747 78.67798 1001.0362 C 83.65587 996.35834 86.97254 989.7467 86.87064 982.82446 C 86.978615 977.828 83.883575 972.54803 78.77849 971.45776 C 73.067375 969.8762 67.28707 970.1568 61.424263 970.40076 C 61.424263 966.4353 61.424263 966.1548 61.424263 962.1894 C 64.87294 962.1894 68.033615 962.1894 71.482315 962.1894 C 71.482315 960.5211 71.574715 959.3163 71.574715 957.6481 C 63.677856 957.7037 54.23885 957.7037 45.70946 957.6481 Z"/>
            <path id="path2985-3-38-2-3" fill="#000000" stroke="none" d="M 162.45012 957.6481 C 162.45012 959.3163 162.35773 960.5212 162.35773 962.1894 C 165.80643 962.1894 169.54317 962.1894 172.99184 962.1894 C 172.99184 966.1548 172.99184 966.4353 172.99184 970.40076 C 166.26006 970.1839 158.97446 969.6839 152.67014 972.46173 C 147.79028 975.13995 146.44379 981.3744 147.42766 986.4998 C 148.26978 992.28235 151.48448 997.4177 155.67824 1001.37274 C 161.13556 1007.21 168.09544 1011.1506 175.3617 1014.3212 C 182.77876 1011.0969 189.89207 1007.02747 195.41862 1001.0362 C 200.39651 996.35834 203.71318 989.74677 203.61128 982.82446 C 203.71925 977.828 200.62424 972.54803 195.51913 971.45776 C 189.808 969.8762 184.02771 970.1568 178.1649 970.40076 C 178.1649 966.4353 178.1649 966.1548 178.1649 962.1894 C 181.61359 962.1894 184.77425 962.1894 188.22296 962.1894 C 188.22296 960.5212 188.31537 959.3163 188.31537 957.6481 C 180.4185 957.7037 170.97949 957.7037 162.4501 957.6481 Z"/>
            <g id="text3755-5" transform="matrix(0.9950993 0 0 1.0049248 0 0)">
                <path id="path903" fill="#000000" stroke="none" d="M 26.751238 742.30176 Q 26.751238 746.667 24.101007 749.2392 Q 21.470263 751.81146 17.105177 751.81146 Q 12.915474 751.81146 10.4796 749.7653 Q 7.829368 747.5828 7.829368 743.4711 Q 7.829368 742.8085 8.881666 742.8085 L 11.434462 742.8085 Q 11.843689 742.8085 12.194455 742.9254 Q 12.311377 743.1203 12.350351 743.432 Q 12.681631 745.6341 13.617004 746.589 Q 14.669303 747.66077 16.851847 747.66077 Q 19.03439 747.66077 20.37899 746.1213 Q 21.645645 744.6598 21.645645 742.45776 Q 21.645645 737.0209 17.144152 737.0209 Q 15.507243 737.0209 13.850849 738.1511 L 10.635496 738.1511 Q 10.187295 738.1511 9.778068 738.0342 Q 9.583199 737.8393 9.583199 737.586 Q 9.583199 734.81885 9.875503 730.6097 Q 10.128834 727.102 10.382165 723.61383 L 24.997406 723.61383 Q 25.504068 723.61383 25.913298 723.7698 Q 26.08868 724.1594 26.08868 726.49786 Q 26.08868 726.88763 26.04971 727.1409 Q 25.9133 727.7645 24.919464 727.7645 L 14.338024 727.7645 Q 14.396483 728.81683 14.162641 730.9799 Q 13.928796 733.1235 13.987258 734.1758 Q 15.994418 732.9286 18.176962 732.9286 Q 22.191282 732.9286 24.52972 735.65686 Q 26.751238 738.22906 26.751238 742.30176 Z"/>
            </g>
            <g id="text3755-2-28" transform="matrix(-0.9950993 0 0 -1.0049248 0 0)">
                <path id="path906" fill="#000000" stroke="none" d="M -208.40118 -1020.7398 Q -208.40118 -1016.3747 -211.05139 -1013.8024 Q -213.68216 -1011.23004 -218.04724 -1011.23004 Q -222.23695 -1011.23004 -224.67284 -1013.27637 Q -227.32304 -1015.4588 -227.32304 -1019.57056 Q -227.32304 -1020.2331 -226.27077 -1020.2331 L -223.71796 -1020.2331 Q -223.30873 -1020.2331 -222.95796 -1020.11615 Q -222.84103 -1019.92126 -222.80206 -1019.6095 Q -222.4708 -1017.4075 -221.53542 -1016.4526 Q -220.48314 -1015.381 -218.30055 -1015.381 Q -216.11803 -1015.381 -214.77344 -1016.9203 Q -213.50676 -1018.3819 -213.50676 -1020.5839 Q -213.50676 -1026.0208 -218.00827 -1026.0208 Q -219.64519 -1026.0208 -221.30157 -1024.8905 L -224.51692 -1024.8905 Q -224.96512 -1024.8905 -225.37434 -1025.0074 Q -225.56921 -1025.2023 -225.56921 -1025.4556 Q -225.56921 -1028.2228 -225.2769 -1032.432 Q -225.02359 -1035.9396 -224.77025 -1039.4279 L -210.15501 -1039.4279 Q -209.64835 -1039.4279 -209.23912 -1039.2719 Q -209.06374 -1038.8822 -209.06374 -1036.5437 Q -209.06374 -1036.154 -209.10275 -1035.9008 Q -209.23914 -1035.2771 -210.233 -1035.2771 L -220.81442 -1035.2771 Q -220.75592 -1034.2249 -220.9898 -1032.0616 Q -221.22365 -1029.9182 -221.1652 -1028.8658 Q -219.15804 -1030.113 -216.97551 -1030.113 Q -212.96115 -1030.113 -210.62273 -1027.3848 Q -208.40123 -1024.8126 -208.40123 -1020.7398 Z"/>
            </g>
        </g>
    </g>
</svg>
