<svg width="234" height="333.00003" xmlns="http://www.w3.org/2000/svg">
    <g id="layer1" transform="matrix(1 0 0 1 0 -719.3622)">
        <g id="g923">
            <path id="rect4266" fill="#ffffff" stroke="#808080" stroke-width="0.7559055" d="M 9.297138 719.7401 L 224.70288 719.7401 C 229.6288 719.7401 233.62206 723.74524 233.62206 728.68585 L 233.62206 1043.0385 C 233.62207 1045.411 232.68237 1047.6864 231.0097 1049.3641 C 229.33702 1051.0417 227.06839 1051.9843 224.70288 1051.9843 L 9.297138 1051.9843 C 6.9316134 1051.9843 4.662975 1051.0417 2.9903018 1049.3641 C 1.3176281 1047.6864 0.3779376 1045.411 0.37795275 1043.0385 L 0.37795275 728.68585 C 0.37795484 723.74524 4.3712096 719.7401 9.297138 719.7401 Z"/>
            <g id="g4233" transform="matrix(0.07348588 0 0 0.07370838 -248.0173 933.60065)"/>
            <g id="g4211" transform="matrix(0.07348588 0 0 0.07370838 -248.01726 933.60065)"/>
            <g id="g4227" transform="matrix(0.07348588 0 0 0.07370838 -248.0173 933.60065)"/>
            <g id="text3755-0" transform="matrix(0.9902929 0 0 1.0098023 0 0)">
                <path id="path901" fill="#000000" stroke="none" d="M 26.881077 738.99854 Q 26.881077 743.2451 24.413504 745.7126 Q 21.96506 748.1802 17.718536 748.1802 Q 7.867369 748.1802 7.867369 734.5607 Q 7.867369 728.5544 9.99063 724.8243 Q 12.630361 720.1187 18.17762 720.1187 Q 21.391205 720.1187 23.514465 721.43854 Q 26.058556 723.0071 26.058556 726.0294 Q 26.058556 726.6989 25.121258 726.6989 L 22.290243 726.6989 Q 21.73552 726.6989 21.352947 726.0677 Q 20.798222 725.1304 20.473038 724.86255 Q 19.688768 724.23126 18.17762 724.23126 Q 15.633533 724.23126 14.218023 726.6033 Q 13.108574 728.5161 12.974672 731.30884 Q 15.212706 729.52985 18.330647 729.52985 Q 22.290243 729.52985 24.643047 732.3227 Q 26.881077 734.9624 26.881077 738.99854 Z M 21.888546 738.8837 Q 21.888546 736.70306 20.798222 735.2876 Q 19.593126 733.719 17.469866 733.719 Q 15.365733 733.719 14.179767 735.2876 Q 13.108574 736.70306 13.108574 738.8837 Q 13.108574 740.96875 14.237153 742.4224 Q 15.461376 744.0102 17.488995 744.0102 Q 19.55487 744.0102 20.779093 742.4416 Q 21.888546 741.007 21.888546 738.8837 Z"/>
            </g>
            <g id="text3755-2-2" transform="matrix(-0.9902929 0 0 -1.0098023 0 0)">
                <path id="path904" fill="#000000" stroke="none" d="M -209.41267 -1015.5274 Q -209.41267 -1011.2809 -211.88025 -1008.81323 Q -214.32869 -1006.34564 -218.57521 -1006.34564 Q -228.42638 -1006.34564 -228.42638 -1019.9652 Q -228.42638 -1025.9716 -226.30312 -1029.7017 Q -223.66339 -1034.4072 -218.11613 -1034.4072 Q -214.90254 -1034.4072 -212.77928 -1033.0873 Q -210.23518 -1031.5188 -210.23518 -1028.4965 Q -210.23518 -1027.827 -211.1725 -1027.827 L -214.0035 -1027.827 Q -214.55823 -1027.827 -214.9408 -1028.4583 Q -215.49553 -1029.3955 -215.82072 -1029.6633 Q -216.60498 -1030.2946 -218.11613 -1030.2946 Q -220.66022 -1030.2946 -222.07571 -1027.9226 Q -223.18517 -1026.0098 -223.31908 -1023.217 Q -221.08104 -1024.996 -217.9631 -1024.996 Q -214.0035 -1024.996 -211.6507 -1022.2032 Q -209.41267 -1019.5635 -209.41267 -1015.5274 Z M -214.4052 -1015.6421 Q -214.4052 -1017.8228 -215.49553 -1019.23834 Q -216.70062 -1020.8068 -218.82388 -1020.8068 Q -220.928 -1020.8068 -222.11398 -1019.23834 Q -223.18517 -1017.8228 -223.18517 -1015.6421 Q -223.18517 -1013.5572 -222.0566 -1012.1034 Q -220.83235 -1010.51575 -218.80476 -1010.51575 Q -216.73888 -1010.51575 -215.51465 -1012.0842 Q -214.4052 -1013.5189 -214.4052 -1015.6421 Z"/>
            </g>
            <path id="path2985-3-11" fill="#000000" stroke="none" d="M 12.898825 780.7021 C 12.898825 780.14606 12.868036 779.7444 12.868036 779.1883 C 14.017601 779.1883 15.263182 779.1883 16.412743 779.1883 C 16.412743 777.8665 16.412743 777.77295 16.412743 776.4512 C 14.168812 776.52356 11.740283 776.6902 9.638841 775.7642 C 8.012223 774.87146 7.563393 772.7933 7.8913465 771.08484 C 8.172051 769.1573 9.243621 767.44556 10.64154 766.1272 C 12.460648 764.18146 14.78061 762.868 17.20269 761.81104 C 19.675045 762.8858 22.046156 764.2423 23.888336 766.2394 C 25.547632 767.7987 26.653187 770.00256 26.619223 772.31 C 26.655212 773.97546 25.623537 775.7355 23.921839 776.0989 C 22.018133 776.6261 20.091366 776.53253 18.137093 776.4512 C 18.137093 777.77295 18.137093 777.8665 18.137093 779.1883 C 19.286654 779.1883 20.340212 779.1883 21.489779 779.1883 C 21.489779 779.7444 21.52057 780.14606 21.52057 780.7021 C 18.888287 780.68353 15.741945 780.68353 12.898819 780.7021 Z"/>
            <path id="path2985-3-11-7" fill="#000000" stroke="none" d="M 212.48766 991.0222 C 212.48766 991.57825 212.45686 991.9799 212.45686 992.536 C 213.60641 992.536 214.85199 992.536 216.00157 992.536 C 216.00157 993.8578 216.00157 993.95135 216.00157 995.27313 C 213.75764 995.2008 211.32909 995.0342 209.22765 995.9601 C 207.60104 996.85284 207.15224 998.931 207.48016 1000.6395 C 207.76085 1002.567 208.83244 1004.2787 210.23035 1005.5971 C 212.04945 1007.5429 214.36943 1008.8563 216.7915 1009.9132 C 219.26387 1008.8385 221.63496 1007.482 223.47717 1005.4849 C 225.13646 1003.9256 226.24203 1001.7218 226.20804 999.4143 C 226.24403 997.74884 225.21234 995.98883 223.51067 995.6254 C 221.60693 995.09827 219.68019 995.1918 217.7259 995.27313 C 217.7259 993.95135 217.7259 993.8578 217.7259 992.536 C 218.87546 992.536 219.92905 992.536 221.07858 992.536 C 221.07858 991.9799 221.10928 991.57825 221.10928 991.0222 C 218.47699 991.0408 215.33067 991.0408 212.48753 991.0222 Z"/>
            <path id="path2985-3-3" fill="#000000" stroke="none" d="M 45.70946 814.07623 C 45.70946 812.408 45.61708 811.2032 45.61708 809.5349 C 49.065784 809.5349 52.80252 809.5349 56.2512 809.5349 C 56.2512 805.5695 56.2512 805.289 56.2512 801.3236 C 49.519413 801.5405 42.23382 802.0404 35.9295 799.2626 C 31.049646 796.58435 29.703152 790.3499 30.687014 785.2245 C 31.529135 779.44196 34.743835 774.30664 38.937595 770.3516 C 44.39492 764.5143 51.354813 760.5737 58.621044 757.40314 C 66.03811 760.6274 73.15144 764.6969 78.67798 770.6881 C 83.65587 775.366 86.97254 781.9776 86.87064 788.89984 C 86.978615 793.89636 83.883575 799.1763 78.77849 800.26654 C 73.067375 801.84814 67.28707 801.56757 61.424263 801.3236 C 61.424263 805.289 61.424263 805.5695 61.424263 809.5349 C 64.87294 809.5349 68.033615 809.5349 71.482315 809.5349 C 71.482315 811.2032 71.574715 812.408 71.574715 814.07623 C 63.677856 814.0206 54.23885 814.0206 45.70946 814.07623 Z"/>
            <path id="path2985-3-3-5" fill="#000000" stroke="none" d="M 162.45012 814.07623 C 162.45012 812.408 162.35773 811.2032 162.35773 809.5349 C 165.80643 809.5349 169.54317 809.5349 172.99185 809.5349 C 172.99185 805.5695 172.99185 805.289 172.99185 801.3236 C 166.26006 801.5405 158.97447 802.0404 152.67015 799.2626 C 147.79028 796.58435 146.44379 790.3499 147.42766 785.2245 C 148.26978 779.44196 151.48448 774.30664 155.67824 770.3516 C 161.13557 764.5143 168.09546 760.5737 175.3617 757.40314 C 182.77876 760.6274 189.89209 764.6969 195.41862 770.6881 C 200.39651 775.366 203.71318 781.9776 203.6113 788.89984 C 203.71925 793.89636 200.62424 799.1763 195.51913 800.26654 C 189.808 801.84814 184.02773 801.56757 178.1649 801.3236 C 178.1649 805.289 178.1649 805.5695 178.1649 809.5349 C 181.61359 809.5349 184.77426 809.5349 188.22296 809.5349 C 188.22296 811.2032 188.31537 812.408 188.31537 814.07623 C 180.4185 814.0206 170.97949 814.0206 162.4501 814.07623 Z"/>
            <path id="path2985-3-3-5-4-3" fill="#000000" stroke="none" d="M 45.70946 914.19867 C 45.70946 912.53046 45.617085 911.3256 45.617085 909.65735 C 49.06579 909.65735 52.802525 909.65735 56.25121 909.65735 C 56.25121 905.69196 56.25121 905.41144 56.25121 901.446 C 49.519413 901.6629 42.233826 902.16284 35.929504 899.3851 C 31.049646 896.7069 29.703152 890.4725 30.687014 885.347 C 31.529135 879.56433 34.74384 874.42914 38.9376 870.47406 C 44.394928 864.6368 51.354813 860.6962 58.621044 857.52563 C 66.03811 860.7498 73.15144 864.81934 78.67798 870.8106 C 83.65587 875.48846 86.97254 882.10004 86.87064 889.0223 C 86.978615 894.01874 83.883575 899.29877 78.77849 900.38904 C 73.067375 901.9706 67.28708 901.69 61.424263 901.446 C 61.424263 905.41144 61.424263 905.69196 61.424263 909.65735 C 64.87294 909.65735 68.033615 909.65735 71.48232 909.65735 C 71.48232 911.3256 71.57472 912.53046 71.57472 914.19867 C 63.67786 914.1431 54.23885 914.1431 45.70946 914.19867 Z"/>
            <path id="path2985-3-3-5-4-3-1" fill="#000000" stroke="none" d="M 162.45012 914.19867 C 162.45012 912.53046 162.35773 911.3256 162.35773 909.65735 C 165.80643 909.65735 169.54317 909.65735 172.99185 909.65735 C 172.99185 905.69196 172.99185 905.41144 172.99185 901.446 C 166.26006 901.6629 158.97447 902.16284 152.67015 899.3851 C 147.79028 896.7069 146.44379 890.4725 147.42766 885.347 C 148.26978 879.56433 151.48448 874.42914 155.67824 870.47406 C 161.13557 864.6368 168.09546 860.6962 175.3617 857.52563 C 182.77876 860.7498 189.89209 864.81934 195.41862 870.8106 C 200.39651 875.48846 203.71318 882.10004 203.6113 889.0223 C 203.71925 894.01874 200.62424 899.29877 195.51913 900.38904 C 189.808 901.9706 184.02773 901.69 178.1649 901.446 C 178.1649 905.41144 178.1649 905.69196 178.1649 909.65735 C 181.61359 909.65735 184.77426 909.65735 188.22296 909.65735 C 188.22296 911.3256 188.31537 912.53046 188.31537 914.19867 C 180.4185 914.1431 170.97949 914.1431 162.4501 914.19867 Z"/>
            <path id="path2985-3-38-2" fill="#000000" stroke="none" d="M 45.70946 957.6481 C 45.70946 959.3163 45.61708 960.5211 45.61708 962.1894 C 49.065784 962.1894 52.80252 962.1894 56.2512 962.1894 C 56.2512 966.1548 56.2512 966.4353 56.2512 970.40076 C 49.519413 970.1839 42.23382 969.6839 35.9295 972.46173 C 31.049646 975.13995 29.703152 981.3744 30.687014 986.4998 C 31.529135 992.28235 34.743835 997.4177 38.937595 1001.37274 C 44.39492 1007.21 51.354813 1011.1506 58.621044 1014.3212 C 66.03811 1011.0969 73.15144 1007.02747 78.67798 1001.0362 C 83.65587 996.35834 86.97254 989.7467 86.87064 982.82446 C 86.978615 977.828 83.883575 972.54803 78.77849 971.45776 C 73.067375 969.8762 67.28707 970.1568 61.424263 970.40076 C 61.424263 966.4353 61.424263 966.1548 61.424263 962.1894 C 64.87294 962.1894 68.033615 962.1894 71.482315 962.1894 C 71.482315 960.5211 71.574715 959.3163 71.574715 957.6481 C 63.677856 957.7037 54.23885 957.7037 45.70946 957.6481 Z"/>
            <path id="path2985-3-38-2-3" fill="#000000" stroke="none" d="M 162.45012 957.6481 C 162.45012 959.3163 162.35773 960.5212 162.35773 962.1894 C 165.80643 962.1894 169.54317 962.1894 172.99184 962.1894 C 172.99184 966.1548 172.99184 966.4353 172.99184 970.40076 C 166.26006 970.1839 158.97446 969.6839 152.67014 972.46173 C 147.79028 975.13995 146.44379 981.3744 147.42766 986.4998 C 148.26978 992.28235 151.48448 997.4177 155.67824 1001.37274 C 161.13556 1007.21 168.09544 1011.1506 175.3617 1014.3212 C 182.77876 1011.0969 189.89207 1007.02747 195.41862 1001.0362 C 200.39651 996.35834 203.71318 989.74677 203.61128 982.82446 C 203.71925 977.828 200.62424 972.54803 195.51913 971.45776 C 189.808 969.8762 184.02771 970.1568 178.1649 970.40076 C 178.1649 966.4353 178.1649 966.1548 178.1649 962.1894 C 181.61359 962.1894 184.77425 962.1894 188.22296 962.1894 C 188.22296 960.5212 188.31537 959.3163 188.31537 957.6481 C 180.4185 957.7037 170.97949 957.7037 162.4501 957.6481 Z"/>
        </g>
    </g>
</svg>
