<svg width="234" height="333.00003" xmlns="http://www.w3.org/2000/svg">
    <g id="layer1" transform="matrix(1 0 0 1 0 -719.3622)">
        <g id="g918">
            <path id="rect4266" fill="#ffffff" stroke="#808080" stroke-width="0.7559055" d="M 9.297138 719.7401 L 224.70288 719.7401 C 229.6288 719.7401 233.62206 723.74524 233.62206 728.68585 L 233.62206 1043.0385 C 233.62207 1045.411 232.68237 1047.6864 231.0097 1049.3641 C 229.33702 1051.0417 227.06839 1051.9843 224.70288 1051.9843 L 9.297138 1051.9843 C 6.9316134 1051.9843 4.662975 1051.0417 2.9903018 1049.3641 C 1.3176281 1047.6864 0.3779376 1045.411 0.37795275 1043.0385 L 0.37795275 728.68585 C 0.37795484 723.74524 4.3712096 719.7401 9.297138 719.7401 Z"/>
            <g id="g4233" transform="matrix(0.07348588 0 0 0.07370838 -248.0173 933.60065)"/>
            <g id="g4211" transform="matrix(0.07348588 0 0 0.07370838 -248.01726 933.60065)"/>
            <g id="g4227" transform="matrix(0.07348588 0 0 0.07370838 -248.0173 933.60065)"/>
            <path id="path2985-3-11" fill="#000000" stroke="none" d="M 12.898825 780.7021 C 12.898825 780.14606 12.868036 779.7444 12.868036 779.1883 C 14.017601 779.1883 15.263182 779.1883 16.412743 779.1883 C 16.412743 777.8665 16.412743 777.77295 16.412743 776.4512 C 14.168812 776.52356 11.740283 776.6902 9.638841 775.7642 C 8.012223 774.87146 7.563393 772.7933 7.8913465 771.08484 C 8.172051 769.1573 9.243621 767.44556 10.64154 766.1272 C 12.460648 764.18146 14.78061 762.868 17.20269 761.81104 C 19.675045 762.8858 22.046156 764.2423 23.888336 766.2394 C 25.547632 767.7987 26.653187 770.00256 26.619223 772.31 C 26.655212 773.97546 25.623537 775.7355 23.921839 776.0989 C 22.018133 776.6261 20.091366 776.53253 18.137093 776.4512 C 18.137093 777.77295 18.137093 777.8665 18.137093 779.1883 C 19.286654 779.1883 20.340212 779.1883 21.489779 779.1883 C 21.489779 779.7444 21.52057 780.14606 21.52057 780.7021 C 18.888287 780.68353 15.741945 780.68353 12.898819 780.7021 Z"/>
            <path id="path2985-3-11-7" fill="#000000" stroke="none" d="M 212.48766 991.0222 C 212.48766 991.57825 212.45686 991.9799 212.45686 992.536 C 213.60641 992.536 214.85199 992.536 216.00157 992.536 C 216.00157 993.8578 216.00157 993.95135 216.00157 995.27313 C 213.75764 995.2008 211.32909 995.0342 209.22765 995.9601 C 207.60104 996.85284 207.15224 998.931 207.48016 1000.6395 C 207.76085 1002.567 208.83244 1004.2787 210.23035 1005.5971 C 212.04945 1007.5429 214.36943 1008.8563 216.7915 1009.9132 C 219.26387 1008.8385 221.63496 1007.482 223.47717 1005.4849 C 225.13646 1003.9256 226.24203 1001.7218 226.20804 999.4143 C 226.24403 997.74884 225.21234 995.98883 223.51067 995.6254 C 221.60693 995.09827 219.68019 995.1918 217.7259 995.27313 C 217.7259 993.95135 217.7259 993.8578 217.7259 992.536 C 218.87546 992.536 219.92905 992.536 221.07858 992.536 C 221.07858 991.9799 221.10928 991.57825 221.10928 991.0222 C 218.47699 991.0408 215.33067 991.0408 212.48753 991.0222 Z"/>
            <path id="path2985-3-3" fill="#000000" stroke="none" d="M 104.07979 814.07623 C 104.07979 812.408 103.98738 811.2032 103.98738 809.5349 C 107.4361 809.5349 111.17284 809.5349 114.62152 809.5349 C 114.62152 805.5695 114.62152 805.289 114.62152 801.3236 C 107.88972 801.5405 100.60414 802.0404 94.29981 799.2626 C 89.41996 796.58435 88.07346 790.3499 89.057335 785.2245 C 89.899445 779.44196 93.11415 774.30664 97.30791 770.3516 C 102.76523 764.5143 109.72512 760.5737 116.99136 757.40314 C 124.40841 760.6274 131.52176 764.6969 137.0483 770.6881 C 142.02618 775.366 145.34285 781.9776 145.24095 788.89984 C 145.34892 793.89636 142.25389 799.1763 137.1488 800.26654 C 131.43768 801.84814 125.65739 801.56757 119.79458 801.3236 C 119.79458 805.289 119.79458 805.5695 119.79458 809.5349 C 123.24324 809.5349 126.40392 809.5349 129.85263 809.5349 C 129.85263 811.2032 129.94502 812.408 129.94502 814.07623 C 122.04817 814.0206 112.60915 814.0206 104.07977 814.07623 Z"/>
            <path id="path2985-3-38-2" fill="#000000" stroke="none" d="M 104.07979 957.6481 C 104.07979 959.3163 103.98738 960.5211 103.98738 962.1894 C 107.4361 962.1894 111.17284 962.1894 114.62152 962.1894 C 114.62152 966.1548 114.62152 966.4353 114.62152 970.40076 C 107.88972 970.1839 100.60414 969.6839 94.29981 972.46173 C 89.41996 975.13995 88.07346 981.3744 89.057335 986.4998 C 89.899445 992.28235 93.11415 997.4177 97.30791 1001.37274 C 102.76523 1007.21 109.72512 1011.1506 116.99136 1014.3212 C 124.40841 1011.0969 131.52176 1007.02747 137.0483 1001.0362 C 142.02618 996.35834 145.34285 989.7467 145.24095 982.82446 C 145.34892 977.828 142.25389 972.54803 137.1488 971.45776 C 131.43768 969.8762 125.65739 970.1568 119.79458 970.40076 C 119.79458 966.4353 119.79458 966.1548 119.79458 962.1894 C 123.24324 962.1894 126.40392 962.1894 129.85263 962.1894 C 129.85263 960.5211 129.94502 959.3163 129.94502 957.6481 C 122.04817 957.7037 112.60915 957.7037 104.07977 957.6481 Z"/>
            <g id="text3755-0" transform="matrix(0.9810549 0 0 1.019311 0 0)">
                <path id="path900" fill="#000000" stroke="none" d="M 26.999716 735.55237 L 26.288874 741.20074 L 7.941451 741.20074 Q 8.364115 736.34015 11.860691 732.6129 L 18.085365 727.3105 Q 21.332188 724.50555 21.332188 721.6814 Q 21.332188 719.7987 20.256317 718.6843 Q 19.19966 717.5509 17.3361 717.5509 Q 15.18436 717.5509 14.127702 718.70355 Q 13.436071 719.47205 13.071044 721.0665 Q 12.706016 722.7572 12.494685 723.02625 Q 12.187293 723.1223 11.783842 723.1223 L 9.363136 723.1223 Q 8.940474 723.1223 8.633081 722.9494 Q 8.498598 722.54596 8.498598 722.0465 Q 8.498598 718.0312 11.130637 715.6681 Q 13.647402 713.40106 17.681913 713.40106 Q 21.428246 713.40106 23.81053 715.3991 Q 26.346508 717.51245 26.346508 721.20105 Q 26.346508 724.83215 23.541561 727.84845 Q 22.56175 728.9243 17.970095 732.44006 Q 14.627213 735.03375 13.858735 737.10864 L 22.811506 737.10864 L 22.965202 735.3795 Q 23.176535 734.45734 24.09871 734.45734 L 26.019903 734.45734 Q 27.134197 734.45734 26.999716 735.5525 Z"/>
            </g>
            <g id="text3755-2-2" transform="matrix(-0.98105496 0 0 -1.019311 0 0)">
                <path id="path903" fill="#000000" stroke="none" d="M -211.51904 -1002.6063 L -212.2299 -996.95807 L -230.57732 -996.95807 Q -230.15463 -1001.81866 -226.65807 -1005.5458 L -220.43338 -1010.8483 Q -217.18657 -1013.6533 -217.18657 -1016.4775 Q -217.18657 -1018.3602 -218.26245 -1019.4745 Q -219.3191 -1020.6079 -221.18266 -1020.6079 Q -223.3344 -1020.6079 -224.39107 -1019.4553 Q -225.0827 -1018.6868 -225.44771 -1017.0923 Q -225.81274 -1015.4015 -226.02406 -1015.1326 Q -226.33147 -1015.0366 -226.73492 -1015.0366 L -229.15561 -1015.0366 Q -229.57831 -1015.0366 -229.88568 -1015.2095 Q -230.02016 -1015.613 -230.02016 -1016.1125 Q -230.02016 -1020.1278 -227.38812 -1022.49084 Q -224.87137 -1024.7579 -220.83684 -1024.7579 Q -217.09052 -1024.7579 -214.70825 -1022.7598 Q -212.17224 -1020.64655 -212.17224 -1016.9578 Q -212.17224 -1013.3268 -214.9772 -1010.3105 Q -215.95702 -1009.2347 -220.54868 -1005.7188 Q -223.89156 -1003.1251 -224.66 -1001.0503 L -215.70724 -1001.0503 L -215.55356 -1002.7794 Q -215.34222 -1003.7016 -214.42004 -1003.7016 L -212.49886 -1003.7016 Q -211.38457 -1003.7016 -211.51904 -1002.6065 Z"/>
            </g>
        </g>
    </g>
</svg>
