<svg width="234" height="333.00003" xmlns="http://www.w3.org/2000/svg">
    <g id="layer1" transform="matrix(1 0 0 1 0 -719.3622)">
        <g id="g903">
            <path id="rect4266" fill="#ffffff" stroke="#808080" stroke-width="0.7559055" d="M 9.297138 719.7401 L 224.70288 719.7401 C 229.6288 719.7401 233.62206 723.74524 233.62206 728.68585 L 233.62206 1043.0385 C 233.62207 1045.411 232.68237 1047.6864 231.0097 1049.3641 C 229.33702 1051.0417 227.06839 1051.9843 224.70288 1051.9843 L 9.297138 1051.9843 C 6.9316134 1051.9843 4.662975 1051.0417 2.9903018 1049.3641 C 1.3176281 1047.6864 0.3779376 1045.411 0.37795275 1043.0385 L 0.37795275 728.68585 C 0.37795484 723.74524 4.3712096 719.7401 9.297138 719.7401 Z"/>
            <path id="path2985-3-2" fill="#000000" stroke="none" d="M 45.70946 880.82446 C 45.70946 879.1564 45.61708 877.9515 45.61708 876.28326 C 49.065784 876.28326 52.80252 876.28326 56.2512 876.28326 C 56.2512 872.3178 56.2512 872.03735 56.2512 868.07184 C 49.519413 868.28876 42.23382 868.7887 35.9295 866.01086 C 31.049646 863.3327 29.703152 857.09827 30.687014 851.97284 C 31.529135 846.19025 34.743835 841.05493 38.937595 837.0999 C 44.39492 831.26263 51.354813 827.32214 58.621044 824.1515 C 66.03811 827.3757 73.15144 831.4451 78.67798 837.4364 C 83.65587 842.1143 86.97254 848.7258 86.87064 855.6482 C 86.978615 860.64465 83.883575 865.9246 78.77849 867.0149 C 73.067375 868.59644 67.28707 868.31586 61.424263 868.07184 C 61.424263 872.03735 61.424263 872.3178 61.424263 876.28326 C 64.87294 876.28326 68.033615 876.28326 71.48232 876.28326 C 71.48232 877.9515 71.57472 879.1564 71.57472 880.82446 C 63.677856 880.7689 54.23885 880.7689 45.709454 880.82446 Z"/>
            <path id="path2985-3-1-7" fill="#000000" stroke="none" d="M 45.70946 890.8997 C 45.70946 892.56793 45.61708 893.7728 45.61708 895.44104 C 49.065784 895.44104 52.80252 895.44104 56.2512 895.44104 C 56.2512 899.4065 56.2512 899.68695 56.2512 903.65247 C 49.519413 903.43555 42.23382 902.9356 35.9295 905.71344 C 31.049646 908.3916 29.703152 914.6261 30.687014 919.75146 C 31.529135 925.53406 34.743835 930.6694 38.937595 934.6244 C 44.39492 940.4617 51.354813 944.40216 58.621044 947.5729 C 66.03811 944.34863 73.15144 940.2792 78.67798 934.28796 C 83.65587 929.61 86.97254 922.99835 86.87064 916.0761 C 86.978615 911.07965 83.883575 905.7997 78.77849 904.7094 C 73.067375 903.1278 67.28707 903.40845 61.424263 903.65247 C 61.424263 899.68695 61.424263 899.4065 61.424263 895.44104 C 64.87294 895.44104 68.033615 895.44104 71.482315 895.44104 C 71.482315 893.7728 71.574715 892.56793 71.574715 890.8997 C 63.677856 890.9554 54.23885 890.9554 45.70946 890.8997 Z"/>
            <path id="path2985-3" fill="#000000" stroke="none" d="M 162.45012 880.82446 C 162.45012 879.1564 162.35773 877.9515 162.35773 876.28326 C 165.80643 876.28326 169.54317 876.28326 172.99184 876.28326 C 172.99184 872.3178 172.99184 872.03735 172.99184 868.07184 C 166.26006 868.28876 158.97446 868.7887 152.67014 866.01086 C 147.79028 863.3327 146.44379 857.09827 147.42766 851.97284 C 148.26978 846.19025 151.48448 841.05493 155.67824 837.0999 C 161.13556 831.26263 168.09544 827.32214 175.3617 824.1515 C 182.77876 827.3757 189.89207 831.4451 195.41862 837.4364 C 200.39651 842.1143 203.71318 848.7258 203.61128 855.6482 C 203.71925 860.64465 200.62424 865.9246 195.51913 867.0149 C 189.808 868.59644 184.02771 868.31586 178.1649 868.07184 C 178.1649 872.03735 178.1649 872.3178 178.1649 876.28326 C 181.61359 876.28326 184.77425 876.28326 188.22296 876.28326 C 188.22296 877.9515 188.31537 879.1564 188.31537 880.82446 C 180.4185 880.7689 170.97949 880.7689 162.4501 880.82446 Z"/>
            <path id="path2985-3-1" fill="#000000" stroke="none" d="M 162.45012 814.07623 C 162.45012 812.408 162.35773 811.2032 162.35773 809.535 C 165.80643 809.535 169.54317 809.535 172.99184 809.535 C 172.99184 805.5695 172.99184 805.289 172.99184 801.3236 C 166.26006 801.5405 158.97446 802.0404 152.67014 799.2626 C 147.79028 796.58435 146.44379 790.3499 147.42766 785.2246 C 148.26978 779.44196 151.48448 774.30664 155.67824 770.3516 C 161.13556 764.5143 168.09544 760.5737 175.3617 757.40314 C 182.77876 760.6274 189.89207 764.6969 195.41862 770.6881 C 200.39651 775.366 203.71318 781.9776 203.61128 788.89984 C 203.71925 793.8963 200.62424 799.1763 195.51913 800.26654 C 189.808 801.84814 184.02771 801.56757 178.1649 801.3236 C 178.1649 805.289 178.1649 805.5695 178.1649 809.535 C 181.61359 809.535 184.77425 809.535 188.22296 809.535 C 188.22296 811.2032 188.31537 812.408 188.31537 814.07623 C 180.4185 814.0206 170.97949 814.0206 162.4501 814.07623 Z"/>
            <path id="path2985-3-3" fill="#000000" stroke="none" d="M 45.70946 814.07623 C 45.70946 812.408 45.61708 811.2032 45.61708 809.535 C 49.065784 809.535 52.80252 809.535 56.2512 809.535 C 56.2512 805.5695 56.2512 805.289 56.2512 801.3236 C 49.519413 801.5405 42.23382 802.0404 35.9295 799.2626 C 31.049646 796.58435 29.703152 790.3499 30.687014 785.2246 C 31.529135 779.44196 34.743835 774.30664 38.937595 770.3516 C 44.39492 764.5143 51.354813 760.5737 58.621044 757.40314 C 66.03811 760.6274 73.15144 764.6969 78.67798 770.6881 C 83.65587 775.366 86.97254 781.9776 86.87064 788.89984 C 86.978615 793.8963 83.883575 799.1763 78.77849 800.26654 C 73.067375 801.84814 67.28707 801.56757 61.424263 801.3236 C 61.424263 805.289 61.424263 805.5695 61.424263 809.535 C 64.87294 809.535 68.033615 809.535 71.482315 809.535 C 71.482315 811.2032 71.574715 812.408 71.574715 814.07623 C 63.677856 814.0206 54.23885 814.0206 45.70946 814.07623 Z"/>
            <path id="path2985-3-34" fill="#000000" stroke="none" d="M 104.07979 914.19867 C 104.07979 912.53046 103.98738 911.3256 103.98738 909.65735 C 107.4361 909.65735 111.17284 909.65735 114.62152 909.65735 C 114.62152 905.69196 114.62152 905.41144 114.62152 901.446 C 107.88972 901.6629 100.60414 902.16284 94.29981 899.385 C 89.41996 896.7069 88.07346 890.4725 89.057335 885.347 C 89.899445 879.5644 93.11415 874.4291 97.30791 870.47406 C 102.76523 864.6368 109.72512 860.6962 116.99136 857.52563 C 124.40841 860.7498 131.52176 864.81934 137.0483 870.8106 C 142.02618 875.4885 145.34285 882.10004 145.24097 889.0223 C 145.34892 894.01874 142.25389 899.29877 137.1488 900.38904 C 131.43768 901.9706 125.65739 901.69 119.79458 901.446 C 119.79458 905.41144 119.79458 905.69196 119.79458 909.65735 C 123.24324 909.65735 126.40393 909.65735 129.85263 909.65735 C 129.85263 911.3256 129.94502 912.53046 129.94502 914.19867 C 122.04817 914.1431 112.60915 914.1431 104.07977 914.19867 Z"/>
            <path id="path2985-3-11" fill="#000000" stroke="none" d="M 12.898825 780.7021 C 12.898825 780.14606 12.868036 779.7444 12.868036 779.1884 C 14.017601 779.1884 15.263182 779.1884 16.412743 779.1884 C 16.412743 777.8665 16.412743 777.77295 16.412743 776.4512 C 14.168812 776.52356 11.740283 776.6902 9.638841 775.7642 C 8.012223 774.87146 7.563393 772.7933 7.8913465 771.08484 C 8.172051 769.15735 9.243621 767.44556 10.64154 766.1272 C 12.460648 764.18146 14.78061 762.868 17.20269 761.81104 C 19.675045 762.8858 22.046156 764.2423 23.888336 766.2394 C 25.547632 767.7987 26.653187 770.00256 26.619223 772.31 C 26.655212 773.97546 25.623537 775.7355 23.921839 776.0989 C 22.018133 776.62604 20.091366 776.53253 18.137093 776.4512 C 18.137093 777.77295 18.137093 777.8665 18.137093 779.1884 C 19.286654 779.1884 20.340212 779.1884 21.489779 779.1884 C 21.489779 779.7444 21.52057 780.14606 21.52057 780.7021 C 18.888287 780.6836 15.741945 780.6836 12.898819 780.7021 Z"/>
            <path id="path2985-3-38" fill="#000000" stroke="none" d="M 45.70946 957.6481 C 45.70946 959.3163 45.61708 960.5211 45.61708 962.1894 C 49.065784 962.1894 52.80252 962.1894 56.2512 962.1894 C 56.2512 966.1548 56.2512 966.4353 56.2512 970.40076 C 49.519413 970.1839 42.23382 969.6839 35.9295 972.46173 C 31.049646 975.13995 29.703152 981.3744 30.687014 986.4998 C 31.529135 992.28235 34.743835 997.4177 38.937595 1001.37274 C 44.39492 1007.21 51.354813 1011.1506 58.621044 1014.3212 C 66.03811 1011.0969 73.15144 1007.02747 78.67798 1001.0362 C 83.65587 996.35834 86.97254 989.7467 86.87064 982.82446 C 86.978615 977.828 83.883575 972.54803 78.77849 971.45776 C 73.067375 969.8762 67.28707 970.1568 61.424263 970.40076 C 61.424263 966.4353 61.424263 966.1548 61.424263 962.1894 C 64.87294 962.1894 68.033615 962.1894 71.482315 962.1894 C 71.482315 960.5211 71.574715 959.3163 71.574715 957.6481 C 63.677856 957.7037 54.23885 957.7037 45.70946 957.6481 Z"/>
            <path id="path2985-3-3-2" fill="#000000" stroke="none" d="M 162.4501 957.6481 C 162.4501 959.3163 162.35771 960.5211 162.35771 962.1894 C 165.8064 962.1894 169.54314 962.1894 172.99182 962.1894 C 172.99182 966.1548 172.99182 966.4353 172.99182 970.40076 C 166.26003 970.1839 158.97443 969.6839 152.67012 972.46173 C 147.79027 975.13995 146.44376 981.3744 147.42764 986.4998 C 148.26974 992.28235 151.48445 997.4177 155.67822 1001.37274 C 161.13554 1007.21 168.09541 1011.1505 175.3617 1014.3212 C 182.77876 1011.0969 189.89207 1007.02747 195.41861 1001.0362 C 200.3965 996.35834 203.71317 989.7467 203.61125 982.82446 C 203.71925 977.82794 200.6242 972.54803 195.51913 971.45776 C 189.808 969.8762 184.0277 970.1568 178.16489 970.40076 C 178.16489 966.4353 178.16489 966.1548 178.16489 962.1894 C 181.61354 962.1894 184.77425 962.1894 188.22293 962.1894 C 188.22293 960.5211 188.31532 959.3163 188.31532 957.6481 C 180.41846 957.7037 170.97943 957.7037 162.45004 957.6481 Z"/>
            <path id="path2985-3-34-7" fill="#000000" stroke="none" d="M 162.45009 890.8997 C 162.45009 892.56793 162.35779 893.7728 162.35779 895.44104 C 165.80647 895.44104 169.54321 895.44104 172.9919 895.44104 C 172.9919 899.4065 172.9919 899.68695 172.9919 903.65247 C 166.2601 903.43555 158.9745 902.9356 152.6702 905.71344 C 147.79034 908.3916 146.44386 914.6261 147.42772 919.75146 C 148.26984 925.53406 151.48453 930.6694 155.67831 934.6244 C 161.13562 940.4617 168.0955 944.40216 175.36176 947.5729 C 182.7788 944.34863 189.89214 940.2792 195.41869 934.28796 C 200.39658 929.60986 203.71323 922.99835 203.61131 916.0761 C 203.71931 911.07965 200.6243 905.7997 195.5192 904.7094 C 189.80806 903.1278 184.02777 903.40845 178.16495 903.65247 C 178.16495 899.68695 178.16495 899.4065 178.16495 895.44104 C 181.61363 895.44104 184.77432 895.44104 188.22302 895.44104 C 188.22302 893.7728 188.31543 892.56793 188.31543 890.8997 C 180.41853 890.95526 170.97952 890.95526 162.45015 890.8997 Z"/>
            <path id="path2985-3-11-7" fill="#000000" stroke="none" d="M 212.48766 991.0222 C 212.48766 991.57825 212.45686 991.9799 212.45686 992.536 C 213.60641 992.536 214.85199 992.536 216.00157 992.536 C 216.00157 993.8578 216.00157 993.95135 216.00157 995.27313 C 213.75764 995.2008 211.32909 995.0342 209.22765 995.9601 C 207.60104 996.85284 207.15224 998.931 207.48016 1000.6395 C 207.76085 1002.567 208.83244 1004.2787 210.23035 1005.5971 C 212.04945 1007.5429 214.36943 1008.8563 216.7915 1009.9132 C 219.26387 1008.8385 221.63496 1007.482 223.47717 1005.4849 C 225.13646 1003.9256 226.24203 1001.7218 226.20804 999.4143 C 226.24403 997.74884 225.21234 995.98883 223.51067 995.6254 C 221.60693 995.09827 219.68019 995.1918 217.7259 995.27313 C 217.7259 993.95135 217.7259 993.8578 217.7259 992.536 C 218.87546 992.536 219.92905 992.536 221.07858 992.536 C 221.07858 991.9799 221.10928 991.57825 221.10928 991.0222 C 218.47699 991.0408 215.33067 991.0408 212.48753 991.0222 Z"/>
            <path id="path881" fill="#000000" stroke="none" d="M 26.620136 740.93054 Q 26.620136 746.97644 24.51537 750.7623 Q 21.87967 755.5141 16.399689 755.5141 Q 13.195133 755.5141 11.109327 754.2199 Q 8.587398 752.636 8.587398 749.5454 Q 8.587398 748.8694 9.51653 748.8694 L 12.322887 748.8694 Q 12.872781 748.8694 13.252018 749.50684 Q 13.820874 750.4533 14.124264 750.72375 Q 14.901702 751.36115 16.399689 751.36115 Q 18.921618 751.36115 20.324797 748.96594 Q 21.424585 747.03436 21.557318 744.2142 Q 19.33878 746.0106 16.247993 746.0106 Q 12.322887 746.0106 9.990577 743.19055 Q 7.791 740.5442 7.791 736.4685 Q 7.791 732.1804 10.199157 729.68866 Q 12.607315 727.17755 16.797888 727.17755 Q 26.620136 727.17755 26.620136 740.93054 Z M 21.443546 736.5844 Q 21.443546 734.4789 20.324797 733.0109 Q 19.092276 731.38837 17.101278 731.38837 Q 15.053396 731.38837 13.839837 732.9723 Q 12.740047 734.421 12.740047 736.5844 Q 12.740047 738.78644 13.820874 740.2158 Q 14.99651 741.78033 17.101278 741.78033 Q 19.187084 741.78033 20.36272 740.1964 Q 21.443546 738.7671 21.443546 736.5844 Z"/>
            <path id="path884" fill="#000000" stroke="none" d="M 207.37987 1030.7938 Q 207.37987 1024.7479 209.48463 1020.9619 Q 212.12033 1016.2102 217.60033 1016.2102 Q 220.8049 1016.2102 222.89069 1017.5044 Q 225.41261 1019.0883 225.41261 1022.1788 Q 225.41261 1022.855 224.48347 1022.855 L 221.67712 1022.855 Q 221.12723 1022.855 220.74799 1022.2175 Q 220.17912 1021.271 219.87573 1021.0006 Q 219.09831 1020.3631 217.60033 1020.3631 Q 215.07838 1020.3631 213.67522 1022.7584 Q 212.57541 1024.69 212.44269 1027.51 Q 214.66122 1025.7137 217.75203 1025.7137 Q 221.67712 1025.7137 224.00941 1028.5339 Q 226.20901 1031.18 226.20901 1035.2559 Q 226.20901 1039.544 223.80086 1042.0356 Q 221.39268 1044.5468 217.20212 1044.5468 Q 207.37987 1044.5468 207.37987 1030.7938 Z M 212.55646 1035.1399 Q 212.55646 1037.2452 213.67522 1038.7133 Q 214.90775 1040.3359 216.89873 1040.3359 Q 218.9466 1040.3359 220.16016 1038.752 Q 221.25996 1037.3033 221.25996 1035.1399 Q 221.25996 1032.9377 220.17912 1031.5085 Q 219.0035 1029.9438 216.89873 1029.9438 Q 214.81291 1029.9438 213.63728 1031.5278 Q 212.55646 1032.9572 212.55646 1035.1399 Z"/>
        </g>
    </g>
</svg>
