<svg width="234" height="333.00003" xmlns="http://www.w3.org/2000/svg">
    <g id="layer1" transform="matrix(1 0 0 1 0 -719.3622)">
        <g id="g919">
            <path id="rect4266" fill="#ffffff" stroke="#808080" stroke-width="0.7559055" d="M 9.297138 719.7401 L 224.70288 719.7401 C 229.6288 719.7401 233.62206 723.74524 233.62206 728.68585 L 233.62206 1043.0385 C 233.62207 1045.411 232.68237 1047.6864 231.0097 1049.3641 C 229.33702 1051.0417 227.06839 1051.9843 224.70288 1051.9843 L 9.297138 1051.9843 C 6.9316134 1051.9843 4.662975 1051.0417 2.9903018 1049.3641 C 1.3176281 1047.6864 0.3779376 1045.411 0.37795275 1043.0385 L 0.37795275 728.68585 C 0.37795484 723.74524 4.3712096 719.7401 9.297138 719.7401 Z"/>
            <g id="g4233" transform="matrix(0.07348588 0 0 0.07370838 -248.0173 933.60065)"/>
            <g id="g4211" transform="matrix(0.07348588 0 0 0.07370838 -248.01726 933.60065)"/>
            <g id="g4227" transform="matrix(0.07348588 0 0 0.07370838 -248.0173 933.60065)"/>
            <path id="path2985-3-11" fill="#000000" stroke="none" d="M 12.898825 780.7021 C 12.898825 780.14606 12.868036 779.7444 12.868036 779.1883 C 14.017601 779.1883 15.263182 779.1883 16.412743 779.1883 C 16.412743 777.8665 16.412743 777.77295 16.412743 776.4512 C 14.168812 776.52356 11.740283 776.6902 9.638841 775.7642 C 8.012223 774.87146 7.563393 772.7933 7.8913465 771.08484 C 8.172051 769.1573 9.243621 767.44556 10.64154 766.1272 C 12.460648 764.18146 14.78061 762.868 17.20269 761.81104 C 19.675045 762.8858 22.046156 764.2423 23.888336 766.2394 C 25.547632 767.7987 26.653187 770.00256 26.619223 772.31 C 26.655212 773.97546 25.623537 775.7355 23.921839 776.0989 C 22.018133 776.6261 20.091366 776.53253 18.137093 776.4512 C 18.137093 777.77295 18.137093 777.8665 18.137093 779.1883 C 19.286654 779.1883 20.340212 779.1883 21.489779 779.1883 C 21.489779 779.7444 21.52057 780.14606 21.52057 780.7021 C 18.888287 780.68353 15.741945 780.68353 12.898819 780.7021 Z"/>
            <path id="path2985-3-11-7" fill="#000000" stroke="none" d="M 212.48766 991.0222 C 212.48766 991.57825 212.45686 991.9799 212.45686 992.536 C 213.60641 992.536 214.85199 992.536 216.00157 992.536 C 216.00157 993.8578 216.00157 993.95135 216.00157 995.27313 C 213.75764 995.2008 211.32909 995.0342 209.22765 995.9601 C 207.60104 996.85284 207.15224 998.931 207.48016 1000.6395 C 207.76085 1002.567 208.83244 1004.2787 210.23035 1005.5971 C 212.04945 1007.5429 214.36943 1008.8563 216.7915 1009.9132 C 219.26387 1008.8385 221.63496 1007.482 223.47717 1005.4849 C 225.13646 1003.9256 226.24203 1001.7218 226.20804 999.4143 C 226.24403 997.74884 225.21234 995.98883 223.51067 995.6254 C 221.60693 995.09827 219.68019 995.1918 217.7259 995.27313 C 217.7259 993.95135 217.7259 993.8578 217.7259 992.536 C 218.87546 992.536 219.92905 992.536 221.07858 992.536 C 221.07858 991.9799 221.10928 991.57825 221.10928 991.0222 C 218.47699 991.0408 215.33067 991.0408 212.48753 991.0222 Z"/>
            <path id="path2985-3-3" fill="#000000" stroke="none" d="M 45.70946 814.07623 C 45.70946 812.408 45.61708 811.2032 45.61708 809.5349 C 49.065784 809.5349 52.80252 809.5349 56.2512 809.5349 C 56.2512 805.5695 56.2512 805.289 56.2512 801.3236 C 49.519413 801.5405 42.23382 802.0404 35.9295 799.2626 C 31.049646 796.58435 29.703152 790.3499 30.687014 785.2245 C 31.529135 779.44196 34.743835 774.30664 38.937595 770.3516 C 44.39492 764.5143 51.354813 760.5737 58.621044 757.40314 C 66.03811 760.6274 73.15144 764.6969 78.67798 770.6881 C 83.65587 775.366 86.97254 781.9776 86.87064 788.89984 C 86.978615 793.89636 83.883575 799.1763 78.77849 800.26654 C 73.067375 801.84814 67.28707 801.56757 61.424263 801.3236 C 61.424263 805.289 61.424263 805.5695 61.424263 809.5349 C 64.87294 809.5349 68.033615 809.5349 71.482315 809.5349 C 71.482315 811.2032 71.574715 812.408 71.574715 814.07623 C 63.677856 814.0206 54.23885 814.0206 45.70946 814.07623 Z"/>
            <path id="path2985-3-3-5" fill="#000000" stroke="none" d="M 162.45012 814.07623 C 162.45012 812.408 162.35773 811.2032 162.35773 809.5349 C 165.80643 809.5349 169.54317 809.5349 172.99185 809.5349 C 172.99185 805.5695 172.99185 805.289 172.99185 801.3236 C 166.26006 801.5405 158.97447 802.0404 152.67015 799.2626 C 147.79028 796.58435 146.44379 790.3499 147.42766 785.2245 C 148.26978 779.44196 151.48448 774.30664 155.67824 770.3516 C 161.13557 764.5143 168.09546 760.5737 175.3617 757.40314 C 182.77876 760.6274 189.89209 764.6969 195.41862 770.6881 C 200.39651 775.366 203.71318 781.9776 203.6113 788.89984 C 203.71925 793.89636 200.62424 799.1763 195.51913 800.26654 C 189.808 801.84814 184.02773 801.56757 178.1649 801.3236 C 178.1649 805.289 178.1649 805.5695 178.1649 809.5349 C 181.61359 809.5349 184.77426 809.5349 188.22296 809.5349 C 188.22296 811.2032 188.31537 812.408 188.31537 814.07623 C 180.4185 814.0206 170.97949 814.0206 162.4501 814.07623 Z"/>
            <path id="path2985-3-38-2" fill="#000000" stroke="none" d="M 45.70946 957.6481 C 45.70946 959.3163 45.61708 960.5211 45.61708 962.1894 C 49.065784 962.1894 52.80252 962.1894 56.2512 962.1894 C 56.2512 966.1548 56.2512 966.4353 56.2512 970.40076 C 49.519413 970.1839 42.23382 969.6839 35.9295 972.46173 C 31.049646 975.13995 29.703152 981.3744 30.687014 986.4998 C 31.529135 992.28235 34.743835 997.4177 38.937595 1001.37274 C 44.39492 1007.21 51.354813 1011.1506 58.621044 1014.3212 C 66.03811 1011.0969 73.15144 1007.02747 78.67798 1001.0362 C 83.65587 996.35834 86.97254 989.7467 86.87064 982.82446 C 86.978615 977.828 83.883575 972.54803 78.77849 971.45776 C 73.067375 969.8762 67.28707 970.1568 61.424263 970.40076 C 61.424263 966.4353 61.424263 966.1548 61.424263 962.1894 C 64.87294 962.1894 68.033615 962.1894 71.482315 962.1894 C 71.482315 960.5211 71.574715 959.3163 71.574715 957.6481 C 63.677856 957.7037 54.23885 957.7037 45.70946 957.6481 Z"/>
            <path id="path2985-3-38-2-3" fill="#000000" stroke="none" d="M 162.45012 957.6481 C 162.45012 959.3163 162.35773 960.5212 162.35773 962.1894 C 165.80643 962.1894 169.54317 962.1894 172.99184 962.1894 C 172.99184 966.1548 172.99184 966.4353 172.99184 970.40076 C 166.26006 970.1839 158.97446 969.6839 152.67014 972.46173 C 147.79028 975.13995 146.44379 981.3744 147.42766 986.4998 C 148.26978 992.28235 151.48448 997.4177 155.67824 1001.37274 C 161.13556 1007.21 168.09544 1011.1506 175.3617 1014.3212 C 182.77876 1011.0969 189.89207 1007.02747 195.41862 1001.0362 C 200.39651 996.35834 203.71318 989.74677 203.61128 982.82446 C 203.71925 977.828 200.62424 972.54803 195.51913 971.45776 C 189.808 969.8762 184.02771 970.1568 178.1649 970.40076 C 178.1649 966.4353 178.1649 966.1548 178.1649 962.1894 C 181.61359 962.1894 184.77425 962.1894 188.22296 962.1894 C 188.22296 960.5212 188.31537 959.3163 188.31537 957.6481 C 180.4185 957.7037 170.97949 957.7037 162.4501 957.6481 Z"/>
            <g id="text3755-5" transform="matrix(0.9367271 0 0 1.0675468 0 0)">
                <path id="path899" fill="#000000" stroke="none" d="M 28.418243 706.77167 Q 28.418243 707.15826 28.270983 707.5264 Q 27.939651 707.7105 27.571499 707.7105 L 15.753885 707.7105 Q 14.391731 707.7105 14.391731 706.3299 Q 14.391731 706.109 14.428551 705.5568 Q 14.465361 705.0046 14.465361 704.71 Q 14.465361 704.0658 14.741473 703.8817 Q 14.943956 703.75287 15.64344 703.75287 L 20.245316 703.75287 L 20.245316 700.9181 L 9.918709 700.9181 Q 8.317257 700.9181 8.317257 699.4271 Q 8.317257 699.1693 8.372479 698.48834 Q 8.427702 697.7888 8.427702 697.3838 Q 8.427702 696.75806 9.145594 695.8192 L 19.785128 681.8295 Q 20.28213 681.1669 21.036837 681.1669 L 23.466627 681.1669 Q 24.33178 681.1669 24.33178 682.124 L 24.33178 697.1446 Q 24.99445 697.1446 25.841192 697.10785 Q 26.706348 697.071 26.945644 697.071 Q 27.939651 697.071 28.178947 697.568 Q 28.418243 698.0466 28.418243 699.96094 Q 28.418243 700.31067 28.363024 700.49475 Q 28.25258 700.91815 27.516281 700.91815 L 24.331781 700.91815 L 24.331781 703.75287 Q 25.01286 703.75287 25.878012 703.71606 Q 26.743166 703.67926 26.964054 703.67926 Q 28.013285 703.67926 28.234173 704.21313 Q 28.418247 704.65485 28.418247 706.7718 Z M 20.318945 687.0757 Q 19.306532 688.6219 12.845502 697.1446 L 20.245316 697.1446 Q 20.245316 696.16895 20.208494 693.79443 Q 20.153275 691.64075 20.171675 690.42584 Q 20.190084 688.58514 20.318935 687.0757 Z"/>
            </g>
            <g id="text3755-2-28" transform="matrix(-0.9367271 0 0 -1.0675468 0 0)">
                <path id="path902" fill="#000000" stroke="none" d="M -221.38771 -952.8504 Q -221.38771 -952.46387 -221.53497 -952.0957 Q -221.86632 -951.9117 -222.23447 -951.9117 L -234.05205 -951.9117 Q -235.41422 -951.9117 -235.41422 -953.29224 Q -235.41422 -953.51306 -235.37741 -954.0653 Q -235.34062 -954.61755 -235.34062 -954.9121 Q -235.34062 -955.55634 -235.0645 -955.7404 Q -234.86205 -955.86926 -234.16255 -955.86926 L -229.56067 -955.86926 L -229.56067 -958.70404 L -239.88728 -958.70404 Q -241.48874 -958.70404 -241.48874 -960.19495 Q -241.48874 -960.45276 -241.43353 -961.1338 Q -241.37833 -961.8333 -241.37833 -962.2383 Q -241.37833 -962.8642 -240.66045 -963.8029 L -230.02089 -977.7926 Q -229.52388 -978.45526 -228.7692 -978.45526 L -226.33942 -978.45526 Q -225.47426 -978.45526 -225.47426 -977.4981 L -225.47426 -962.4775 Q -224.81158 -962.4775 -223.96483 -962.51434 Q -223.09969 -962.55115 -222.8604 -962.55115 Q -221.8664 -962.55115 -221.62709 -962.05414 Q -221.3878 -961.57556 -221.3878 -959.6612 Q -221.3878 -959.31146 -221.443 -959.1274 Q -221.55344 -958.7039 -222.28973 -958.7039 L -225.47426 -958.7039 L -225.47426 -955.86926 Q -224.79317 -955.86926 -223.92801 -955.90607 Q -223.06285 -955.9428 -222.84196 -955.9428 Q -221.79276 -955.9428 -221.57185 -955.40894 Q -221.38777 -954.9672 -221.38777 -952.8504 Z M -229.48701 -972.54645 Q -230.49944 -971.00024 -236.96043 -962.4775 L -229.56065 -962.4775 Q -229.56065 -963.4532 -229.59744 -965.82776 Q -229.65265 -967.9814 -229.63425 -969.1962 Q -229.61584 -971.0371 -229.48698 -972.54645 Z"/>
            </g>
        </g>
    </g>
</svg>
